<?xml version="1.0" standalone="no"?>
<!DOCTYPE svg PUBLIC "-//W3C//DTD SVG 20010904//EN" "http://www.w3.org/TR/2001/REC-SVG-20010904/DTD/svg10.dtd">
<svg width="515.0630074003786mm" height="811.9181515562257mm"  viewBox="0 0 515.0630074003786 811.9181515562257" xmlns="http://www.w3.org/2000/svg">
    <title>Bezier Curve : ll_mm5_NeckFinishTop.001</title>
    <desc>This is an exported Bezier xml_path from Blender, using the ExportScript by maybites.ch and Craxic</desc>
<path style="fill:none;stroke:#000000;stroke-width:1px;stroke-linecap:butt;stroke-linejoin:miter;stroke-opacity:1" d="M3.0207972704209,422.08581878247344 C2.623377334994501,349.6502002561992 2.2259693204971995,277.21458172992493 1.8285493850708008,204.77896320365073 C16.617224913666774,169.91203362983276 31.405900442262748,135.04510405601476 46.19457597085872,100.17817448219677 C48.094116423511,100.17817448219677 49.993668797092425,100.17817448219677 51.8932092497447,100.17817448219677 C70.90512426311633,132.80170440252937 89.91703927648796,165.42521048100366 108.92896025032415,198.04874040133623 C157.34061043727485,198.04874040133623 205.752254663761,198.04874040133623 254.1639048507117,198.04874040133623 C275.4060886141291,165.42521048100366 296.64826641708186,132.80170440252937 317.8904442200346,100.17817448219677 C319.78985354246646,100.17817448219677 321.6892628648983,100.17817448219677 323.5886721873301,100.17817448219677 C336.1552150000134,135.04510405601476 348.7217697336259,169.91203362983276 361.2883125463092,204.77896320365073 C360.8909045318119,277.21458172992493 360.4934965173146,349.6502002561992 360.09608850281734,422.08581878247344 C344.7679313263204,443.7945936726097 329.4397622288943,465.50335664181694 314.1116050523974,487.21213153195333 C293.24840550750275,470.8419063353202 272.3852000021435,454.47166921775795 251.52199449678423,438.10144402112485 C241.45143794451482,438.10144402112485 231.38087841201315,438.10144402112485 221.31031887951144,438.10144402112485 C221.31031291904688,430.27424539908884 221.31030695858232,422.4470467770529 221.31030099811775,414.61984815501694 C251.54024543928642,414.61984815501694 281.77018988045506,414.61984815501694 312.00013432162376,414.61984815501694 C312.00013432162376,346.10464771122463 312.00013432162376,277.58945322789685 312.00013432162376,209.07425278410452 C226.99227477854078,209.07425278410452 141.9844152354578,209.07425278410452 56.97655569237479,209.07425278410452 C56.97655569237479,277.58945322789685 56.97655569237479,346.10464771122463 56.97655569237479,414.61984815501694 C87.33659919363333,414.61984815501694 117.69663077396274,414.61984815501694 148.05667129498897,414.61984815501694 C148.05667427522127,422.4470467770529 148.05667427522127,430.27424539908884 148.05667725545356,438.10144402112485 C135.90274462214398,438.10144402112485 123.74881496906673,438.10144402112485 111.59487935552491,438.10144402112485 C90.73167385016565,454.47166921775795 69.8684683448064,470.8419063353202 49.00526879991173,487.21213153195333 C33.67711162341479,465.50335664181694 18.348954446917844,443.7945936726097 3.0207972704209,422.08581878247344 Z "/>
<path style="fill:none;stroke:#000000;stroke-width:1px;stroke-linecap:butt;stroke-linejoin:miter;stroke-opacity:1" d="M515.6993208210283,-134.70334928911188 C516.0967407564549,-62.26773076283763 516.494136850023,10.167887763436568 516.8915567854494,82.6035062897108 C502.10288125685344,117.47043586352879 487.3141818863992,152.33736543734676 472.5255063578032,187.20429501116473 C470.6259539842218,187.2042830902356 468.72642545249863,187.2042830902356 466.82687307891723,187.20427116930648 C447.81496998647475,154.58075316990303 428.80304305217396,121.95724709142874 409.7911399597315,89.3337290920253 C361.3794838123162,89.33370525016704 312.96783958583006,89.33370525016704 264.5561893988794,89.33368140830876 C243.314005635462,121.95721132864134 222.07182187204464,154.5807412489739 200.82963810862728,187.20427116930648 C198.93022878619547,187.20425924837735 197.03081946376363,187.20425924837735 195.13141014133183,187.20424732744823 C182.5648673286485,152.33731775363023 169.99832451596518,117.47038817981223 157.43178170328184,82.60345860599426 C157.82919865847597,10.167840079720065 158.2266126334378,-62.26777844655419 158.62402958863197,-134.70339697282844 C173.95219570582574,-156.41217186296473 189.28035884278725,-178.12089906938456 204.60852495998103,-199.8296739595209 C225.4717245048757,-183.45942492102955 246.3349240497704,-167.0892235662547 267.19812359466505,-150.7189745277633 C277.26868014693446,-150.7189745277633 287.33923669920387,-150.7189745277633 297.40979921193787,-150.7189745277633 C297.40979921193787,-139.9801724115659 297.409811132867,-129.24132261165204 297.409811132867,-118.50252049545463 C269.73513573268923,-118.50252049545463 242.06046033251147,-118.50252049545463 214.3857849323337,-118.50252049545463 C214.38577599163688,-54.37054436586351 214.38577003117229,9.761384080011055 214.38576109047546,73.89336020960212 C294.2830825515766,73.89336020960212 374.1804159336069,73.89338405146037 454.0777493156373,73.89338405146037 C454.0777493156373,9.761407921869306 454.0777493156373,-54.37054436586351 454.0777493156373,-118.50252049545463 C426.2729927367633,-118.50252049545463 398.4682123160311,-118.50252049545463 370.66344381622804,-118.50252049545463 C370.66344381622804,-129.24132261165204 370.66344381622804,-139.9801724115659 370.66344381622804,-150.7189745277633 C382.81737942976986,-150.7189745277633 394.97130312238255,-150.7189745277633 407.1252387359244,-150.7189745277633 C427.9884382808191,-167.0892235662547 448.85166166757205,-183.45942492102955 469.7148612124667,-199.8296739595209 C485.04300646803455,-178.12089906938456 500.3711755654606,-156.41212417924822 515.6993208210283,-134.70334928911188 Z "/>
<path style="fill:none;stroke:#000000;stroke-width:1px;stroke-linecap:butt;stroke-linejoin:miter;stroke-opacity:1" d="M515.6992969791702,290.180821375499 C516.0966930727383,362.6164399017733 516.4941130081647,435.05205842804753 516.8915091017329,507.4876769543217 C502.1028335731369,542.3546184490688 487.3141580445409,577.2215480228867 472.52548251594493,612.0884775967048 C470.62593014236353,612.0884775967048 468.7264016106404,612.0884537548466 466.826849237059,612.0884537548466 C447.81494614461644,579.4649476763723 428.8030192103157,546.8414177560396 409.79111611787323,514.2179116775653 C361.3794599704579,514.2178878357071 312.96781574397176,514.2178878357071 264.5561655570211,514.2178639938488 C243.31398179360372,546.8413939141814 222.07179803018636,579.4649238345139 200.82961426676903,612.0884537548466 C198.9302049443372,612.0884537548466 197.03079562190538,612.0884299129882 195.13138629947355,612.0884299129882 C182.56484348679024,577.2215003391702 169.9983006741069,542.3545707653523 157.4317578614236,507.4876531124635 C157.82917481661772,435.0520345861892 158.22658879157956,362.616416059915 158.6240057467737,290.18079753364077 C173.95217186396746,268.4720256237367 189.28033500092897,246.76325967429722 204.60850111812277,225.05448478416088 C225.47170066301746,241.42472190172313 246.33490020791214,257.79494709835626 267.1980997528068,274.1651842159185 C277.2686563050762,274.1651842159185 287.3392128573456,274.1651842159185 297.4097753700796,274.1651842159185 C297.4097753700796,284.90401315420644 297.40978729100874,295.6428391122621 297.40978729100874,306.38166805055 C269.735111890831,306.3816660016403 242.06043649065322,306.3816641389951 214.38576109047546,306.38166209008546 C214.3857521497786,370.5136262987474 214.38574618931403,434.6455785864802 214.38573724861718,498.77754279514215 C294.2830587097184,498.77755471607134 374.1803682498904,498.77755471607134 454.0777016319207,498.77756663700046 C454.07772547377897,434.6456024283385 454.07772547377897,370.51365014060565 454.0777493156373,306.3816859319437 C426.27296889490503,306.381683883034 398.46818847417285,306.38168202038884 370.6634199743698,306.3816799714791 C370.6634199743698,295.6428480529589 370.6634199743698,284.90401613443873 370.6634199743698,274.1651842159185 C382.8173555879116,274.1651871961508 394.9712792805243,274.1651931566154 407.1252148940662,274.1651961368476 C427.98841443896083,257.7949649797499 448.8516378257138,241.42473978311682 469.71483737060845,225.05450862601916 C485.0429826261763,246.7632835161555 500.37115172360234,268.472049465595 515.6992969791702,290.180821375499 Z "/>
</svg>