<?xml version="1.0" encoding="UTF-8" standalone="no"?>
<svg
   xmlns:dc="http://purl.org/dc/elements/1.1/"
   xmlns:cc="http://creativecommons.org/ns#"
   xmlns:rdf="http://www.w3.org/1999/02/22-rdf-syntax-ns#"
   xmlns:svg="http://www.w3.org/2000/svg"
   xmlns="http://www.w3.org/2000/svg"
   xmlns:sodipodi="http://sodipodi.sourceforge.net/DTD/sodipodi-0.dtd"
   xmlns:inkscape="http://www.inkscape.org/namespaces/inkscape"
   width="2125.9841"
   height="3188.9763"
   viewBox="0 0 599.99997 899.99997"
   id="svg2"
   version="1.1"
   inkscape:version="0.48.5 r10040"
   sodipodi:docname="snowyOwl_big_sheet3.svg">
  <metadata
     id="metadata54">
    <rdf:RDF>
      <cc:Work
         rdf:about="">
        <dc:format>image/svg+xml</dc:format>
        <dc:type
           rdf:resource="http://purl.org/dc/dcmitype/StillImage" />
      </cc:Work>
    </rdf:RDF>
  </metadata>
  <defs
     id="defs52" />
  <sodipodi:namedview
     pagecolor="#ffffff"
     bordercolor="#666666"
     borderopacity="1"
     objecttolerance="10"
     gridtolerance="10"
     guidetolerance="10"
     inkscape:pageopacity="0"
     inkscape:pageshadow="2"
     inkscape:window-width="747"
     inkscape:window-height="480"
     id="namedview50"
     showgrid="false"
     units="cm"
     inkscape:zoom="0.15025985"
     inkscape:cx="1019.1228"
     inkscape:cy="273.6217"
     inkscape:window-x="160"
     inkscape:window-y="29"
     inkscape:window-maximized="0"
     inkscape:current-layer="svg2" />
  <title
     id="title4">Bezier Curve : BezierCircle.003</title>
  <desc
     id="desc6">This is an exported Bezier xml_path from Blender, using the ExportScript by maybites.ch and Craxic</desc>
  <path
     style="fill:none;stroke:#000000;stroke-width:0.03527778;stroke-linecap:butt;stroke-linejoin:miter;stroke-opacity:1;stroke-miterlimit:4;stroke-dasharray:none"
     d="m 197.36033,554.87829 c -11.10056,27.915 -22.20111,55.831 -33.30167,83.746 -2.95746,-3.41 -5.91492,-6.821 -8.87238,-10.231 -1.25915,1.092 -2.5183,2.184 -3.77745,3.276 -3.55327,-4.098 -7.10654,-8.195 -10.65981,-12.292 1.25916,-1.092 2.51831,-2.184 3.77746,-3.276 -10.91932,-12.592 -21.83864,-25.183 -32.75796,-37.775 -1.25915,1.092 -2.51831,2.184 -3.77746,3.276 -4.99778,-5.763 -9.995546,-11.526 -14.993324,-17.289 1.259148,-1.092 2.518296,-2.184 3.777444,-3.276 -2.459001,-2.836 -4.918003,-5.671 -7.377004,-8.507 29.401404,-6.812 58.802794,-13.624 88.204194,-20.436 1.90841,2.201 3.81682,4.402 5.72523,6.602 -10.64446,9.231 -21.28891,18.462 -31.93336,27.693 1.09155,1.258 2.18309,2.517 3.27463,3.776 10.64446,-9.231 21.2889,-18.462 31.93335,-27.693 3.58604,4.136 7.17207,8.271 10.75811,12.406 z"
     id="path8"
     inkscape:connector-curvature="0" />
  <path
     style="fill:none;stroke:#000000;stroke-width:0.03527778;stroke-linecap:butt;stroke-linejoin:miter;stroke-opacity:1;stroke-miterlimit:4;stroke-dasharray:none"
     d="m 263.77326,281.38729 c -10.53349,-28.134 -21.06698,-56.269 -31.60046,-84.403 4.48181,0.539 8.96363,1.078 13.44545,1.617 0.19899,-1.655 0.39798,-3.31 0.59697,-4.964 5.38472,0.647 10.76945,1.295 16.15417,1.942 -0.19899,1.655 -0.39799,3.31 -0.59698,4.964 16.54746,1.99 33.0949,3.98 49.64236,5.97 0.19899,-1.655 0.39798,-3.309 0.59697,-4.964 7.57377,0.911 15.14753,1.822 22.72131,2.732 -0.199,1.655 -0.39798,3.31 -0.59698,4.965 3.72645,0.448 7.45288,0.896 11.17933,1.344 -17.20013,24.799 -34.40024,49.598 -51.60036,74.398 -2.89206,-0.348 -5.78412,-0.696 -8.67618,-1.044 1.6822,-13.988 3.3644,-27.977 5.0466,-41.966 -1.65416,-0.199 -3.30831,-0.398 -4.96246,-0.597 -1.6822,13.989 -3.36441,27.978 -5.0466,41.966 -5.43438,-0.653 -10.86876,-1.307 -16.30314,-1.96 z"
     id="path10"
     inkscape:connector-curvature="0" />
  <path
     style="fill:none;stroke:#000000;stroke-width:0.03527778;stroke-linecap:butt;stroke-linejoin:miter;stroke-opacity:1;stroke-miterlimit:4;stroke-dasharray:none"
     d="m 87.689358,491.48829 c 8.156896,-70.557 16.313802,-141.115 24.470702,-211.672 15.27283,-26.25 30.54566,-52.5 45.8185,-78.751 15.08633,1.824 30.17265,3.647 45.25898,5.47 11.46048,22.557 22.92097,45.113 34.38146,67.669 13.51379,5.691 27.02757,11.382 40.54136,17.073 14.47299,-2.309 28.94599,-4.617 43.419,-6.926 16.51147,-19.176 33.02293,-38.352 49.53441,-57.528 15.08526,1.824 30.17052,3.647 45.25579,5.47 8.57964,29.133 17.15925,58.265 25.73888,87.398 -8.88648,70.469 -17.77293,140.938 -26.6594,211.407 -11.6437,9.164 -23.28741,18.327 -34.9311,27.491 -11.7744,-1.423 -23.5488,-2.846 -35.32319,-4.269 -16.86842,-12.61 -33.73682,-25.219 -50.60523,-37.828 -14.34011,-1.733 -28.68021,-3.466 -43.02032,-5.199 -14.34011,-1.733 -28.68022,-3.466 -43.02032,-5.199 -19.3866,8.228 -38.7732,16.455 -58.15981,24.683 -11.77439,-1.423 -23.54879,-2.846 -35.32319,-4.269 -9.12551,-11.673 -18.251015,-23.347 -27.376522,-35.02 z"
     id="path12"
     inkscape:connector-curvature="0" />
  <path
     style="fill:none;stroke:#000000;stroke-width:0.03527778;stroke-linecap:butt;stroke-linejoin:miter;stroke-opacity:1;stroke-miterlimit:4;stroke-dasharray:none"
     d="m 361.5881,419.56829 c 1.99966,-16.547 3.99933,-33.093 5.99899,-49.639 1.63574,0.198 3.2715,0.395 4.90724,0.593 -1.99966,16.546 -3.99932,33.093 -5.99898,49.639 -1.63576,-0.198 -3.2715,-0.396 -4.90725,-0.593 z"
     id="path14"
     inkscape:connector-curvature="0" />
  <path
     style="fill:none;stroke:#000000;stroke-width:0.03527778;stroke-linecap:butt;stroke-linejoin:miter;stroke-opacity:1;stroke-miterlimit:4;stroke-dasharray:none"
     d="m 161.29669,395.36229 c 1.99966,-16.546 3.99932,-33.093 5.99898,-49.639 3.30877,0.4 6.61755,0.8 9.92632,1.2 -1.99966,16.546 -3.99932,33.092 -5.99898,49.639 -3.30878,-0.4 -6.61755,-0.8 -9.92632,-1.2 z"
     id="path16"
     inkscape:connector-curvature="0" />
  <path
     style="fill:none;stroke:#000000;stroke-width:0.03527778;stroke-linecap:butt;stroke-linejoin:miter;stroke-opacity:1;stroke-miterlimit:4;stroke-dasharray:none"
     d="m 328.41599,472.98329 c -10.43071,-1.261 -20.86142,-2.521 -31.29213,-3.782 0.19769,-1.636 0.39537,-3.271 0.59306,-4.907 10.43071,1.26 20.86143,2.521 31.29214,3.782 -0.19769,1.635 -0.39538,3.271 -0.59307,4.907 z"
     id="path18"
     inkscape:connector-curvature="0" />
  <path
     style="fill:none;stroke:#000000;stroke-width:0.03527778;stroke-linecap:butt;stroke-linejoin:miter;stroke-opacity:1;stroke-miterlimit:4;stroke-dasharray:none"
     d="m 347.09094,318.45629 c -10.43071,-1.26 -20.86143,-2.521 -31.29213,-3.781 0.19768,-1.636 0.39536,-3.272 0.59305,-4.908 10.43071,1.261 20.86141,2.521 31.29212,3.782 -0.19769,1.636 -0.39536,3.272 -0.59304,4.907 z"
     id="path20"
     inkscape:connector-curvature="0" />
  <path
     style="fill:none;stroke:#000000;stroke-width:0.03527778;stroke-linecap:butt;stroke-linejoin:miter;stroke-opacity:1;stroke-miterlimit:4;stroke-dasharray:none"
     d="m 240.67259,305.59529 c -10.41803,-1.259 -20.83605,-2.518 -31.25408,-3.777 0.19769,-1.636 0.39537,-3.271 0.59305,-4.907 10.41803,1.259 20.83606,2.518 31.25408,3.777 -0.19768,1.636 -0.39537,3.272 -0.59305,4.907 z"
     id="path22"
     inkscape:connector-curvature="0" />
  <path
     style="fill:none;stroke:#000000;stroke-width:0.03527778;stroke-linecap:butt;stroke-linejoin:miter;stroke-opacity:1;stroke-miterlimit:4;stroke-dasharray:none"
     d="m 221.99765,460.12229 c -10.41802,-1.259 -20.83605,-2.518 -31.25407,-3.777 0.19768,-1.636 0.39537,-3.272 0.59305,-4.907 10.41803,1.259 20.83605,2.518 31.25407,3.777 -0.19768,1.635 -0.39536,3.271 -0.59305,4.907 z"
     id="path24"
     inkscape:connector-curvature="0" />
  <path
     style="fill:none;stroke:#000000;stroke-width:0.03527778;stroke-linecap:butt;stroke-linejoin:miter;stroke-opacity:1;stroke-miterlimit:4;stroke-dasharray:none"
     d="m 174.38671,246.59229 c -0.62328,0.489 -1.52543,0.38 -2.01431,-0.244 -0.44856,-0.571 -0.34852,-1.399 0.22336,-1.848 0.62328,-0.489 1.52543,-0.38 2.01431,0.244 0.44855,0.572 0.34852,1.399 -0.22336,1.848 z"
     id="path26"
     inkscape:connector-curvature="0" />
  <path
     style="fill:none;stroke:#000000;stroke-width:0.03527778;stroke-linecap:butt;stroke-linejoin:miter;stroke-opacity:1;stroke-miterlimit:4;stroke-dasharray:none"
     d="m 389.5882,272.60029 c 0.48888,0.623 1.39104,0.732 2.01432,0.243 0.57187,-0.449 0.6719,-1.276 0.22335,-1.848 -0.48888,-0.623 -1.39104,-0.732 -2.01432,-0.244 -0.57187,0.449 -0.6719,1.277 -0.22335,1.849 z"
     id="path28"
     inkscape:connector-curvature="0" />
  <path
     style="fill:none;stroke:#000000;stroke-width:0.03527778;stroke-linecap:butt;stroke-linejoin:miter;stroke-opacity:1;stroke-miterlimit:4;stroke-dasharray:none"
     d="m 359.75795,519.43129 c 0.48888,0.624 1.39103,0.733 2.0143,0.244 0.57187,-0.449 0.67191,-1.277 0.22336,-1.848 -0.48887,-0.624 -1.39102,-0.733 -2.01431,-0.244 -0.57187,0.449 -0.6719,1.276 -0.22335,1.848 z"
     id="path30"
     inkscape:connector-curvature="0" />
  <path
     style="fill:none;stroke:#000000;stroke-width:0.03527778;stroke-linecap:butt;stroke-linejoin:miter;stroke-opacity:1;stroke-miterlimit:4;stroke-dasharray:none"
     d="m 144.55645,493.42429 c -0.62328,0.489 -1.52543,0.38 -2.0143,-0.244 -0.44855,-0.572 -0.34852,-1.399 0.22335,-1.848 0.62328,-0.489 1.52544,-0.38 2.01431,0.243 0.44855,0.572 0.34851,1.4 -0.22336,1.849 z"
     id="path32"
     inkscape:connector-curvature="0" />
  <path
     style="fill:none;stroke:#000000;stroke-width:0.03527778;stroke-linecap:butt;stroke-linejoin:miter;stroke-opacity:1;stroke-miterlimit:4;stroke-dasharray:none"
     d="m 351.24319,113.57029 c 2.63285,-7.639 5.26571,-15.278993 7.89857,-22.917993 -1.58211,-0.545 -3.16421,-1.091 -4.74632,-1.636 -2.76114,8.012 -5.52226,16.022993 -8.2834,24.034993 -10.18341,0.518 -25.76759,12.497 -30.55022,1.554 -10.20714,-23.354993 26.56784,-35.278997 46.72227,-45.597997 76.84951,1.874 146.11726,25.747004 207.80325,71.618997 9.51746,20.545 31.13702,52.594 8.70805,64.701 -10.50925,5.673 -15.40368,-13.364 -23.10553,-20.046 2.76113,-8.012 5.52228,-16.023 8.2834,-24.035 -1.58209,-0.545 -3.16422,-1.09 -4.74631,-1.635 -2.63286,7.639 -5.26572,15.278 -7.89857,22.917 -60.28018,-41.599 -126.97523,-64.585 -200.08519,-68.958 z"
     id="path34"
     inkscape:connector-curvature="0" />
  <path
     style="fill:none;stroke:#000000;stroke-width:0.03527778;stroke-linecap:butt;stroke-linejoin:miter;stroke-opacity:1;stroke-miterlimit:4;stroke-dasharray:none"
     d="m 50.719469,177.68729 c -2.566635,-7.662 -5.133259,-15.324 -7.699895,-22.986 -1.586771,0.532 -3.173542,1.063 -4.760313,1.595 2.691686,8.035 5.383361,16.07 8.075047,24.105 -7.759392,6.616 -12.818444,25.61 -23.278189,19.846 -22.32332305,-12.301 -0.427151,-44.162 9.267795,-64.624 C 94.404656,90.287297 163.87646,67.015293 240.73931,65.806293 c 20.06437,10.493 56.73475,22.735004 46.32583,46.000997 -4.87717,10.901 -20.35708,-1.213 -30.53562,-1.819 -2.69168,-8.035 -5.38336,-16.069993 -8.07504,-24.104993 -1.58677,0.531 -3.17353,1.063 -4.7603,1.594 2.56663,7.662 5.13326,15.323993 7.69989,22.985993 -73.14508,3.74 -140.03661,26.148 -200.674601,67.224 z"
     id="path36"
     inkscape:connector-curvature="0" />
  <path
     style="fill:none;stroke:#000000;stroke-width:0.03527778;stroke-linecap:butt;stroke-linejoin:miter;stroke-opacity:1;stroke-miterlimit:4;stroke-dasharray:none"
     d="m 329.35827,71.365293 c 0,-8.081 0,-16.161 0,-24.241 -1.67344,0 -3.34686,0 -5.0203,0 0,8.474 0,16.948 0,25.422 -9.45883,3.808 -20.2892,20.211004 -28.37649,11.424 -17.26,-18.755 13.62266,-42.011 29.315,-58.334 73.26619,-23.2680006 146.53236,-23.2680006 219.79856,0 15.69233,16.323 46.575,39.579 29.31499,58.334 -8.0873,8.787004 -18.91765,-7.616 -28.37648,-11.424 0,-8.474 0,-16.948 0,-25.422 -1.67344,0 -3.34687,0 -5.02031,0 0,8.08 0,16.16 0,24.241 -70.54498,-19.688 -141.08998,-19.688 -211.63497,0 z"
     id="path38"
     inkscape:connector-curvature="0" />
  <path
     style="fill:none;stroke:#000000;stroke-width:0.03527778;stroke-linecap:butt;stroke-linejoin:miter;stroke-opacity:1;stroke-miterlimit:4;stroke-dasharray:none"
     d="m 404.67568,184.17829 c 27.04332,6.509 54.08661,13.017 81.12993,19.526 13.08544,86.74 26.1709,173.479 39.25633,260.218 -6.38644,74.4 -12.77289,148.8 -19.15934,223.2 -47.45707,45.696 -94.91414,91.392 -142.37121,137.088 -42.28357,0 -84.56713,0 -126.85069,0 -47.45706,-45.696 -94.91412,-91.392 -142.371185,-137.088 -6.386483,-74.4 -12.772978,-148.8 -19.15946,-223.2 13.085413,-86.739 26.170815,-173.478 39.256235,-260.218 27.04333,-6.509 54.08666,-13.017 81.12999,-19.526 69.71313,0 139.42626,0 209.1394,0 z"
     id="path40"
     inkscape:connector-curvature="0" />
  <path
     style="fill:none;stroke:#000000;stroke-width:0.03527778;stroke-linecap:butt;stroke-linejoin:miter;stroke-opacity:1;stroke-miterlimit:4;stroke-dasharray:none"
     d="m 194.28009,153.93329 c 0,1.666 0,3.333 0,5 70.55059,0 141.10118,0 211.65178,0 0,-1.667 0,-3.334 0,-5 -70.5506,0 -141.10119,0 -211.65178,0 z"
     id="path42"
     inkscape:connector-curvature="0" />
  <path
     style="fill:none;stroke:#000000;stroke-width:0.03527778;stroke-linecap:butt;stroke-linejoin:miter;stroke-opacity:1;stroke-miterlimit:4;stroke-dasharray:none"
     d="m 194.27297,894.70829 c 0,-17.948 0,-35.897 0,-53.845 -1.66694,0 -3.33387,0 -5.00081,0 10e-6,17.948 2e-5,35.897 3e-5,53.845 -17.87566,0 -35.75132,0 -53.62698,0 2.22142,-17.237 4.44283,-34.474 6.66425,-51.711 -28.80545,-36.721 -57.610884,-73.442 -86.416331,-110.162 5.918145,-5.329 11.83629,-10.658 17.754436,-15.986 -1.115704,-1.239 -2.231408,-2.479 -3.347111,-3.718 -5.844784,5.263 -11.689568,10.526 -17.534352,15.788 -6.622279,-8.427 -13.244569,-16.855 -19.866848,-25.283 -1.433218,-15.361 -2.866447,-30.722 -4.299665,-46.083 6.82,-6.141 13.639987,-12.282 20.459986,-18.423 -1.115703,-1.239 -2.231407,-2.478 -3.34711,-3.717 -5.844772,5.263 -11.689556,10.525 -17.534328,15.788 -3.660703,-63.285 -14.941764,-115.715 -10.982085,-189.855 5.827141,-109.106 30.552424,-184.056 45.82863,-276.084 8.239329,3.842 16.47867,7.684 24.717998,11.526 0.704396,-1.511 1.408804,-3.021 2.1132,-4.532 -8.239329,-3.842 -16.47867,-7.684 -24.717999,-11.526 33.906913,-16.19 67.813829,-32.379 101.720739,-48.569 88.83156,0 177.66311,0 266.49466,0 33.90692,16.189 67.81381,32.379 101.72072,48.569 -8.23932,3.842 -16.47866,7.684 -24.71798,11.526 0.70441,1.511 1.4088,3.021 2.1132,4.532 8.23934,-3.842 16.47869,-7.684 24.71803,-11.526 15.27624,92.028 40.00153,166.978 45.8287,276.084 3.9597,74.14 -7.32138,126.57 -10.98209,189.855 -5.84478,-5.263 -11.68954,-10.525 -17.53433,-15.788 -1.1157,1.239 -2.2314,2.478 -3.34711,3.717 6.82002,6.141 13.64003,12.282 20.46004,18.423 -1.43321,15.361 -2.86641,30.722 -4.29962,46.083 -6.62229,8.428 -13.24456,16.856 -19.86685,25.283 -5.84478,-5.262 -11.68957,-10.525 -17.53435,-15.788 -1.1157,1.239 -2.23141,2.478 -3.34711,3.718 5.91815,5.328 11.83629,10.657 17.75444,15.986 -28.80545,36.72 -57.6109,73.441 -86.41635,110.162 2.22142,17.237 4.44286,34.474 6.66428,51.711 -17.87567,0 -35.75132,0 -53.62698,0 0,-17.948 0,-35.897 0,-53.845 -1.66693,0 -3.33385,0 -5.00078,0 0,17.948 0,35.897 0,53.845 -70.55539,0 -141.11078,0 -211.66617,0 z"
     id="path44"
     inkscape:connector-curvature="0" />
  <path
     style="fill:none;stroke:#000000;stroke-width:0.03527778;stroke-linecap:butt;stroke-linejoin:miter;stroke-opacity:1;stroke-miterlimit:4;stroke-dasharray:none"
     d="m 324.30508,693.51129 c -4.84203,1.393 -9.68407,2.786 -14.5261,4.179 -29.81135,-35.299 -59.6227,-70.599 -89.43404,-105.898 -6.8049,-23.835 -13.60979,-47.669 -20.41469,-71.504 11.93629,4.63 23.87258,9.259 35.80887,13.889 16.76333,14.487 33.52665,28.974 50.28998,43.462 2.72156,9.532 5.44312,19.065 8.16468,28.597 1.7613,-0.503 3.52259,-1.006 5.28389,-1.508 -2.72155,-9.533 -5.44311,-19.065 -8.16467,-28.598 5.71576,3.861 11.43151,7.722 17.14726,11.584 37.29942,-12.786 74.59884,-25.573 111.89826,-38.359 1.36062,4.766 2.72125,9.532 4.08187,14.297 1.59649,-0.455 3.19297,-0.911 4.78947,-1.367 -1.48266,-5.193 -2.96531,-10.386 -4.44796,-15.579 16.41998,-7.196 36.0898,-12.366 46.35813,-31.751 18.49763,-34.921 7.34806,-69.501 0.40226,-101.219 8.57618,-2.636 17.15233,-5.272 25.72851,-7.908 8.27153,39.599 21.55037,84.023 -3.36234,126.841 -31.44036,54.036 -91.37809,55.195 -137.06713,82.793 -10.84541,26.016 -21.69084,52.033 -32.53625,78.049 z"
     id="path46"
     inkscape:connector-curvature="0" />
  <path
     style="fill:none;stroke:#000000;stroke-width:0.03527778;stroke-linecap:butt;stroke-linejoin:miter;stroke-opacity:1;stroke-miterlimit:4;stroke-dasharray:none"
     d="m 220.62796,794.88829 c -4.93341,-1.024 -9.86683,-2.047 -14.80024,-3.071 -9.93285,-45.115 -19.86569,-90.23 -29.79853,-135.346 5.08287,-24.255 10.16574,-48.51 15.24861,-72.765 8.40487,9.656 16.80974,19.312 25.21461,28.968 8.08344,20.626 16.16689,41.251 24.25033,61.877 -2.03285,9.7 -4.06569,19.401 -6.09854,29.102 1.79273,0.375 3.58547,0.751 5.37821,1.127 2.03285,-9.701 4.0657,-19.401 6.09854,-29.102 3.25868,6.078 6.51735,12.157 9.77603,18.235 38.96072,6.066 77.92144,12.131 116.88216,18.197 -1.0163,4.85 -2.03262,9.699 -3.04893,14.549 1.62498,0.341 3.24997,0.681 4.87495,1.022 1.10746,-5.285 2.21492,-10.57 3.32238,-15.854 17.88133,1.284 37.69355,5.875 55.8115,-6.492 32.63279,-22.274 38.88093,-58.059 47.51204,-89.355 8.81657,1.664 17.63312,3.327 26.4497,4.991 -11.12931,38.884 -20.08114,84.37 -62.06775,110.641 -52.99687,33.161 -106.56934,6.259 -159.85401,9.388 -21.71702,17.962 -43.43404,35.925 -65.15106,53.888 z"
     id="path48"
     inkscape:connector-curvature="0" />
</svg>
