<?xml version="1.0" encoding="UTF-8" standalone="no"?>
<!DOCTYPE svg PUBLIC "-//W3C//DTD SVG 1.1//EN" "http://www.w3.org/Graphics/SVG/1.1/DTD/svg11.dtd">
<svg width="100%" height="100%" viewBox="0 0 2552 1560" version="1.1" xmlns="http://www.w3.org/2000/svg" xmlns:xlink="http://www.w3.org/1999/xlink" xml:space="preserve" xmlns:serif="http://www.serif.com/" style="fill-rule:evenodd;clip-rule:evenodd;">
    <g transform="matrix(1,0,0,1,6.5084,745.912)">
        <rect x="6.873" y="125.573" width="786.454" height="651.826" style="fill:none;stroke:black;stroke-width:2.83px;"/>
    </g>
    <g transform="matrix(1,0,0,1,6.5084,745.912)">
        <path d="M131.73,362.371C153.279,316.855 183.305,295.208 231.504,280.619C294.811,261.456 333.957,297.293 400.1,297.293C466.243,297.293 505.39,261.456 568.696,280.619C616.895,295.208 646.922,316.855 668.471,362.371C697.694,424.096 691.54,473.018 668.471,537.298C650.175,588.275 626.361,615.945 580.256,644.366C518.86,682.214 472.225,685.262 400.1,685.262C327.976,685.262 281.34,682.214 219.944,644.366C173.839,615.945 150.025,588.275 131.73,537.298C108.66,473.018 102.506,424.096 131.73,362.371Z" style="fill:none;stroke:black;stroke-width:2.83px;"/>
    </g>
    <g transform="matrix(1,0,0,1,6.5084,745.912)">
        <path d="M3.961,71.461C3.961,-190.691 3.961,-452.842 3.961,-714.993C221.237,-714.993 438.512,-714.993 655.787,-714.993C655.787,-452.842 655.787,-190.691 655.787,71.461C438.512,71.461 221.237,71.461 3.961,71.461Z" style="fill:none;stroke:black;stroke-width:2.83px;"/>
    </g>
    <g transform="matrix(1,0,0,1,6.5084,745.912)">
        <path d="M240.759,-53.396C195.244,-74.945 173.597,-104.971 159.007,-153.17C139.845,-216.477 175.682,-255.623 175.682,-321.766C175.682,-387.909 139.845,-427.056 159.007,-490.362C173.597,-538.561 195.244,-568.588 240.759,-590.137C302.484,-619.36 351.407,-613.206 415.686,-590.137C466.664,-571.841 494.333,-548.027 522.755,-501.923C560.603,-440.527 563.65,-393.891 563.65,-321.766C563.65,-249.642 560.603,-203.006 522.755,-141.61C494.333,-95.505 466.664,-71.691 415.686,-53.396C351.407,-30.326 302.484,-24.172 240.759,-53.396Z" style="fill:none;stroke:black;stroke-width:2.83px;"/>
    </g>
    <g transform="matrix(1,0,0,1,6.5084,745.912)">
        <path d="M2394.4,-156.584C2440.67,-81.948 2486.95,-7.311 2533.23,67.325C2533.42,162.842 2533.61,258.359 2533.8,353.875C2504.78,444.875 2475.75,535.874 2446.72,626.873C2380.07,684.051 2313.41,741.23 2246.76,798.408C2086.57,765.948 1926.38,733.488 1766.19,701.028C1705.64,657.145 1645.09,613.263 1584.55,569.38C1590.24,449.508 1595.93,329.636 1601.62,209.764C1632.39,93.77 1663.16,-22.225 1693.94,-138.219C1764.91,-161.769 1835.88,-185.319 1906.86,-208.869C2069.37,-191.441 2231.89,-174.012 2394.4,-156.584Z" style="fill:none;stroke:black;stroke-width:2.83px;"/>
    </g>
    <g transform="matrix(1,0,0,1,6.5084,745.912)">
        <path d="M2300.5,93.304C2402.94,233.012 2372.55,429.579 2232.71,531.831C2101.36,627.871 1916.95,598.953 1820.91,467.603C1718.91,328.111 1749.17,132.362 1888.53,30.181C2019.75,-66.035 2204.29,-37.916 2300.5,93.304Z" style="fill:none;stroke:black;stroke-width:2.83px;"/>
    </g>
    <g transform="matrix(1,0,0,1,6.5084,745.912)">
        <path d="M662.856,-438.419C719.902,-505.186 776.948,-571.953 833.995,-638.719C924.936,-667.926 1015.88,-697.134 1106.82,-726.341C1202.34,-726.337 1297.85,-726.333 1393.37,-726.329C1468.1,-680.201 1542.83,-634.073 1617.55,-587.946C1635.3,-425.466 1653.05,-262.987 1670.8,-100.508C1647.39,-29.488 1623.99,41.532 1600.58,112.552C1484.64,143.555 1368.71,174.558 1252.78,205.56C1132.91,211.488 1013.05,217.415 893.193,223.343C849.191,162.881 805.189,102.419 761.187,41.957C728.41,-118.168 695.633,-278.294 662.856,-438.419Z" style="fill:none;stroke:black;stroke-width:2.83px;"/>
    </g>
    <g transform="matrix(1,0,0,1,6.5084,745.912)">
        <path d="M929.46,-424.893C1031.43,-564.94 1227.94,-595.717 1367.85,-493.555C1499.26,-397.599 1527.75,-213.119 1431.79,-81.709C1329.88,57.849 1134.2,88.498 994.502,-13.22C862.963,-109 833.68,-293.354 929.46,-424.893Z" style="fill:none;stroke:black;stroke-width:2.83px;"/>
    </g>
</svg>
