<?xml version="1.0" encoding="UTF-8" standalone="no"?>
<svg
   xmlns:dc="http://purl.org/dc/elements/1.1/"
   xmlns:cc="http://creativecommons.org/ns#"
   xmlns:rdf="http://www.w3.org/1999/02/22-rdf-syntax-ns#"
   xmlns:svg="http://www.w3.org/2000/svg"
   xmlns="http://www.w3.org/2000/svg"
   xmlns:sodipodi="http://sodipodi.sourceforge.net/DTD/sodipodi-0.dtd"
   xmlns:inkscape="http://www.inkscape.org/namespaces/inkscape"
   width="2125.9841"
   height="3188.9763"
   viewBox="0 0 599.99995 900.00001"
   id="svg2"
   version="1.1"
   inkscape:version="0.48.5 r10040"
   sodipodi:docname="snowyOwl_big_sheet5.svg">
  <metadata
     id="metadata26">
    <rdf:RDF>
      <cc:Work
         rdf:about="">
        <dc:format>image/svg+xml</dc:format>
        <dc:type
           rdf:resource="http://purl.org/dc/dcmitype/StillImage" />
      </cc:Work>
    </rdf:RDF>
  </metadata>
  <defs
     id="defs24" />
  <sodipodi:namedview
     pagecolor="#ffffff"
     bordercolor="#666666"
     borderopacity="1"
     objecttolerance="10"
     gridtolerance="10"
     guidetolerance="10"
     inkscape:pageopacity="0"
     inkscape:pageshadow="2"
     inkscape:window-width="747"
     inkscape:window-height="480"
     id="namedview22"
     showgrid="false"
     units="cm"
     inkscape:zoom="0.087344643"
     inkscape:cx="1005.3268"
     inkscape:cy="1309.9178"
     inkscape:window-x="0"
     inkscape:window-y="0"
     inkscape:window-maximized="0"
     inkscape:current-layer="svg2" />
  <title
     id="title4">Bezier Curve : BezierCircle</title>
  <desc
     id="desc6">This is an exported Bezier xml_path from Blender, using the ExportScript by maybites.ch and Craxic</desc>
  <path
     style="fill:none;stroke:#000000;stroke-width:0.03527778;stroke-linecap:butt;stroke-linejoin:miter;stroke-opacity:1;stroke-miterlimit:4;stroke-dasharray:none"
     d="m 410.13788,661.39172 c -65.77834,30.259 -131.55666,60.517 -197.335,90.776 8.27813,-17.141 16.55628,-34.281 24.83441,-51.422 43.12999,-19.318 86.25998,-38.636 129.38997,-57.954 7.13546,3.446 14.27092,6.893 21.40638,10.339 0.72537,-1.502 1.45073,-3.004 2.1761,-4.506 -7.13545,-3.446 -14.27092,-6.892 -21.40637,-10.339 45.42192,-56.416 76.10628,-119.95 92.05308,-190.601 7.13545,3.446 14.27091,6.892 21.40636,10.338 0.72537,-1.502 1.45073,-3.004 2.1761,-4.506 -7.13545,-3.446 -14.2709,-6.892 -21.40636,-10.338 -11.68478,-45.792 -23.36956,-91.583 -35.05435,-137.374 8.27814,-17.141 16.55628,-34.281 24.83441,-51.422 17.48693,69.732 34.97386,139.464 52.46079,209.196 -17.10761,73.056 -48.95278,138.993 -95.53552,197.813 z"
     id="path8"
     inkscape:connector-curvature="0" />
  <path
     style="fill:none;stroke:#000000;stroke-width:0.03527778;stroke-linecap:butt;stroke-linejoin:miter;stroke-opacity:1;stroke-miterlimit:4;stroke-dasharray:none"
     d="m 407.46364,171.58772 c 27.04332,6.509 54.08661,13.017 81.12993,19.526 13.08545,86.74 26.17089,173.479 39.25634,260.218 -6.38645,74.4 -12.7729,148.8 -19.15935,223.2 -47.45707,45.696 -94.91414,91.392 -142.37121,137.088 -42.28357,0 -84.56713,0 -126.85069,0 -47.45707,-45.696 -94.91412,-91.392 -142.371181,-137.088 -6.386495,-74.4 -12.772966,-148.8 -19.159461,-223.2 13.085413,-86.739 26.170822,-173.478 39.256242,-260.218 27.04333,-6.509 54.08665,-13.017 81.12998,-19.526 69.71313,0 139.42626,0 209.1394,0 z"
     id="path10"
     inkscape:connector-curvature="0" />
  <path
     style="fill:none;stroke:#000000;stroke-width:0.03527778;stroke-linecap:butt;stroke-linejoin:miter;stroke-opacity:1;stroke-miterlimit:4;stroke-dasharray:none"
     d="m 197.06805,141.34272 c 0,1.666 0,3.333 0,5 70.5506,0 141.10118,0 211.65178,0 0,-1.667 0,-3.334 0,-5 -70.5506,0 -141.10118,0 -211.65178,0 z"
     id="path12"
     inkscape:connector-curvature="0" />
  <path
     style="fill:none;stroke:#000000;stroke-width:0.03527778;stroke-linecap:butt;stroke-linejoin:miter;stroke-opacity:1;stroke-miterlimit:4;stroke-dasharray:none"
     d="m 197.06093,882.11771 c 0,-17.948 0,-35.89699 0,-53.84499 -1.66694,0 -3.33387,0 -5.00081,0 2e-5,17.948 2e-5,35.89699 3e-5,53.84499 -17.87566,0 -35.75132,0 -53.62698,0 2.22142,-17.237 4.44283,-34.47399 6.66425,-51.71099 -28.80543,-36.721 -57.61088,-73.442 -86.416328,-110.162 5.918146,-5.329 11.836291,-10.658 17.754436,-15.986 -1.115703,-1.239 -2.231407,-2.479 -3.347111,-3.718 -5.844783,5.263 -11.689567,10.526 -17.534351,15.788 -6.622291,-8.427 -13.244558,-16.855 -19.866848,-25.283 -1.43323,-15.361 -2.866436,-30.722 -4.299665,-46.083 6.819987,-6.141 13.639999,-12.282 20.459986,-18.423 -1.115704,-1.239 -2.231407,-2.478 -3.347111,-3.717 -5.844784,5.263 -11.689544,10.525 -17.534328,15.788 -3.660702,-63.285 -14.941764,-115.715 -10.982084,-189.855 5.82714,-109.106 30.552412,-184.056 45.828629,-276.084 8.239341,3.842 16.478658,7.684 24.717999,11.526 0.704408,-1.511 1.408792,-3.021 2.113199,-4.532 -8.239341,-3.842 -16.478658,-7.684 -24.717998,-11.526 33.906915,-16.19 67.813825,-32.38 101.720735,-48.569 88.83156,0 177.66309,0 266.49465,0 33.90692,16.189 67.81382,32.379 101.72073,48.569 -8.23932,3.842 -16.47866,7.684 -24.71797,11.526 0.70439,1.511 1.4088,3.021 2.11319,4.532 8.23935,-3.842 16.47869,-7.684 24.71803,-11.527 15.27624,92.029 40.00153,166.979 45.8287,276.085 3.9597,74.14 -7.32138,126.57 -10.98209,189.855 -5.84478,-5.263 -11.68954,-10.525 -17.53432,-15.788 -1.11571,1.239 -2.23141,2.478 -3.34712,3.717 6.82002,6.141 13.64003,12.282 20.46004,18.423 -1.43321,15.361 -2.86641,30.722 -4.29962,46.083 -6.62229,8.428 -13.24456,16.856 -19.86685,25.283 -5.84478,-5.262 -11.68956,-10.525 -17.53435,-15.788 -1.1157,1.239 -2.23141,2.478 -3.34711,3.718 5.91815,5.328 11.83629,10.657 17.75444,15.986 -28.80545,36.72 -57.6109,73.441 -86.41634,110.162 2.22142,17.237 4.44284,34.47399 6.66427,51.71099 -17.87566,0 -35.75132,0 -53.62698,0 0,-17.948 0,-35.89699 0,-53.84499 -1.66692,0 -3.33385,0 -5.00078,0 0,17.948 0,35.89699 0,53.84499 -30.94454,0 -61.88908,0 -92.83363,0 -0.34093,-5.607 -2.6853,-11.635 -12.99945,-11.635 -10.31415,0 -12.65852,6.028 -12.99945,11.635 -30.94455,0 -61.88909,0 -92.83364,0 z"
     id="path14"
     inkscape:connector-curvature="0" />
  <path
     style="fill:none;stroke:#000000;stroke-width:0.03527778;stroke-linecap:butt;stroke-linejoin:miter;stroke-opacity:1;stroke-miterlimit:4;stroke-dasharray:none"
     d="m 309.91465,501.29972 c -8.08029,0 -16.16057,0 -24.24086,0 0,1.673 0,3.347 0,5.02 8.47396,0 16.94792,0 25.42189,0 12.34061,8.561 45.16969,10.092 37.02183,25.682 -17.93838,34.323 -77.82269,-20.091 -92.95438,-34.638 -5.39273,-16.981 -30.97818,7.481 -55.21545,11.222 -12.11867,1.87 -28.82974,-0.14 -32.65219,-13.375 -2.9341,-10.159 9.90048,-17.052 15.73072,-22.048 -10.845,0.379 -20.6935,-4.991 -23.50741,-15.652 -2.74104,-10.385 5.71101,-21.144 12.39131,-24.561 -7.89802,-4.091 -23.69409,-10.406 -23.69409,-37.468 0,-27.061 15.79607,-33.376 23.69409,-37.467 -6.6803,-3.417 -15.13235,-14.176 -12.39131,-24.561 2.81391,-10.661 12.66241,-16.031 23.50741,-15.652 -5.83024,-4.996 -18.66482,-11.889 -15.73072,-22.048 3.82244,-13.235 20.53352,-15.245 32.65219,-13.375 24.23727,3.741 49.82272,28.203 55.21545,11.222 15.13169,-14.547 75.01596,-68.961 92.95437,-34.638 8.14787,15.59 -24.68121,17.121 -37.02182,25.682 -8.47397,0 -16.94793,0 -25.42189,0 0,1.673 0,3.347 0,5.02 8.08029,0 16.16057,0 24.24086,0 -19.68746,70.545 -19.68746,141.09 0,211.635 z"
     id="path16"
     inkscape:connector-curvature="0" />
  <path
     style="fill:none;stroke:#000000;stroke-width:0.03527778;stroke-linecap:butt;stroke-linejoin:miter;stroke-opacity:1;stroke-miterlimit:4;stroke-dasharray:none"
     d="m 118.39844,277.00072 c 3.45478,3.974 6.90956,7.948 10.36434,11.923 1.2648,-1.1 2.52959,-2.199 3.79438,-3.299 -4.15076,-4.775 -8.30153,-9.549 -12.45229,-14.324 5.37255,-11.422 10.7451,-22.844 16.11765,-34.265 3.69993,1.647 7.39985,3.294 11.09979,4.941 0.67795,-1.522 1.35592,-3.045 2.03388,-4.568 -3.39751,-1.512 -6.79502,-3.025 -10.19252,-4.538 8.04804,-15.021 23.93095,-28.375 45.20762,-35.539 67.03078,-22.569 118.04042,-19.905 181.1382,3.021 24.53058,12.402 21.34462,46.115 42.68108,55.994 0,7.722 0,15.444 0,23.166 1.42739,0 2.85477,0 4.28216,0 0,5.833 0,11.667 0,17.5 -1.42739,-0.06 -2.85477,-0.128 -4.28216,-0.193 -0.0227,15.077 -0.0454,30.154 -0.0681,45.23 -6.86149,0.109 -13.72299,0.218 -20.58448,0.326 -0.0227,2.043 -0.0454,4.085 -0.0681,6.127 6.90688,0.09 13.81377,0.182 20.72065,0.272 0,14.15 0,28.299 0,42.448 -9.50684,0 -19.01368,0 -28.52051,0 0,1.688 0,3.376 0,5.064 9.50683,0 19.01367,0 28.52051,0 0,14.149 0,28.299 0,42.448 -6.90688,0.09 -13.81377,0.181 -20.72065,0.272 0.0227,2.042 0.0454,4.085 0.0681,6.127 6.86149,0.109 13.72298,0.217 20.58447,0.326 0.0227,15.077 0.0454,30.153 0.0681,45.23 1.42738,-0.06 2.85477,-0.128 4.28215,-0.193 0,5.834 10e-6,11.667 10e-6,17.5 -1.42739,0 -2.85477,0 -4.28216,0 0,7.722 0,15.444 0,23.166 -21.33645,9.879 -18.15049,43.592 -42.68107,55.994 -63.09777,22.926 -114.10742,25.59 -181.13822,3.021 -21.27667,-7.164 -37.15958,-20.518 -45.20762,-35.539 3.3975,-1.513 6.79501,-3.025 10.19252,-4.538 -0.67796,-1.523 -1.35593,-3.045 -2.03388,-4.568 -3.69994,1.647 -7.39986,3.295 -11.09979,4.942 -5.37255,-11.422 -10.7451,-22.844 -16.11765,-34.265 4.15076,-4.775 8.30153,-9.55 12.45229,-14.325 -1.26479,-1.099 -2.52958,-2.199 -3.79438,-3.298 -3.45478,3.974 -6.90956,7.948 -10.36434,11.922 -13.35941,-38.918 -17.32636,-70.672 -17.32636,-116.754 0,-46.081 3.96695,-77.836 17.32636,-116.754 z"
     id="path18"
     inkscape:connector-curvature="0" />
  <path
     style="fill:none;stroke:#000000;stroke-width:0.03527778;stroke-linecap:butt;stroke-linejoin:miter;stroke-opacity:1;stroke-miterlimit:4;stroke-dasharray:none"
     d="m 334.23689,423.39672 c 5.64848,10.457 11.29697,20.915 16.94546,31.372 2.96445,-1.32 5.92891,-2.64 8.89336,-3.96 0.6779,1.523 1.35579,3.045 2.03368,4.568 -2.96445,1.32 -5.92891,2.64 -8.89337,3.96 5.53653,14.012 11.07305,28.024 16.60958,42.036 -16.1205,19.484 -21.64289,45.67 -48.36149,58.451 -38.40822,18.372 -68.37907,14 -109.04599,1.393 -25.72938,-7.976 -37.59651,-26.502 -56.39475,-39.752 -2.16602,-25.587 -4.33203,-51.174 -6.49805,-76.761 -6.07758,-33.966 -6.07758,-67.932 0,-101.898 2.16602,-25.586 4.33203,-51.173 6.49805,-76.76 18.79824,-13.251 30.66536,-31.777 56.39472,-39.753 40.66693,-12.607 70.63778,-16.979 109.046,1.393 26.71861,12.781 32.241,38.968 48.3615,58.451 -5.53652,14.012 -11.07304,28.025 -16.60957,42.037 2.96446,1.32 5.92891,2.639 8.89337,3.959 -0.6779,1.523 -1.35579,3.045 -2.03368,4.568 -2.96445,-1.32 -5.92891,-2.64 -8.89336,-3.959 -5.64849,10.457 -11.29698,20.914 -16.94546,31.371 0,19.762 0,39.523 0,59.284 z"
     id="path20"
     inkscape:connector-curvature="0" />
</svg>
