<?xml version="1.0" encoding="UTF-8" standalone="no"?>
<svg
   xmlns:dc="http://purl.org/dc/elements/1.1/"
   xmlns:cc="http://creativecommons.org/ns#"
   xmlns:rdf="http://www.w3.org/1999/02/22-rdf-syntax-ns#"
   xmlns:svg="http://www.w3.org/2000/svg"
   xmlns="http://www.w3.org/2000/svg"
   xmlns:sodipodi="http://sodipodi.sourceforge.net/DTD/sodipodi-0.dtd"
   xmlns:inkscape="http://www.inkscape.org/namespaces/inkscape"
   width="2125.9841"
   height="3188.9763"
   viewBox="0 0 599.99995 899.99997"
   id="svg2"
   version="1.1"
   inkscape:version="0.48.5 r10040"
   sodipodi:docname="snowyOwl_smal_sheet1.pdf">
  <metadata
     id="metadata72">
    <rdf:RDF>
      <cc:Work
         rdf:about="">
        <dc:format>image/svg+xml</dc:format>
        <dc:type
           rdf:resource="http://purl.org/dc/dcmitype/StillImage" />
        <dc:title>Bezier Curve : BezierCurve.003</dc:title>
      </cc:Work>
    </rdf:RDF>
  </metadata>
  <defs
     id="defs70" />
  <sodipodi:namedview
     pagecolor="#ffffff"
     bordercolor="#666666"
     borderopacity="1"
     objecttolerance="10"
     gridtolerance="10"
     guidetolerance="10"
     inkscape:pageopacity="0"
     inkscape:pageshadow="2"
     inkscape:window-width="1065"
     inkscape:window-height="685"
     id="namedview68"
     showgrid="false"
     units="cm"
     inkscape:zoom="0.22627417"
     inkscape:cx="1120.0181"
     inkscape:cy="2463.9804"
     inkscape:window-x="0"
     inkscape:window-y="0"
     inkscape:window-maximized="0"
     inkscape:current-layer="svg2" />
  <title
     id="title4">Bezier Curve : BezierCurve.003</title>
  <desc
     id="desc6">This is an exported Bezier xml_path from Blender, using the ExportScript by maybites.ch and Craxic</desc>
  <g
     id="g3049"
     transform="matrix(0.1,0,0,0.1,16.605919,1480.785)"
     style="stroke-width:0.35277777;stroke-miterlimit:4;stroke-dasharray:none">
    <path
       inkscape:connector-curvature="0"
       id="path8"
       d="m 2376.3801,-7071.338 c 90.3158,-209.271 211.0117,-339.798 432.9662,-391.638 270.1202,-63.09 445.9309,193.935 683.5344,193.909 237.1823,-0.03 412.6186,-256.827 682.3044,-193.909 221.9719,51.787 342.4845,182.441 432.9824,391.638 115.0314,265.909 143.2913,498.682 -14.0396,741.966 -162.7693,251.694 -394.913,309.867 -694.0943,328.138 -161.208,9.846 -200.8992,-129.985 -392.7356,-129.985 0,-47.685 0,-95.37 0,-143.056 -10.0266,0 -20.0533,0 -30.0799,0 0,47.686 0,95.371 0,143.056 -191.4103,0 -230.9851,139.695 -391.86,129.897 -299.0215,-18.212 -530.7951,-76.622 -693.6736,-328.05 -157.5275,-243.168 -130.1106,-475.949 -15.3044,-741.966 z"
       style="fill:none;stroke:#000000;stroke-width:0.35277777;stroke-linecap:butt;stroke-linejoin:miter;stroke-opacity:1;stroke-miterlimit:4;stroke-dasharray:none" />
    <path
       inkscape:connector-curvature="0"
       id="path10"
       d="m 2669.9967,-7238.044 c 227.6263,-129.324 528.4159,53.428 638.4557,205.033 109.8906,151.399 152.8947,589.997 73.4574,617.901 -115.3633,40.524 -207.8107,218.924 -379.1498,221.091 -226.7743,2.868 -416.4343,-72.823 -509.0603,-279.838 -125.0511,-279.483 -89.9214,-612.938 176.297,-764.187 z"
       style="fill:none;stroke:#000000;stroke-width:0.35277777;stroke-linecap:butt;stroke-linejoin:miter;stroke-opacity:1;stroke-miterlimit:4;stroke-dasharray:none" />
    <path
       inkscape:connector-curvature="0"
       id="path12"
       d="m 4314.5342,-7238.044 c -227.6263,-129.324 -528.4159,53.428 -638.4557,205.033 -109.8906,151.399 -152.8946,589.997 -73.4574,617.901 115.3635,40.524 207.8108,218.924 379.1498,221.091 226.7743,2.868 416.4343,-72.823 509.0604,-279.838 125.051,-279.483 89.9213,-612.938 -176.2971,-764.187 z"
       style="fill:none;stroke:#000000;stroke-width:0.35277777;stroke-linecap:butt;stroke-linejoin:miter;stroke-opacity:1;stroke-miterlimit:4;stroke-dasharray:none" />
    <path
       inkscape:connector-curvature="0"
       id="path14"
       d="m 4751.996,-7569.781 c 151.4836,-24.881 325.2303,-189.694 498.9775,-357.325 53.2605,0.01 106.5212,0.02 159.7818,0.03 0,-10.028 0,-20.056 0.01,-30.084 -53.2605,-0.01 -106.5212,-0.02 -159.7818,-0.03 0.066,-339.976 0.1329,-679.951 0.1995,-1019.927 53.2605,0.01 106.5212,0.02 159.7818,0.03 0,-10.028 0,-20.056 0.01,-30.084 -53.2606,-0.01 -106.5212,-0.02 -159.7818,-0.03 -166.2699,-167.241 -332.5397,-334.482 -498.8096,-501.724 0.015,-75.693 0.03,-151.386 0.044,-227.079 274.0614,242.956 548.1228,485.911 822.1842,728.866 -0.07,360.032 -0.1409,720.064 -0.2112,1080.095 -281.5798,301.428 -563.1381,492.901 -822.4433,595.786 0.016,-79.508 0.031,-159.016 0.047,-238.524 z"
       style="fill:none;stroke:#000000;stroke-width:0.35277777;stroke-linecap:butt;stroke-linejoin:miter;stroke-opacity:1;stroke-miterlimit:4;stroke-dasharray:none" />
    <path
       inkscape:connector-curvature="0"
       id="path16"
       d="m 3524.498,-11336.139 c 114.5372,-102.213 172.85,-334.487 229.6527,-569.139 44.9658,-28.544 89.9316,-57.088 134.8974,-85.633 -5.3743,-8.466 -10.7486,-16.932 -16.1229,-25.399 -44.9658,28.545 -89.9316,57.089 -134.8974,85.633 -182.2045,-287.028 -364.409,-574.055 -546.6136,-861.083 44.9658,-28.544 89.9316,-57.089 134.8974,-85.633 -5.3743,-8.466 -10.7487,-16.932 -16.123,-25.398 -44.9658,28.544 -89.9316,57.088 -134.8974,85.632 -230.0154,-52.041 -460.0308,-104.081 -690.0462,-156.121 -40.5665,-63.905 -81.1329,-127.809 -121.6993,-191.714 361.5984,58.168 723.1968,116.336 1084.7953,174.504 192.9531,303.96 385.9063,607.92 578.8595,911.881 -76.1021,405.406 -211.1317,717.982 -374.8693,943.846 -42.6111,-67.125 -85.2221,-134.251 -127.8332,-201.376 z"
       style="fill:none;stroke:#000000;stroke-width:0.35277777;stroke-linecap:butt;stroke-linejoin:miter;stroke-opacity:1;stroke-miterlimit:4;stroke-dasharray:none" />
    <path
       inkscape:connector-curvature="0"
       id="path18"
       d="m 5282.2444,-10862.536 c -48.4817,0 -96.9634,0 -145.4451,0 0,10.041 0,20.081 0,30.122 50.8437,0 101.6876,0 152.5313,0 74.0436,78.362 294.5286,131.631 222.1309,235.086 -135.9747,194.306 -459.7907,-146.563 -557.7262,-240.717 -69.8057,-219.798 -524.4772,722.903 -524.4774,-659.396 -3e-4,-1382.298 454.6715,-439.597 524.4772,-659.395 97.9354,-94.154 421.7515,-435.024 557.7262,-240.718 72.3977,103.456 -148.0873,156.725 -222.1309,235.087 -50.8438,0 -101.6876,0 -152.5313,0 0,10.04 0,20.081 0,30.122 48.4817,0 96.9634,0 145.4451,0 -118.1247,423.269 -118.1246,846.539 2e-4,1269.809 z"
       style="fill:none;stroke:#000000;stroke-width:0.35277777;stroke-linecap:butt;stroke-linejoin:miter;stroke-opacity:1;stroke-miterlimit:4;stroke-dasharray:none" />
    <path
       inkscape:connector-curvature="0"
       id="path20"
       d="m 3714.1603,-14100.972 c -2.0659,29.789 -4.1318,59.579 -6.1977,89.369 -193.4584,99.348 -386.9168,198.697 -580.3752,298.045 -42.9105,-5.506 -85.821,-11.012 -128.7316,-16.517 19.083,-133.888 38.1659,-267.776 57.2489,-401.663 58.3968,6.06 116.7936,12.119 175.1904,18.179 0.5491,-10.107 1.0983,-20.215 1.6474,-30.322 -66.9427,-5.805 -133.8853,-11.609 -200.828,-17.413 -221.415,-19.199 -442.8301,-38.397 -664.2451,-57.596 -114.6337,35.681 -229.2674,71.362 -343.9011,107.043 -87.6083,-7.597 -175.2168,-15.193 -262.8251,-22.789 3.0677,-35.276 6.1355,-70.552 9.2032,-105.828 22.6935,1.968 45.3871,3.936 68.0807,5.904 0.8665,-9.939 1.7329,-19.879 2.5994,-29.818 -22.6802,-1.966 -45.3605,-3.933 -68.0408,-5.899 13.1298,-31.887 26.2595,-63.773 39.3894,-95.66 369.5391,-4.737 739.0781,-9.475 1108.6173,-14.213 98.7991,19.663 197.5981,39.326 296.3972,58.988 165.5902,73.397 331.1805,146.793 496.7707,220.19 z"
       style="fill:none;stroke:#000000;stroke-width:0.35277777;stroke-linecap:butt;stroke-linejoin:miter;stroke-opacity:1;stroke-miterlimit:4;stroke-dasharray:none" />
    <path
       inkscape:connector-curvature="0"
       id="path22"
       d="m 935.94074,-14077.184 c 1.85895,-29.804 3.7179,-59.607 5.57685,-89.411 192.76361,-100.69 385.52711,-201.38 578.29061,-302.069 42.9477,5.207 85.8955,10.415 128.8433,15.623 -18.1524,134.017 -36.3049,268.034 -54.4572,402.051 -58.4376,-5.655 -116.8751,-11.309 -175.3126,-16.963 -0.4788,10.111 -0.9578,20.222 -1.4365,30.333 66.9813,5.339 133.9627,10.679 200.944,16.018 221.5431,17.66 443.0863,35.32 664.6294,52.98 114.383,-36.477 228.766,-72.953 343.1489,-109.43 87.6591,6.988 175.3181,13.975 262.9772,20.963 -2.8226,35.296 -5.6453,70.592 -8.4678,105.889 -22.7067,-1.81 -45.4134,-3.62 -68.1201,-5.431 -0.7974,9.945 -1.5948,19.89 -2.3922,29.835 22.6934,1.809 45.3868,3.618 68.0802,5.427 -12.908,31.977 -25.8159,63.954 -38.7239,95.931 -369.4973,7.305 -738.9946,14.61 -1108.4919,21.915 -98.9333,-18.977 -197.8665,-37.952 -296.7999,-56.929 -166.0962,-72.244 -332.1921,-144.488 -498.28836,-216.732 z"
       style="fill:none;stroke:#000000;stroke-width:0.35277777;stroke-linecap:butt;stroke-linejoin:miter;stroke-opacity:1;stroke-miterlimit:4;stroke-dasharray:none" />
    <path
       inkscape:connector-curvature="0"
       id="path24"
       d="m 3656.2602,-10455.785 c 0.061,30.231 0.1228,60.462 0.1841,90.692 -252.714,113.85 -505.428,227.7 -758.142,341.55 -148.6924,0 -297.3847,0 -446.077,0 46.3622,-61.241 92.7245,-122.481 139.0867,-183.721 111.1746,-72.851 222.3492,-145.703 333.5239,-218.555 59.4682,0 118.9363,0 178.4045,0 0,-10.99 0,-21.98 0,-32.97 -59.4682,0 -118.9363,0 -178.4045,0 31.6855,-26.617 63.371,-53.234 95.0565,-79.85 -12.3264,-236.259 -24.6528,-472.518 -36.9793,-708.777 29.7308,0 59.4615,0 89.1922,0 0,-9.961 0,-19.924 0,-29.885 -32.3972,0 -64.7944,0 -97.1916,0 -14.4645,-106.587 -11.881,-228.584 -106.8015,-319.761 -170.9642,-164.223 -388.8006,-156.877 -583.2009,-169.051 -1.0813,-53.822 -2.1624,-107.643 -3.2436,-161.465 242.0393,17.505 520.1713,14.097 726.118,228.331 259.9527,270.413 167.8963,618.121 251.8444,927.182 132.2101,105.427 264.4201,210.854 396.6301,316.28 z"
       style="fill:none;stroke:#000000;stroke-width:0.35277777;stroke-linecap:butt;stroke-linejoin:miter;stroke-opacity:1;stroke-miterlimit:4;stroke-dasharray:none" />
    <path
       inkscape:connector-curvature="0"
       id="path26"
       d="m 3929.3895,-10190.718 c -0.1772,90.561 -0.3544,181.122 -0.5317,271.682 -44.0258,34.881 -81.5255,84.608 -84.475,215.634 -15.4185,0 -30.837,0 -46.2556,0 0.2558,8.564 0.5116,17.129 0.7674,25.693 -24.0932,0 -48.1863,0 -72.2795,0 0.2558,-8.564 0.5115,-17.129 0.7672,-25.693 -365.2032,0 -730.4064,0 -1095.6097,0 -0.1187,8.564 -0.2374,17.129 -0.3562,25.693 -31.2389,0 -62.4778,0 -93.7168,0 -0.1188,-8.564 -0.2377,-17.129 -0.3565,-25.693 -78.5508,0 -157.1017,0 -235.6525,0 -83.0666,-125.415 -107.1109,-158.719 -276.4242,-197.469 20.6314,-112.039 23.0924,-210.283 24.4496,-380.376 1.3572,-170.092 -43.4215,-525.267 -46.2273,-688.786 -1.5182,-88.466 135.2787,-299.805 252.4286,-344.445 80.6021,21.532 161.2041,43.063 241.8062,64.595 -77.9376,41.466 -177.938,37.396 -233.8127,124.399 -214.0378,333.276 -40.5128,675.144 -60.7692,1012.717 47.0489,62.718 94.0977,125.434 141.1466,188.152 95.0247,-0.488 190.0494,-0.977 285.0741,-1.465 0,32.762 0,65.524 0,98.287 14.4487,0 28.8974,0 43.3461,0 0,-33.548 0,-67.096 0,-100.644 269.1682,-1.359 538.3363,-2.719 807.5045,-4.078 0,34.907 0,69.814 0,104.722 13.6046,0 27.2091,0 40.8136,0 0,-35.693 0,-71.386 0,-107.079 49.2289,-0.489 98.4578,-0.977 147.6867,-1.465 86.8921,-84.793 173.7842,-169.587 260.6763,-254.381 z"
       style="fill:none;stroke:#000000;stroke-width:0.35277777;stroke-linecap:butt;stroke-linejoin:miter;stroke-opacity:1;stroke-miterlimit:4;stroke-dasharray:none" />
    <path
       inkscape:connector-curvature="0"
       id="path28"
       d="m 4131.627,-9449.374 c -23.8456,20.728 -47.6911,41.457 -71.5368,62.186 6.5968,7.589 13.1936,15.177 19.7904,22.766 28.6494,-24.904 57.2989,-49.809 85.9483,-74.714 68.5302,32.236 137.0604,64.471 205.5906,96.706 -9.8838,22.2 -19.7677,44.399 -29.6516,66.599 9.1363,4.068 18.2726,8.135 27.409,12.203 9.076,-20.385 18.152,-40.77 27.228,-61.155 90.128,48.288 170.2504,143.586 213.2331,271.246 135.4142,402.185 119.4316,708.242 -18.1241,1086.829 -74.4111,147.183 -276.6897,128.068 -335.9649,256.086 -46.3319,0 -92.6636,0 -138.9955,0 0,8.565 0,17.129 0,25.693 -34.9993,0 -69.9985,0 -104.9978,0 0.3849,-8.564 0.7698,-17.128 1.1547,-25.693 -90.4596,-0.136 -180.9192,-0.272 -271.3788,-0.408 -0.6522,-41.169 -1.3045,-82.338 -1.9567,-123.507 -12.2543,-0.136 -24.5086,-0.272 -36.7629,-0.409 -0.5433,41.442 -1.0867,82.883 -1.63,124.324 -84.8963,0 -169.7927,0 -254.689,0 0,-57.041 0,-114.082 0,-171.123 -10.1274,0 -20.2548,0 -30.3822,0 0,57.041 0,114.082 0,171.123 -84.8963,0 -169.7926,0 -254.689,0 -0.5433,-41.441 -1.0866,-82.882 -1.6299,-124.324 -12.2544,0.137 -24.5087,0.273 -36.763,0.409 -0.6522,41.169 -1.3044,82.338 -1.9566,123.507 -90.4597,0.136 -180.9193,0.272 -271.3789,0.408 0.3849,8.565 0.7698,17.129 1.1548,25.693 -34.9993,0 -69.9986,0 -104.9979,0 0,-8.564 0,-17.128 0,-25.693 -46.3318,0 -92.6636,0 -138.9954,0 -59.2753,-128.018 -261.5539,-108.903 -335.9649,-256.086 -137.556,-378.587 -153.5386,-684.644 -18.1244,-1086.829 42.9827,-127.66 123.1048,-222.958 213.233,-271.246 9.076,20.385 18.152,40.77 27.228,61.155 9.1363,-4.068 18.2727,-8.135 27.409,-12.203 -9.8839,-22.2 -19.7678,-44.399 -29.6517,-66.599 68.5302,-32.235 137.0604,-64.47 205.5906,-96.706 28.6495,24.905 57.2989,49.81 85.9484,74.714 6.5968,-7.589 13.1935,-15.177 19.7903,-22.766 -23.8456,-20.729 -47.6911,-41.458 -71.5367,-62.186 233.5084,-80.157 424.037,-103.958 700.5252,-103.958 276.4883,0 467.0169,23.801 700.5253,103.958 z"
       style="fill:none;stroke:#000000;stroke-width:0.35277777;stroke-linecap:butt;stroke-linejoin:miter;stroke-opacity:1;stroke-miterlimit:4;stroke-dasharray:none" />
    <path
       inkscape:connector-curvature="0"
       id="path30"
       d="m 3253.2505,-8154.344 c -62.7435,33.891 -125.487,67.782 -188.2305,101.673 7.9191,17.787 15.8383,35.573 23.7574,53.36 -9.1356,4.068 -18.2711,8.135 -27.4066,12.202 -7.9192,-17.787 -15.8383,-35.573 -23.7575,-53.36 -84.0732,33.219 -168.1463,66.438 -252.2195,99.657 -116.9014,-96.723 -274.0195,-129.857 -350.7043,-290.168 -110.235,-230.45 -84.0033,-410.275 -8.3602,-654.276 47.8582,-154.376 159.0107,-225.579 238.5161,-338.369 153.5212,-12.996 307.0424,-25.992 460.5636,-38.988 203.7952,0 407.5903,0 611.3854,0 153.5212,12.996 307.0424,25.992 460.5637,38.988 79.5054,112.79 190.658,183.993 238.5162,338.369 75.6432,244.001 101.875,423.826 -8.36,654.276 -76.6848,160.311 -233.8028,193.445 -350.7042,290.168 -84.0732,-33.219 -168.1464,-66.438 -252.2196,-99.657 -7.9192,17.787 -15.8383,35.573 -23.7575,53.36 -9.1355,-4.067 -18.2711,-8.134 -27.4066,-12.202 7.9191,-17.787 15.8383,-35.573 23.7574,-53.36 -62.7435,-33.891 -125.4871,-67.782 -188.2306,-101.673 -118.5676,0 -237.1351,0 -355.7027,0 z"
       style="fill:none;stroke:#000000;stroke-width:0.35277777;stroke-linecap:butt;stroke-linejoin:miter;stroke-opacity:1;stroke-miterlimit:4;stroke-dasharray:none" />
    <path
       inkscape:connector-curvature="0"
       id="path32"
       d="m 196.88248,-9039.921 c 27.70019,31.862 55.40061,63.725 83.1008,95.588 7.34305,-6.825 14.68611,-13.649 22.02916,-20.473 -30.7045,-35.341 -61.40923,-70.682 -92.11373,-106.022 31.46004,-47.823 45.8138,-97.248 94.38038,-143.468 99.64418,-94.83 171.50807,-140.367 303.5748,-178.838 334.37466,-97.403 558.14961,-131.549 891.53341,-30.806 200.3988,60.557 290.6452,208.134 435.9679,312.202 0,28.867 0,57.735 0,86.603 8.5643,0 17.1286,0 25.6929,0 0,34.999 0,69.999 0,104.998 -8.5643,-0.385 -17.1286,-0.77 -25.6929,-1.155 -0.1362,17.143 -0.2724,34.286 -0.4085,51.429 -41.169,0.66 -82.3379,1.321 -123.5068,1.982 -0.1362,13.176 -0.2724,26.352 -0.4086,39.529 41.4414,-0.199 82.8826,-0.398 124.3239,-0.598 0,157.986 10e-5,315.971 10e-5,473.956 -46.7954,0 -93.5907,0 -140.3861,0 0,10.207 0,20.414 0,30.621 46.7954,0 93.5907,0 140.3861,0 0,157.986 10e-5,315.971 10e-5,473.956 -41.4413,-0.199 -82.8825,-0.398 -124.3238,-0.598 0.1361,13.177 0.2723,26.353 0.4084,39.53 41.1689,0.66 82.338,1.321 123.5069,1.981 0.1361,17.143 0.2724,34.286 0.4085,51.429 8.5644,-0.385 17.1286,-0.77 25.693,-1.155 0,35 0,69.999 0,104.998 -8.5644,0 -17.1286,0 -25.693,0 0,28.868 0,57.736 0,86.603 -145.3225,104.068 -235.569,251.645 -435.9678,312.202 -333.3837,100.743 -557.15857,66.597 -891.53347,-30.806 -132.06673,-38.471 -203.93038,-84.008 -303.57457,-178.837 -48.56658,-46.22 -62.92033,-95.646 -94.38038,-143.468 30.7045,-35.341 61.409,-70.682 92.1135,-106.022 -7.34305,-6.825 -14.68587,-13.649 -22.02892,-20.473 -27.70043,31.863 -55.40061,63.725 -83.10104,95.588 -24.71208,-233.413 -49.42441,-466.826 -74.13649,-700.238 24.71208,-233.413 49.42417,-466.826 74.13625,-700.238 z"
       style="fill:none;stroke:#000000;stroke-width:0.35277777;stroke-linecap:butt;stroke-linejoin:miter;stroke-opacity:1;stroke-miterlimit:4;stroke-dasharray:none" />
    <path
       inkscape:connector-curvature="0"
       id="path34"
       d="m 445.41287,-9022.841 c 73.91787,-112.064 155.78318,-154.464 284.21331,-193.553 255.98883,-77.912 432.62552,-83.093 685.37022,4.775 135.6807,47.17 193.4459,150.818 290.1689,226.228 -18.1549,209.779 -36.3098,419.559 -54.4646,629.339 0,10.912 -1e-4,21.825 -1e-4,32.737 18.1549,209.78 36.3099,419.56 54.4649,629.34 -96.723,75.409 -154.4882,179.057 -290.1689,226.227 -252.7444,87.868 -429.38135,82.687 -685.37019,4.775 -128.43012,-39.089 -210.29567,-81.488 -284.21354,-193.552 -149.64104,-226.865 -133.69894,-411.386 -133.69894,-683.158 0,-271.773 -15.9421,-456.293 133.69894,-683.158 z"
       style="fill:none;stroke:#000000;stroke-width:0.35277777;stroke-linecap:butt;stroke-linejoin:miter;stroke-opacity:1;stroke-miterlimit:4;stroke-dasharray:none" />
    <path
       inkscape:connector-curvature="0"
       id="path36"
       d="m 3922.4642,-13885.909 c 112.927,-96.747 225.854,-193.495 338.781,-290.243 159.79,-25.033 319.5798,-50.066 479.3697,-75.099 159.7899,25.033 319.5798,50.066 479.3697,75.099 112.927,96.748 225.8541,193.496 338.781,290.243 -12.8777,276.464 -25.7556,552.928 -38.6333,829.391 -57.77,112.676 -115.5399,225.353 -173.3099,338.029 -202.0691,21.489 -404.1382,42.978 -606.2073,64.467 -202.069,-21.489 -404.1381,-42.978 -606.2072,-64.467 -57.77,-112.676 -115.5401,-225.353 -173.3101,-338.029 -12.8778,-276.463 -25.7557,-552.927 -38.6336,-829.391 z"
       style="fill:none;stroke:#000000;stroke-width:0.35277777;stroke-linecap:butt;stroke-linejoin:miter;stroke-opacity:1;stroke-miterlimit:4;stroke-dasharray:none" />
    <path
       inkscape:connector-curvature="0"
       id="path38"
       d="m 4725.6533,-14204.262 c 9.9745,0 19.9488,0 29.9233,0 -0.013,24.789 -0.025,49.577 -0.038,74.365 -9.9493,0 -19.8986,0 -29.8479,0 -0.013,-24.788 -0.025,-49.576 -0.038,-74.365 z"
       style="fill:none;stroke:#000000;stroke-width:0.35277777;stroke-linecap:butt;stroke-linejoin:miter;stroke-opacity:1;stroke-miterlimit:4;stroke-dasharray:none" />
    <path
       inkscape:connector-curvature="0"
       id="path40"
       d="m 4725.6534,-12863.931 c 9.9745,0 19.9488,0 29.9233,0 -0.012,29.437 -0.025,58.874 -0.038,88.311 -9.9494,0 -19.8987,0 -29.848,0 -0.012,-29.437 -0.025,-58.874 -0.038,-88.311 z"
       style="fill:none;stroke:#000000;stroke-width:0.35277777;stroke-linecap:butt;stroke-linejoin:miter;stroke-opacity:1;stroke-miterlimit:4;stroke-dasharray:none" />
    <path
       inkscape:connector-curvature="0"
       id="path42"
       d="m 5320.8472,-13042.309 c 0,-9.975 0,-19.949 0,-29.924 35.1319,0.01 70.2637,0.02 105.3956,0.04 0,9.95 0,19.899 0,29.849 -35.1319,0.01 -70.2637,0.02 -105.3956,0.04 z"
       style="fill:none;stroke:#000000;stroke-width:0.35277777;stroke-linecap:butt;stroke-linejoin:miter;stroke-opacity:1;stroke-miterlimit:4;stroke-dasharray:none" />
    <path
       inkscape:connector-curvature="0"
       id="path44"
       d="m 4054.9875,-13042.309 c 0,-9.975 0,-19.949 0,-29.924 35.1319,0.01 70.2637,0.02 105.3956,0.04 0,9.95 0,19.899 0,29.849 -35.1319,0.01 -70.2637,0.02 -105.3956,0.04 z"
       style="fill:none;stroke:#000000;stroke-width:0.35277777;stroke-linecap:butt;stroke-linejoin:miter;stroke-opacity:1;stroke-miterlimit:4;stroke-dasharray:none" />
    <path
       inkscape:connector-curvature="0"
       id="path46"
       d="m 4054.9874,-13861.76 c 0,-9.975 0,-19.949 0,-29.924 35.1319,0.01 70.2637,0.03 105.3956,0.04 0,9.949 0,19.899 0,29.848 -35.1319,0.01 -70.2637,0.02 -105.3956,0.04 z"
       style="fill:none;stroke:#000000;stroke-width:0.35277777;stroke-linecap:butt;stroke-linejoin:miter;stroke-opacity:1;stroke-miterlimit:4;stroke-dasharray:none" />
    <path
       inkscape:connector-curvature="0"
       id="path48"
       d="m 5320.847,-13861.76 c 0,-9.975 0,-19.949 0,-29.924 35.1318,0.01 70.2638,0.03 105.3956,0.04 0,9.949 0,19.899 0,29.848 -35.1318,0.01 -70.2638,0.02 -105.3956,0.04 z"
       style="fill:none;stroke:#000000;stroke-width:0.35277777;stroke-linecap:butt;stroke-linejoin:miter;stroke-opacity:1;stroke-miterlimit:4;stroke-dasharray:none" />
    <path
       inkscape:connector-curvature="0"
       id="path50"
       d="m 5240.3798,-13033.915 c 9.6344,-2.583 19.2686,-5.165 28.903,-7.748 8.0549,30.108 16.1097,60.215 24.1646,90.322 -9.6101,2.576 -19.2201,5.152 -28.8302,7.728 -8.0792,-30.101 -16.1582,-60.202 -24.2374,-90.302 z"
       style="fill:none;stroke:#000000;stroke-width:0.35277777;stroke-linecap:butt;stroke-linejoin:miter;stroke-opacity:1;stroke-miterlimit:4;stroke-dasharray:none" />
    <path
       inkscape:connector-curvature="0"
       id="path52"
       d="m 4938.2408,-14161.759 c 9.6343,-2.583 19.2687,-5.165 28.9031,-7.748 6.3262,23.659 12.6525,47.318 18.9787,70.977 -9.6101,2.576 -19.2202,5.152 -28.8303,7.728 -6.3505,-23.653 -12.701,-47.305 -19.0515,-70.957 z"
       style="fill:none;stroke:#000000;stroke-width:0.35277777;stroke-linecap:butt;stroke-linejoin:miter;stroke-opacity:1;stroke-miterlimit:4;stroke-dasharray:none" />
    <path
       inkscape:connector-curvature="0"
       id="path54"
       d="m 4514.4454,-14169.515 c 9.6343,2.578 19.2687,5.157 28.9029,7.735 -6.3462,23.654 -12.6923,47.307 -19.0385,70.961 -9.6101,-2.572 -19.2202,-5.144 -28.8302,-7.716 6.3219,-23.661 12.6439,-47.32 18.9658,-70.98 z"
       style="fill:none;stroke:#000000;stroke-width:0.35277777;stroke-linecap:butt;stroke-linejoin:miter;stroke-opacity:1;stroke-miterlimit:4;stroke-dasharray:none" />
    <path
       inkscape:connector-curvature="0"
       id="path56"
       d="m 4212.3994,-13041.647 c 9.6343,2.579 19.2685,5.157 28.9028,7.736 -8.0721,30.103 -16.1442,60.205 -24.2164,90.308 -9.61,-2.572 -19.22,-5.144 -28.8301,-7.717 8.0479,-30.108 16.0958,-60.218 24.1437,-90.327 z"
       style="fill:none;stroke:#000000;stroke-width:0.35277777;stroke-linecap:butt;stroke-linejoin:miter;stroke-opacity:1;stroke-miterlimit:4;stroke-dasharray:none" />
    <path
       inkscape:connector-curvature="0"
       id="path58"
       d="m 5262.3889,-13260.052 c 92.2853,-226.797 95.3006,-576.737 -147.336,-609.617 -298.5983,-40.464 -73.1105,674.909 -374.4379,674.909 -301.3273,0 -75.8393,-715.372 -374.4376,-674.909 -242.6366,32.88 -239.6215,382.82 -147.3363,609.617 90.6617,222.808 281.2272,327.683 521.774,327.683 240.5467,0 431.1121,-104.875 521.7738,-327.683 z"
       style="fill:none;stroke:#000000;stroke-width:0.35277777;stroke-linecap:butt;stroke-linejoin:miter;stroke-opacity:1;stroke-miterlimit:4;stroke-dasharray:none" />
    <path
       inkscape:connector-curvature="0"
       id="path60"
       d="m 4696.8557,-13672.416 c 29.1729,0 58.3458,0 87.5187,0 30.5177,133.333 30.4552,266.667 -0.1103,400 -29.0994,0 -58.1988,0 -87.2982,0 -30.5656,-133.333 -30.6281,-266.667 -0.1102,-400 z"
       style="fill:none;stroke:#000000;stroke-width:0.35277777;stroke-linecap:butt;stroke-linejoin:miter;stroke-opacity:1;stroke-miterlimit:4;stroke-dasharray:none" />
    <path
       inkscape:connector-curvature="0"
       id="path62"
       d="m 1929.3895,-10190.718 c -0.1773,90.561 -0.3544,181.122 -0.5317,271.682 -44.0258,34.881 -81.5254,84.608 -84.4749,215.634 -15.4185,0 -30.8372,0 -46.2557,0 0.2558,8.564 0.5116,17.129 0.7674,25.693 -24.0931,0 -48.1863,0 -72.2794,0 0.2557,-8.564 0.5114,-17.129 0.7671,-25.693 -365.2033,0 -730.4064,0 -1095.60955,0 -0.11873,8.564 -0.23746,17.129 -0.35619,25.693 -31.23904,0 -62.47807,0 -93.7171,0 -0.11873,-8.564 -0.23747,-17.129 -0.3562,-25.693 -78.55081,0 -157.10187,0 -235.65268,0 -83.06671,-125.415 -107.11074,-158.719 -276.424173,-197.469 20.631313,-112.039 23.092269,-210.283 24.449586,-380.376 1.357317,-170.092 -43.4215065,-525.267 -46.2272163,-688.786 -1.5182495,-88.466 135.2787033,-299.805 252.4285333,-344.445 80.60193,21.532 161.2041,43.063 241.80603,64.595 -77.9376,41.466 -177.93799,37.397 -233.81257,124.399 -214.037897,333.276 -40.5128,675.144 -60.76932,1012.717 47.04881,62.718 94.09785,125.434 141.14666,188.152 95.02482,-0.488 190.04941,-0.977 285.07423,-1.465 0,32.762 0,65.524 0,98.287 14.44865,0 28.89729,0 43.34593,0 0,-33.548 0,-67.096 0,-100.644 269.16814,-1.359 538.33653,-2.719 807.50463,-4.078 0,34.907 0,69.814 0,104.722 13.6045,0 27.2092,0 40.8137,0 0,-35.693 -10e-5,-71.386 -10e-5,-107.079 49.2289,-0.489 98.4577,-0.977 147.6866,-1.465 86.8921,-84.793 173.7842,-169.587 260.6764,-254.381 z"
       style="fill:none;stroke:#000000;stroke-width:0.35277777;stroke-linecap:butt;stroke-linejoin:miter;stroke-opacity:1;stroke-miterlimit:4;stroke-dasharray:none" />
    <path
       inkscape:connector-curvature="0"
       id="path64"
       d="m 1714.2018,-10434.807 c 0.061,30.231 0.1227,60.462 0.1841,90.692 -252.7141,113.85 -505.428,227.7 -758.14215,341.55 -148.69237,0 -297.3845,0 -446.07687,0 46.36216,-61.241 92.72456,-122.481 139.08672,-183.721 111.17459,-72.851 222.34917,-145.703 333.52375,-218.555 59.46825,0 118.93635,0 178.40455,0 0,-10.99 0,-21.98 0,-32.97 -59.4682,0 -118.9363,0 -178.40455,0 31.68555,-26.617 63.37095,-53.234 95.05655,-79.85 -12.3265,-236.259 -24.6527,-472.518 -36.9792,-708.777 29.7308,0 59.4613,0 89.1921,0 0,-9.961 0,-19.924 0,-29.885 -32.3972,0 -64.7943,0 -97.1915,0 -14.4644,-106.587 -11.8811,-228.584 -106.80154,-319.761 -170.96424,-164.223 -388.80062,-156.877 -583.20093,-169.051 -1.08123,-53.822 -2.16222,-107.643 -3.24345,-161.465 242.03921,17.505 520.17117,14.097 726.11782,228.331 259.9528,270.413 167.8963,618.121 251.8444,927.182 132.2101,105.427 264.4202,210.854 396.6302,316.28 z"
       style="fill:none;stroke:#000000;stroke-width:0.35277777;stroke-linecap:butt;stroke-linejoin:miter;stroke-opacity:1;stroke-miterlimit:4;stroke-dasharray:none" />
    <path
       inkscape:connector-curvature="0"
       id="path66"
       d="m 1989.1233,-13389.468 c 0,295.546 2e-4,591.091 2e-4,886.637 10,0 19.9999,0 29.9999,0 0,-55.255 0,-110.509 0,-165.763 4.1507,96.129 266.7903,77.864 184.9157,478.639 -83.4544,-26.532 -163.7667,-17.431 -247.2211,-5.088 -3.3126,31.314 -6.6251,62.629 -9.9377,93.944 -16.3579,0 -32.7158,0 -49.0737,0 0,8.564 0,17.128 0,25.693 -24.844,0 -49.6882,0 -74.5322,0 -0.085,-8.565 -0.17,-17.129 -0.255,-25.693 -152.5414,0 -305.0827,0 -457.6241,0 0,-27.077 0,-54.153 0,-81.229 -133.3027,0 -266.6054,0 -399.90806,0 0,27.076 0,54.152 0,81.229 -135.62775,0 -271.25549,0 -406.88324,0 -0.46063,8.564 -0.92125,17.128 -1.38187,25.693 -29.29426,0 -58.58827,0 -87.88252,0 -0.46063,-8.565 -0.92149,-17.129 -1.38212,-25.693 -38.00201,0 -76.00379,0 -114.0058,0 -74.11146,-104.098 -171.45634,-171.542 -222.33438,-312.294 -74.038749,-204.826 -48.752074,-338.609 -41.813378,-556.294 7.709741,-241.878 -48.656941,-412.647 85.730548,-613.903 140.59926,-210.56 345.67357,-313.897 558.86603,-328.993 -0.15521,50.206 -0.31066,100.412 -0.46587,150.617 -130.23353,67.223 -292.63687,60.782 -390.70082,201.669 -125.87643,180.844 -65.32407,339.878 -68.59517,560.193 -2.51818,169.606 -28.77426,277.567 39.98017,432.633 39.16335,88.327 112.4866,141.09 167.33742,182.334 84.3029,-0.489 168.60581,-0.977 252.90871,-1.466 0,48.379 0,96.758 0,145.137 10.54883,-0.489 21.09742,-0.977 31.64625,-1.466 0,-49.355 0,-98.711 0,-148.067 178.68137,-1.954 357.3625,-3.907 536.0439,-5.861 84.0695,-24.787 168.1392,-49.574 252.2087,-74.361 0,66.361 0,132.721 0,199.082 10.252,0 20.5041,0 30.7561,0 0,-195.62 0,-391.24 0,-586.861 -231.0947,0 -462.1895,0 -693.28415,0 31.18348,-42.812 62.3672,-85.624 93.55069,-128.437 133.76636,0 267.53306,0 401.29946,0 66.1447,-122.147 132.2893,-244.294 198.4339,-366.441 134.5345,-11.864 269.0691,-23.726 403.6035,-35.59 z"
       style="fill:none;stroke:#000000;stroke-width:0.35277777;stroke-linecap:butt;stroke-linejoin:miter;stroke-opacity:1;stroke-miterlimit:4;stroke-dasharray:none" />
  </g>
</svg>
