<?xml version="1.0" encoding="UTF-8" standalone="no"?>
<svg
   xmlns:dc="http://purl.org/dc/elements/1.1/"
   xmlns:cc="http://creativecommons.org/ns#"
   xmlns:rdf="http://www.w3.org/1999/02/22-rdf-syntax-ns#"
   xmlns:svg="http://www.w3.org/2000/svg"
   xmlns="http://www.w3.org/2000/svg"
   xmlns:sodipodi="http://sodipodi.sourceforge.net/DTD/sodipodi-0.dtd"
   xmlns:inkscape="http://www.inkscape.org/namespaces/inkscape"
   width="2125.9841"
   height="3188.9763"
   viewBox="0 0 599.99999 899.99995"
   id="svg2"
   version="1.1"
   inkscape:version="0.48.5 r10040"
   sodipodi:docname="snowyOwl_big_sheet1.svg">
  <metadata
     id="metadata18">
    <rdf:RDF>
      <cc:Work
         rdf:about="">
        <dc:format>image/svg+xml</dc:format>
        <dc:type
           rdf:resource="http://purl.org/dc/dcmitype/StillImage" />
      </cc:Work>
    </rdf:RDF>
  </metadata>
  <defs
     id="defs16" />
  <sodipodi:namedview
     pagecolor="#ffffff"
     bordercolor="#666666"
     borderopacity="1"
     objecttolerance="10"
     gridtolerance="10"
     guidetolerance="10"
     inkscape:pageopacity="0"
     inkscape:pageshadow="2"
     inkscape:window-width="868"
     inkscape:window-height="634"
     id="namedview14"
     showgrid="false"
     inkscape:document-units="m"
     units="cm"
     inkscape:zoom="0.15365789"
     inkscape:cx="1135.7045"
     inkscape:cy="1535.8795"
     inkscape:window-x="436"
     inkscape:window-y="11"
     inkscape:window-maximized="0"
     inkscape:current-layer="svg2" />
  <title
     id="title4">Bezier Curve : BezierCircle.001</title>
  <desc
     id="desc6">This is an exported Bezier xml_path from Blender, using the ExportScript by maybites.ch and Craxic</desc>
  <path
     style="fill:none;stroke:#000000;stroke-width:0.03527778;stroke-linecap:butt;stroke-linejoin:miter;stroke-opacity:1;stroke-miterlimit:4;stroke-dasharray:none"
     d="m 224.89282,367.19813 c 21.37995,-76.497 70.46978,-138.978 129.9351,-167.562 0,19.035 0,38.069 0,57.104 -44.04666,20.415 -71.72195,59.674 -83.02586,108.458 -7.92406,0 -15.84812,0 -23.77218,0 0,1.668 0,3.336 0,5.004 7.92406,0 15.84812,0 23.77218,0 -16.36634,70.555 -16.36634,141.111 0,211.667 -7.92406,0 -15.84812,0 -23.77218,0 0,1.667 0,3.335 0,5.003 7.92406,0 15.84812,0 23.77218,0 11.30394,48.784 38.97922,88.043 83.02589,108.458 0,19.035 0,38.069 0,57.104 -59.46533,-27.959 -108.55516,-89.69 -129.93513,-165.562 -16.36633,-73.225 -16.36633,-146.449 0,-219.674 z"
     id="path8"
     inkscape:connector-curvature="0" />
  <path
     style="fill:none;stroke:#000000;stroke-width:0.03527778;stroke-linecap:butt;stroke-linejoin:miter;stroke-opacity:1;stroke-miterlimit:4;stroke-dasharray:none"
     d="m 384.80295,120.71013 c 20.02951,25.926 40.05901,51.853 60.08851,77.779 2.09151,11.077 4.18304,22.154 6.27456,33.231 -6.80899,0 -13.61798,0 -20.42697,0 0,1.667 0,3.333 0,5 7.12349,0 14.24698,0 21.37047,0 9.4203,49.39 18.84059,98.78 28.26089,148.17 -7.58828,0 -15.17655,0 -22.76483,0 0,1.667 0,3.334 0,5 7.90618,0 15.81235,0 23.71853,0 -11.74828,100.952 -23.49656,201.903 -35.24484,302.854 -19.58887,42.562 -39.17774,85.124 -58.76661,127.686 33.77601,17.105 41.97945,62.827 44.89617,62.827 -100.93534,0 -201.87066,0 -302.806,0 1.5614,-19.264 3.12281,-38.529 4.68421,-57.794 -14.33584,-14.757 -28.67171,-29.513 -43.007562,-44.27 5.35183,-5.405 10.703662,-10.81 16.055492,-16.215 -1.18458,-1.173 -2.36917,-2.346 -3.55375,-3.519 -2.11444,2.136 -4.228855,4.271 -6.343294,6.407 -9.934593,-18.325 -19.869161,-36.649 -29.803754,-54.973 7.706571,0 15.413118,0 23.119689,0 0,-1.668 0,-3.336 0,-5.003 -8.098388,0 -16.196776,0 -24.295164,0 -11.248088,-71.143 -22.496152,-142.285 -33.74424,-213.427 7.734132,0 15.468288,0 23.20242,0 0,-1.667 0,-3.333 0,-5 -7.734132,0 -15.468288,0 -23.20242,0 4.770065,-84.248 9.540129,-168.495 14.310193,-252.743 7.110691,0 14.221383,0 21.332074,0 0,-1.667 0,-3.333 0,-5 -7.110691,0 -14.221383,0 -21.332074,0 8.718276,-17.953 17.436529,-35.906 26.154805,-53.859 25.698567,-19.017 54.013065,-53.529 77.095735,-57.052 6.35,0 12.70002,0 19.05002,0 0,17.758 0,35.515 0,53.272 -22.2355,12.089 -44.47101,24.178 -66.7065,36.268 -8.73911,79.767 -17.4782,159.534 -26.217314,239.301 10.718012,86.08 21.436024,172.16 32.154034,258.24 20.81447,25.002 41.62892,50.005 62.44337,75.008 0,15.505 0,31.01 0,46.516 1.6668,0 3.33359,0 5.00038,0 0,-13.19 0,-26.38 0,-39.571 8.00814,10.077 16.01626,20.154 24.02439,30.231 48.65841,0 97.31682,0 145.97523,0 0,3.112 0,6.225 0,9.338 1.66679,0 3.33359,0 5.00038,0 0,-6.788 0,-13.576 0,-20.364 16.86831,-37.196 33.73661,-74.391 50.60491,-111.587 9.71682,-101.2 19.43364,-202.4 29.15046,-303.6 -11.62507,-61.171 -23.25015,-122.342 -34.87523,-183.513 -14.32758,-12.089 -28.65517,-24.178 -42.98276,-36.267 0,-17.79 0,-35.581 -10e-6,-53.371 10.70214,0 21.40427,0 32.1064,0 z"
     id="path10"
     inkscape:connector-curvature="0" />
  <path
     style="fill:none;stroke:#000000;stroke-width:0.03527778;stroke-linecap:butt;stroke-linejoin:miter;stroke-opacity:1;stroke-miterlimit:4;stroke-dasharray:none"
     d="m 230.81951,778.88613 c -20.0295,-25.926 -40.059,-51.853 -60.08851,-77.779 -2.09152,-11.077 -4.18304,-22.154 -6.27456,-33.231 6.80899,0 13.61798,0 20.42697,0 0,-1.667 0,-3.333 0,-5 -7.1235,0 -14.24698,0 -21.37047,0 -9.4203,-49.39 -18.84059,-98.78 -28.26089,-148.17 7.58827,0 15.17654,0 22.76481,0 0,-1.667 -1e-5,-3.334 -1e-5,-5 -7.90616,0 -15.81233,0 -23.7185,0 11.74827,-100.952 23.49652,-201.903 35.24479,-302.854 19.58887,-42.562 39.17774,-85.124 58.76661,-127.686003 -33.77602,-17.104 -41.97946,-62.827 -44.89618,-62.827 100.93534,0 201.87067,0 302.80601,0 -1.5614,19.264 -3.12281,38.529 -4.68421,57.794 14.33586,14.757 28.67171,29.513003 43.00757,44.270003 -5.35183,5.405 -10.70365,10.81 -16.05548,16.215 1.18458,1.173 2.36915,2.346 3.55373,3.519 2.11444,-2.136 4.22887,-4.271 6.34331,-6.407 9.93459,18.325 19.86917,36.649 29.80376,54.973 -7.70657,0 -15.41315,0 -23.11972,0 0,1.668 0,3.336 0,5.003 8.0984,0 16.1968,0 24.2952,0 11.24809,71.143 22.49615,142.285 33.74424,213.427 -7.73413,0 -15.46829,0 -23.20242,0 0,1.667 0,3.333 0,5 7.73413,0 15.46829,0 23.20242,0 -4.77006,84.248 -9.5401,168.495 -14.31017,252.743 -7.11069,0 -14.22138,0 -21.33207,0 0,1.667 0,3.333 0,5 7.11069,0 14.22138,0 21.33207,0 -8.71828,17.953 -17.43653,35.906 -26.1548,53.859 -25.69858,19.017 -54.01307,53.529 -77.09573,57.052 -6.35,0 -12.70002,0 -19.05002,0 0,-17.758 -2e-5,-35.515 -2e-5,-53.272 22.23551,-12.089 44.47102,-24.178 66.70652,-36.268 8.7391,-79.767 17.4782,-159.534 26.21731,-239.301 -10.71803,-86.08 -21.43605,-172.16 -32.15408,-258.24 -20.81446,-25.002 -41.62892,-50.005 -62.44338,-75.008 -10e-6,-15.505 -10e-6,-31.011003 -2e-5,-46.516003 -1.66679,0 -3.33358,0 -5.00037,0 0,13.19 0,26.379999 0,39.571003 -8.00813,-10.077004 -16.01625,-20.154003 -24.02438,-30.231003 -48.65842,0 -97.31682,0 -145.97523,0 0,-3.112 0,-6.225 0,-9.338 -1.6668,0 -3.33359,0 -5.00039,0 0,6.788 1e-5,13.576 1e-5,20.365 -16.86831,37.195003 -33.7366,74.390003 -50.60491,111.586003 -9.71681,101.2 -19.43363,202.4 -29.15044,303.6 11.62509,61.171 23.25017,122.342 34.87525,183.513 14.32759,12.089 28.65518,24.178 42.98277,36.267 0,17.79 10e-6,35.581 10e-6,53.371 -10.70213,0 -21.40426,0 -32.1064,0 z"
     id="path12"
     inkscape:connector-curvature="0" />
</svg>
