<?xml version="1.0" encoding="UTF-8" standalone="no"?>
<svg
   xmlns:dc="http://purl.org/dc/elements/1.1/"
   xmlns:cc="http://creativecommons.org/ns#"
   xmlns:rdf="http://www.w3.org/1999/02/22-rdf-syntax-ns#"
   xmlns:svg="http://www.w3.org/2000/svg"
   xmlns="http://www.w3.org/2000/svg"
   xmlns:sodipodi="http://sodipodi.sourceforge.net/DTD/sodipodi-0.dtd"
   xmlns:inkscape="http://www.inkscape.org/namespaces/inkscape"
   width="2125.9841"
   height="3188.9763"
   viewBox="0 0 599.99995 899.99993"
   id="svg2"
   version="1.1"
   inkscape:version="0.48.5 r10040"
   sodipodi:docname="snowyOwl_big_sheet5.svg">
  <metadata
     id="metadata26">
    <rdf:RDF>
      <cc:Work
         rdf:about="">
        <dc:format>image/svg+xml</dc:format>
        <dc:type
           rdf:resource="http://purl.org/dc/dcmitype/StillImage" />
      </cc:Work>
    </rdf:RDF>
  </metadata>
  <defs
     id="defs24" />
  <sodipodi:namedview
     pagecolor="#ffffff"
     bordercolor="#666666"
     borderopacity="1"
     objecttolerance="10"
     gridtolerance="10"
     guidetolerance="10"
     inkscape:pageopacity="0"
     inkscape:pageshadow="2"
     inkscape:window-width="1210"
     inkscape:window-height="702"
     id="namedview22"
     showgrid="false"
     units="cm"
     inkscape:zoom="0.087344635"
     inkscape:cx="-1021.1285"
     inkscape:cy="1808.9262"
     inkscape:window-x="0"
     inkscape:window-y="0"
     inkscape:window-maximized="0"
     inkscape:current-layer="svg2" />
  <title
     id="title4">Bezier Curve : BezierCircle.006</title>
  <desc
     id="desc6">This is an exported Bezier xml_path from Blender, using the ExportScript by maybites.ch and Craxic</desc>
  <path
     style="fill:none;stroke:#000000;stroke-width:0.03527778;stroke-linecap:butt;stroke-linejoin:miter;stroke-miterlimit:4;stroke-opacity:1;stroke-dasharray:none"
     d="m 406.87938,664.74578 c -65.77834,30.259 -131.55667,60.517 -197.33501,90.776 8.27814,-17.141 16.55628,-34.281 24.83442,-51.422 43.12999,-19.318 86.25997,-38.636 129.38997,-57.954 7.13545,3.446 14.27091,6.893 21.40637,10.339 0.72537,-1.502 1.45074,-3.004 2.17611,-4.506 -7.13546,-3.446 -14.27092,-6.892 -21.40638,-10.338 45.42192,-56.417 76.10629,-119.951 92.05308,-190.602 7.13545,3.446 14.27092,6.892 21.40637,10.338 0.72536,-1.502 1.45073,-3.004 2.17609,-4.506 -7.13545,-3.446 -14.2709,-6.892 -21.40635,-10.338 -11.68479,-45.792 -23.36956,-91.583 -35.05435,-137.374 8.27813,-17.141 16.55627,-34.281 24.8344,-51.421 17.48693,69.732 34.97386,139.463 52.46079,209.195 -17.1076,73.056 -48.95278,138.993 -95.53551,197.813 z"
     id="path8"
     inkscape:connector-curvature="0" />
  <path
     style="fill:none;stroke:#000000;stroke-width:0.03527778;stroke-linecap:butt;stroke-linejoin:miter;stroke-miterlimit:4;stroke-opacity:1;stroke-dasharray:none"
     d="m 404.20513,174.94178 c 27.04332,6.509 54.08662,13.018 81.12993,19.526 13.08545,86.74 26.17089,173.479 39.25634,260.218 -6.38645,74.4 -12.77289,148.8 -19.15934,223.2 -47.45708,45.696 -94.91414,91.392 -142.37122,137.088 -42.28356,0 -84.56712,0 -126.85069,0 -47.45706,-45.696 -94.91411,-91.392 -142.371182,-137.088 -6.386494,-74.4 -12.772965,-148.8 -19.15946,-223.2 13.085413,-86.739 26.170822,-173.478 39.256242,-260.218 27.04333,-6.508 54.08665,-13.017 81.12998,-19.526 69.71314,0 139.42627,0 209.1394,0 z"
     id="path10"
     inkscape:connector-curvature="0" />
  <path
     style="fill:none;stroke:#000000;stroke-width:0.03527778;stroke-linecap:butt;stroke-linejoin:miter;stroke-miterlimit:4;stroke-opacity:1;stroke-dasharray:none"
     d="m 193.80954,144.69678 c 0,1.666 0,3.333 0,5 70.5506,0 141.10118,0 211.65178,0 0,-1.667 0,-3.334 0,-5 -70.5506,0 -141.10118,0 -211.65178,0 z"
     id="path12"
     inkscape:connector-curvature="0" />
  <path
     style="fill:none;stroke:#000000;stroke-width:0.03527778;stroke-linecap:butt;stroke-linejoin:miter;stroke-miterlimit:4;stroke-opacity:1;stroke-dasharray:none"
     d="m 193.80242,885.47178 c 0,-17.948 0,-35.896 0,-53.845 -1.66693,0 -3.33386,0 -5.0008,0 10e-6,17.948 10e-6,35.897 2e-5,53.845 -17.87566,0 -35.75132,0 -53.62698,0 2.22142,-17.237 4.44284,-34.474 6.66426,-51.711 -28.80544,-36.721 -57.610891,-73.441 -86.416338,-110.162 5.918146,-5.329 11.836291,-10.657 17.754436,-15.986 -1.115704,-1.239 -2.231407,-2.478 -3.347111,-3.718 -5.844784,5.263 -11.689567,10.526 -17.534351,15.788 -6.622291,-8.427 -13.244558,-16.855 -19.866849,-25.282 -1.433229,-15.362 -2.866435,-30.723 -4.299664,-46.084 6.819987,-6.141 13.639998,-12.282 20.459986,-18.423 -1.115704,-1.239 -2.231407,-2.478 -3.347111,-3.717 -5.844784,5.263 -11.689544,10.525 -17.534328,15.788 -3.660702,-63.285 -14.941764,-115.715 -10.982084,-189.855 5.827141,-109.106 30.552411,-184.056 45.828629,-276.084 8.239341,3.842 16.478658,7.684 24.717999,11.526 0.704408,-1.511 1.408792,-3.021 2.113199,-4.532 -8.239341,-3.842 -16.478658,-7.684 -24.717999,-11.526 33.906914,-16.19 67.813826,-32.379 101.720746,-48.569 88.83156,0 177.66309,0 266.49465,0 33.90691,16.19 67.81381,32.379 101.72072,48.569 -8.23931,3.842 -16.47865,7.684 -24.71797,11.526 0.70439,1.511 1.4088,3.021 2.1132,4.532 8.23934,-3.842 16.47868,-7.684 24.71802,-11.526 15.27624,92.028 40.00154,166.978 45.8287,276.084 3.95971,74.14 -7.32138,126.57 -10.98208,189.855 -5.84479,-5.263 -11.68955,-10.525 -17.53433,-15.788 -1.1157,1.239 -2.23141,2.478 -3.34711,3.717 6.82001,6.141 13.64002,12.282 20.46003,18.423 -1.4332,15.361 -2.86641,30.722 -4.29961,46.083 -6.6223,8.428 -13.24456,16.856 -19.86685,25.283 -5.84479,-5.262 -11.68957,-10.525 -17.53435,-15.788 -1.11571,1.239 -2.23141,2.479 -3.34712,3.718 5.91815,5.328 11.8363,10.657 17.75444,15.986 -28.80545,36.72 -57.61089,73.441 -86.41634,110.162 2.22143,17.237 4.44285,34.474 6.66428,51.711 -17.87566,0 -35.75132,0 -53.62698,0 0,-17.948 0,-35.897 0,-53.845 -1.66693,0 -3.33386,0 -5.00079,0 0,17.949 0,35.897 0,53.845 -70.55539,0 -141.11078,0 -211.66617,0 z"
     id="path14"
     inkscape:connector-curvature="0" />
  <path
     style="fill:none;stroke:#000000;stroke-width:0.03527778;stroke-linecap:butt;stroke-linejoin:miter;stroke-miterlimit:4;stroke-opacity:1;stroke-dasharray:none"
     d="m 306.65614,504.65378 c -8.08028,0 -16.16057,0 -24.24086,0 0,1.673 0,3.347 0,5.02 8.47397,0 16.94793,0 25.42189,0 12.34061,8.561 45.1697,10.092 37.02183,25.682 -17.93839,34.323 -77.82268,-20.091 -92.95437,-34.638 -5.39273,-16.981 -30.97818,7.481 -55.21546,11.222 -12.11867,1.87 -28.82974,-0.14 -32.65219,-13.375 -2.93409,-10.159 9.90048,-17.052 15.73072,-22.048 -10.84499,0.379 -20.69349,-4.991 -23.5074,-15.652 -2.74104,-10.385 5.711,-21.144 12.3913,-24.561 -7.89802,-4.091 -23.69409,-10.406 -23.69409,-37.467 0,-27.062 15.79607,-33.377 23.69409,-37.468 -6.6803,-3.417 -15.13236,-14.176 -12.3913,-24.561 2.81391,-10.661 12.66241,-16.031 23.5074,-15.652 -5.83024,-4.996 -18.66481,-11.889 -15.73072,-22.048 3.82245,-13.235 20.53352,-15.245 32.65219,-13.375 24.23728,3.741 49.82273,28.203 55.21546,11.222 15.13169,-14.547 75.01598,-68.961 92.95436,-34.638 8.14786,15.59 -24.68121,17.121 -37.02182,25.682 -8.47396,0 -16.94792,0 -25.42189,0 0,1.673 0,3.347 0,5.02 8.08029,0 16.16058,0 24.24086,0 -19.68746,70.545 -19.68746,141.09 0,211.635 z"
     id="path16"
     inkscape:connector-curvature="0" />
  <path
     style="fill:none;stroke:#000000;stroke-width:0.03527778;stroke-linecap:butt;stroke-linejoin:miter;stroke-miterlimit:4;stroke-opacity:1;stroke-dasharray:none"
     d="m 115.13993,280.35478 c 3.45478,3.974 6.90956,7.949 10.36434,11.923 1.2648,-1.1 2.52959,-2.199 3.79439,-3.298 -4.15076,-4.775 -8.30153,-9.55 -12.45229,-14.325 5.37254,-11.422 10.74509,-22.844 16.11764,-34.265 3.69993,1.647 7.39986,3.294 11.09979,4.942 0.67796,-1.523 1.35592,-3.046 2.03388,-4.569 -3.3975,-1.512 -6.79501,-3.025 -10.19251,-4.538 8.04803,-15.021 23.93094,-28.375 45.20762,-35.538 67.03078,-22.569 118.04042,-19.906 181.1382,3.02 24.53058,12.402 21.34462,46.115 42.68107,55.994 0,7.722 0,15.444 0,23.166 1.42739,0 2.85477,0 4.28216,0 0,5.834 0,11.667 0,17.5 -1.42739,-0.06 -2.85477,-0.128 -4.28216,-0.192 -0.0227,15.076 -0.0454,30.153 -0.0681,45.229 -6.86149,0.109 -13.72298,0.218 -20.58447,0.326 -0.0227,2.043 -0.0454,4.085 -0.0681,6.128 6.90688,0.09 13.81376,0.181 20.72064,0.271 0,14.15 0,28.299 0,42.448 -9.50683,0 -19.01367,0 -28.52051,0 0,1.688 0,3.376 0,5.064 9.50684,0 19.01368,0 28.52051,0 0,14.15 0,28.299 0,42.448 -6.90688,0.09 -13.81376,0.181 -20.72064,0.272 0.0227,2.042 0.0454,4.085 0.0681,6.127 6.86149,0.109 13.72299,0.218 20.58448,0.326 0.0227,15.077 0.0454,30.153 0.0681,45.23 1.42738,-0.06 2.85477,-0.128 4.28215,-0.192 0,5.833 0,11.666 0,17.499 -1.42738,0 -2.85477,0 -4.28215,0 0,7.722 0,15.444 0,23.166 -21.33646,9.879 -18.1505,43.592 -42.68108,55.994 -63.09777,22.926 -114.10741,25.59 -181.13821,3.021 -21.27668,-7.164 -37.15959,-20.517 -45.20762,-35.539 3.3975,-1.512 6.79501,-3.025 10.19251,-4.538 -0.67796,-1.523 -1.35592,-3.045 -2.03388,-4.568 -3.69993,1.647 -7.39986,3.295 -11.09979,4.942 -5.37255,-11.422 -10.7451,-22.843 -16.11764,-34.265 4.15076,-4.775 8.30153,-9.55 12.45229,-14.325 -1.2648,-1.099 -2.52959,-2.199 -3.79439,-3.298 -3.45478,3.974 -6.90956,7.948 -10.36434,11.923 -13.35941,-38.919 -17.326357,-70.673 -17.326357,-116.755 0,-46.081 3.966947,-77.836 17.326357,-116.754 z"
     id="path18"
     inkscape:connector-curvature="0" />
  <path
     style="fill:none;stroke:#000000;stroke-width:0.03527778;stroke-linecap:butt;stroke-linejoin:miter;stroke-miterlimit:4;stroke-opacity:1;stroke-dasharray:none"
     d="m 330.97838,426.75078 c 5.64849,10.457 11.29698,20.915 16.94546,31.372 2.96446,-1.32 5.92891,-2.64 8.89337,-3.96 0.67789,1.523 1.35578,3.046 2.03368,4.568 -2.96446,1.32 -5.92892,2.64 -8.89337,3.96 5.53652,14.012 11.07305,28.024 16.60957,42.036 -16.1205,19.484 -21.64289,45.67 -48.36149,58.451 -38.40821,18.373 -68.37906,14.001 -109.04599,1.393 -25.72937,-7.976 -37.5965,-26.501 -56.39475,-39.752 -2.16602,-25.587 -4.33203,-51.174 -6.49805,-76.761 -6.07757,-33.966 -6.07757,-67.932 0,-101.897 2.16602,-25.587 4.33203,-51.174 6.49805,-76.761 18.79825,-13.251 30.66535,-31.776 56.39473,-39.753 40.66693,-12.607 70.63777,-16.979 109.046,1.394 26.7186,12.78 32.24099,38.967 48.36149,58.45 -5.53652,14.012 -11.07304,28.025 -16.60956,42.037 2.96445,1.32 5.92891,2.64 8.89336,3.959 -0.67789,1.523 -1.35579,3.046 -2.03368,4.568 -2.96445,-1.32 -5.9289,-2.64 -8.89336,-3.959 -5.64848,10.457 -11.29697,20.914 -16.94546,31.371 0,19.762 0,39.523 0,59.284 z"
     id="path20"
     inkscape:connector-curvature="0" />
</svg>
