<?xml version="1.0" encoding="UTF-8" standalone="no"?>
<svg
   xmlns:dc="http://purl.org/dc/elements/1.1/"
   xmlns:cc="http://creativecommons.org/ns#"
   xmlns:rdf="http://www.w3.org/1999/02/22-rdf-syntax-ns#"
   xmlns:svg="http://www.w3.org/2000/svg"
   xmlns="http://www.w3.org/2000/svg"
   xmlns:sodipodi="http://sodipodi.sourceforge.net/DTD/sodipodi-0.dtd"
   xmlns:inkscape="http://www.inkscape.org/namespaces/inkscape"
   width="3188.9763"
   height="2125.9841"
   viewBox="0 0 900.00001 600.00003"
   id="svg2"
   version="1.1"
   inkscape:version="0.48.5 r10040"
   sodipodi:docname="snowyOwl_smal_sheet3.svg">
  <metadata
     id="metadata34">
    <rdf:RDF>
      <cc:Work
         rdf:about="">
        <dc:format>image/svg+xml</dc:format>
        <dc:type
           rdf:resource="http://purl.org/dc/dcmitype/StillImage" />
      </cc:Work>
    </rdf:RDF>
  </metadata>
  <defs
     id="defs32" />
  <sodipodi:namedview
     pagecolor="#ffffff"
     bordercolor="#666666"
     borderopacity="1"
     objecttolerance="10"
     gridtolerance="10"
     guidetolerance="10"
     inkscape:pageopacity="0"
     inkscape:pageshadow="2"
     inkscape:window-width="835"
     inkscape:window-height="666"
     id="namedview30"
     showgrid="false"
     units="cm"
     inkscape:zoom="0.081880862"
     inkscape:cx="1227.6114"
     inkscape:cy="901.65863"
     inkscape:window-x="0"
     inkscape:window-y="0"
     inkscape:window-maximized="0"
     inkscape:current-layer="svg2" />
  <title
     id="title4">Bezier Curve : BezierCurve.027</title>
  <desc
     id="desc6">This is an exported Bezier xml_path from Blender, using the ExportScript by maybites.ch and Craxic</desc>
  <g
     id="g3011"
     transform="matrix(0.1,0,0,0.1,59.395052,881.39689)"
     style="stroke-width:0.35277782;stroke-miterlimit:4;stroke-dasharray:none">
    <path
       inkscape:connector-curvature="0"
       id="path8"
       d="m 870.36138,-4154.39 c 50.65936,0 101.31872,0 151.97812,0 0,-73.65 0,-147.31 0,-220.96 423.3008,0 846.6017,0 1269.9025,0 0,73.65 0,147.31 0,220.96 50.6594,0 101.3188,0 151.9781,0 0,339.97 0,679.95 0,1019.92 -50.6829,0 -101.366,0 -152.0489,0 0,48.14 0,96.27 0,144.41 -423.2536,0 -846.5072,0 -1269.7609,0 0,-48.14 0,-96.27 0,-144.41 -50.68293,0 -101.36595,0 -152.04892,0 0,-339.97 0,-679.95 0,-1019.92 z"
       style="fill:none;stroke:#000000;stroke-width:0.35277782;stroke-linecap:butt;stroke-linejoin:miter;stroke-opacity:1;stroke-miterlimit:4;stroke-dasharray:none" />
    <path
       inkscape:connector-curvature="0"
       id="path10"
       d="m 1116.35,-3953.27 c 18.6039,-60.23 115.56,-83.43 180.9731,-50.28 209.731,106.26 19.7223,429.61 213.1747,563.23 94.308,65.15 199.2779,65.15 293.5859,0 193.4524,-133.62 3.4437,-456.97 213.1747,-563.23 65.4131,-33.15 162.3692,-9.95 180.9731,50.28 51.4573,166.59 55.4559,334.53 -19.0837,526.04 -30.4442,78.22 -67.5429,120.38 -139.4999,163.59 -131.0442,78.7 -229.4982,84.27 -382.3571,84.27 -152.859,0 -251.313,-5.57 -382.3572,-84.27 -71.957,-43.21 -109.0557,-85.37 -139.4999,-163.59 -74.5396,-191.51 -70.541,-359.45 -19.0837,-526.04 z"
       style="fill:none;stroke:#000000;stroke-width:0.35277782;stroke-linecap:butt;stroke-linejoin:miter;stroke-opacity:1;stroke-miterlimit:4;stroke-dasharray:none" />
    <path
       inkscape:connector-curvature="0"
       id="path12"
       d="m 1550.7666,-3958.02 c 1.1459,142.97 2.2918,285.94 3.4377,428.91 68.7243,0 137.4486,0 206.1729,0 1.1459,-142.97 2.2918,-285.94 3.4377,-428.91 -35.5081,0 -71.0161,0 -106.5242,0 -35.508,0 -71.0161,0 -106.5241,0 z"
       style="fill:none;stroke:#000000;stroke-width:0.35277782;stroke-linecap:butt;stroke-linejoin:miter;stroke-opacity:1;stroke-miterlimit:4;stroke-dasharray:none" />
    <path
       inkscape:connector-curvature="0"
       id="path14"
       d="m 6764.7074,-5146.92 c 48.4819,0 96.9634,0 145.4453,0 0,-10.04 0,-20.08 0,-30.12 -50.8437,0 -101.6879,0 -152.5316,0 -22.8476,-56.76 -121.2687,-121.74 -68.5434,-170.26 112.5269,-103.56 252.0637,81.73 349.9989,175.89 139.6117,439.59 139.6117,879.19 0,1318.79 -97.9352,94.15 -237.472,279.45 -349.9989,175.89 -52.7253,-48.53 45.6958,-113.51 68.5434,-170.26 50.8437,0 101.6879,0 152.5316,0 0,-10.04 0,-20.08 0,-30.12 -48.4819,0 -96.9634,0 -145.4453,0 118.1249,-423.27 118.1249,-846.54 0,-1269.81 z"
       style="fill:none;stroke:#000000;stroke-width:0.35277782;stroke-linecap:butt;stroke-linejoin:miter;stroke-opacity:1;stroke-miterlimit:4;stroke-dasharray:none" />
    <path
       inkscape:connector-curvature="0"
       id="path16"
       d="m 7351.5542,-5146.92 c 48.482,0 96.9634,0 145.4454,0 0,-10.04 0,-20.08 0,-30.12 -50.8438,0 -101.6875,0 -152.5312,0 -22.8481,-56.76 -121.2692,-121.74 -68.5439,-170.26 112.5269,-103.56 252.0638,81.73 349.999,175.89 139.6112,439.59 139.6112,879.19 0,1318.79 -97.9352,94.15 -237.4721,279.45 -349.999,175.89 -52.7253,-48.53 45.6958,-113.51 68.5439,-170.26 50.8437,0 101.6874,0 152.5312,0 0,-10.04 0,-20.08 0,-30.12 -48.482,0 -96.9634,0 -145.4454,0 118.125,-423.27 118.125,-846.54 0,-1269.81 z"
       style="fill:none;stroke:#000000;stroke-width:0.35277782;stroke-linecap:butt;stroke-linejoin:miter;stroke-opacity:1;stroke-miterlimit:4;stroke-dasharray:none" />
    <path
       inkscape:connector-curvature="0"
       id="path18"
       d="m 6200.4054,-5146.92 c 48.482,0 96.9634,0 145.4454,0 0,-10.04 0,-20.08 0,-30.12 -50.8438,0 -101.6875,0 -152.5312,0 -22.8481,-56.76 -121.2692,-121.74 -68.5439,-170.26 112.5269,-103.56 252.0638,81.73 349.999,175.89 139.6112,439.59 139.6112,879.19 0,1318.79 -97.9352,94.15 -237.4721,279.45 -349.999,175.89 -52.7253,-48.53 45.6958,-113.51 68.5439,-170.26 50.8437,0 101.6874,0 152.5312,0 0,-10.04 0,-20.08 0,-30.12 -48.482,0 -96.9634,0 -145.4454,0 118.125,-423.27 118.125,-846.54 0,-1269.81 z"
       style="fill:none;stroke:#000000;stroke-width:0.35277782;stroke-linecap:butt;stroke-linejoin:miter;stroke-opacity:1;stroke-miterlimit:4;stroke-dasharray:none" />
    <path
       inkscape:connector-curvature="0"
       id="path20"
       d="m 4841.3718,-5434.77 c -144.6352,454.09 -452.4111,818.19 -815.1161,976.81 4.0903,-114.14 8.1803,-228.27 12.2707,-342.41 268.4969,-112.95 442.8782,-342.4 521.141,-632.49 47.5137,1.71 95.0277,3.41 142.5414,5.11 0.3584,-10 0.7169,-20 1.0753,-30 -47.514,-1.71 -95.0277,-3.41 -142.5417,-5.11 113.2961,-419.55 128.4571,-842.61 45.4831,-1269.19 47.5138,1.71 95.0277,3.41 142.5415,5.11 0.3583,-10 0.7169,-20 1.0752,-30 -47.5139,-1.7 -95.0277,-3.41 -142.5416,-5.11 -57.2973,-294.94 -214.8066,-536.29 -474.5302,-668.17 4.0903,-114.13 8.1803,-228.27 12.2706,-342.41 350.555,180.43 631.6402,561.13 743.5344,1020.66 82.4003,442.58 66.6659,881.65 -47.2036,1317.2 z"
       style="fill:none;stroke:#000000;stroke-width:0.35277782;stroke-linecap:butt;stroke-linejoin:miter;stroke-opacity:1;stroke-miterlimit:4;stroke-dasharray:none" />
    <path
       inkscape:connector-curvature="0"
       id="path22"
       d="m 1541.177,-7003.18 c 276.4367,-335.12 552.8735,-670.25 829.3103,-1005.37 0,114.21 0,228.42 0,342.63 -182.6184,216.91 -365.2367,433.83 -547.855,650.74 -47.5444,0 -95.0887,0 -142.633,0 0,10.01 0,20.02 0,30.02 47.5443,0 95.0886,0 142.633,0 -98.198,423.34 -98.198,846.67 10e-5,1270.01 -47.5444,0 -95.0888,0 -142.6331,0 0,10 0,20.01 0,30.02 47.5443,0 95.0887,0 142.6331,0 182.6183,216.91 365.2367,433.83 547.855,650.74 0,114.21 0,228.42 0,342.63 -276.4368,-331.12 -552.8736,-662.25 -829.3104,-993.37 -98.198,-439.35 -98.198,-878.7 0,-1318.05 z"
       style="fill:none;stroke:#000000;stroke-width:0.35277782;stroke-linecap:butt;stroke-linejoin:miter;stroke-opacity:1;stroke-miterlimit:4;stroke-dasharray:none" />
    <path
       inkscape:connector-curvature="0"
       id="path24"
       d="m 1359.6217,-7282.57 c -331.3718,145.96 -662.74363,291.93 -994.11547,437.89 -46.65601,0 -93.31215,0 -139.96816,0 0,10 0,20.01 0,30.01 46.65601,0 93.31215,0 139.96816,0 0,339.99 0,679.99 0,1019.98 -46.65601,0 -93.31215,0 -139.96816,0 0,10.01 0,20.01 0,30.02 46.65601,0 93.31215,0 139.96816,0 331.37184,178.17 662.74367,356.35 994.11547,534.52 0,89.66 0,179.31 0,268.97 -452.65537,-209.7 -905.31075,-419.39 -1357.9660649,-629.09 0,-479.76 0,-959.52 0,-1439.29 C 454.31095,-7201.63 906.96633,-7373.7 1359.6217,-7545.77 c 0,87.74 0,175.47 0,263.2 z"
       style="fill:none;stroke:#000000;stroke-width:0.35277782;stroke-linecap:butt;stroke-linejoin:miter;stroke-opacity:1;stroke-miterlimit:4;stroke-dasharray:none" />
    <path
       inkscape:connector-curvature="0"
       id="path26"
       d="m 5058.5929,-8043.16 c 120.177,155.56 240.3538,311.12 360.5308,466.68 12.5492,66.46 25.0983,132.92 37.6475,199.38 -40.854,0 -81.708,0 -122.5619,0 0,10 0,20 0,30 42.741,0 85.4818,0 128.2229,0 56.5217,296.34 113.0435,592.68 169.5652,889.02 -45.5296,0 -91.0594,0 -136.589,0 0,10 0,20 0,30 47.4369,0 94.8741,0 142.311,0 -70.4896,605.71 -140.9795,1211.42 -211.4691,1817.13 -117.5332,255.37 -235.0664,510.74 -352.5996,766.11 202.656,102.63 251.8765,376.97 269.3769,376.97 -676.9897,0 -1353.9793,0 -2030.9689,0 13.0223,-155.61 26.0445,-311.21 39.0668,-466.82 47.153,-47.62 94.3061,-95.24 141.4591,-142.86 -7.1075,-7.04 -14.2148,-14.07 -21.3223,-21.11 -35.6083,35.96 -71.2166,71.92 -106.8249,107.88 -70.0191,-166.43 -140.0383,-332.85 -210.0574,-499.28 46.2394,0 92.4789,0 138.7183,0 0,-10.01 0,-20.01 0,-30.02 -48.5905,0 -97.1808,0 -145.7712,0 -67.4884,-426.85 -134.9768,-853.71 -202.4653,-1280.56 46.4049,0 92.8097,0 139.2145,0 0,-10 0,-20 0,-30 -46.4048,0 -92.8096,0 -139.2145,0 28.6205,-505.49 57.2409,-1010.97 85.8614,-1516.46 42.6641,0 85.3283,0 127.9925,0 0,-10 0,-20 0,-30 -42.6642,0 -85.3284,0 -127.9925,0 52.3096,-107.71 104.6192,-215.43 156.9288,-323.15 154.1915,-114.1 324.0785,-321.17 462.5744,-342.31 38.1,0 76.2003,0 114.3003,0 0,106.54 0,213.09 0,319.63 -133.4131,72.53 -266.8262,145.07 -400.2393,217.6 -52.4346,478.61 -104.8693,957.21 -157.304,1435.81 64.308,516.48 128.616,1032.96 192.924,1549.44 124.8868,150.02 249.7735,300.03 374.6603,450.05 0,93.03 0,186.06 0,279.1 10.0007,0 20.0016,0 30.0023,0 0,-79.15 0,-158.29 0,-237.43 48.0488,60.46 96.0975,120.92 144.1462,181.38 291.9505,0 583.9009,0 875.8514,0 0,18.68 0,37.36 0,56.03 10.0007,0 20.0014,0 30.0021,0 0,-40.73 0,-81.45 0,-122.18 101.2099,-223.18 202.4195,-446.35 303.6294,-669.52 58.301,-607.2 116.6022,-1214.4 174.9032,-1821.6 -69.7503,-367.02 -139.5009,-734.05 -209.2512,-1101.08 -85.9656,-72.53 -171.931,-145.07 -257.8966,-217.6 0,-106.74 0,-213.49 0,-320.23 64.2128,0 128.4256,0 192.6384,0 z"
       style="fill:none;stroke:#000000;stroke-width:0.35277782;stroke-linecap:butt;stroke-linejoin:miter;stroke-opacity:1;stroke-miterlimit:4;stroke-dasharray:none" />
    <path
       inkscape:connector-curvature="0"
       id="path28"
       d="m 6104.9588,-2988.58 c -120.1772,-155.56 -240.354,-311.12 -360.5313,-466.68 -12.5489,-66.46 -25.0983,-132.92 -37.6472,-199.38 40.8539,0 81.7079,0 122.5619,0 0,-10 0,-20 0,-30 -42.7408,0 -85.4821,0 -128.223,0 -56.5216,-296.34 -113.0435,-592.68 -169.5652,-889.02 45.5296,0 91.059,0 136.5886,0 0,-10 0,-20 0,-30 -47.4369,0 -94.8739,0 -142.3108,0 70.4896,-605.7 140.9795,-1211.41 211.4689,-1817.12 117.5332,-255.37 235.0664,-510.74 352.5996,-766.11 -202.6558,-102.63 -251.8768,-376.97 -269.3767,-376.97 676.9895,0 1353.9791,0 2030.9686,0 -13.0224,155.61 -26.0443,311.21 -39.0668,466.82 -47.153,47.62 -94.306,95.24 -141.459,142.86 7.1073,7.04 14.215,14.07 21.3223,21.11 35.6083,-35.96 71.2166,-71.92 106.8249,-107.88 70.0192,166.42 140.038,332.85 210.0572,499.28 -46.2393,0 -92.4787,0 -138.7181,0 0,10.01 0,20.01 0,30.02 48.5907,0 97.1808,0 145.7715,0 67.4882,426.85 134.9769,853.71 202.4651,1280.56 -46.4049,0 -92.8097,0 -139.2146,0 0,10 0,20 0,30 46.4049,0 92.8097,0 139.2146,0 -28.6203,505.49 -57.241,1010.97 -85.8612,1516.46 -42.6641,0 -85.3286,0 -127.9927,0 0,10 0,20 0,30 42.6641,0 85.3286,0 127.9927,0 -52.3096,107.71 -104.6195,215.43 -156.9291,323.15 -154.1915,114.1 -324.078,321.17 -462.574,342.31 -38.1002,0 -76.2,0 -114.3002,0 0,-106.54 0,-213.09 0,-319.63 133.4128,-72.54 266.8261,-145.07 400.239,-217.6 52.4349,-478.61 104.8693,-957.21 157.3043,-1435.81 -64.3082,-516.48 -128.6164,-1032.96 -192.9245,-1549.44 -124.8866,-150.02 -249.7735,-300.03 -374.6601,-450.05 0,-93.03 0,-186.06 0,-279.1 -10.0007,0 -20.0018,0 -30.0025,0 0,79.15 0,158.29 0,237.43 -48.0485,-60.46 -96.0975,-120.92 -144.146,-181.38 -291.9507,0 -583.9009,0 -875.8516,0 0,-18.68 0,-37.36 0,-56.03 -10.0008,0 -20.0015,0 -30.0022,0 0,40.73 0,81.45 0,122.18 -101.2096,223.17 -202.4197,446.35 -303.6294,669.52 -58.3009,607.2 -116.6019,1214.4 -174.9029,1821.6 69.7503,367.02 139.5011,734.05 209.2514,1101.08 85.9657,72.53 171.9308,145.06 257.8964,217.6 0,106.74 0,213.49 0,320.23 -64.2127,0 -128.4251,0 -192.6379,0 z"
       style="fill:none;stroke:#000000;stroke-width:0.35277782;stroke-linecap:butt;stroke-linejoin:miter;stroke-opacity:1;stroke-miterlimit:4;stroke-dasharray:none" />
  </g>
</svg>
