<?xml version="1.0" encoding="UTF-8" standalone="no"?>
<svg
   xmlns:dc="http://purl.org/dc/elements/1.1/"
   xmlns:cc="http://creativecommons.org/ns#"
   xmlns:rdf="http://www.w3.org/1999/02/22-rdf-syntax-ns#"
   xmlns:svg="http://www.w3.org/2000/svg"
   xmlns="http://www.w3.org/2000/svg"
   xmlns:sodipodi="http://sodipodi.sourceforge.net/DTD/sodipodi-0.dtd"
   xmlns:inkscape="http://www.inkscape.org/namespaces/inkscape"
   width="2125.9841"
   height="3188.9763"
   viewBox="0 0 599.99995 900.00003"
   id="svg2"
   version="1.1"
   inkscape:version="0.48.5 r10040"
   sodipodi:docname="snowyOwl_big_sheet2.svg">
  <metadata
     id="metadata58">
    <rdf:RDF>
      <cc:Work
         rdf:about="">
        <dc:format>image/svg+xml</dc:format>
        <dc:type
           rdf:resource="http://purl.org/dc/dcmitype/StillImage" />
      </cc:Work>
    </rdf:RDF>
  </metadata>
  <defs
     id="defs56" />
  <sodipodi:namedview
     pagecolor="#ffffff"
     bordercolor="#666666"
     borderopacity="1"
     objecttolerance="10"
     gridtolerance="10"
     guidetolerance="10"
     inkscape:pageopacity="0"
     inkscape:pageshadow="2"
     inkscape:window-width="747"
     inkscape:window-height="545"
     id="namedview54"
     showgrid="false"
     units="cm"
     inkscape:zoom="0.10826069"
     inkscape:cx="1029.6868"
     inkscape:cy="1541.4386"
     inkscape:window-x="412"
     inkscape:window-y="30"
     inkscape:window-maximized="0"
     inkscape:current-layer="svg2" />
  <title
     id="title4">Bezier Curve : BezierCircle.002</title>
  <desc
     id="desc6">This is an exported Bezier xml_path from Blender, using the ExportScript by maybites.ch and Craxic</desc>
  <path
     style="fill:none;stroke:#000000;stroke-width:0.03527778;stroke-linecap:butt;stroke-linejoin:miter;stroke-opacity:1;stroke-miterlimit:4;stroke-dasharray:none"
     d="m 282.34899,80.613713 c 16.01995,-16.124004 32.03991,-32.249004 48.05986,-48.374004 26.63165,-4.172 53.26331,-8.344 79.89496,-12.516 26.63165,4.172 53.26331,8.344 79.89496,12.516 16.01995,16.125 32.03991,32.25 48.05986,48.374004 2.13339,46.076997 4.26679,92.154997 6.40018,138.231997 -14.72098,14.759 -29.44194,29.517 -44.16292,44.276 -30.06403,7.602 -60.12804,15.204 -90.19208,22.807 -30.06403,-7.603 -60.12805,-15.205 -90.19208,-22.807 -14.72097,-14.759 -29.44194,-29.517 -44.16292,-44.276 2.13339,-46.077 4.26679,-92.155 6.40018,-138.231997 z"
     id="path8"
     inkscape:connector-curvature="0" />
  <path
     style="fill:none;stroke:#000000;stroke-width:0.03527778;stroke-linecap:butt;stroke-linejoin:miter;stroke-opacity:1;stroke-miterlimit:4;stroke-dasharray:none"
     d="m 315.37382,102.58671 c 7.55386,-16.798997 18.9298,-22.852997 35.293,-31.308997 21.23531,-10.974004 35.73363,-13.859004 59.63699,-13.859004 23.90336,0 38.40168,2.885 59.63699,13.859004 16.3632,8.456 27.73914,14.51 35.293,31.308997 14.0376,31.218 12.25884,55.715 0,87.673 -6.5239,17.008 -15.41032,25.613 -31.20378,34.689 -22.03215,12.662 -38.3147,13.25 -63.72621,13.25 -25.41151,0 -41.69405,-0.588 -63.72621,-13.25 -15.79346,-9.076 -24.67987,-17.681 -31.20378,-34.689 -12.25885,-31.958 -14.0376,-56.455 0,-87.673 z"
     id="path10"
     inkscape:connector-curvature="0" />
  <path
     style="fill:none;stroke:#000000;stroke-width:0.03527778;stroke-linecap:butt;stroke-linejoin:miter;stroke-opacity:1;stroke-miterlimit:4;stroke-dasharray:none"
     d="m 540.1048,814.93271 c -6.5398,5.377 -16.20628,4.434 -21.58299,-2.106 -5.40857,-6.579 -4.45952,-16.302 2.11903,-21.711 6.5398,-5.377 16.20628,-4.433 21.583,2.107 5.40857,6.578 4.45952,16.302 -2.11904,21.71 z"
     id="path12"
     inkscape:connector-curvature="0" />
  <path
     style="fill:none;stroke:#000000;stroke-width:0.03527778;stroke-linecap:butt;stroke-linejoin:miter;stroke-opacity:1;stroke-miterlimit:4;stroke-dasharray:none"
     d="m 535.37624,842.98171 c -5.34461,4.394 -13.24449,3.623 -17.63858,-1.722 -4.42013,-5.376 -3.64452,-13.323 1.73177,-17.743 5.34461,-4.394 13.24448,-3.623 17.63857,1.722 4.42013,5.376 3.64454,13.323 -1.73176,17.743 z"
     id="path14"
     inkscape:connector-curvature="0" />
  <path
     style="fill:none;stroke:#000000;stroke-width:0.03527778;stroke-linecap:butt;stroke-linejoin:miter;stroke-opacity:1;stroke-miterlimit:4;stroke-dasharray:none"
     d="m 549.53709,779.21671 c -8.44185,6.941 -20.91974,5.723 -27.86023,-2.719 -6.98163,-8.492 -5.75655,-21.044 2.73532,-28.026 8.44185,-6.94 20.91976,-5.722 27.86024,2.72 6.98161,8.492 5.75655,21.043 -2.73533,28.025 z"
     id="path16"
     inkscape:connector-curvature="0" />
  <path
     style="fill:none;stroke:#000000;stroke-width:0.03527778;stroke-linecap:butt;stroke-linejoin:miter;stroke-opacity:1;stroke-miterlimit:4;stroke-dasharray:none"
     d="m 546.56299,842.46471 c 8.44185,-6.941 20.91975,-5.723 27.86023,2.719 6.98164,8.492 5.75652,21.044 -2.73535,28.026 -8.44185,6.94 -20.91975,5.722 -27.86024,-2.72 -6.98163,-8.492 -5.75652,-21.043 2.73536,-28.025 z"
     id="path18"
     inkscape:connector-curvature="0" />
  <path
     style="fill:none;stroke:#000000;stroke-width:0.03527778;stroke-linecap:butt;stroke-linejoin:miter;stroke-opacity:1;stroke-miterlimit:4;stroke-dasharray:none"
     d="m 557.73793,780.83271 c 5.3446,-4.394 13.24448,-3.623 17.63856,1.722 4.42014,5.376 3.64452,13.323 -1.73177,17.743 -5.34461,4.394 -13.24449,3.623 -17.63857,-1.722 -4.42014,-5.376 -3.64451,-13.323 1.73178,-17.743 z"
     id="path20"
     inkscape:connector-curvature="0" />
  <path
     style="fill:none;stroke:#000000;stroke-width:0.03527778;stroke-linecap:butt;stroke-linejoin:miter;stroke-opacity:1;stroke-miterlimit:4;stroke-dasharray:none"
     d="m 553.00935,808.88071 c 6.5398,-5.376 16.20626,-4.433 21.58298,2.107 5.40858,6.578 4.45953,16.302 -2.11901,21.711 -6.5398,5.376 -16.20629,4.433 -21.58301,-2.107 -5.40858,-6.578 -4.45953,-16.302 2.11904,-21.711 z"
     id="path22"
     inkscape:connector-curvature="0" />
  <path
     style="fill:none;stroke:#000000;stroke-width:0.03527778;stroke-linecap:butt;stroke-linejoin:miter;stroke-opacity:1;stroke-miterlimit:4;stroke-dasharray:none"
     d="m 559.86715,683.80071 c -4.15752,10.107 -15.72859,14.933 -25.83554,10.775 -10.16684,-4.182 -15.02151,-15.822 -10.83935,-25.988 4.15751,-10.107 15.7286,-14.934 25.83555,-10.776 10.16683,4.182 15.02151,15.822 10.83934,25.989 z"
     id="path24"
     inkscape:connector-curvature="0" />
  <path
     style="fill:none;stroke:#000000;stroke-width:0.03527778;stroke-linecap:butt;stroke-linejoin:miter;stroke-opacity:1;stroke-miterlimit:4;stroke-dasharray:none"
     d="m 579.15795,743.39271 c -2.63216,6.399 -9.95795,9.454 -16.35675,6.822 -6.43671,-2.648 -9.51023,-10.017 -6.86247,-16.454 2.63216,-6.399 9.95793,-9.454 16.35673,-6.822 6.43673,2.648 9.51025,10.017 6.86249,16.454 z"
     id="path26"
     inkscape:connector-curvature="0" />
  <path
     style="fill:none;stroke:#000000;stroke-width:0.03527778;stroke-linecap:butt;stroke-linejoin:miter;stroke-opacity:1;stroke-miterlimit:4;stroke-dasharray:none"
     d="m 570.06422,716.44171 c -3.2208,7.829 -12.18479,11.568 -20.0145,8.347 -7.87611,-3.24 -11.63698,-12.257 -8.39711,-20.133 3.22078,-7.829 12.18477,-11.568 20.0145,-8.347 7.87614,3.239 11.63698,12.257 8.39711,20.133 z"
     id="path28"
     inkscape:connector-curvature="0" />
  <path
     style="fill:none;stroke:#000000;stroke-width:0.03527778;stroke-linecap:butt;stroke-linejoin:miter;stroke-opacity:1;stroke-miterlimit:4;stroke-dasharray:none"
     d="m 243.35613,32.586709 c -1e-5,15.033 -1e-5,30.066 -1e-5,45.099004 1.66666,0 3.33333,0 5,0 0,20.082001 0,40.163997 0,60.244997 -1.66667,0 -3.33334,-0.01 -5,-0.02 0,15.073 0,30.145 0,45.218 -8.83989,0 -17.67977,0 -26.51967,0 0,1.667 0,3.333 0,5 -10.5066,0 -21.01321,0 -31.51982,0 0,-1.667 0,-3.333 0,-5 -25.21584,0 -50.43168,0 -75.64752,0 0,1.667 0,3.333 0,5 -10.506608,0 -21.013214,0 -31.51982,0 0,-1.667 0,-3.333 0,-5 -8.851743,0 -17.70351,0 -26.555252,0 0,-15.067 2.3e-5,-30.134 2.3e-5,-45.202 -1.666665,0 -3.33333,0 -4.999995,0 0,-20.081 0,-40.162996 0,-60.244997 1.666665,0 3.33333,0 4.999995,0 0,-15.033004 -2.3e-5,-30.066004 -2.3e-5,-45.099004 8.851742,0 17.703509,0 26.555252,0 0,-1.667 0,-3.333 0,-5 10.506606,0 21.013212,0 31.51982,0 0,1.667 0,3.333 0,5 25.21584,0 50.43168,0 75.64752,0 0,-1.667 0,-3.333 0,-5 10.50661,0 21.01322,0 31.51982,0 0,1.667 0,3.333 0,5 8.8399,0 17.67978,0 26.51968,0 z"
     id="path30"
     inkscape:connector-curvature="0" />
  <path
     style="fill:none;stroke:#000000;stroke-width:0.03527778;stroke-linecap:butt;stroke-linejoin:miter;stroke-opacity:1;stroke-miterlimit:4;stroke-dasharray:none"
     d="m 163.01051,109.14871 c 0,1.667 0,3.333 0,5 -10.34516,0 -20.69032,0 -31.03548,0 0,-1.667 0,-3.333 0,-5 10.34516,0 20.69032,0 31.03548,0 z"
     id="path32"
     inkscape:connector-curvature="0" />
  <path
     style="fill:none;stroke:#000000;stroke-width:0.03527778;stroke-linecap:butt;stroke-linejoin:miter;stroke-opacity:1;stroke-miterlimit:4;stroke-dasharray:none"
     d="m 211.83646,64.820709 c 1.66666,0 3.33333,0 4.99999,0 0,5.423004 0,10.847004 0,16.270004 -1.66666,0 -3.33333,0 -4.99999,0 0,-5.423 0,-10.847 0,-16.270004 z"
     id="path34"
     inkscape:connector-curvature="0" />
  <path
     style="fill:none;stroke:#000000;stroke-width:0.03527778;stroke-linecap:butt;stroke-linejoin:miter;stroke-opacity:1;stroke-miterlimit:4;stroke-dasharray:none"
     d="m 211.83646,131.09071 c 1.66666,0 3.33333,0 4.99999,0 0,7.629 0,15.257 0,22.885 -1.66666,0 -3.33333,0 -4.99999,0 0,-7.628 0,-15.256 0,-22.885 z"
     id="path36"
     inkscape:connector-curvature="0" />
  <path
     style="fill:none;stroke:#000000;stroke-width:0.03527778;stroke-linecap:butt;stroke-linejoin:miter;stroke-opacity:1;stroke-miterlimit:4;stroke-dasharray:none"
     d="m 83.44595,131.09071 c -1.666666,0 -3.333331,0 -4.999996,0 0,7.629 0,15.257 0,22.885 1.666665,0 3.33333,0 4.999996,0 0,-7.628 0,-15.256 0,-22.885 z"
     id="path38"
     inkscape:connector-curvature="0" />
  <path
     style="fill:none;stroke:#000000;stroke-width:0.03527778;stroke-linecap:butt;stroke-linejoin:miter;stroke-opacity:1;stroke-miterlimit:4;stroke-dasharray:none"
     d="m 83.44595,64.820709 c -1.666666,0 -3.333331,0 -4.999996,0 0,5.423004 0,10.847004 0,16.270004 1.666665,0 3.33333,0 4.999996,0 0,-5.423 0,-10.847 0,-16.270004 z"
     id="path40"
     inkscape:connector-curvature="0" />
  <path
     style="fill:none;stroke:#000000;stroke-width:0.03527778;stroke-linecap:butt;stroke-linejoin:miter;stroke-opacity:1;stroke-miterlimit:4;stroke-dasharray:none"
     d="m 164.13048,143.54671 c 2.52097,3.4 2.52097,7.441 0,10.841 -4.02371,5.426 -9.80185,5.024 -16.55696,5.024 -6.75513,0 -12.53325,0.402 -16.55698,-5.024 -2.52097,-3.4 -2.52097,-7.441 0,-10.841 4.02373,-5.426 9.80186,-5.024 16.55698,-5.024 6.75511,0 12.53323,-0.402 16.55696,5.024 z"
     id="path42"
     inkscape:connector-curvature="0" />
  <path
     style="fill:none;stroke:#000000;stroke-width:0.03527778;stroke-linecap:butt;stroke-linejoin:miter;stroke-opacity:1;stroke-miterlimit:4;stroke-dasharray:none"
     d="m 84.644623,631.35271 c 8.259272,48.014 16.518547,96.027 24.777817,144.041 -2.08125,7.492 -4.16247,14.985 -6.24373,22.477 1.60604,0.446 3.21208,0.892 4.81811,1.338 2.08125,-7.492 4.16248,-14.984 6.24373,-22.477 54.59843,15.167 109.19685,30.333 163.79529,45.5 -2.08125,7.492 -4.16249,14.985 -6.24374,22.477 1.60679,0.446 3.21357,0.893 4.82036,1.339 2.08124,-7.492 4.16249,-14.985 6.24373,-22.477 36.69057,-35.527 73.38114,-71.054 110.07171,-106.581 14.39739,3.999 28.79477,7.998 43.19216,11.998 -47.16246,53.597 -94.32493,107.195 -141.48739,160.792 -79.81233,-22.17 -159.62463,-44.341 -239.436962,-66.511 -4.272127,-67.886 -8.544279,-135.771 -12.816406,-203.656 14.08844,3.913 28.176881,7.827 42.265321,11.74 z"
     id="path44"
     inkscape:connector-curvature="0" />
  <path
     style="fill:none;stroke:#000000;stroke-width:0.03527778;stroke-linecap:butt;stroke-linejoin:miter;stroke-opacity:1;stroke-miterlimit:4;stroke-dasharray:none"
     d="m 132.7543,457.90671 c 8.658,59.725 17.31602,119.45 25.97402,179.175 -2.08125,7.492 -4.16249,14.985 -6.24374,22.477 1.60604,0.446 3.21207,0.892 4.81811,1.339 2.08125,-7.493 4.16249,-14.985 6.24374,-22.477 54.59843,15.166 109.19686,30.333 163.79529,45.499 -2.08125,7.493 -4.16249,14.985 -6.24374,22.477 1.60678,0.447 3.21357,0.893 4.82035,1.339 2.08125,-7.492 4.16249,-14.984 6.24374,-22.477 43.39427,-45.265 86.78853,-90.531 130.18279,-135.797 14.39739,4 28.79477,7.999 43.19215,11.999 -53.86616,63.336 -107.73232,126.672 -161.59848,190.008 -79.86588,-22.186 -159.73178,-44.371 -239.59767,-66.557 -4.617311,-79.582 -9.234597,-159.163 -13.851906,-238.745 14.088446,3.913 28.176906,7.827 42.265346,11.74 z"
     id="path46"
     inkscape:connector-curvature="0" />
  <path
     style="fill:none;stroke:#000000;stroke-width:0.03527778;stroke-linecap:butt;stroke-linejoin:miter;stroke-opacity:1;stroke-miterlimit:4;stroke-dasharray:none"
     d="m 175.85401,421.36671 c 5.04706,25.083 33.53414,53.04 62.49045,80.98 0.31574,8.871 0.6315,17.742 0.94725,26.614 1.67027,-0.06 3.34054,-0.119 5.0108,-0.179 -0.31575,-8.871 -0.6315,-17.742 -0.94725,-26.613 56.62675,-2.016 113.2535,-4.031 169.88025,-6.047 0.31576,8.871 0.63151,17.743 0.94726,26.614 1.67027,-0.06 3.34054,-0.119 5.01081,-0.179 -0.31575,-8.871 -0.6315,-17.742 -0.94726,-26.613 26.86458,-28.691 53.72915,-57.382 80.59373,-86.073 12.60752,-0.448 25.21504,-0.897 37.82256,-1.346 -38.83298,47.096 -77.66594,94.192 -116.49892,141.288 -59.96729,2.134 -119.93457,4.269 -179.90187,6.403 -51.88425,-45.103 -85.45454,-90.858 -104.13671,-133.434 13.24297,-0.472 26.48593,-0.943 39.7289,-1.415 z"
     id="path48"
     inkscape:connector-curvature="0" />
  <path
     style="fill:none;stroke:#000000;stroke-width:0.03527778;stroke-linecap:butt;stroke-linejoin:miter;stroke-opacity:1;stroke-miterlimit:4;stroke-dasharray:none"
     d="m 53.985662,360.34471 c 0.173807,-4.974 0.347638,-9.947 0.521445,-14.921 31.656147,-17.655 63.312293,-35.309 94.968443,-52.963 7.17903,0.672 14.35806,1.344 21.53709,2.015 -2.41324,22.411 -4.82646,44.821 -7.2397,67.232 -9.76172,-0.676 -19.52343,-1.351 -29.28514,-2.027 -0.0337,1.687 -0.0674,3.374 -0.10105,5.061 11.18373,0.584 22.36744,1.168 33.55117,1.752 36.99056,1.932 73.98111,3.864 110.97167,5.796 18.89039,-6.598 37.78077,-13.197 56.67116,-19.796 14.63623,0.765 29.27246,1.529 43.9087,2.294 -0.30933,5.893 -0.61865,11.786 -0.92797,17.68 -3.79129,-0.198 -7.58258,-0.396 -11.37386,-0.594 -0.0875,1.66 -0.17502,3.321 -0.26253,4.981 3.78906,0.198 7.57813,0.396 11.36719,0.594 -2.00472,5.386 -4.00944,10.773 -6.01416,16.159 -61.52653,2.902 -123.05306,5.803 -184.57959,8.705 -16.56923,-2.71 -33.13847,-5.421 -49.7077,-8.131 -28.00171,-11.279 -56.003454,-22.558 -84.005168,-33.837 z"
     id="path50"
     inkscape:connector-curvature="0" />
  <path
     style="fill:none;stroke:#000000;stroke-width:0.03527778;stroke-linecap:butt;stroke-linejoin:miter;stroke-opacity:1;stroke-miterlimit:4;stroke-dasharray:none"
     d="m 516.92064,339.93471 c -0.13925,4.975 -0.27848,9.95 -0.41773,14.925 -31.53267,17.874 -63.06532,35.748 -94.59799,53.621 -7.18352,-0.621 -14.36703,-1.243 -21.55056,-1.865 2.25739,-22.427 4.51478,-44.854 6.77217,-67.281 9.76617,0.608 19.53236,1.216 29.29854,1.823 0.022,-1.686 0.0439,-3.373 0.0659,-5.06 -11.18752,-0.507 -22.37504,-1.013 -33.56256,-1.519 -37.00308,-1.675 -74.00616,-3.35 -111.00924,-5.025 -18.84407,6.73 -37.68814,13.459 -56.53221,20.189 -14.64119,-0.663 -29.28239,-1.325 -43.92358,-1.988 0.26835,-5.895 0.53671,-11.791 0.80506,-17.686 3.79257,0.171 7.58514,0.343 11.37771,0.515 0.076,-1.661 0.15194,-3.322 0.2279,-4.983 -3.79035,-0.172 -7.5807,-0.344 -11.37104,-0.515 1.96722,-5.4 3.93446,-10.8 5.90169,-16.201 61.50488,-3.329 123.00974,-6.658 184.51462,-9.988 16.58768,2.596 33.17534,5.191 49.76301,7.786 28.07945,11.084 56.15889,22.168 84.23834,33.252 z"
     id="path52"
     inkscape:connector-curvature="0" />
</svg>
