<?xml version="1.0" standalone="no"?>
<!DOCTYPE svg PUBLIC "-//W3C//DTD SVG 20010904//EN" "http://www.w3.org/TR/2001/REC-SVG-20010904/DTD/svg10.dtd">
<svg width="4895.601689815521mm" height="8754.75686788559mm"  viewBox="0 0 4895.601689815521 8754.75686788559" xmlns="http://www.w3.org/2000/svg">
    <title>Bezier Curve : BezierCurve.028</title>
    <desc>This is an exported Bezier xml_path from Blender, using the ExportScript by maybites.ch and Craxic</desc>
<path style="fill:none;stroke:#000000;stroke-width:1px;stroke-linecap:butt;stroke-linejoin:miter;stroke-opacity:1" d="M39.20719712972641,508.4014251232147 C135.32689899206161,411.6539671421051 231.44660085439682,314.90653896331787 327.566302716732,218.15908098220825 C487.3562225699425,193.1258454322815 647.1460977196693,168.09260988235474 806.9360030162757,143.05937433242798 C966.7259076237679,168.09260988235474 1126.5157827734947,193.1258454322815 1286.3057026267052,218.15908098220825 C1382.4254044890404,314.90653896331787 1478.5451063513756,411.6539671421051 1574.6648082137108,508.4014251232147 C1587.465144097805,784.8651125431061 1600.265539586544,1061.3287105560303 1613.0658754706383,1337.7923979759216 C1524.7400769591331,1426.3435020446777 1436.4142188429832,1514.894546508789 1348.0884203314781,1603.4456505775452 C1167.7042612433434,1649.059893131256 987.3201468586922,1694.674135684967 806.9360030162757,1740.288378238678 C626.551858484745,1694.674135684967 446.16774410009384,1649.059893131256 265.7835850119591,1603.4456505775452 C177.45778650045395,1514.894546508789 89.13192838430405,1426.3435020446777 0.8061298727989197,1337.7923979759216 C13.606465756893158,1061.3287105560303 26.40686124563217,784.8651125431061 39.20719712972641,508.4014251232147 Z "/>
<path style="fill:none;stroke:#000000;stroke-width:1px;stroke-linecap:butt;stroke-linejoin:miter;stroke-opacity:1" d="M237.35610336065292,640.2363642454147 C282.67929643392563,539.4429578781128 350.9348997473717,503.1220033168793 449.11412090063095,452.3840560913086 C576.5259334445,386.5390136241913 663.5158428549767,369.2324175834656 806.9360026717186,369.2324175834656 C950.3561624884605,369.2324175834656 1037.3460718989372,386.5390136241913 1164.7578844428062,452.3840560913086 C1262.9371055960655,503.1220033168793 1331.1927089095116,539.4429578781128 1376.5159019827843,640.2363642454147 C1460.7414373755455,827.5439604520798 1450.068927705288,974.5289101600647 1376.5159019827843,1166.2787809371948 C1337.3723992705345,1268.3242573738098 1284.0539583563805,1319.9516549110413 1189.2931827902794,1374.4116439819336 C1057.1002730727196,1450.3842606544495 959.4050267338753,1453.9095177650452 806.936003639906,1453.9095177650452 C654.4669786095619,1453.9095177650452 556.7717322707176,1450.3842606544495 424.5788225531578,1374.4116439819336 C329.81804698705673,1319.9516549110413 276.4996060729027,1268.3242573738098 237.35610336065292,1166.2787809371948 C163.80307763814926,974.5289101600647 153.1305679678917,827.5439604520798 237.35610336065292,640.2363642454147 Z "/>
<path style="fill:none;stroke:#000000;stroke-width:1px;stroke-linecap:butt;stroke-linejoin:miter;stroke-opacity:1" d="M2191.5262708067894,-6264.119444847107 C2413.4222039580345,-6264.119444847107 2635.318256318569,-6264.119444847107 2857.2141894698143,-6264.119444847107 C2857.2141894698143,-6166.900454521179 2857.2141894698143,-6069.6814641952515 2857.2141894698143,-5972.462473869324 C2867.214179933071,-5972.462473869324 2877.214170396328,-5972.462473869324 2887.214160859585,-5972.462473869324 C2887.214160859585,-5872.462569236755 2887.214160859585,-5772.462664604187 2887.214160859585,-5672.462759971619 C2877.214170396328,-5672.462759971619 2867.214179933071,-5672.462759971619 2857.2141894698143,-5672.462759971619 C2857.2141894698143,-5568.3734998703 2857.2141894698143,-5464.28471660614 2857.2141894698143,-5360.195456504822 C2635.318256318569,-5360.195456504822 2413.4222039580345,-5360.195456504822 2191.5262708067894,-5360.195456504822 C2191.5262708067894,-5661.503611564636 2191.5262708067894,-5962.8112897872925 2191.5262708067894,-6264.119444847107 Z "/>
<path style="fill:none;stroke:#000000;stroke-width:1px;stroke-linecap:butt;stroke-linejoin:miter;stroke-opacity:1" d="M2157.7547559142113,-2772.941170692444 C2379.6506890654564,-2772.941170692444 2601.546741425991,-2772.941170692444 2823.442674577236,-2772.941170692444 C2823.442674577236,-2369.487820625305 2823.442674577236,-1966.0342321395874 2823.442674577236,-1562.5808820724487 C2601.546741425991,-1562.5808820724487 2379.6506890654564,-1562.5808820724487 2157.7547559142113,-1562.5808820724487 C2157.7547559142113,-1966.0342321395874 2157.7547559142113,-2369.487820625305 2157.7547559142113,-2772.941170692444 Z "/>
<path style="fill:none;stroke:#000000;stroke-width:1px;stroke-linecap:butt;stroke-linejoin:miter;stroke-opacity:1" d="M2060.0514182448387,246.13082551956177 C2206.016398370266,577.5026395320892 2351.9812592864037,908.8744237422943 2497.946239411831,1240.2462377548218 C2497.946239411831,1286.9022800922394 2497.946239411831,1333.5583522319794 2497.946239411831,1380.214394569397 C2507.9473027586937,1380.214394569397 2517.948485314846,1380.214394569397 2527.949548661709,1380.214394569397 C2527.949548661709,1333.5583522319794 2527.949548661709,1286.9022800922394 2527.949548661709,1240.2462377548218 C2867.94421762228,1240.2462377548218 3207.9391250014305,1240.2462377548218 3547.933793962002,1240.2462377548218 C3547.933793962002,1286.9022800922394 3547.933793962002,1333.5583522319794 3547.933793962002,1380.214394569397 C3557.939506471157,1380.214394569397 3567.9454573988914,1380.214394569397 3577.9511699080467,1380.214394569397 C3577.9511699080467,1333.5583522319794 3577.9511699080467,1286.9022800922394 3577.9511699080467,1240.2462377548218 C3756.125665605068,908.8743939399719 3934.2999228835106,577.5025501251221 4112.474418580532,246.13070631027222 C4202.129579484463,246.13070631027222 4291.7849788069725,246.13070631027222 4381.440139710903,246.13070631027222 C4171.745992600918,698.7861111164093 3962.0516070723534,1151.4414265155792 3752.357459962368,1604.0968313217163 C3255.017496049404,1604.0968313217163 2757.677293717861,1604.0968313217163 2260.3372105956078,1604.0968313217163 C2105.843878686428,1151.4415159225464 1951.3504275679588,698.7861409187317 1796.8570956587791,246.13082551956177 C1884.5885762572289,246.13082551956177 1972.319937646389,246.13082551956177 2060.0514182448387,246.13082551956177 Z "/>
<path style="fill:none;stroke:#000000;stroke-width:1px;stroke-linecap:butt;stroke-linejoin:miter;stroke-opacity:1" d="M1558.8135489821434,-5704.111872673035 C1683.6660274863243,-5439.80437374115 1808.5185059905052,-5175.497351646423 1933.371044099331,-4911.189852714539 C1933.371044099331,-4864.533720970154 1933.371044099331,-4817.877589225769 1933.371044099331,-4771.221457481384 C1943.3721074461937,-4771.221457481384 1953.373290002346,-4771.221457481384 1963.3743533492088,-4771.221457481384 C1963.3743533492088,-4817.877589225769 1963.3743533492088,-4864.533720970154 1963.3743533492088,-4911.189852714539 C2303.3691415190697,-4911.189852714539 2643.363810479641,-4911.189852714539 2983.358598649502,-4911.189852714539 C2983.358598649502,-4864.533720970154 2983.358598649502,-4817.877589225769 2983.358598649502,-4771.221457481384 C2993.364311158657,-4771.221457481384 3003.3702620863914,-4771.221457481384 3013.3759745955467,-4771.221457481384 C3013.3759745955467,-4817.877589225769 3013.3759745955467,-4864.533720970154 3013.3759745955467,-4911.189852714539 C3168.434596955776,-5175.497351646423 3323.493457734585,-5439.80437374115 3478.5520800948143,-5704.111872673035 C3568.207240998745,-5704.111872673035 3657.8626403212547,-5704.111872673035 3747.5178012251854,-5704.111872673035 C3560.939289033413,-5318.520842552185 3374.3607768416405,-4932.930289268494 3187.782264649868,-4547.339259147644 C2690.7757291197777,-4547.339259147644 2193.769312798977,-4547.339259147644 1696.7627772688866,-4547.339259147644 C1563.0482205748558,-4932.930289268494 1429.3337830901146,-5318.520842552185 1295.6192263960838,-5704.111872673035 C1383.3506473898888,-5704.111872673035 1471.0821279883385,-5704.111872673035 1558.8135489821434,-5704.111872673035 Z "/>
<path style="fill:none;stroke:#000000;stroke-width:1px;stroke-linecap:butt;stroke-linejoin:miter;stroke-opacity:1" d="M1558.8135489821434,-2123.682795524597 C1683.6660274863243,-1859.3752965927124 1808.5185059905052,-1595.0680360794067 1933.371044099331,-1330.760537147522 C1933.371044099331,-1284.1044054031372 1933.371044099331,-1237.4485120773315 1933.371044099331,-1190.7923803329468 C1943.3721074461937,-1190.7923803329468 1953.373290002346,-1190.7923803329468 1963.3743533492088,-1190.7923803329468 C1963.3743533492088,-1237.4485120773315 1963.3743533492088,-1284.1044054031372 1963.3743533492088,-1330.760537147522 C2303.3691415190697,-1330.760537147522 2643.363810479641,-1330.760537147522 2983.358598649502,-1330.760537147522 C2983.358598649502,-1284.1044054031372 2983.358598649502,-1237.4485120773315 2983.358598649502,-1190.7923803329468 C2993.364311158657,-1190.7923803329468 3003.3702620863914,-1190.7923803329468 3013.3759745955467,-1190.7923803329468 C3013.3759745955467,-1237.4485120773315 3013.3759745955467,-1284.1044054031372 3013.3759745955467,-1330.760537147522 C3168.434596955776,-1595.0680360794067 3323.493457734585,-1859.3755350112915 3478.5520800948143,-2123.6830339431763 C3568.207240998745,-2123.6830339431763 3657.8626403212547,-2123.6830339431763 3747.5178012251854,-2123.6830339431763 C3560.939289033413,-1738.0920038223267 3374.3607768416405,-1352.5012121200562 3187.782264649868,-966.9101819992065 C2690.7757291197777,-966.9101819992065 2193.769312798977,-966.9101819992065 1696.7627772688866,-966.9101819992065 C1563.0482205748558,-1352.500973701477 1429.3337830901146,-1738.0920038223267 1295.6192263960838,-2123.682795524597 C1383.3506473898888,-2123.682795524597 1471.0821279883385,-2123.682795524597 1558.8135489821434,-2123.682795524597 Z "/>
<path style="fill:none;stroke:#000000;stroke-width:1px;stroke-linecap:butt;stroke-linejoin:miter;stroke-opacity:1" d="M633.2249411940575,-2255.7232961654663 C672.2777107357979,-2417.9831132888794 711.3304653763771,-2580.2431688308716 750.3832349181175,-2742.5029859542847 C1270.819283425808,-2821.015654563904 1791.2552127242088,-2899.528084754944 2311.6912612318993,-2978.040753364563 C2758.0901154875755,-2939.72211933136 3204.488969743252,-2901.4032468795776 3650.8877047896385,-2863.0846128463745 C3925.0650176405907,-2578.342257499695 4199.242092072964,-2293.599663734436 4473.419404923916,-2008.8573083877563 C4473.419404923916,-1755.1560983657837 4473.419404923916,-1501.454649925232 4473.419404923916,-1247.7534399032593 C4199.242092072964,-963.0110845565796 3925.0650176405907,-678.2687292098999 3650.8877047896385,-393.5263738632202 C3204.488969743252,-355.207501411438 2758.0901154875755,-316.88862895965576 2311.6912612318993,-278.56975650787354 C1791.2552127242088,-357.0823059082031 1270.819283425808,-435.59473609924316 750.3832349181175,-514.1072854995728 C711.3304653763771,-676.3672218322754 672.2777107357979,-838.6272773742676 633.2249411940575,-1000.8872137069702 C633.2249411940575,-1419.1659078598022 633.2249411940575,-1837.4446020126343 633.2249411940575,-2255.7232961654663 Z "/>
<path style="fill:none;stroke:#000000;stroke-width:1px;stroke-linecap:butt;stroke-linejoin:miter;stroke-opacity:1" d="M451.7533549666405,-993.3500871658325 C461.7533454298973,-993.3500871658325 471.75333589315414,-993.3500871658325 481.753326356411,-993.3500871658325 C481.753326356411,-1416.65345287323 481.753326356411,-1839.9570569992065 481.753326356411,-2263.260422706604 C471.75333589315414,-2263.260422706604 461.7533454298973,-2263.260422706604 451.7533549666405,-2263.260422706604 C451.7533549666405,-1839.9570569992065 451.7533549666405,-1416.65345287323 451.7533549666405,-993.3500871658325 Z "/>
<path style="fill:none;stroke:#000000;stroke-width:1px;stroke-linecap:butt;stroke-linejoin:miter;stroke-opacity:1" d="M4896.407342851162,-993.3069334030151 C4788.7167701125145,-993.3069334030151 4681.025958955288,-993.3069334030151 4573.3353862166405,-993.3069334030151 C4573.334909379482,-983.3053932189941 4573.334194123745,-973.3037338256836 4573.333717286587,-963.3021936416626 C4681.0250052809715,-963.3021936416626 4788.716054856777,-963.3023128509521 4896.407342851162,-963.3023128509521 C4896.407342851162,-856.0484037399292 4896.40781968832,-748.7943754196167 4896.40781968832,-641.5404663085938 C4792.984224259853,-654.8690185546875 4689.5603904128075,-668.1974515914917 4586.136794984341,-681.5260038375854 C4365.8134707808495,-508.693395614624 4145.489908158779,-335.86066818237305 3925.166583955288,-163.02805995941162 C3893.19417566061,-198.53693103790283 3861.2220057845116,-234.04580211639404 3829.249597489834,-269.55467319488525 C3821.8147525191307,-262.86047554016113 3814.3801459670067,-256.16615867614746 3806.9453009963036,-249.47196102142334 C3838.5214576125145,-214.40332984924316 3870.0973758101463,-179.33457946777344 3901.6735324263573,-144.26594829559326 C3851.107574403286,-104.53224039077759 3800.541854798794,-64.79859209060669 3749.9758967757225,-25.064884185791016 C3657.8082808852196,-16.46560287475586 3565.6409034132957,-7.866321563720703 3473.473287522793,0.7329597473144531 C3436.6287955641747,-40.186999797821045 3399.7840651869774,-81.10701894760132 3362.939573228359,-122.02697849273682 C3355.504728257656,-115.33272123336792 3348.070121705532,-108.6385235786438 3340.635276734829,-101.9442663192749 C3372.21143335104,-66.87557554244995 3403.7873515486717,-31.806944370269775 3435.3635081648827,3.261746406555176 C3055.653072297573,25.225879192352295 2741.0714396834373,92.91231775283813 2296.2320813536644,69.15420436859131 C1641.5971884131432,34.1912522315979 1191.8957003951073,-114.16035747528076 639.7274503111839,-205.8176383972168 C662.7797850966454,-255.25361156463623 685.8321198821068,-304.6897039413452 708.8844546675682,-354.12567710876465 C699.8210096359253,-358.35212326049805 690.757572054863,-362.5784502029419 681.6941270232201,-366.8048963546753 C658.6417922377586,-317.36892318725586 635.5894574522972,-267.9328308105469 612.5371226668358,-218.49685764312744 C515.3991052508354,-421.93835830688477 418.26111763715744,-625.3797397613525 321.1231002211571,-828.8212404251099 C321.1230108141899,-1361.8105039596558 321.12295120954514,-1894.7997674942017 321.122861802578,-2427.7890310287476 C418.26087921857834,-2631.2304124832153 515.3988668322563,-2834.671793937683 612.5368842482567,-3038.113175392151 C635.5892190337181,-2988.677321434021 658.6415538191795,-2939.241229057312 681.693888604641,-2889.805375099182 C690.7573336362839,-2894.0318212509155 699.8207712173462,-2898.258267402649 708.8842162489891,-2902.4847135543823 C685.8318814635277,-2951.920567512512 662.7795466780663,-3001.356659889221 639.7272118926048,-3050.792513847351 C1191.8954619765282,-3142.4496755599976 1641.596949994564,-3290.801344871521 2296.2318429350853,-3325.7644758224487 C2741.0712012648582,-3349.5224103927612 3055.652595460415,-3281.836329460144 3435.3630313277245,-3259.8722562789917 C3403.7871131300926,-3224.803744316101 3372.2109565138817,-3189.7347555160522 3340.63503831625,-3154.6662435531616 C3348.069883286953,-3147.971926689148 3355.504489839077,-3141.2776098251343 3362.93933480978,-3134.5832929611206 C3399.7840651869774,-3175.50355052948 3436.6285571455956,-3216.423331260681 3473.473287522793,-3257.3435888290405 C3565.6409034132957,-3248.7443075180054 3657.8082808852196,-3240.14502620697 3749.9758967757225,-3231.545744895935 C3800.5416163802147,-3191.8123350143433 3851.107335984707,-3152.0784482955933 3901.673055589199,-3112.3447999954224 C3870.0971373915672,-3077.2760496139526 3838.5209807753563,-3042.207537651062 3806.9450625777245,-3007.1387872695923 C3814.3799075484276,-3000.4444704055786 3821.8145141005516,-2993.750391960144 3829.2493590712547,-2987.0560750961304 C3861.2217673659325,-3022.5649461746216 3893.193937242031,-3058.073817253113 3925.166345536709,-3093.582688331604 C4145.4896697402,-2920.749960899353 4365.81323236227,-2747.917471885681 4586.136556565762,-2575.08474445343 C4689.560151994228,-2588.413296699524 4792.983747422695,-2601.7418489456177 4896.407342851162,-2615.0704011917114 C4896.407342851162,-2507.816372871399 4896.407342851162,-2400.5625829696655 4896.407342851162,-2293.308554649353 C4788.716054856777,-2293.308554649353 4681.024766862392,-2293.308554649353 4573.333478868008,-2293.308554649353 C4573.334194123745,-2283.3068952560425 4573.334670960903,-2273.305474281311 4573.3353862166405,-2263.3038148880005 C4681.025958955288,-2263.3038148880005 4788.7167701125145,-2263.3038148880005 4896.407342851162,-2263.3038148880005 C4896.407342851162,-1839.9716005325317 4896.407342851162,-1416.639147758484 4896.407342851162,-993.3069334030151 Z "/>
<path style="fill:none;stroke:#000000;stroke-width:1px;stroke-linecap:butt;stroke-linejoin:miter;stroke-opacity:1" d="M583.8713416457176,-5939.5335302352905 C622.924111187458,-6101.793585777283 661.9768658280373,-6264.053164482117 701.0296353697777,-6426.313220024109 C1221.465683877468,-6504.825888633728 1741.901613175869,-6583.338080406189 2262.3376616835594,-6661.850749015808 C2708.7365159392357,-6623.532114982605 3155.135370194912,-6585.213480949402 3601.5341052412987,-6546.894846916199 C3875.711418092251,-6262.152491569519 4149.888492524624,-5977.410136222839 4424.065805375576,-5692.66778087616 C4424.065805375576,-5438.966570854187 4424.065805375576,-5185.264883995056 4424.065805375576,-4931.5636739730835 C4149.888492524624,-4646.821318626404 3875.711418092251,-4362.078963279724 3601.5341052412987,-4077.3366079330444 C3155.135370194912,-4039.0179738998413 2708.7365159392357,-4000.69886302948 2262.3376616835594,-3962.380228996277 C1741.901613175869,-4040.892897605896 1221.465683877468,-4119.405089378357 701.0296353697777,-4197.917757987976 C661.9768658280373,-4360.177813529968 622.924111187458,-4522.437392234802 583.8713416457176,-4684.697447776794 C583.8713416457176,-5102.9761419296265 583.8713416457176,-5521.2548360824585 583.8713416457176,-5939.5335302352905 Z "/>
<path style="fill:none;stroke:#000000;stroke-width:1px;stroke-linecap:butt;stroke-linejoin:miter;stroke-opacity:1" d="M402.39975541830063,-4677.160082817078 C412.39974588155746,-4677.160082817078 422.3997363448143,-4677.160082817078 432.39972680807114,-4677.160082817078 C432.39972680807114,-5100.463686943054 432.39972680807114,-5523.767291069031 432.39972680807114,-5947.070895195007 C422.3997363448143,-5947.070895195007 412.39974588155746,-5947.070895195007 402.39975541830063,-5947.070895195007 C402.39975541830063,-5523.767291069031 402.39975541830063,-5100.463686943054 402.39975541830063,-4677.160082817078 Z "/>
<path style="fill:none;stroke:#000000;stroke-width:1px;stroke-linecap:butt;stroke-linejoin:miter;stroke-opacity:1" d="M4847.053743302822,-4677.117167472839 C4739.363170564175,-4677.117167472839 4631.672359406948,-4677.117167472839 4523.981786668301,-4677.117167472839 C4523.981309831142,-4667.115508079529 4523.980594575405,-4657.1143255233765 4523.980117738247,-4647.112666130066 C4631.671405732632,-4647.112666130066 4739.362455308437,-4647.112666130066 4847.053743302822,-4647.112666130066 C4847.053743302822,-4539.858637809753 4847.05422013998,-4432.604609489441 4847.05422013998,-4325.350581169128 C4743.6306247115135,-4338.679133415222 4640.206790864468,-4352.007685661316 4536.783195436001,-4365.33623790741 C4316.45987123251,-4192.503748893738 4096.136308610439,-4019.6707830429077 3875.812984406948,-3846.838294029236 C3843.8405761122704,-3882.347403526306 3811.8684062361717,-3917.8560361862183 3779.895997941494,-3953.3651456832886 C3772.461152970791,-3946.670828819275 3765.026546418667,-3939.9765119552612 3757.5917014479637,-3933.2821950912476 C3789.1678580641747,-3898.213683128357 3820.7437762618065,-3863.144694328308 3852.3199328780174,-3828.0761823654175 C3801.753974854946,-3788.3422956466675 3751.188255250454,-3748.6088857650757 3700.6222972273827,-3708.8749990463257 C3608.4546813368797,-3700.2757177352905 3516.287303864956,-3691.6764364242554 3424.119687974453,-3683.07715511322 C3387.275196015835,-3723.9974126815796 3350.4304656386375,-3764.9171934127808 3313.5859736800194,-3805.83745098114 C3306.1511287093163,-3799.1431341171265 3298.7165221571922,-3792.448817253113 3291.281677186489,-3785.754500389099 C3322.8578338027,-3750.6859884262085 3354.433752000332,-3715.6169996261597 3386.009908616543,-3680.548487663269 C3006.2994727492332,-3658.5844144821167 2691.7178401350975,-3590.8983335494995 2246.8784818053246,-3614.656268119812 C1592.2435888648033,-3649.6193990707397 1142.5421008467674,-3797.970591545105 590.3738507628441,-3889.6277532577515 C613.4261855483055,-3939.0638456344604 636.4785203337669,-3988.4999380111694 659.5308551192284,-4037.9360303878784 C650.467417538166,-4042.1622381210327 641.4039650559425,-4046.388922691345 632.3405274748802,-4050.6151304244995 C609.2881926894188,-4001.1790380477905 586.2358579039574,-3951.7434225082397 563.1835231184959,-3902.3073301315308 C466.0455057024956,-4105.748473167419 368.9075180888176,-4309.190093040466 271.76950067281723,-4512.631236076355 C271.76944106817245,-5045.62073802948 271.7693218588829,-5578.609763145447 271.76926225423813,-6111.599265098572 C368.9072796702385,-6315.040884971619 466.0452672839165,-6518.482028007507 563.1832846999168,-6721.923647880554 C586.2356194853783,-6672.487555503845 609.2879542708397,-6623.051939964294 632.3402890563011,-6573.615847587585 C641.4037266373634,-6577.84205532074 650.467179119587,-6582.068739891052 659.5306167006493,-6586.2949476242065 C636.4782819151878,-6635.7310400009155 613.4259471297264,-6685.166655540466 590.373612344265,-6734.602747917175 C1142.5418624281883,-6826.259909629822 1592.2433504462242,-6974.611578941345 2246.8782433867455,-7009.574709892273 C2691.7176017165184,-7033.332644462585 3006.298995912075,-6965.646563529968 3386.0094317793846,-6943.682490348816 C3354.433513581753,-6908.613978385925 3322.857356965542,-6873.5449895858765 3291.28143876791,-6838.476477622986 C3298.716283738613,-6831.782160758972 3306.150890290737,-6825.0878438949585 3313.5857352614403,-6818.393527030945 C3350.4304656386375,-6859.313784599304 3387.2749575972557,-6900.233565330505 3424.119687974453,-6941.153822898865 C3516.287303864956,-6932.55454158783 3608.4546813368797,-6923.955260276794 3700.6222972273827,-6915.355978965759 C3751.188016831875,-6875.622092247009 3801.753736436367,-6835.8886823654175 3852.319456040859,-6796.1547956466675 C3820.7435378432274,-6761.086283683777 3789.1673812270164,-6726.017771720886 3757.5914630293846,-6690.949259757996 C3765.0263080000877,-6684.254942893982 3772.4609145522118,-6677.560626029968 3779.895759522915,-6670.866309165955 C3811.8681678175926,-6706.375418663025 3843.8403376936913,-6741.884051322937 3875.812745988369,-6777.393160820007 C4096.13607019186,-6604.560194969177 4316.4596328139305,-6431.727705955505 4536.782957017422,-6258.894740104675 C4640.2065524458885,-6272.223292350769 4743.630147874355,-6285.551844596863 4847.053743302822,-6298.8803968429565 C4847.053743302822,-6191.626368522644 4847.053743302822,-6084.37281703949 4847.053743302822,-5977.118788719177 C4739.362455308437,-5977.118788719177 4631.671167314053,-5977.118788719177 4523.979879319668,-5977.118788719177 C4523.980594575405,-5967.117129325867 4523.981071412563,-5957.115946769714 4523.981786668301,-5947.114287376404 C4631.672359406948,-5947.114287376404 4739.363170564175,-5947.114287376404 4847.053743302822,-5947.114287376404 C4847.053743302822,-5523.782073020935 4847.053743302822,-5100.449381828308 4847.053743302822,-4677.117167472839 Z "/>
</svg>