<?xml version="1.0" standalone="no"?>
<!DOCTYPE svg PUBLIC "-//W3C//DTD SVG 20010904//EN" "http://www.w3.org/TR/2001/REC-SVG-20010904/DTD/svg10.dtd">
<svg width="5571.115016937256mm" height="8467.431843280792mm"  viewBox="0 0 5571.115016937256 8467.431843280792" xmlns="http://www.w3.org/2000/svg">
    <title>Bezier Curve : BezierCurve.003</title>
    <desc>This is an exported Bezier xml_path from Blender, using the ExportScript by maybites.ch and Craxic</desc>
<path style="fill:none;stroke:#000000;stroke-width:1px;stroke-linecap:butt;stroke-linejoin:miter;stroke-opacity:1" d="M2376.3800835609436,496.09125995635986 C2466.6959023475647,286.8204846382141 2587.391791343689,156.29364395141602 2809.3463158607483,104.45345783233643 C3079.466519355774,41.36361026763916 3255.277199149132,298.38825607299805 3492.880735490471,298.36232805252075 C3730.0630336999893,298.33645963668823 3905.499277114868,41.535033226013184 4175.185081958771,104.45345783233643 C4397.15695142746,156.24011898040771 4517.6695561409,286.89403676986694 4608.167526721954,496.09125995635986 C4723.198888301849,762.0006337165833 4751.458761692047,994.7737588882446 4594.12789106369,1238.0575671195984 C4431.358633041382,1489.7508754730225 4199.214932918549,1547.9242339134216 3900.0335907936096,1566.1957397460938 C3738.8255870342255,1576.0409965515137 3699.1344368457794,1436.210705280304 3507.2979977726936,1436.210705280304 C3507.2979977726936,1388.5253801345825 3507.2979977726936,1340.8401145935059 3507.2979977726936,1293.1547894477844 C3497.271350994706,1293.1547894477844 3487.244706079364,1293.1547894477844 3477.2180593013763,1293.1547894477844 C3477.2180593013763,1340.8401145935059 3477.2180593013763,1388.5253801345825 3477.2180593013763,1436.210705280304 C3285.807785987854,1436.210705280304 3246.233013868332,1575.9054555892944 3085.3580808639526,1566.1074652671814 C2786.3365983963013,1547.8956832885742 2554.563043117523,1489.4856944084167 2391.6845297813416,1238.0575671195984 C2234.156963825226,994.8894217014313 2261.57390832901,762.1085777282715 2376.3800835609436,496.09125995635986 Z "/>
<path style="fill:none;stroke:#000000;stroke-width:1px;stroke-linecap:butt;stroke-linejoin:miter;stroke-opacity:1" d="M2669.9966764450073,329.38493633270264 C2897.6230001449585,200.06115579605103 3198.4126245975494,382.81346702575684 3308.4523952007294,534.4183578491211 C3418.34302008152,685.8177765607834 3461.3470858335495,1124.415381193161 3381.909785270691,1152.3193850517273 C3266.5464556217194,1192.8431525230408 3174.0990555286407,1371.2433710098267 3002.7599906921387,1373.4103574752808 C2775.9857153892517,1376.278413772583 2586.3257026672363,1300.5872502326965 2493.699667453766,1093.5722723007202 C2368.648645877838,814.0890731811523 2403.7783122062683,480.63440465927124 2669.9966764450073,329.38493633270264 Z "/>
<path style="fill:none;stroke:#000000;stroke-width:1px;stroke-linecap:butt;stroke-linejoin:miter;stroke-opacity:1" d="M4314.5342445373535,329.38493633270264 C4086.9079208374023,200.06115579605103 3786.1182963848114,382.81346702575684 3676.0785257816315,534.4183578491211 C3566.1879009008408,685.8177765607834 3523.183857500553,1124.4154109954834 3602.62113571167,1152.3193850517273 C3717.98456966877,1192.8431525230408 3810.43186545372,1371.2433710098267 3981.770930290222,1373.4103574752808 C4208.545205593109,1376.278413772583 4398.2052183151245,1300.5872502326965 4490.831253528595,1093.5722723007202 C4615.882275104523,814.0890731811523 4580.7526087760925,480.63440465927124 4314.5342445373535,329.38493633270264 Z "/>
<path style="fill:none;stroke:#000000;stroke-width:1px;stroke-linecap:butt;stroke-linejoin:miter;stroke-opacity:1" d="M4751.9960379600525,-2.3520455360412598 C4903.479573726654,-27.23239517211914 5077.226278781891,-192.04597330093384 5250.973460674286,-359.6767649650574 C5304.234025478363,-359.66639375686646 5357.49470949173,-359.655903339386 5410.755274295807,-359.64553213119507 C5410.757300853729,-369.6734175682068 5410.759208202362,-379.70142221450806 5410.761234760284,-389.7293076515198 C5357.500669956207,-389.73979806900024 5304.239985942841,-389.75016927719116 5250.979421138763,-389.76065969467163 C5251.045939922333,-729.7363743782043 5251.112339496613,-1069.7119698524475 5251.178858280182,-1409.6875653266907 C5304.439423084259,-1409.6770749092102 5357.700107097626,-1409.6668229103088 5410.960671901703,-1409.6563324928284 C5410.962579250336,-1419.68421792984 5410.964605808258,-1429.712341785431 5410.966513156891,-1439.7402272224426 C5357.705948352814,-1439.750717639923 5304.445264339447,-1439.7609696388245 5251.18469953537,-1439.771460056305 C5084.914801120758,-1607.012794971466 4918.645021915436,-1774.253891468048 4752.375123500824,-1941.4952263832092 C4752.389905452728,-2017.1883568763733 4752.404806613922,-2092.8812489509583 4752.419588565826,-2168.5743794441223 C5026.481029987335,-1925.6189332008362 5300.542352199554,-1682.6637253761292 5574.603793621063,-1439.708279132843 C5574.533460140228,-1079.6766743659973 5574.462888240814,-719.6450695991516 5574.392554759979,-359.6134648323059 C5292.812821865082,-58.18616008758545 5011.2545466423035,133.2878007888794 4751.949307918549,236.17227220535278 C4751.96492433548,156.66414642333984 4751.980421543121,77.15608024597168 4751.9960379600525,-2.3520455360412598 Z "/>
<path style="fill:none;stroke:#000000;stroke-width:1px;stroke-linecap:butt;stroke-linejoin:miter;stroke-opacity:1" d="M3524.497983455658,-3768.711136341095 C3639.035222530365,-3870.924042224884 3697.347996234894,-4103.197620868683 3754.150745868683,-4337.849663257599 C3799.11651968956,-4366.394089221954 3844.0823233127594,-4394.938038349152 3889.0480971336365,-4423.482464313507 C3883.6737847328186,-4431.948708057404 3878.2994723320007,-4440.4149518013 3872.925159931183,-4448.8811955451965 C3827.959386110306,-4420.336769580841 3782.9935824871063,-4391.792820453644 3738.0278086662292,-4363.248394489288 C3555.8232790231705,-4650.276230335236 3373.618764281273,-4937.304066181183 3191.414234638214,-5224.33190202713 C3236.380008459091,-5252.875851154327 3281.3457971811295,-5281.420277118683 3326.3115859031677,-5309.96422624588 C3320.9372586011887,-5318.430469989777 3315.5629163980484,-5326.896713733673 3310.1885890960693,-5335.36295747757 C3265.222800374031,-5306.819008350372 3220.257011651993,-5278.274582386017 3175.2912378311157,-5249.73063325882 C2945.2757811546326,-5301.771210193634 2715.260384082794,-5353.81131029129 2485.244987010956,-5405.851887226105 C2444.678542613983,-5469.756649494171 2404.1120982170105,-5533.660934925079 2363.545653820038,-5597.565697193146 C2725.1440858840942,-5539.397762775421 3086.7425179481506,-5481.2298283576965 3448.340950012207,-5423.061893939972 C3641.2941193580627,-5119.101570606232 3834.2472887039185,-4815.1412472724915 4027.200458049774,-4511.180923938751 C3951.098439693451,-4105.774925708771 3816.068766117096,-3793.1981549263 3652.3312306404114,-3567.334698200226 C3609.7201457619667,-3634.460018634796 3567.1090683341026,-3701.5858159065247 3524.497983455658,-3768.711136341095 Z "/>
<path style="fill:none;stroke:#000000;stroke-width:1px;stroke-linecap:butt;stroke-linejoin:miter;stroke-opacity:1" d="M5282.244441509247,-3295.1074109077454 C5233.762738704681,-3295.1074109077454 5185.281035900116,-3295.1074109077454 5136.7993330955505,-3295.1074109077454 C5136.7993330955505,-3285.066650867462 5136.7993330955505,-3275.026367664337 5136.7993330955505,-3264.985607624054 C5187.643048763275,-3264.985607624054 5238.486883640289,-3264.985607624054 5289.330599308014,-3264.985607624054 C5363.374230861664,-3186.623381137848 5587.454316616058,-3130.743072986603 5511.461493968964,-3029.899166584015 C5363.889691829681,-2834.0688214302063 5044.525501728058,-3231.4410672187805 4953.735349178314,-3318.7256321907043 C4889.022586345673,-3522.4876866340637 4339.684364795685,-2731.6494450569153 4339.684126377106,-3930.0122723579407 C4339.683887958527,-5128.374622821808 4889.0223479270935,-4337.536381244659 4953.735110759735,-4541.298912525177 C5044.525263309479,-4628.583477497101 5363.889453411102,-5025.955723285675 5511.4612555503845,-4830.1253781318665 C5587.454078197479,-4729.281471729279 5363.373992443085,-4673.400925159454 5289.330360889435,-4595.038937091827 C5238.48664522171,-4595.038937091827 5187.642810344696,-4595.038937091827 5136.799094676971,-4595.038937091827 C5136.799094676971,-4584.998177051544 5136.799094676971,-4574.957893848419 5136.799094676971,-4564.917133808136 C5185.280797481537,-4564.917133808136 5233.762500286102,-4564.917133808136 5282.244203090668,-4564.917133808136 C5164.1194796562195,-4141.647385120392 5164.119598865509,-3718.3771595954895 5282.244441509247,-3295.1074109077454 Z "/>
<path style="fill:none;stroke:#000000;stroke-width:1px;stroke-linecap:butt;stroke-linejoin:miter;stroke-opacity:1" d="M3714.1603207588196,-6533.54410982132 C3712.0944237709045,-6503.754185199738 3710.0285267829895,-6473.9642605781555 3707.9626297950745,-6444.1743359565735 C3514.50422167778,-6344.826267719269 3321.0458433628082,-6245.477722644806 3127.587435245514,-6146.129654407501 C3084.676889181137,-6151.6352162361145 3041.7663729190826,-6157.141254901886 2998.855826854706,-6162.646816730499 C3017.9387605190277,-6296.534584522247 3037.021723985672,-6430.422352313995 3056.104657649994,-6564.310120105743 C3114.501473903656,-6558.24999666214 3172.898290157318,-6552.190350055695 3231.29510641098,-6546.130226612091 C3231.8442142009735,-6556.237743854523 3232.393351793289,-6566.345261096954 3232.9424595832825,-6576.452778339386 C3165.9997975826263,-6582.257317066193 3099.0571653842926,-6588.061378955841 3032.1145033836365,-6593.865917682648 C2810.699460506439,-6613.064335346222 2589.284417629242,-6632.262753009796 2367.8693747520447,-6651.46117067337 C2253.235695362091,-6615.780399799347 2138.6020159721375,-6580.0996289253235 2023.9683365821838,-6544.4188580513 C1936.35999917984,-6552.015350818634 1848.7515425682068,-6559.61136674881 1761.143205165863,-6567.207859516144 C1764.2109370231628,-6602.483795642853 1767.2786688804626,-6637.759254932404 1770.3464007377625,-6673.035191059113 C1793.039915561676,-6671.067284107208 1815.7335495948792,-6669.099853992462 1838.4270644187927,-6667.131947040558 C1839.2935967445374,-6677.071140766144 1840.1600098609924,-6687.01033449173 1841.026542186737,-6696.949528217316 C1818.3462595939636,-6698.916004657745 1795.6659770011902,-6700.882481098175 1772.9856944084167,-6702.848957538605 C1786.1155247688293,-6734.735535144806 1799.2452359199524,-6766.621635913849 1812.375066280365,-6798.50821352005 C2181.9142079353333,-6803.246067523956 2551.453230381012,-6807.983921527863 2920.99237203598,-6812.721775531769 C3019.791451692581,-6793.058918476105 3118.5905015468597,-6773.396061420441 3217.3895812034607,-6753.733204364777 C3382.979837656021,-6680.336998462677 3548.570064306259,-6606.940315723419 3714.1603207588196,-6533.54410982132 Z "/>
<path style="fill:none;stroke:#000000;stroke-width:1px;stroke-linecap:butt;stroke-linejoin:miter;stroke-opacity:1" d="M935.94074010849,-6509.755657672882 C937.7996897697449,-6539.559410572052 939.6586394309998,-6569.362686634064 941.5175890922546,-6599.166439533234 C1134.2811560630798,-6699.856327533722 1327.044723033905,-6800.54621553421 1519.8081707954407,-6901.2361035346985 C1562.7559399604797,-6896.028564929962 1605.7037091255188,-6890.820549488068 1648.6514782905579,-6885.613010883331 C1630.4991221427917,-6751.59602022171 1612.346646785736,-6617.579029560089 1594.19429063797,-6483.562038898468 C1535.7567048072815,-6489.216373920441 1477.3192381858826,-6494.870232105255 1418.881652355194,-6500.524567127228 C1418.4029078483582,-6490.413712024689 1417.9239249229431,-6480.3023800849915 1417.4451804161072,-6470.191524982452 C1484.4264960289001,-6464.852379322052 1551.4079308509827,-6459.512756824493 1618.3892464637756,-6454.173611164093 C1839.9323201179504,-6436.51394701004 2061.475512981415,-6418.853806018829 2283.0185866355896,-6401.194141864777 C2397.401568889618,-6437.670753955841 2511.7845511436462,-6474.146889209747 2626.1675333976746,-6510.623501300812 C2713.826594352722,-6503.635929584503 2801.485595703125,-6496.648357868195 2889.1446566581726,-6489.660786151886 C2886.322078704834,-6454.364346027374 2883.4994411468506,-6419.068382740021 2880.676863193512,-6383.771942615509 C2857.970175743103,-6385.582016468048 2835.263488292694,-6387.392090320587 2812.556800842285,-6389.202164173126 C2811.75940990448,-6379.257248401642 2810.96195936203,-6369.3123326301575 2810.164568424225,-6359.367416858673 C2832.857964038849,-6357.55829668045 2855.551359653473,-6355.749653339386 2878.244755268097,-6353.940533161163 C2865.336833000183,-6321.963833332062 2852.4288511276245,-6289.986656665802 2839.5209288597107,-6258.0099568367 C2470.0236296653748,-6250.704811573029 2100.526330471039,-6243.400143146515 1731.0290312767029,-6236.094997882843 C1632.0956921577454,-6255.071209430695 1533.1624722480774,-6274.046944141388 1434.2291331291199,-6293.0231556892395 C1268.1329226493835,-6365.26732301712 1102.0369505882263,-6437.511490345001 935.94074010849,-6509.755657672882 Z "/>
<path style="fill:none;stroke:#000000;stroke-width:1px;stroke-linecap:butt;stroke-linejoin:miter;stroke-opacity:1" d="M3656.2602496147156,-2888.356255054474 C3656.3215976953506,-2858.125732898712 3656.382960677147,-2827.8949723243713 3656.444308757782,-2797.6644501686096 C3403.7302708625793,-2683.8145718574524 3151.0162925720215,-2569.9649319648743 2898.302254676819,-2456.115053653717 C2749.609944820404,-2456.115053653717 2600.9176349639893,-2456.115053653717 2452.2253251075745,-2456.115053653717 C2498.587546348572,-2517.3552498817444 2544.949767589569,-2578.5952076911926 2591.3119888305664,-2639.83540391922 C2702.48663187027,-2712.6870617866516 2813.6612153053284,-2785.5389580726624 2924.8358583450317,-2858.390615940094 C2984.3040680885315,-2858.390615940094 3043.772248029709,-2858.390615940094 3103.2404279708862,-2858.390615940094 C3103.2404279708862,-2869.3807587623596 3103.2404279708862,-2880.370663166046 3103.2404279708862,-2891.3608059883118 C3043.772248029709,-2891.3608059883118 2984.3040680885315,-2891.3608059883118 2924.8358583450317,-2891.3608059883118 C2956.5213894844055,-2917.977617740631 2988.2068610191345,-2944.5941910743713 3019.8923921585083,-2971.2110028266907 C3007.565972805023,-3207.469748020172 2995.239553451538,-3443.7284932136536 2982.913134098053,-3679.987476825714 C3012.643871307373,-3679.987476825714 3042.374608516693,-3679.987476825714 3072.105345726013,-3679.987476825714 C3072.105345726013,-3689.9490818977356 3072.105345726013,-3699.9111638069153 3072.105345726013,-3709.8727688789368 C3039.7081351280212,-3709.8727688789368 3007.3109245300293,-3709.8727688789368 2974.9137139320374,-3709.8727688789368 C2960.449216365814,-3816.459702014923 2963.0327200889587,-3938.45658159256 2868.1122040748596,-4029.634045124054 C2697.1479630470276,-4193.85676240921 2479.311583042145,-4186.510609149933 2284.9112725257874,-4198.684261798859 C2283.8300442695618,-4252.50630235672 2282.7489352226257,-4306.327866077423 2281.6677069664,-4360.149906635284 C2523.7070298194885,-4342.6447377204895 2801.8389916419983,-4346.052216053009 3007.7856755256653,-4131.818340778351 C3267.7384293079376,-3861.4054188728333 3175.681976079941,-3513.697193622589 3259.6301412582397,-3204.6366200447083 C3391.8401873111725,-3099.20983171463 3524.050203561783,-2993.783043384552 3656.2602496147156,-2888.356255054474 Z "/>
<path style="fill:none;stroke:#000000;stroke-width:1px;stroke-linecap:butt;stroke-linejoin:miter;stroke-opacity:1" d="M3929.389533996582,-2623.2893929481506 C3929.2122995853424,-2532.728241443634 3929.035065174103,-2442.1673283576965 3928.857830762863,-2351.60617685318 C3884.832022190094,-2316.7257771492004 3847.3323261737823,-2266.9990525245667 3844.382849931717,-2135.9727845191956 C3828.964320421219,-2135.9727845191956 3813.5457611083984,-2135.9727845191956 3798.1272315979004,-2135.9727845191956 C3798.383024930954,-2127.4085507392883 3798.638788461685,-2118.844078540802 3798.8945817947388,-2110.279844760895 C3774.8014307022095,-2110.279844760895 3750.70827960968,-2110.279844760895 3726.615128517151,-2110.279844760895 C3726.8708622455597,-2118.844078540802 3727.1265959739685,-2127.4085507392883 3727.3823297023773,-2135.9727845191956 C3362.1790981292725,-2135.9727845191956 2996.9758665561676,-2135.9727845191956 2631.7726349830627,-2135.9727845191956 C2631.65390253067,-2127.4085507392883 2631.5351700782776,-2118.844078540802 2631.416437625885,-2110.279844760895 C2600.1774644851685,-2110.279844760895 2568.9385509490967,-2110.279844760895 2537.69957780838,-2110.279844760895 C2537.580785751343,-2118.844078540802 2537.4619340896606,-2127.4085507392883 2537.3431420326233,-2135.9727845191956 C2458.792326450348,-2135.9727845191956 2380.241391658783,-2135.9727845191956 2301.6905760765076,-2135.9727845191956 C2218.623993396759,-2261.387156009674 2194.5797181129456,-2294.6918473243713 2025.2664065361023,-2333.4420189857483 C2045.8978390693665,-2445.4813466072083 2048.358795642853,-2543.726013660431 2049.7159934043884,-2713.8183579444885 C2051.073191165924,-2883.910463809967 2006.2944865226746,-3239.085720539093 2003.4886574745178,-3402.6051030158997 C2001.9705271720886,-3491.0703167915344 2138.7673592567444,-3702.4097905158997 2255.917308330536,-3747.0493779182434 C2336.5193581581116,-3725.5177960395813 2417.1214079856873,-3703.986214160919 2497.723457813263,-3682.454632282257 C2419.7858548164368,-3640.988396167755 2319.78547334671,-3645.058201313019 2263.910768032074,-3558.055923938751 C2049.872992038727,-3224.779652118683 2223.397967815399,-2882.9112515449524 2203.1415677070618,-2545.338915348053 C2250.1904940605164,-2482.621000766754 2297.2393012046814,-2419.9033246040344 2344.288227558136,-2357.1854100227356 C2439.3129324913025,-2357.6739296913147 2534.337637424469,-2358.1622109413147 2629.3623423576355,-2358.650730609894 C2629.3623423576355,-2325.8884415626526 2629.3623423576355,-2293.1261525154114 2629.3623423576355,-2260.36386346817 C2643.811044692993,-2260.36386346817 2658.259687423706,-2260.36386346817 2672.7083897590637,-2260.36386346817 C2672.7083897590637,-2293.911741733551 2672.7083897590637,-2327.459619998932 2672.7083897590637,-2361.0074982643127 C2941.876587867737,-2362.36696100235 3211.0446965694427,-2363.726185321808 3480.212894678116,-2365.085648059845 C3480.212904922664,-2330.178307056427 3480.21291423589,-2295.271204471588 3480.2129244804382,-2260.36386346817 C3493.8174667209387,-2260.36386346817 3507.422007098794,-2260.36386346817 3521.0265493392944,-2260.36386346817 C3521.0265400260687,-2296.056793689728 3521.026528850198,-2331.7497239112854 3521.026519536972,-2367.442654132843 C3570.2553963661194,-2367.931173801422 3619.4842731952667,-2368.419455051422 3668.713150024414,-2368.907974720001 C3755.6052780151367,-2453.701780796051 3842.4974060058594,-2538.495586872101 3929.389533996582,-2623.2893929481506 Z "/>
<path style="fill:none;stroke:#000000;stroke-width:1px;stroke-linecap:butt;stroke-linejoin:miter;stroke-opacity:1" d="M4131.6270208358765,-1881.9449410438538 C4107.781407833099,-1861.2163529396057 4083.935854434967,-1840.4875264167786 4060.09024143219,-1819.7589383125305 C4066.687045097351,-1812.1700749397278 4073.2837891578674,-1804.5814499855042 4079.8805928230286,-1796.9925866127014 C4108.530042171478,-1821.8970761299133 4137.179491519928,-1846.8018040657043 4165.828940868378,-1871.7062935829163 C4234.359142780304,-1839.4711480140686 4302.88934469223,-1807.2357640266418 4371.4195466041565,-1775.0006184577942 C4361.535665988922,-1752.8009877204895 4351.651785373688,-1730.6013569831848 4341.767904758453,-1708.4017262458801 C4350.904223918915,-1704.3340668678284 4360.040543079376,-1700.2661690711975 4369.176862239838,-1696.1985096931458 C4378.252861499786,-1716.5835366249084 4387.328860759735,-1736.968325138092 4396.404860019684,-1757.3533520698547 C4486.532924175262,-1709.0654835700989 4566.655275821686,-1613.7679085731506 4609.637973308563,-1486.1078724861145 C4745.052216053009,-1083.9231476783752 4729.069588184357,-777.865336894989 4591.513869762421,-399.27868700027466 C4517.102835178375,-252.09526872634888 4314.824221134186,-271.2110743522644 4255.548951625824,-143.19233751296997 C4209.217128753662,-143.19233751296997 4162.885365486145,-143.19233751296997 4116.553542613983,-143.19233751296997 C4116.553542613983,-134.62804412841797 4116.553542613983,-126.06369113922119 4116.553542613983,-117.49939775466919 C4081.5542316436768,-117.49939775466919 4046.554980278015,-117.49939775466919 4011.5556693077087,-117.49939775466919 C4011.940596103668,-126.06369113922119 4012.3255228996277,-134.62804412841797 4012.710449695587,-143.19233751296997 C3922.250804901123,-143.32853412628174 3831.7912197113037,-143.46467113494873 3741.3315749168396,-143.6008677482605 C3740.679365992546,-184.7697958946228 3740.0271421670914,-225.9387240409851 3739.374933242798,-267.1076521873474 C3727.12062060833,-267.2437891960144 3714.8662930727005,-267.38004541397095 3702.6119804382324,-267.51618242263794 C3702.0686542987823,-226.0748610496521 3701.5253281593323,-184.63359928131104 3700.982002019882,-143.19233751296997 C3616.0856610536575,-143.19233751296997 3531.1893424391747,-143.19233751296997 3446.29300147295,-143.19233751296997 C3446.2929940223694,-200.23332691192627 3446.292986571789,-257.27431631088257 3446.292979121208,-314.31536531448364 C3436.1655874550343,-314.31536531448364 3426.0381957888603,-314.31536531448364 3415.9108078479767,-314.31536531448364 C3415.9108152985573,-257.27431631088257 3415.910822749138,-200.23332691192627 3415.9108301997185,-143.19233751296997 C3331.014481782913,-143.19233751296997 3246.118170619011,-143.19233751296997 3161.2218296527863,-143.19233751296997 C3160.678503513336,-184.63359928131104 3160.135177373886,-226.0748610496521 3159.591851234436,-267.51618242263794 C3147.3375236988068,-267.38004541397095 3135.0832259655,-267.2437891960144 3122.8288984298706,-267.1076521873474 C3122.176674604416,-225.9387240409851 3121.5244805812836,-184.7697958946228 3120.872256755829,-143.6008677482605 C3030.4126119613647,-143.46467113494873 2939.9530267715454,-143.32853412628174 2849.4933819770813,-143.19233751296997 C2849.8783087730408,-134.62804412841797 2850.2632355690002,-126.06369113922119 2850.6481623649597,-117.49939775466919 C2815.648910999298,-117.49939775466919 2780.6496000289917,-117.49939775466919 2745.65034866333,-117.49939775466919 C2745.65034866333,-126.06369113922119 2745.65034866333,-134.62804412841797 2745.65034866333,-143.19233751296997 C2699.318525791168,-143.19233751296997 2652.9867029190063,-143.19233751296997 2606.6548800468445,-143.19233751296997 C2547.3796105384827,-271.2110743522644 2345.100996494293,-252.09526872634888 2270.689961910248,-399.27868700027466 C2133.1340050697327,-777.865336894989 2117.1513772010803,-1083.9231476783752 2252.565619945526,-1486.1078724861145 C2295.5483174324036,-1613.7679085731506 2375.670430660248,-1709.0654835700989 2465.798614025116,-1757.3533520698547 C2474.8746132850647,-1736.968325138092 2483.9506125450134,-1716.5835366249084 2493.026611804962,-1696.1985096931458 C2502.1629309654236,-1700.2661690711975 2511.299250125885,-1704.3340668678284 2520.4355692863464,-1708.4017262458801 C2510.551688671112,-1730.6013569831848 2500.6678080558777,-1752.8009877204895 2490.7839274406433,-1775.0006184577942 C2559.3141293525696,-1807.2357640266418 2627.844331264496,-1839.4711480140686 2696.374533176422,-1871.7062935829163 C2725.023982524872,-1846.8018040657043 2753.6734318733215,-1821.8970761299133 2782.3228812217712,-1796.9925866127014 C2788.9196848869324,-1804.5814499855042 2795.5164289474487,-1812.1700749397278 2802.11323261261,-1819.7589383125305 C2778.2676196098328,-1840.4875264167786 2754.4220662117004,-1861.2163529396057 2730.5764532089233,-1881.9449410438538 C2964.084861278534,-1962.1015057563782 3154.6134626865387,-1985.9030709266663 3431.1016960442066,-1985.9030709266663 C3707.5899666547775,-1985.9030709266663 3898.118553161621,-1962.1015057563782 4131.6270208358765,-1881.9449410438538 Z "/>
<path style="fill:none;stroke:#000000;stroke-width:1px;stroke-linecap:butt;stroke-linejoin:miter;stroke-opacity:1" d="M3253.25053691864,-586.9143471717834 C3190.506992340088,-553.023503780365 3127.7635073661804,-519.132541179657 3065.019962787628,-485.2416977882385 C3072.9390954971313,-467.45495653152466 3080.858258008957,-449.6682152748108 3088.77739071846,-431.8814740180969 C3079.6418464183807,-427.8141722679138 3070.5063021183014,-423.74675130844116 3061.370757818222,-419.67944955825806 C3053.4515953063965,-437.4661908149719 3045.5324625968933,-455.25281286239624 3037.6133000850677,-473.0395541191101 C2953.540143966675,-439.8204550743103 2869.4669580459595,-406.6013560295105 2785.393772125244,-373.3822569847107 C2668.492374420166,-470.1052174568176 2511.374292373657,-503.2395586967468 2434.689519405365,-663.5511384010315 C2324.4545435905457,-894.0004572868347 2350.6861901283264,-1073.8255248069763 2426.329252719879,-1317.8270325660706 C2474.187490940094,-1472.2030625343323 2585.3400206565857,-1543.4058175086975 2664.845404624939,-1656.195209980011 C2818.366644382477,-1669.1914067268372 2971.88782453537,-1682.1876034736633 3125.4090344905853,-1695.1838002204895 C3329.204169511795,-1695.1838002204895 3532.9993045330048,-1695.1838002204895 3736.7944395542145,-1695.1838002204895 C3890.31564950943,-1682.1876034736633 4043.836829662323,-1669.1914067268372 4197.358069419861,-1656.195209980011 C4276.863512992859,-1543.4058175086975 4388.016102313995,-1472.2030625343323 4435.87434053421,-1317.8270325660706 C4511.5175223350525,-1073.8255248069763 4537.749288082123,-894.0004572868347 4427.514252662659,-663.5511384010315 C4350.8294796943665,-503.2395586967468 4193.711457252502,-470.1052174568176 4076.8100595474243,-373.3822569847107 C3992.736873626709,-406.6013560295105 3908.6636877059937,-439.8204550743103 3824.590471982956,-473.0395541191101 C3816.6713094711304,-455.25281286239624 3808.752176761627,-437.4661908149719 3800.8330142498016,-419.67944955825806 C3791.6974699497223,-423.74675130844116 3782.561925649643,-427.8141722679138 3773.4263813495636,-431.8814740180969 C3781.3455140590668,-449.6682152748108 3789.2646765708923,-467.45495653152466 3797.1838092803955,-485.2416977882385 C3734.4402647018433,-519.132541179657 3671.696720123291,-553.023503780365 3608.9531755447388,-586.9143471717834 C3490.3856268525124,-586.9143471717834 3371.8180856108665,-586.9143471717834 3253.25053691864,-586.9143471717834 Z "/>
<path style="fill:none;stroke:#000000;stroke-width:1px;stroke-linecap:butt;stroke-linejoin:miter;stroke-opacity:1" d="M196.882483959198,-1472.4920258522034 C224.58266973495483,-1440.6292901039124 252.28309392929077,-1408.7667927742004 279.9832797050476,-1376.9040570259094 C287.32633352279663,-1383.7283120155334 294.66938734054565,-1390.5525670051575 302.0124411582947,-1397.3768219947815 C271.30794286727905,-1432.717607975006 240.60320615768433,-1468.0581555366516 209.8987078666687,-1503.3989415168762 C241.35875463485718,-1551.221655368805 255.71250677108765,-1600.6470189094543 304.27908658981323,-1646.8670830726624 C403.92327070236206,-1741.6966423988342 475.7871603965759,-1787.2333989143372 607.8538870811462,-1825.7043824195862 C942.2285532951355,-1923.1074318885803 1166.00346326828,-1957.253502368927 1499.3872618675232,-1856.5106854438782 C1699.7860646247864,-1795.9535584449768 1790.032503604889,-1648.3762726783752 1935.3551840782166,-1544.3089470863342 C1935.3551840782166,-1515.441225528717 1935.3551840782166,-1486.5732655525208 1935.3551840782166,-1457.7055439949036 C1943.9195370674133,-1457.7055439949036 1952.4837708473206,-1457.7055439949036 1961.0481238365173,-1457.7055439949036 C1961.0481238365173,-1422.7064118385315 1961.0481238365173,-1387.7070412635803 1961.0481238365173,-1352.7079091072083 C1952.4837708473206,-1353.0927166938782 1943.9195370674133,-1353.4777626991272 1935.3551840782166,-1353.8625702857971 C1935.2190470695496,-1336.7197976112366 1935.082790851593,-1319.576786518097 1934.946653842926,-1302.4340138435364 C1893.7777256965637,-1301.773355960846 1852.6087975502014,-1301.1126980781555 1811.439869403839,-1300.452040195465 C1811.3037323951721,-1287.2755990028381 1811.1674761772156,-1274.0991578102112 1811.0313391685486,-1260.9227166175842 C1852.4726605415344,-1261.121796131134 1893.9138627052307,-1261.321114063263 1935.3551840782166,-1261.5201935768127 C1935.3551840782166,-1103.5351023674011 1935.355303287506,-945.5498919487 1935.355303287506,-787.5648007392883 C1888.559935092926,-787.5648007392883 1841.764566898346,-787.5648007392883 1794.9691987037659,-787.5648007392883 C1794.9691987037659,-777.3576245307922 1794.9691987037659,-767.1504483222961 1794.9691987037659,-756.9432721138 C1841.764566898346,-756.9432721138 1888.559935092926,-756.9432721138 1935.355303287506,-756.9432721138 C1935.355303287506,-598.9580616950989 1935.3554224967957,-440.97297048568726 1935.3554224967957,-282.9877600669861 C1893.9141011238098,-283.18695878982544 1852.4728989601135,-283.38603830337524 1811.0315775871277,-283.5852370262146 C1811.1677145957947,-270.40879583358765 1811.3038516044617,-257.23247385025024 1811.4399886131287,-244.0560326576233 C1852.608916759491,-243.39537477493286 1893.7779641151428,-242.73483610153198 1934.9468922615051,-242.07417821884155 C1935.0830292701721,-224.93128633499146 1935.2192854881287,-207.78839445114136 1935.3554224967957,-190.64550256729126 C1943.9197754859924,-191.03042936325073 1952.4840092658997,-191.4153561592102 1961.0483622550964,-191.80028295516968 C1961.0483622550964,-156.80103158950806 1961.0483622550964,-121.80172061920166 1961.0483622550964,-86.80246925354004 C1952.4840092658997,-86.80246925354004 1943.9197754859924,-86.80246925354004 1935.3554224967957,-86.80246925354004 C1935.3554224967957,-57.934688091278076 1935.3554224967957,-29.06696653366089 1935.3554224967957,-0.19918537139892578 C1790.0328612327576,103.86802101135254 1699.786422252655,251.44536638259888 1499.3876194953918,312.00249338150024 C1166.0039401054382,412.745459318161 942.2290301322937,378.59929943084717 607.8541254997253,281.1963095664978 C475.78739881515503,242.72544527053833 403.92374753952026,197.18862915039062 304.27956342697144,102.35906982421875 C255.71298360824585,56.13906526565552 241.35923147201538,6.7137017250061035 209.8991847038269,-41.10895252227783 C240.60368299484253,-76.44967889785767 271.30818128585815,-111.79034566879272 302.0126795768738,-147.13107204437256 C294.66962575912476,-153.95532703399658 287.32681035995483,-160.77952241897583 279.9837565422058,-167.60377740859985 C252.28333234786987,-135.7411608695984 224.58314657211304,-103.87848472595215 196.8827223777771,-72.01586818695068 C172.17063665390015,-305.428551197052 147.4583125114441,-538.8412938117981 122.74622678756714,-772.2539172172546 C147.4583125114441,-1005.6666598320007 172.17039823532104,-1239.0792832374573 196.882483959198,-1472.4920258522034 Z "/>
<path style="fill:none;stroke:#000000;stroke-width:1px;stroke-linecap:butt;stroke-linejoin:miter;stroke-opacity:1" d="M445.41287183761597,-1455.4119572639465 C519.3307375907898,-1567.476080417633 601.1960482597351,-1609.8754868507385 729.6261763572693,-1648.9642128944397 C985.6150126457214,-1726.876543521881 1162.2517085075378,-1732.057379245758 1414.996383190155,-1644.1894040107727 C1550.6770586967468,-1597.019241809845 1608.442304134369,-1493.3712944984436 1705.1652646064758,-1417.9621205329895 C1687.0104050636292,-1208.1823811531067 1668.8555455207825,-998.4025225639343 1650.7006859779358,-788.6227831840515 C1650.7006859779358,-777.7102456092834 1650.7005667686462,-766.7978272438049 1650.7005667686462,-755.8852896690369 C1668.8555455207825,-546.1054310798645 1687.0105242729187,-336.3256916999817 1705.165503025055,-126.5458927154541 C1608.442542552948,-51.13683795928955 1550.677297115326,52.511109352111816 1414.9966216087341,99.68121194839478 C1162.252185344696,187.5492467880249 985.6152510643005,182.3685302734375 729.6264147758484,104.45631885528564 C601.1962866783142,65.36759281158447 519.3307375907898,22.968186378479004 445.41287183761597,-89.0959963798523 C295.7718348503113,-315.96116876602173 311.71393156051636,-500.4814133644104 311.71393156051636,-772.2539172172546 C311.71393156051636,-1044.0264210700989 295.7718348503113,-1228.5466656684875 445.41287183761597,-1455.4119572639465 Z "/>
<path style="fill:none;stroke:#000000;stroke-width:1px;stroke-linecap:butt;stroke-linejoin:miter;stroke-opacity:1" d="M3922.464189529419,-6318.480537891388 C4035.391209125519,-6415.227936267853 4148.318228721619,-6511.975811481476 4261.2452483177185,-6608.723209857941 C4421.035168170929,-6633.756206989288 4580.82496881485,-6658.789680957794 4740.61488866806,-6683.822678089142 C4900.404808521271,-6658.789680957794 5060.194728374481,-6633.756206989288 5219.984648227692,-6608.723209857941 C5332.911608219147,-6511.975811481476 5445.838687419891,-6415.227936267853 5558.765647411346,-6318.480537891388 C5545.887944698334,-6042.017029285431 5533.010003566742,-5765.553043842316 5520.132300853729,-5489.089535236359 C5462.362287044525,-5376.413391590118 5404.592392444611,-5263.73677110672 5346.8223786354065,-5151.06062746048 C5144.753334522247,-5129.571484088898 4942.684171199799,-5108.082817554474 4740.615127086639,-5086.593674182892 C4538.54608297348,-5108.082817554474 4336.476979255676,-5129.571484088898 4134.407875537872,-5151.06062746048 C4076.637861728668,-5263.73677110672 4018.867847919464,-5376.413391590118 3961.09783411026,-5489.089535236359 C3948.219952583313,-5765.553043842316 3935.342071056366,-6042.017029285431 3922.464189529419,-6318.480537891388 Z "/>
<path style="fill:none;stroke:#000000;stroke-width:1px;stroke-linecap:butt;stroke-linejoin:miter;stroke-opacity:1" d="M4725.65328836441,-6636.833237171173 C4735.627768039703,-6636.833237171173 4745.602128505707,-6636.833237171173 4755.576608181,-6636.833237171173 C4755.564091205597,-6612.044857501984 4755.5514550209045,-6587.256954669952 4755.538938045502,-6562.468575000763 C4745.589611530304,-6562.468575000763 4735.640285015106,-6562.468575000763 4725.690958499908,-6562.468575000763 C4725.678441524506,-6587.256954669952 4725.665805339813,-6612.044857501984 4725.65328836441,-6636.833237171173 Z "/>
<path style="fill:none;stroke:#000000;stroke-width:1px;stroke-linecap:butt;stroke-linejoin:miter;stroke-opacity:1" d="M4725.6534075737,-5296.503113269806 C4735.627887248993,-5296.503113269806 4745.602247714996,-5296.503113269806 4755.576727390289,-5296.503113269806 C4755.5642104148865,-5267.066048145294 4755.551574230194,-5237.6289830207825 4755.539057254791,-5208.191917896271 C4745.5897307395935,-5208.191917896271 4735.640404224396,-5208.191917896271 4725.691077709198,-5208.191917896271 C4725.678560733795,-5237.6289830207825 4725.665924549103,-5267.066048145294 4725.6534075737,-5296.503113269806 Z "/>
<path style="fill:none;stroke:#000000;stroke-width:1px;stroke-linecap:butt;stroke-linejoin:miter;stroke-opacity:1" d="M5320.8471512794495,-5474.880741596222 C5320.8471512794495,-5484.855221271515 5320.8471512794495,-5494.829700946808 5320.8471512794495,-5504.804180622101 C5355.979082584381,-5504.791782855988 5391.110894680023,-5504.778908252716 5426.242825984955,-5504.766510486603 C5426.242825984955,-5494.817303180695 5426.242825984955,-5484.867619037628 5426.242825984955,-5474.91841173172 C5391.110894680023,-5474.906013965607 5355.979082584381,-5474.893139362335 5320.8471512794495,-5474.880741596222 Z "/>
<path style="fill:none;stroke:#000000;stroke-width:1px;stroke-linecap:butt;stroke-linejoin:miter;stroke-opacity:1" d="M4054.9875473976135,-5474.880741596222 C4054.9875473976135,-5484.855221271515 4054.9875473976135,-5494.829700946808 4054.9875473976135,-5504.804180622101 C4090.1194190979004,-5504.791782855988 4125.2512311935425,-5504.778908252716 4160.383102893829,-5504.766510486603 C4160.383102893829,-5494.817303180695 4160.383102893829,-5484.867619037628 4160.383102893829,-5474.91841173172 C4125.2512311935425,-5474.906013965607 4090.1194190979004,-5474.893139362335 4054.9875473976135,-5474.880741596222 Z "/>
<path style="fill:none;stroke:#000000;stroke-width:1px;stroke-linecap:butt;stroke-linejoin:miter;stroke-opacity:1" d="M4054.987428188324,-6294.332073688507 C4054.987428188324,-6304.3065533638 4054.987428188324,-6314.281033039093 4054.987428188324,-6324.255512714386 C4090.119299888611,-6324.243114948273 4125.251111984253,-6324.230240345001 4160.38298368454,-6324.217842578888 C4160.38298368454,-6314.26863527298 4160.38298368454,-6304.318951129913 4160.38298368454,-6294.369743824005 C4125.251111984253,-6294.357346057892 4090.119299888611,-6294.34447145462 4054.987428188324,-6294.332073688507 Z "/>
<path style="fill:none;stroke:#000000;stroke-width:1px;stroke-linecap:butt;stroke-linejoin:miter;stroke-opacity:1" d="M5320.84703207016,-6294.332073688507 C5320.84703207016,-6304.3065533638 5320.84703207016,-6314.281033039093 5320.84703207016,-6324.255512714386 C5355.978844165802,-6324.243114948273 5391.110775470734,-6324.230240345001 5426.242587566376,-6324.217842578888 C5426.242587566376,-6314.26863527298 5426.242587566376,-6304.318951129913 5426.242587566376,-6294.369743824005 C5391.110775470734,-6294.357346057892 5355.978844165802,-6294.34447145462 5320.84703207016,-6294.332073688507 Z "/>
<path style="fill:none;stroke:#000000;stroke-width:1px;stroke-linecap:butt;stroke-linejoin:miter;stroke-opacity:1" d="M5240.379807949066,-5466.486977100372 C5250.014183521271,-5469.0695271492 5259.648439884186,-5471.65160036087 5269.28281545639,-5474.2341504096985 C5277.337667942047,-5444.127129077911 5285.392520427704,-5414.019630908966 5293.447372913361,-5383.912609577179 C5283.837316036224,-5381.336735248566 5274.227259159088,-5378.760860919952 5264.617202281952,-5376.184986591339 C5256.538031101227,-5406.28580904007 5248.458979129791,-5436.386154651642 5240.379807949066,-5466.486977100372 Z "/>
<path style="fill:none;stroke:#000000;stroke-width:1px;stroke-linecap:butt;stroke-linejoin:miter;stroke-opacity:1" d="M4938.240764141083,-6594.330833911896 C4947.875139713287,-6596.913383960724 4957.509515285492,-6599.495934009552 4967.1438908576965,-6602.07848405838 C4973.470089435577,-6578.419731616974 4979.796407222748,-6554.760502338409 4986.122605800629,-6531.101749897003 C4976.512548923492,-6528.52587556839 4966.902372837067,-6525.950001239777 4957.29231595993,-6523.374126911163 C4950.941798686981,-6547.026203632355 4944.591281414032,-6570.678757190704 4938.240764141083,-6594.330833911896 Z "/>
<path style="fill:none;stroke:#000000;stroke-width:1px;stroke-linecap:butt;stroke-linejoin:miter;stroke-opacity:1" d="M4514.445421695709,-6602.087067127228 C4524.079678058624,-6599.508331775665 4533.714053630829,-6596.930073261261 4543.348309993744,-6594.3513379096985 C4537.0020842552185,-6570.6978306770325 4530.655977725983,-6547.0443234443665 4524.309751987457,-6523.3908162117 C4514.699695110321,-6525.962875843048 4505.089638233185,-6528.534935474396 4495.479581356049,-6531.106995105743 C4501.801488399506,-6554.767178058624 4508.123514652252,-6578.426884174347 4514.445421695709,-6602.087067127228 Z "/>
<path style="fill:none;stroke:#000000;stroke-width:1px;stroke-linecap:butt;stroke-linejoin:miter;stroke-opacity:1" d="M4212.399361133575,-5474.218414783478 C4222.033677101135,-5471.639679431915 4231.66793346405,-5469.061420917511 4241.30224943161,-5466.4826855659485 C4233.2301115989685,-5436.379955768585 4225.157973766327,-5406.27770280838 4217.085835933685,-5376.174973011017 C4207.475779056549,-5378.7470326423645 4197.865781784058,-5381.319092273712 4188.255724906921,-5383.89115190506 C4196.303603649139,-5414.00008058548 4204.351482391357,-5444.109486103058 4212.399361133575,-5474.218414783478 Z "/>
<path style="fill:none;stroke:#000000;stroke-width:1px;stroke-linecap:butt;stroke-linejoin:miter;stroke-opacity:1" d="M5262.388942241669,-5692.623184680939 C5354.674217700958,-5919.420288562775 5357.689497470856,-6269.361065387726 5115.052936077118,-6302.240894794464 C4816.454646587372,-6342.704342365265 5041.942355632782,-5627.331779956818 4740.61500787735,-5627.331779956818 C4439.287660121918,-5627.331779956818 4664.7757267951965,-6342.703865528107 4366.17743730545,-6302.240894794464 C4123.540816307068,-6269.361065387726 4126.555857658386,-5919.420765399933 4218.841073513031,-5692.623184680939 C4309.5028376579285,-5469.815777301788 4500.068304538727,-5364.940212726593 4740.615127086639,-5364.940212726593 C4981.161830425262,-5364.940212726593 5171.727178096771,-5469.815777301788 5262.388942241669,-5692.623184680939 Z "/>
<path style="fill:none;stroke:#000000;stroke-width:1px;stroke-linecap:butt;stroke-linejoin:miter;stroke-opacity:1" d="M4731.184241771698,-5916.72282075882 C4736.3885617256165,-5921.932266712189 4744.841334819794,-5921.932266712189 4750.045654773712,-5916.72282075882 C4756.521699428558,-5910.240219593048 4756.504533290863,-5899.72834444046 4750.021932125092,-5893.252418994904 C4744.825479984283,-5888.061092853546 4736.404535770416,-5888.061092853546 4731.208083629608,-5893.252418994904 C4724.725482463837,-5899.72834444046 4724.708197116852,-5910.240219593048 4731.184241771698,-5916.72282075882 Z "/>
<path style="fill:none;stroke:#000000;stroke-width:1px;stroke-linecap:butt;stroke-linejoin:miter;stroke-opacity:1" d="M1929.3894743919373,-2623.2893929481506 C1929.2122101783752,-2532.728241443634 1929.0350651741028,-2442.1673283576965 1928.8578009605408,-2351.60617685318 C1884.832022190094,-2316.7257771492004 1847.3323559761047,-2266.9990525245667 1844.3828797340393,-2135.9727845191956 C1828.9643502235413,-2135.9727845191956 1813.5457015037537,-2135.9727845191956 1798.1271719932556,-2135.9727845191956 C1798.3829951286316,-2127.4085507392883 1798.6388182640076,-2118.844078540802 1798.8946413993835,-2110.279844760895 C1774.8014903068542,-2110.279844760895 1750.708339214325,-2110.279844760895 1726.6151881217957,-2110.279844760895 C1726.870892047882,-2118.844078540802 1727.1265959739685,-2127.4085507392883 1727.382299900055,-2135.9727845191956 C1362.1790385246277,-2135.9727845191956 996.97589635849,-2135.9727845191956 631.7727541923523,-2135.9727845191956 C631.6540217399597,-2127.4085507392883 631.5352892875671,-2118.844078540802 631.4165568351746,-2110.279844760895 C600.1775240898132,-2110.279844760895 568.9384913444519,-2110.279844760895 537.6994585990906,-2110.279844760895 C537.580726146698,-2118.844078540802 537.4619936943054,-2127.4085507392883 537.3432612419128,-2135.9727845191956 C458.79244565963745,-2135.9727845191956 380.24139165878296,-2135.9727845191956 301.69057607650757,-2135.9727845191956 C218.62387418746948,-2261.387156009674 194.5798373222351,-2294.6918473243713 25.266406536102295,-2333.4420189857483 C45.897719860076904,-2445.4813466072083 48.35867643356323,-2543.726013660431 49.71599340438843,-2713.8183579444885 C51.07331037521362,-2883.910463809967 6.2944865226745605,-3239.085720539093 3.488776683807373,-3402.6051030158997 C1.970527172088623,-3491.0703167915344 138.76747846603394,-3702.4097905158997 255.9173083305359,-3747.0493779182434 C336.519238948822,-3725.5177960395813 417.12140798568726,-3703.986214160919 497.7233386039734,-3682.454632282257 C419.7857356071472,-3640.988396167755 319.78535413742065,-3645.0577244758606 263.910768032074,-3558.055923938751 C49.872872829437256,-3224.779652118683 223.39796781539917,-2882.9112515449524 203.14144849777222,-2545.338915348053 C250.19025564193726,-2482.621000766754 297.2393012046814,-2419.9033246040344 344.28810834884644,-2357.1854100227356 C439.3129324913025,-2357.6739296913147 534.3375182151794,-2358.1622109413147 629.3623423576355,-2358.650730609894 C629.3623423576355,-2325.8884415626526 629.3623423576355,-2293.1261525154114 629.3623423576355,-2260.36386346817 C643.8109850883484,-2260.36386346817 658.2596278190613,-2260.36386346817 672.7082705497742,-2260.36386346817 C672.7082705497742,-2293.911741733551 672.7082705497742,-2327.459619998932 672.7082705497742,-2361.0074982643127 C941.8764090538025,-2362.36696100235 1211.04478597641,-2363.726185321808 1480.2129244804382,-2365.085648059845 C1480.2129244804382,-2330.178307056427 1480.2129244804382,-2295.271204471588 1480.2129244804382,-2260.36386346817 C1493.817446231842,-2260.36386346817 1507.4220871925354,-2260.36386346817 1521.0266089439392,-2260.36386346817 C1521.0266089439392,-2296.056793689728 1521.0264897346497,-2331.7497239112854 1521.0264897346497,-2367.442654132843 C1570.2553963661194,-2367.931173801422 1619.4841837882996,-2368.419455051422 1668.7130904197693,-2368.907974720001 C1755.605218410492,-2453.701780796051 1842.4973464012146,-2538.495586872101 1929.3894743919373,-2623.2893929481506 Z "/>
<path style="fill:none;stroke:#000000;stroke-width:1px;stroke-linecap:butt;stroke-linejoin:miter;stroke-opacity:1" d="M1714.2018055915833,-2867.3782811164856 C1714.263198375702,-2837.147758960724 1714.324471950531,-2806.916998386383 1714.3858647346497,-2776.6864762306213 C1461.671826839447,-2662.836597919464 1208.957908153534,-2548.986958026886 956.2437510490417,-2435.1370797157288 C807.5513815879822,-2435.1370797157288 658.8592505455017,-2435.1370797157288 510.16688108444214,-2435.1370797157288 C556.5290427207947,-2496.377275943756 602.8914427757263,-2557.6172337532043 649.2536044120789,-2618.8574299812317 C760.4281878471375,-2691.7090878486633 871.602771282196,-2764.560984134674 982.7773547172546,-2837.4126420021057 C1042.2456240653992,-2837.4126420021057 1101.7136549949646,-2837.4126420021057 1161.1819243431091,-2837.4126420021057 C1161.1819243431091,-2848.4027848243713 1161.1819243431091,-2859.392689228058 1161.1819243431091,-2870.3828320503235 C1101.7136549949646,-2870.3828320503235 1042.2456240653992,-2870.3828320503235 982.7773547172546,-2870.3828320503235 C1014.4629454612732,-2896.999643802643 1046.1482977867126,-2923.616217136383 1077.8338885307312,-2950.2330288887024 C1065.5074095726013,-3186.491774082184 1053.1811690330505,-3422.7505192756653 1040.8546900749207,-3659.009502887726 C1070.5854868888855,-3659.009502887726 1100.3160452842712,-3659.009502887726 1130.046842098236,-3659.009502887726 C1130.046842098236,-3668.9711079597473 1130.046842098236,-3678.933189868927 1130.046842098236,-3688.8947949409485 C1097.6495718955994,-3688.8947949409485 1065.2525401115417,-3688.8947949409485 1032.855269908905,-3688.8947949409485 C1018.3908915519714,-3795.481728076935 1020.9741568565369,-3917.4786076545715 926.0537600517273,-4008.6560711860657 C755.0895190238953,-4172.878788471222 537.2531390190125,-4165.532635211945 342.85282850265503,-4177.70628786087 C341.77160024642944,-4231.528328418732 340.69061040878296,-4285.349892139435 339.6093821525574,-4339.171932697296 C581.6485857963562,-4321.666763782501 859.780547618866,-4325.074242115021 1065.727231502533,-4110.840366840363 C1325.6800150871277,-3840.427444934845 1233.623502254486,-3492.719219684601 1317.5716376304626,-3183.65864610672 C1449.781653881073,-3078.231857776642 1581.991789340973,-2972.8050694465637 1714.2018055915833,-2867.3782811164856 Z "/>
<path style="fill:none;stroke:#000000;stroke-width:1px;stroke-linecap:butt;stroke-linejoin:miter;stroke-opacity:1" d="M1989.123342037201,-5822.039173603058 C1989.123342037201,-5526.493595600128 1989.1234612464905,-5230.948494434357 1989.1234612464905,-4935.402916431427 C1999.1234517097473,-4935.402916431427 2009.1234421730042,-4935.402916431427 2019.123432636261,-4935.402916431427 C2019.123432636261,-4990.6573758125305 2019.123432636261,-5045.911358356476 2019.123432636261,-5101.165817737579 C2023.27406167984,-5005.036877155304 2285.91370344162,-5023.3016476631165 2204.0390944480896,-4622.5262150764465 C2120.5847239494324,-4649.058388233185 2040.272352695465,-4639.957951068878 1956.8179821968079,-4627.614544391632 C1953.5053944587708,-4596.300171375275 1950.1929259300232,-4564.985321521759 1946.880338191986,-4533.670948505402 C1930.5224394798279,-4533.670948505402 1914.1645407676697,-4533.670948505402 1897.8066420555115,-4533.670948505402 C1897.8066420555115,-4525.106476306915 1897.8066420555115,-4516.542480945587 1897.8066420555115,-4507.978008747101 C1872.9625916481018,-4507.978008747101 1848.1184220314026,-4507.978008747101 1823.274371623993,-4507.978008747101 C1823.1893754005432,-4516.542480945587 1823.1043791770935,-4525.106476306915 1823.0193829536438,-4533.670948505402 C1670.4779839515686,-4533.670948505402 1517.936704158783,-4533.670948505402 1365.3953051567078,-4533.670948505402 C1365.3953051567078,-4560.74719285965 1365.3953051567078,-4587.823437213898 1365.3953051567078,-4614.899681568146 C1232.092616558075,-4614.899681568146 1098.7899279594421,-4614.899681568146 965.4872393608093,-4614.899681568146 C965.4872393608093,-4587.823437213898 965.4872393608093,-4560.74719285965 965.4872393608093,-4533.670948505402 C829.8594927787781,-4533.670948505402 694.2317461967468,-4533.670948505402 558.6039996147156,-4533.670948505402 C558.1433749198914,-4525.106476306915 557.6827502250671,-4516.542480945587 557.2221255302429,-4507.978008747101 C527.927873134613,-4507.978008747101 498.63385915756226,-4507.978008747101 469.3396067619324,-4507.978008747101 C468.87898206710815,-4516.542480945587 468.41811895370483,-4525.106476306915 467.9574942588806,-4533.670948505402 C429.95548009872437,-4533.670948505402 391.9537043571472,-4533.670948505402 353.95169019699097,-4533.670948505402 C279.84022855758667,-4637.768791675568 182.4953532218933,-4705.212639331818 131.61730527877808,-4845.964954853058 C57.578561305999756,-5050.79035615921 82.86523580551147,-5184.573219776154 89.80393171310425,-5402.258919239044 C97.51367330551147,-5644.136475086212 41.14699125289917,-5814.905212879181 175.5344843864441,-6016.161964893341 C316.1337351799011,-6226.721333026886 521.2080454826355,-6330.059097766876 734.4005084037781,-6345.154808521271 C734.245297908783,-6294.949100971222 734.0898489952087,-6244.742916584015 733.9346385002136,-6194.537209033966 C603.7011122703552,-6127.314613819122 441.297767162323,-6133.75573015213 343.2338213920593,-5992.868946552277 C217.35739469528198,-5812.024639606476 277.9097533226013,-5652.990864276886 274.6386504173279,-5432.675407886505 C272.1204733848572,-5263.069675922394 245.8643889427185,-5155.108498096466 314.6188235282898,-5000.042961597443 C353.78217458724976,-4911.716030597687 427.1054244041443,-4858.953045368195 481.95624113082886,-4817.709015369415 C566.2591433525085,-4818.197296619415 650.5620455741882,-4818.6860547065735 734.8649477958679,-4819.1743359565735 C734.8649477958679,-4770.795391559601 734.8649477958679,-4722.416923999786 734.8649477958679,-4674.037979602814 C745.4137778282166,-4674.526260852814 755.9623694419861,-4675.015018939972 766.5111994743347,-4675.503300189972 C766.5111994743347,-4724.858807086945 766.5111994743347,-4774.214790821075 766.5111994743347,-4823.570297718048 C945.1925730705261,-4825.5243763923645 1123.8737082481384,-4827.477978229523 1302.5550818443298,-4829.432056903839 C1386.624572277069,-4854.219006061554 1470.6943011283875,-4879.005955219269 1554.7637915611267,-4903.792904376984 C1554.7637915611267,-4837.431953907013 1554.7637915611267,-4771.0714802742 1554.7637915611267,-4704.71052980423 C1565.015790462494,-4704.71052980423 1575.2679085731506,-4704.71052980423 1585.5199074745178,-4704.71052980423 C1585.5199074745178,-4900.330589771271 1585.5199074745178,-5095.95112657547 1585.5199074745178,-5291.571186542511 C1354.4251894950867,-5291.571186542511 1123.330352306366,-5291.571186542511 892.2357535362244,-5291.571186542511 C923.419234752655,-5334.38353395462 954.6029543876648,-5377.19588136673 985.7864356040955,-5420.008228778839 C1119.5528483390808,-5420.008228778839 1253.3194994926453,-5420.008228778839 1387.0859122276306,-5420.008228778839 C1453.2306170463562,-5542.15531206131 1519.3752026557922,-5664.302872180939 1585.5197882652283,-5786.449955463409 C1720.0542664527893,-5798.313187122345 1854.58886384964,-5810.175941944122 1989.123342037201,-5822.039173603058 Z "/>
</svg>