<?xml version="1.0" standalone="no"?>
<!DOCTYPE svg PUBLIC "-//W3C//DTD SVG 20010904//EN" "http://www.w3.org/TR/2001/REC-SVG-20010904/DTD/svg10.dtd">
<svg width="8217.033624649048mm" height="5054.577827453613mm"  viewBox="0 0 8217.033624649048 5054.577827453613" xmlns="http://www.w3.org/2000/svg">
    <title>Bezier Curve : BezierCurve.027</title>
    <desc>This is an exported Bezier xml_path from Blender, using the ExportScript by maybites.ch and Craxic</desc>
<path style="fill:none;stroke:#000000;stroke-width:1px;stroke-linecap:butt;stroke-linejoin:miter;stroke-opacity:1" d="M870.3613846302032,300.18483662605286 C921.0207431316376,300.18483662605286 971.6801016330719,300.18483662605286 1022.3394601345062,300.18483662605286 C1022.3394601345062,226.5334930419922 1022.3394601345062,152.88211965560913 1022.3394601345062,79.23074626922607 C1445.6403224468231,79.23074626922607 1868.94118475914,79.23074626922607 2292.242047071457,79.23074626922607 C2292.242047071457,152.88211965560913 2292.242047071457,226.5334930419922 2292.242047071457,300.18483662605286 C2342.9014055728912,300.18483662605286 2393.5607640743256,300.18483662605286 2444.22012257576,300.18483662605286 C2444.22012257576,640.1592996120453 2444.22012257576,980.1337327957153 2444.22012257576,1320.1081957817078 C2393.5371606349945,1320.1081957817078 2342.8541390895844,1320.1081957817078 2292.171177148819,1320.1081957817078 C2292.171177148819,1368.2445492744446 2292.171177148819,1416.3809623718262 2292.171177148819,1464.517315864563 C1868.9175515174866,1464.517315864563 1445.6639556884766,1464.517315864563 1022.4103300571442,1464.517315864563 C1022.4103300571442,1416.3809623718262 1022.4103300571442,1368.2445492744446 1022.4103300571442,1320.1081957817078 C971.7273681163788,1320.1081957817078 921.0443465709686,1320.1081957817078 870.3613846302032,1320.1081957817078 C870.3613846302032,980.1337327957153 870.3613846302032,640.1592996120453 870.3613846302032,300.18483662605286 Z "/>
<path style="fill:none;stroke:#000000;stroke-width:1px;stroke-linecap:butt;stroke-linejoin:miter;stroke-opacity:1" d="M1116.3499920368195,501.30802953243256 C1134.953912973404,441.07868337631226 1182.9371421337128,435.02478861808777 1227.9783158302307,451.02431440353394 C1453.184154510498,531.0219880342484 1301.1495440006256,885.0609865188599 1510.4977606534958,1014.2602529525757 C1608.037334561348,1074.4568016529083 1706.5441428422928,1074.4568016529083 1804.083716750145,1014.2602529525757 C2013.4319036006927,885.0609865188599 1861.397352695465,531.0219880342484 2086.6031913757324,451.02431440353394 C2131.6443650722504,435.02478861808777 2179.627594232559,441.0786237716675 2198.2315151691437,501.30802953243256 C2249.688801050186,667.8988989591599 2253.687438249588,835.8369376659393 2179.1477768421173,1027.3504462242126 C2148.703601837158,1105.5701580047607 2111.6048662662506,1147.7268543243408 2039.6479337215424,1190.9399237632751 C1908.6037247180939,1269.6373071670532 1810.1497410535812,1275.2077188491821 1657.290754571169,1275.2077188491821 C1504.431766152382,1275.2077188491821 1405.9777824878693,1269.6373071670532 1274.9335734844208,1190.9399237632751 C1202.9766409397125,1147.7268543243408 1165.877905368805,1105.5701580047607 1135.4337303638458,1027.3504462242126 C1060.8940689563751,835.8369376659393 1064.892706155777,667.8986903429031 1116.3499920368195,501.30802953243256 Z "/>
<path style="fill:none;stroke:#000000;stroke-width:1px;stroke-linecap:butt;stroke-linejoin:miter;stroke-opacity:1" d="M1555.3589953780174,502.56628358364105 C1555.3589953780174,639.3638309240341 1555.3589953780174,776.1613931655884 1555.3589953780174,912.9589405059814 C1575.2904235124588,912.9589405059814 1595.2218590974808,912.9589256048203 1615.1532909572124,912.9589256048203 C1615.9196725785732,946.6237034797668 1624.1028203368187,986.2193372249603 1657.0517166693462,986.2193372249603 C1690.0006129145622,986.2193372249603 1698.1837606728077,946.6237034797668 1698.9501422941685,912.9589256048203 C1718.8815741539001,912.9589256048203 1738.8130097389221,912.9589405059814 1758.7444378733635,912.9589405059814 C1758.7444378733635,776.1613931655884 1758.7444378733635,639.3638309240341 1758.7444378733635,502.56628358364105 C1738.8130097389221,502.56628358364105 1718.8815741539001,502.56628358364105 1698.9501422941685,502.56628358364105 C1699.3054977357388,465.89069628715515 1690.0417959988117,429.18436789512634 1657.0517152578104,429.18436789512634 C1624.0616372525692,429.18436789512634 1614.7979355156422,465.89069628715515 1615.1532909572124,502.56628358364105 C1595.2218590974808,502.56628358364105 1575.2904235124588,502.56628358364105 1555.3589953780174,502.56628358364105 Z "/>
<path style="fill:none;stroke:#000000;stroke-width:1px;stroke-linecap:butt;stroke-linejoin:miter;stroke-opacity:1" d="M7469.211873292923,-2154.7510418891907 C7469.211873292923,-1833.6593899726868 7469.211873292923,-1512.5677380561829 7469.211873292923,-1191.476086139679 C7065.68795132637,-1191.476086139679 6662.163552522659,-1191.476086139679 6258.639630556107,-1191.476086139679 C6258.639630556107,-1512.5677380561829 6258.639630556107,-1833.6593899726868 6258.639630556107,-2154.7510418891907 C6662.163552522659,-2154.7510418891907 7065.68795132637,-2154.7510418891907 7469.211873292923,-2154.7510418891907 Z "/>
<path style="fill:none;stroke:#000000;stroke-width:1px;stroke-linecap:butt;stroke-linejoin:miter;stroke-opacity:1" d="M1354.173597574234,-1234.9724564552307 C1132.2776048183441,-1234.9724564552307 910.381671667099,-1234.9724564552307 688.4856789112091,-1234.9724564552307 C688.4856789112091,-1638.4258065223694 688.4856789112091,-2041.8793950080872 688.4856789112091,-2445.332745075226 C910.381671667099,-2445.332745075226 1132.2776048183441,-2445.332745075226 1354.173597574234,-2445.332745075226 C1354.173597574234,-2041.8793950080872 1354.173597574234,-1638.4258065223694 1354.173597574234,-1234.9724564552307 Z "/>
<path style="fill:none;stroke:#000000;stroke-width:1px;stroke-linecap:butt;stroke-linejoin:miter;stroke-opacity:1" d="M4753.238019227982,-449.22027921676636 C4753.238019227982,-227.32428646087646 4753.238019227982,-5.428353309631348 4753.238019227982,216.46763944625854 C4656.019028902054,216.46763944625854 4558.800276994705,216.46763944625854 4461.5812866687775,216.46763944625854 C4461.5812866687775,226.46762990951538 4461.5812866687775,236.46762037277222 4461.5812866687775,246.46761083602905 C4361.581382036209,246.46761083602905 4261.581238985062,246.46761083602905 4161.581334352493,246.46761083602905 C4161.581334352493,236.46762037277222 4161.581334352493,226.46762990951538 4161.581334352493,216.46763944625854 C4057.492312669754,216.46763944625854 3953.4030525684357,216.46763944625854 3849.3140308856964,216.46763944625854 C3849.3140308856964,-5.428353309631348 3849.3140308856964,-227.32428646087646 3849.3140308856964,-449.22027921676636 C4150.621947526932,-449.22027921676636 4451.930102586746,-449.22027921676636 4753.238019227982,-449.22027921676636 Z "/>
<path style="fill:none;stroke:#000000;stroke-width:1px;stroke-linecap:butt;stroke-linejoin:miter;stroke-opacity:1" d="M3381.9405405521393,-2710.220554828644 C3818.670567750931,-2696.6724190711975 4255.400714159012,-2683.1245217323303 4692.130860567093,-2669.576385974884 C4859.692391633987,-2554.4256958961487 5027.253922700882,-2439.2750058174133 5194.8154537677765,-2324.124315738678 C5195.006427049637,-2215.6727108955383 5195.197638750076,-2107.221344470978 5195.388612031937,-1998.7697396278381 C5070.174035310745,-1890.0973591804504 4944.959697008133,-1781.4247403144836 4819.7451202869415,-1672.752359867096 C4945.341881990433,-1564.5217690467834 5070.938643693924,-1456.29141664505 5196.535405397415,-1348.0608258247375 C5196.7263786792755,-1239.6093401908875 5196.917590379715,-1131.1577353477478 5197.108563661575,-1022.7062497138977 C5029.954013109207,-906.9657120704651 4862.79922413826,-791.225293636322 4695.644673585892,-675.4847559928894 C4258.96507191658,-660.3976283073425 3822.2854702472687,-645.3105006217957 3385.605868577957,-630.2233729362488 C3384.384092569351,-1323.5556874275208 3383.1623165607452,-2016.8881211280823 3381.9405405521393,-2710.220554828644 Z "/>
<path style="fill:none;stroke:#000000;stroke-width:1px;stroke-linecap:butt;stroke-linejoin:miter;stroke-opacity:1" d="M4042.0067875385284,-1097.0669779777527 C4142.006692171097,-1097.2431693077087 4242.006358385086,-1097.4194798469543 4342.006263017654,-1097.5956711769104 C4342.023667573929,-1087.7097640037537 4342.041072130203,-1077.823856830597 4342.058476686478,-1067.9379496574402 C4242.058572053909,-1067.7617583274841 4142.05890583992,-1067.5854477882385 4042.0590012073517,-1067.4092564582825 C4042.0415966510773,-1077.2951636314392 4042.024192094803,-1087.181070804596 4042.0067875385284,-1097.0669779777527 Z "/>
<path style="fill:none;stroke:#000000;stroke-width:1px;stroke-linecap:butt;stroke-linejoin:miter;stroke-opacity:1" d="M4039.9265854358673,-2277.5575909614563 C4139.926490068436,-2277.7337822914124 4239.926156282425,-2277.9102120399475 4339.926060914993,-2278.0864033699036 C4339.943703889847,-2268.089273929596 4339.9613468647,-2258.0921444892883 4339.978989839554,-2248.0950150489807 C4239.9790852069855,-2247.9188237190247 4139.979180574417,-2247.7426323890686 4039.9792759418488,-2247.5664410591125 C4039.9616329669952,-2257.56357049942 4039.944228410721,-2267.5604615211487 4039.9265854358673,-2277.5575909614563 Z "/>
<path style="fill:none;stroke:#000000;stroke-width:1px;stroke-linecap:butt;stroke-linejoin:miter;stroke-opacity:1" d="M6764.707383394241,-692.3453602790833 C6813.189324617386,-692.3453602790833 6861.670789003372,-692.3453602790833 6910.152730226517,-692.3453602790833 C6910.152730226517,-702.3858819007874 6910.152730226517,-712.426522731781 6910.152730226517,-722.4670443534851 C6859.309014558792,-722.4670443534851 6808.464822053909,-722.4670443534851 6757.621106386185,-722.4670443534851 C6734.773453950882,-779.2200837135315 6636.352357149124,-844.2023787498474 6689.077672243118,-892.7260432243347 C6801.604565858841,-996.2857756614685 6941.141423463821,-810.990074634552 7039.07662320137,-716.8359551429749 C7178.688344240189,-277.23894453048706 7178.688344240189,162.35806608200073 7039.07662320137,601.9551362991333 C6941.141423463821,696.1091365814209 6801.604565858841,881.4048376083374 6689.077672243118,777.8450455665588 C6636.352357149124,729.3214034438133 6734.773453950882,664.3391307592392 6757.621106386185,607.5861659049988 C6808.464822053909,607.5861659049988 6859.309014558792,607.5861659049988 6910.152730226517,607.5861659049988 C6910.152730226517,597.5455846786499 6910.152730226517,587.505003452301 6910.152730226517,577.4644222259521 C6861.670789003372,577.4644222259521 6813.189324617386,577.4644222259521 6764.707383394241,577.4644222259521 C6882.832345247269,154.19449472427368 6882.832345247269,-269.07537317276 6764.707383394241,-692.3453602790833 Z "/>
<path style="fill:none;stroke:#000000;stroke-width:1px;stroke-linecap:butt;stroke-linejoin:miter;stroke-opacity:1" d="M7351.554211854935,-692.3453602790833 C7400.036153078079,-692.3453602790833 7448.517617464066,-692.3453602790833 7496.99955868721,-692.3453602790833 C7496.99955868721,-702.3858819007874 7496.99955868721,-712.426522731781 7496.99955868721,-722.4670443534851 C7446.1558430194855,-722.4670443534851 7395.312127351761,-722.4670443534851 7344.468411684036,-722.4670443534851 C7321.620282411575,-779.2200837135315 7223.1991856098175,-844.2022595405579 7275.924500703812,-892.7260432243347 C7388.451394319534,-996.2860140800476 7527.988251924515,-810.990074634552 7625.923451662064,-716.8359551429749 C7765.534695863724,-277.23894453048706 7765.534695863724,162.35806608200073 7625.923451662064,601.9551362991333 C7527.988251924515,696.1091365814209 7388.451394319534,881.4049866199493 7275.924500703812,777.8450455665588 C7223.1991856098175,729.3212916851044 7321.620282411575,664.3391307592392 7344.468411684036,607.5861659049988 C7395.312127351761,607.5861659049988 7446.1558430194855,607.5861659049988 7496.99955868721,607.5861659049988 C7496.99955868721,597.5455846786499 7496.99955868721,587.505003452301 7496.99955868721,577.4644222259521 C7448.517617464066,577.4644222259521 7400.036153078079,577.4644222259521 7351.554211854935,577.4644222259521 C7469.679173707962,154.19449472427368 7469.679173707962,-269.07537317276 7351.554211854935,-692.3453602790833 Z "/>
<path style="fill:none;stroke:#000000;stroke-width:1px;stroke-linecap:butt;stroke-linejoin:miter;stroke-opacity:1" d="M6200.405415773392,-692.3453602790833 C6248.887356996536,-692.3453602790833 6297.368821382523,-692.3453602790833 6345.850762605667,-692.3453602790833 C6345.850762605667,-702.3858819007874 6345.850762605667,-712.426522731781 6345.850762605667,-722.4670443534851 C6295.0070469379425,-722.4670443534851 6244.163331270218,-722.4670443534851 6193.319615602493,-722.4670443534851 C6170.471486330032,-779.2200837135315 6072.0503895282745,-844.2022595405579 6124.775704622269,-892.7260432243347 C6237.302598237991,-996.2860140800476 6376.839455842972,-810.990074634552 6474.774655580521,-716.8359551429749 C6614.385899782181,-277.23894453048706 6614.385899782181,162.35806608200073 6474.774655580521,601.9551362991333 C6376.839455842972,696.1091365814209 6237.302598237991,881.4049866199493 6124.775704622269,777.8450455665588 C6072.0503895282745,729.3212916851044 6170.471486330032,664.3391307592392 6193.319615602493,607.5861659049988 C6244.163331270218,607.5861659049988 6295.0070469379425,607.5861659049988 6345.850762605667,607.5861659049988 C6345.850762605667,597.5455846786499 6345.850762605667,587.505003452301 6345.850762605667,577.4644222259521 C6297.368821382523,577.4644222259521 6248.887356996536,577.4644222259521 6200.405415773392,577.4644222259521 C6318.530377626419,154.19449472427368 6318.530377626419,-269.07537317276 6200.405415773392,-692.3453602790833 Z "/>
<path style="fill:none;stroke:#000000;stroke-width:1px;stroke-linecap:butt;stroke-linejoin:miter;stroke-opacity:1" d="M2182.8262178897858,-2500.198582172394 C2311.1057846546173,-2959.179142475128 2605.644819021225,-3334.068516254425 2962.436732530594,-3505.570152759552 C2962.436732530594,-3391.361454486847 2962.436732530594,-3277.1532330513 2962.436732530594,-3162.944534778595 C2698.156651735306,-3040.454605579376 2532.105085134506,-2804.8994336128235 2464.281496286392,-2512.1984276771545 C2416.7371957302094,-2512.1984276771545 2369.1928355693817,-2512.1984276771545 2321.648535013199,-2512.1984276771545 C2321.648535013199,-2502.1910462379456 2321.648535013199,-2492.1834263801575 2321.648535013199,-2482.1760449409485 C2369.1928355693817,-2482.1760449409485 2416.7371957302094,-2482.1760449409485 2464.281496286392,-2482.1760449409485 C2366.0835592746735,-2058.842161655426 2366.0835592746735,-1635.5085167884827 2464.2816154956818,-1212.1746335029602 C2416.737255334854,-1212.1746335029602 2369.1928951740265,-1212.1746335029602 2321.648535013199,-1212.1746335029602 C2321.648535013199,-1202.1672520637512 2321.648535013199,-1192.1598706245422 2321.648535013199,-1182.1524891853333 C2369.1928951740265,-1182.1523699760437 2416.737255334854,-1182.1523699760437 2464.2816154956818,-1182.1522507667542 C2532.105204343796,-889.4511256217957 2698.156890153885,-653.896192073822 2962.4368517398834,-531.4062628746033 C2962.4368517398834,-417.1978030204773 2962.4368517398834,-302.98922395706177 2962.4368517398834,-188.7807641029358 C2605.6449382305145,-356.53696393966675 2311.1060230731964,-726.9242796897888 2182.8262178897858,-1182.1522507667542 C2084.628280878067,-1621.5011868476868 2084.628280878067,-2060.8498845100403 2182.8262178897858,-2500.198582172394 Z "/>
<path style="fill:none;stroke:#000000;stroke-width:1px;stroke-linecap:butt;stroke-linejoin:miter;stroke-opacity:1" d="M1541.1769716739655,-2548.60041475296 C1817.6137475967407,-2883.7241921424866 2094.0504937171936,-3218.848207950592 2370.487269639969,-3553.9719853401184 C2370.487269639969,-3439.7632870674133 2370.487269639969,-3325.5550656318665 2370.487269639969,-3211.3463673591614 C2187.8688900470734,-2994.430998325348 2005.250599861145,-2777.5156292915344 1822.632250070572,-2560.600260257721 C1775.0879271626472,-2560.600260257721 1727.5436117053032,-2560.600260257721 1679.9992887973785,-2560.600260257721 C1679.9992887973785,-2550.592878818512 1679.9992887973785,-2540.585258960724 1679.9992887973785,-2530.577877521515 C1727.5436117053032,-2530.577877521515 1775.0879271626472,-2530.577877521515 1822.632250070572,-2530.577877521515 C1724.4343130588531,-2107.2439942359924 1724.4343130588531,-1683.910349369049 1822.6323692798615,-1260.5764660835266 C1775.0880091190338,-1260.5764660835266 1727.5436489582062,-1260.5764660835266 1679.9992887973785,-1260.5764660835266 C1679.9992887973785,-1250.5690846443176 1679.9992887973785,-1240.5617032051086 1679.9992887973785,-1230.5543217658997 C1727.5436489582062,-1230.55420255661 1775.0880091190338,-1230.55420255661 1822.6323692798615,-1230.5540833473206 C2005.250748872757,-1013.6387143135071 2187.8690688610077,-796.7234644889832 2370.487448453903,-579.8080954551697 C2370.487448453903,-465.5996356010437 2370.487448453903,-351.3910565376282 2370.487448453903,-237.1825966835022 C2094.050612926483,-568.3064255714417 1817.6138072013855,-899.4302544593811 1541.1769716739655,-1230.5540833473206 C1442.9790346622467,-1669.9030194282532 1442.9790346622467,-2109.2517170906067 1541.1769716739655,-2548.60041475296 Z "/>
<path style="fill:none;stroke:#000000;stroke-width:1px;stroke-linecap:butt;stroke-linejoin:miter;stroke-opacity:1" d="M1359.6217005252838,-2827.9938492774963 C1028.249856710434,-2682.0289883613586 696.8780725002289,-2536.063889026642 365.506228685379,-2390.099028110504 C318.8502161502838,-2390.099028110504 272.19408440589905,-2390.099028110504 225.53807187080383,-2390.099028110504 C225.53807187080383,-2380.097845554352 225.53807187080383,-2370.0969014167786 225.53807187080383,-2360.095718860626 C272.19408440589905,-2360.095718860626 318.8502161502838,-2360.095718860626 365.506228685379,-2360.095718860626 C365.506228685379,-2020.101049900055 365.506228685379,-1680.1061425209045 365.506228685379,-1340.1114735603333 C318.8502161502838,-1340.1114735603333 272.19408440589905,-1340.1114735603333 225.53807187080383,-1340.1114735603333 C225.53807187080383,-1330.105761051178 225.53807187080383,-1320.0998101234436 225.53807187080383,-1310.0940976142883 C272.19408440589905,-1310.0940976142883 318.8502161502838,-1310.0940976142883 365.506228685379,-1310.0940976142883 C696.8780725002289,-1131.9197211265564 1028.249856710434,-953.7452254295349 1359.6217005252838,-775.570848941803 C1359.6217005252838,-685.9155688285828 1359.6217005252838,-596.2604079246521 1359.6217005252838,-506.6051278114319 C906.9663255214691,-716.2993941307068 454.3109505176544,-925.9936604499817 1.655635118484497,-1135.6879267692566 C1.655635118484497,-1633.02800989151 1.655635118484497,-2130.367973804474 1.655635118484497,-2627.708176136017 C454.3109505176544,-2782.2015080451965 906.9663255214691,-2936.694839954376 1359.6217005252838,-3091.188171863556 C1359.6217005252838,-3003.4568104743958 1359.6217005252838,-2915.7252106666565 1359.6217005252838,-2827.9938492774963 Z "/>
<path style="fill:none;stroke:#000000;stroke-width:1px;stroke-linecap:butt;stroke-linejoin:miter;stroke-opacity:1" d="M5058.592852830887,-3588.5813031196594 C5178.769883394241,-3433.0222401618958 5298.946675539017,-3277.463177204132 5419.123706102371,-3121.9043526649475 C5431.672868013382,-3055.442789554596 5444.222029924393,-2988.9809880256653 5456.771191835403,-2922.5194249153137 C5415.917214632034,-2922.5194249153137 5375.063237428665,-2922.5194249153137 5334.209260225296,-2922.5194249153137 C5334.209260225296,-2912.519434452057 5334.209260225296,-2902.519205570221 5334.209260225296,-2892.519215106964 C5376.950320482254,-2892.519215106964 5419.691142320633,-2892.519215106964 5462.432202577591,-2892.519215106964 C5518.953856706619,-2596.178987979889 5575.475749254227,-2299.838999271393 5631.997403383255,-2003.4987721443176 C5586.467799425125,-2003.4987721443176 5540.937957048416,-2003.4987721443176 5495.408353090286,-2003.4987721443176 C5495.408353090286,-1993.4983048439026 5495.408353090286,-1983.4980759620667 5495.408353090286,-1973.4976086616516 C5542.845305681229,-1973.4976086616516 5590.28249669075,-1973.4973702430725 5637.7194492816925,-1973.4973702430725 C5567.22980427742,-1367.790201663971 5496.7399208545685,-762.0830330848694 5426.250275850296,-156.37574529647827 C5308.717068910599,98.99534845352173 5191.1838619709015,354.36644220352173 5073.650655031204,609.7375359535217 C5276.306685686111,712.3663630485535 5325.527247667313,986.7031779289246 5343.0276482105255,986.7031779289246 C4737.4156086444855,986.7031779289246 4131.8038074970245,986.7031779289246 3526.1917679309845,986.7031779289246 C3535.5601875782013,871.1143937110901 3544.928607225418,755.5256094932556 3554.297026872635,639.9368252754211 C3468.2819216251373,551.3970609903336 3382.2669355869293,462.85732650756836 3296.2518303394318,374.3175473213196 C3328.3627598285675,341.8877627849579 3360.4736893177032,309.4580080509186 3392.584618806839,277.0282235145569 C3385.4771225452423,269.99058389663696 3378.369745492935,262.95294427871704 3371.2622492313385,255.91530466079712 C3358.5756390094757,268.72779989242554 3345.889028787613,281.54029512405396 3333.20241856575,294.3527903556824 C3273.5949127674103,184.40743350982666 3213.98752617836,74.46213626861572 3154.38002038002,-35.48322057723999 C3200.6193964481354,-35.48322057723999 3246.85889172554,-35.48322057723999 3293.0982677936554,-35.48322057723999 C3293.0982677936554,-45.48964834213257 3293.0982677936554,-55.49607610702515 3293.0982677936554,-65.50250387191772 C3244.5078461170197,-65.50250387191772 3195.9175436496735,-65.50250387191772 3147.3271219730377,-65.50250387191772 C3079.8386900424957,-492.356041431427 3012.3502581119537,-919.2095789909363 2944.8618261814117,-1346.0631165504456 C2991.2666647434235,-1346.0631165504456 3037.671503305435,-1346.0631165504456 3084.076341867447,-1346.0631165504456 C3084.076341867447,-1356.0631070137024 3084.076341867447,-1366.0630974769592 3084.076341867447,-1376.063087940216 C3037.671503305435,-1376.063087940216 2991.2666647434235,-1376.0633263587952 2944.8618261814117,-1376.0633263587952 C2973.4823076725006,-1881.548861026764 3002.1026699543,-2387.0343956947327 3030.723151445389,-2892.5199303627014 C3073.3873217105865,-2892.5199303627014 3116.0514919757843,-2892.5196919441223 3158.715662240982,-2892.5196919441223 C3158.715662240982,-2902.519682407379 3158.715662240982,-2912.519434452057 3158.715662240982,-2922.5194249153137 C3116.0514919757843,-2922.5194249153137 3073.3873217105865,-2922.5194249153137 3030.723151445389,-2922.5194249153137 C3083.0327837467194,-3030.2369389533997 3135.34241604805,-3137.9542145729065 3187.6520483493805,-3245.6717286109924 C3341.8435423374176,-3359.77623796463 3511.730489015579,-3566.8456349372864 3650.2264111042023,-3587.9847798347473 C3688.3264153003693,-3587.9847798347473 3726.4266579151154,-3587.9847798347473 3764.5266621112823,-3587.9847798347473 C3764.5266621112823,-3481.440285205841 3764.5266621112823,-3374.896267414093 3764.5266621112823,-3268.3517727851868 C3631.1135857105255,-3195.8174500465393 3497.7005093097687,-3123.283365726471 3364.287432909012,-3050.7490429878235 C3311.8527500629425,-2572.1466336250305 3259.418067216873,-2093.5442242622375 3206.983384370804,-1614.9418148994446 C3271.2914316654205,-1098.4620842933655 3335.5993597507477,-581.9823536872864 3399.9074070453644,-65.50250387191772 C3524.794158220291,84.51320791244507 3649.680909395218,234.52891969680786 3774.5676605701447,384.54463148117065 C3774.5676605701447,477.57752799987793 3774.5676605701447,570.6103798151016 3774.5676605701447,663.6432614326477 C3784.568366289139,663.6432614326477 3794.569310426712,663.6432614326477 3804.570016145706,663.6432614326477 C3804.570016145706,584.5020022392273 3804.570016145706,505.3607430458069 3804.570016145706,426.2194838523865 C3852.618750810623,486.67993211746216 3900.66748547554,547.1403803825378 3948.716220140457,607.6008286476135 C4240.666684389114,607.6008286476135 4532.617148637772,607.6008286476135 4824.567612886429,607.6008286476135 C4824.567612886429,626.2772735357285 4824.567612886429,644.9537035226822 4824.567612886429,663.6301484107971 C4834.568318605423,663.6301484107971 4844.569024324417,663.6301484107971 4854.569730043411,663.6301484107971 C4854.569730043411,622.9015793800354 4854.569730043411,582.1730103492737 4854.569730043411,541.444441318512 C4955.77960896492,318.27231311798096 5056.98924946785,95.10024452209473 5158.1991283893585,-128.07188367843628 C5216.500100374222,-735.2716717720032 5274.801310777664,-1342.4713406562805 5333.1022827625275,-1949.671247959137 C5263.351973772049,-2316.697100162506 5193.601426362991,-2683.7231907844543 5123.851117372513,-3050.7490429878235 C5037.885483980179,-3123.283365726471 4951.920089006424,-3195.8174500465393 4865.95445561409,-3268.3517727851868 C4865.95445561409,-3375.0951085090637 4865.95445561409,-3481.8379673957825 4865.95445561409,-3588.5813031196594 C4930.167254686356,-3588.5813031196594 4994.380053758621,-3588.5813031196594 5058.592852830887,-3588.5813031196594 Z "/>
<path style="fill:none;stroke:#000000;stroke-width:1px;stroke-linecap:butt;stroke-linejoin:miter;stroke-opacity:1" d="M6104.958829164505,1465.9965243339539 C5984.781560182571,1310.437520980835 5864.604768037796,1154.8785772323608 5744.427499055862,999.319573879242 C5731.878575563431,932.8579660654068 5719.329175233841,866.3963731527328 5706.780251741409,799.9347653388977 C5747.634228944778,799.9347280859947 5788.488206148148,799.9346833825111 5829.342183351517,799.9346461296082 C5829.342183351517,789.9345737099648 5829.342183351517,779.934508740902 5829.342183351517,769.9344363212585 C5786.601361513138,769.9344363212585 5743.860062837601,769.9344363212585 5701.119240999222,769.9344363212585 C5644.5975868701935,473.5942986011505 5588.075694322586,177.25422048568726 5531.554040193558,-119.08594703674316 C5577.083644151688,-119.08594703674316 5622.613009691238,-119.08594703674316 5668.142613649368,-119.08594703674316 C5668.142613649368,-129.08635473251343 5668.142613649368,-139.08670282363892 5668.142613649368,-149.08711051940918 C5620.705661058426,-149.08717012405396 5573.2687084674835,-149.08717012405396 5525.831755876541,-149.08722972869873 C5596.321400880814,-754.7945771217346 5666.811284303665,-1360.5017457008362 5737.3006908893585,-1966.2091526985168 C5854.833897829056,-2221.580246448517 5972.367104768753,-2476.951340198517 6089.90031170845,-2732.322433948517 C5887.244519472122,-2834.951141834259 5838.023480653763,-3109.28795671463 5820.523556947708,-3109.28795671463 C6426.135358095169,-3109.28795671463 7031.747636079788,-3109.28795671463 7637.359437227249,-3109.28795671463 C7627.991017580032,-2993.699053287506 7618.622597932816,-2878.110388278961 7609.254178285599,-2762.521484851837 C7695.269402742386,-2673.9816460609436 7781.284150362015,-2585.442045688629 7867.299374818802,-2496.9022068977356 C7835.188206911087,-2464.472511768341 7803.07751584053,-2432.0428166389465 7770.966347932816,-2399.613121509552 C7778.074082612991,-2392.575481891632 7785.181340456009,-2385.537842273712 7792.289075136185,-2378.5002026557922 C7804.975804567337,-2391.312578678131 7817.662057161331,-2404.125193119049 7830.3487865924835,-2416.937569141388 C7889.956292390823,-2306.992271900177 7949.563321352005,-2197.046974658966 8009.170827150345,-2087.101677417755 C7962.93145108223,-2087.101677417755 7916.692075014114,-2087.101677417755 7870.452698945999,-2087.101677417755 C7870.452698945999,-2077.0952496528625 7870.452698945999,-2067.08882188797 7870.452698945999,-2057.0823941230774 C7919.043359041214,-2057.0823941230774 7967.633542299271,-2057.0823941230774 8016.2242023944855,-2057.0823941230774 C8083.712395906448,-1630.2287373542786 8151.2010662555695,-1203.3753190040588 8218.689259767532,-776.5217814445496 C8172.284421205521,-776.5217814445496 8125.879582643509,-776.52166223526 8079.474744081497,-776.52166223526 C8079.474744081497,-766.5216717720032 8079.474744081497,-756.5216813087463 8079.474744081497,-746.5216908454895 C8125.879582643509,-746.5216908454895 8172.284421205521,-746.5216908454895 8218.689259767532,-746.5216908454895 C8190.069016695023,-241.0360369682312 8161.448296785355,264.44949769973755 8132.828053712845,769.9351515769958 C8090.164002656937,769.9350733458996 8047.49947476387,769.934991389513 8004.835423707962,769.9349131584167 C8004.835423707962,779.9348253905773 8004.835423707962,789.9347338974476 8004.835423707962,799.9346461296082 C8047.49947476387,799.9346461296082 8090.164002656937,799.9346461296082 8132.828053712845,799.9346461296082 C8080.518540620804,907.6520856618881 8028.208550691605,1015.3694953918457 7975.899037599564,1123.0869498252869 C7821.7075436115265,1237.1912803649902 7651.8209545612335,1444.2606177330017 7513.3250324726105,1465.4000010490417 C7475.224789857864,1465.4000010490417 7437.1250240802765,1465.4000010490417 7399.02478146553,1465.4000010490417 C7399.02478146553,1358.8556852340698 7399.02478146553,1252.3113098144531 7399.02478146553,1145.7669939994812 C7532.437619447708,1073.2327904701233 7665.850934267044,1000.6985869407654 7799.263772249222,928.1643834114075 C7851.69869351387,449.56185483932495 7904.1331379413605,-29.04067373275757 7956.568059206009,-507.6432023048401 C7892.259892702103,-1024.1229329109192 7827.951726198196,-1540.6026635169983 7763.64355969429,-2057.0823941230774 C7638.7570469379425,-2207.0979866981506 7513.870057344437,-2357.113817691803 7388.983544588089,-2507.129410266876 C7388.983544588089,-2600.1622471809387 7388.983544588089,-2693.195084095001 7388.983544588089,-2786.2279210090637 C7378.982838869095,-2786.2279210090637 7368.9816563129425,-2786.2279210090637 7358.980950593948,-2786.2279210090637 C7358.980950593948,-2707.086781024933 7358.980950593948,-2627.945402622223 7358.980950593948,-2548.804262638092 C7310.9324543476105,-2609.2648301124573 7262.883481264114,-2669.7251591682434 7214.8349850177765,-2730.1857266426086 C6922.88428235054,-2730.1857266426086 6630.934056520462,-2730.1857266426086 6338.983353853226,-2730.1857266426086 C6338.983353853226,-2748.8622460365295 6338.983353853226,-2767.5385270118713 6338.983353853226,-2786.2150464057922 C6328.982648134232,-2786.2150464057922 6318.981942415237,-2786.2150464057922 6308.981236696243,-2786.2150464057922 C6308.981236696243,-2745.4864773750305 6308.981236696243,-2704.757908344269 6308.981236696243,-2664.029339313507 C6207.771596193314,-2440.8571515083313 6106.561478853226,-2217.6849637031555 6005.351838350296,-1994.5127758979797 C5947.050866365433,-1387.3131070137024 5888.7498943805695,-780.113199710846 5830.448922395706,-172.91347122192383 C5900.199231386185,194.1124405860901 5969.950017213821,561.1384418010712 6039.7003262043,928.1643834114075 C6125.665959596634,1000.6985869407654 6211.63111615181,1073.2327904701233 6297.596749544144,1145.7669939994812 C6297.596749544144,1252.5101509094238 6297.596749544144,1359.2533674240112 6297.596749544144,1465.9965243339539 C6233.383950471878,1465.9965243339539 6169.171628236771,1465.9965243339539 6104.958829164505,1465.9965243339539 Z "/>
</svg>