<?xml version="1.0" encoding="UTF-8" standalone="no"?>
<svg
   xmlns:dc="http://purl.org/dc/elements/1.1/"
   xmlns:cc="http://creativecommons.org/ns#"
   xmlns:rdf="http://www.w3.org/1999/02/22-rdf-syntax-ns#"
   xmlns:svg="http://www.w3.org/2000/svg"
   xmlns="http://www.w3.org/2000/svg"
   xmlns:sodipodi="http://sodipodi.sourceforge.net/DTD/sodipodi-0.dtd"
   xmlns:inkscape="http://www.inkscape.org/namespaces/inkscape"
   width="2125.9841"
   height="3188.9763"
   viewBox="0 0 600 900.00002"
   id="svg2"
   version="1.1"
   inkscape:version="0.48.5 r10040"
   sodipodi:docname="snowyOwl_smal_sheet2.pdf">
  <metadata
     id="metadata34">
    <rdf:RDF>
      <cc:Work
         rdf:about="">
        <dc:format>image/svg+xml</dc:format>
        <dc:type
           rdf:resource="http://purl.org/dc/dcmitype/StillImage" />
        <dc:title>Bezier Curve : BezierCurve.028</dc:title>
      </cc:Work>
    </rdf:RDF>
  </metadata>
  <defs
     id="defs32" />
  <sodipodi:namedview
     pagecolor="#ffffff"
     bordercolor="#666666"
     borderopacity="1"
     objecttolerance="10"
     gridtolerance="10"
     guidetolerance="10"
     inkscape:pageopacity="0"
     inkscape:pageshadow="2"
     inkscape:window-width="888"
     inkscape:window-height="644"
     id="namedview30"
     showgrid="false"
     units="cm"
     inkscape:zoom="0.16"
     inkscape:cx="1069.4735"
     inkscape:cy="1878.7801"
     inkscape:window-x="0"
     inkscape:window-y="0"
     inkscape:window-maximized="0"
     inkscape:current-layer="svg2" />
  <title
     id="title4">Bezier Curve : BezierCurve.028</title>
  <desc
     id="desc6">This is an exported Bezier xml_path from Blender, using the ExportScript by maybites.ch and Craxic</desc>
  <g
     id="g3011"
     transform="matrix(0.1,0,0,0.1,30.635765,1507.5139)"
     style="stroke-width:0.35277781;stroke-miterlimit:4;stroke-dasharray:none">
    <path
       inkscape:connector-curvature="0"
       id="path8"
       d="m 39.207197,-7346.3558 c 96.119703,-96.75 192.239403,-193.5 288.359103,-290.25 159.78992,-25.03 319.5798,-50.06 479.3697,-75.1 159.78991,25.04 319.5798,50.07 479.3697,75.1 96.1197,96.75 192.2394,193.5 288.3591,290.25 12.8003,276.46 25.6007,552.9201 38.4011,829.3901 -88.3258,88.55 -176.6517,177.1 -264.9775,265.65 -180.3841,45.61 -360.76825,91.23 -541.1524,136.84 -180.38414,-45.61 -360.76826,-91.23 -541.15241,-136.84 -88.3258,-88.55 -176.651662,-177.1 -264.97746013,-265.65 12.80033613,-276.47 25.60073113,-552.9301 38.40106713,-829.3901 z"
       style="fill:none;stroke:#000000;stroke-width:0.35277781;stroke-linecap:butt;stroke-linejoin:miter;stroke-miterlimit:4;stroke-opacity:1;stroke-dasharray:none" />
    <path
       inkscape:connector-curvature="0"
       id="path10"
       d="m 237.3561,-7214.5258 c 70.58603,-62.62 141.172,-125.23 211.75802,-187.85 119.27396,-27.72 238.54792,-55.44 357.82188,-83.15 119.27396,27.71 238.5479,55.43 357.8219,83.15 70.586,62.62 141.172,125.23 211.758,187.85 0,175.35 0,350.7 0,526.0401 -62.4076,54.53 -124.8151,109.06 -187.2227,163.59 -127.4524,28.09 -254.90479,56.18 -382.3572,84.27 -127.4524,-28.09 -254.90477,-56.18 -382.35718,-84.27 -62.40758,-54.53 -124.81516,-109.06 -187.22272,-163.59 0,-175.3401 0,-350.6901 0,-526.0401 z"
       style="fill:none;stroke:#000000;stroke-width:0.35277781;stroke-linecap:butt;stroke-linejoin:miter;stroke-miterlimit:4;stroke-opacity:1;stroke-dasharray:none" />
    <path
       inkscape:connector-curvature="0"
       id="path12"
       d="m 2060.0514,-7608.6358 c 145.965,331.38 291.9299,662.75 437.8948,994.1201 0,46.66 0,93.31 0,139.97 10.0011,0 20.0023,0 30.0033,0 0,-46.66 0,-93.31 0,-139.97 339.9947,0 679.9896,0 1019.9843,0 0,46.66 0,93.31 0,139.97 10.0057,0 20.0117,0 30.0174,0 0,-46.66 0,-93.31 0,-139.97 178.1745,-331.3701 356.3487,-662.7401 534.5232,-994.1201 89.6552,0 179.3106,0 268.9657,0 -209.6941,452.66 -419.3885,905.3201 -629.0826,1357.9701 -479.7638,0 -959.5273,0 -1439.2909,0 -172.0698,-452.65 -344.1397,-905.3101 -516.2095,-1357.9701 87.7315,0 175.4628,0 263.1943,0 z"
       style="fill:none;stroke:#000000;stroke-width:0.35277781;stroke-linecap:butt;stroke-linejoin:miter;stroke-miterlimit:4;stroke-opacity:1;stroke-dasharray:none" />
    <path
       inkscape:connector-curvature="0"
       id="path14"
       d="m 1558.8135,-13558.876 c 124.8525,264.31 249.705,528.62 374.5575,792.92 0,46.66 0,93.32 0,139.97 10.0011,0 20.0023,0 30.0034,0 0,-46.65 0,-93.31 0,-139.97 339.9947,0 679.9894,0 1019.9842,0 0,46.66 0,93.32 0,139.97 10.0057,0 20.0117,0 30.0174,0 0,-46.65 0,-93.31 0,-139.97 155.0586,-264.3 310.1175,-528.61 465.1761,-792.92 89.6551,0 179.3105,0 268.9657,0 -186.5785,385.59 -373.157,771.18 -559.7355,1156.77 -479.7637,0 -959.5273,0 -1439.2909,0 -150.9574,-385.59 -301.9148,-771.18 -452.8722,-1156.77 87.7314,0 175.4629,0 263.1943,0 z"
       style="fill:none;stroke:#000000;stroke-width:0.35277781;stroke-linecap:butt;stroke-linejoin:miter;stroke-miterlimit:4;stroke-opacity:1;stroke-dasharray:none" />
    <path
       inkscape:connector-curvature="0"
       id="path16"
       d="m 1558.8135,-9978.4457 c 124.8525,264.31 249.705,528.62 374.5575,792.92 0,46.66 0,93.32 0,139.97 10.0011,0 20.0023,0 30.0034,0 0,-46.65 0,-93.31 0,-139.97 339.9947,0 679.9894,0 1019.9842,0 0,46.66 0,93.32 0,139.97 10.0057,0 20.0117,0 30.0174,0 0,-46.65 0,-93.31 0,-139.97 155.0586,-264.3 310.1175,-528.61 465.1761,-792.92 89.6551,0 179.3105,0 268.9657,0 -186.5785,385.59 -373.157,771.18 -559.7355,1156.7699 -479.7637,0 -959.5273,0 -1439.2909,0 -150.9574,-385.5899 -301.9148,-771.1799 -452.8722,-1156.7699 87.7314,0 175.4629,0 263.1943,0 z"
       style="fill:none;stroke:#000000;stroke-width:0.35277781;stroke-linecap:butt;stroke-linejoin:miter;stroke-miterlimit:4;stroke-opacity:1;stroke-dasharray:none" />
    <path
       inkscape:connector-curvature="0"
       id="path18"
       d="m 633.22494,-10110.486 c 39.05277,-162.26 78.10553,-324.52 117.15829,-486.78 520.43607,-78.51 1040.87197,-157.02 1561.30807,-235.54 446.3988,38.32 892.7977,76.64 1339.1964,114.96 274.1773,284.74 548.3544,569.48 822.5317,854.2303 0,253.7 0,507.4 0,761.1 -274.1773,284.7399 -548.3544,569.4799 -822.5317,854.2299 -446.3987,38.32 -892.7976,76.64 -1339.1964,114.95 -520.4361,-78.51 -1040.872,-157.02 -1561.30807,-235.53 -39.05276,-162.26 -78.10552,-324.52 -117.15829,-486.7799 0,-418.28 0,-836.56 0,-1254.8403 z"
       style="fill:none;stroke:#000000;stroke-width:0.35277781;stroke-linecap:butt;stroke-linejoin:miter;stroke-miterlimit:4;stroke-opacity:1;stroke-dasharray:none" />
    <path
       inkscape:connector-curvature="0"
       id="path20"
       d="m 451.75335,-8848.1158 c 10,0 19.99999,0 29.99998,0 0,-423.2999 0,-846.5999 0,-1269.9102 -9.99999,0 -19.99998,0 -29.99998,0 0,423.3103 0,846.6103 0,1269.9102 z"
       style="fill:none;stroke:#000000;stroke-width:0.35277781;stroke-linecap:butt;stroke-linejoin:miter;stroke-miterlimit:4;stroke-opacity:1;stroke-dasharray:none" />
    <path
       inkscape:connector-curvature="0"
       id="path22"
       d="m 4896.4073,-8848.0658 c -107.6905,0 -215.3813,0 -323.0719,0 -5e-4,10 0,20 0,30 107.6913,0 215.3824,0 323.0736,0 0,107.26 5e-4,214.51 5e-4,321.76 -103.4236,-13.33 -206.8474,-26.65 -310.271,-39.98 -220.3233,172.83 -440.6469,345.66 -660.9702,518.5 -31.9724,-35.51 -63.9446,-71.02 -95.917,-106.53 -7.4348,6.69 -14.8695,13.39 -22.3043,20.08 31.5762,35.07 63.1521,70.14 94.7282,105.21 -50.5659,39.73 -101.1316,79.47 -151.6976,119.2 -92.1676,8.6 -184.335,17.2 -276.5026,25.8 -36.8462,-40.92 -73.6909,-81.84 -110.5354,-122.76 -7.4349,6.69 -14.8695,13.39 -22.3043,20.08 31.5761,35.07 63.1521,70.14 94.7282,105.21 -379.7104,21.96 -694.2921,89.65 -1139.1314,65.89 -654.6349,-34.97 -1104.3364,-183.32 -1656.50465,-274.97 23.05234,-49.44 46.10467,-98.88 69.157,-148.31 -9.06344,-4.23 -18.12688,-8.45 -27.19032,-12.68 -23.05234,49.43 -46.10467,98.87 -69.15701,148.31 -97.13801,-203.44 -194.276,-406.89 -291.41402,-610.33 -9e-5,-532.9899 -1.5e-4,-1065.9799 -2.4e-4,-1598.9702 97.13802,-203.44 194.27601,-406.88 291.41402,-610.32 23.05234,49.44 46.10467,98.87 69.15701,148.31 9.06344,-4.23 18.12688,-8.45 27.19033,-12.68 -23.05234,-49.44 -46.10467,-98.87 -69.15701,-148.31 552.16829,-91.66 1001.86969,-240.01 1656.50459,-274.97 444.8394,-23.76 759.4208,43.93 1139.1312,65.89 -31.5759,35.07 -63.152,70.14 -94.728,105.21 7.4349,6.69 14.8695,13.39 22.3043,20.08 36.8448,-40.92 73.6893,-81.84 110.534,-122.76 92.1676,8.6 184.335,17.2 276.5026,25.8 50.5657,39.73 101.1314,79.47 151.6972,119.2 -31.576,35.07 -63.1521,70.14 -94.728,105.2 7.4348,6.7 14.8694,13.39 22.3043,20.09 31.9724,-35.51 63.9445,-71.02 95.9169,-106.53 220.3234,172.83 440.6469,345.67 660.9703,518.5 103.4236,-13.33 206.8471,-26.66 310.2707,-39.99 0,107.26 0,214.51 0,321.77 -107.6912,0 -215.3825,0 -323.0738,0 7e-4,10 0,20 0,30 107.6906,0 215.3814,0 323.0719,0 0,423.3303 0,846.6603 0,1270.0002 z"
       style="fill:none;stroke:#000000;stroke-width:0.35277781;stroke-linecap:butt;stroke-linejoin:miter;stroke-miterlimit:4;stroke-opacity:1;stroke-dasharray:none" />
    <path
       inkscape:connector-curvature="0"
       id="path24"
       d="m 583.87134,-13794.296 c 39.05277,-162.26 78.10553,-324.52 117.1583,-486.78 520.43606,-78.51 1040.87196,-157.02 1561.30806,-235.54 446.3988,38.32 892.7977,76.64 1339.1964,114.96 274.1773,284.74 548.3544,569.48 822.5317,854.23 0,253.7 0,507.4 0,761.1 -274.1773,284.74 -548.3544,569.48 -822.5317,854.23 -446.3987,38.32 -892.7976,76.63 -1339.1964,114.95 -520.4361,-78.51 -1040.872,-157.02 -1561.30806,-235.53 -39.05277,-162.26 -78.10553,-324.52 -117.1583,-486.78 0,-418.28 0,-836.56 0,-1254.84 z"
       style="fill:none;stroke:#000000;stroke-width:0.35277781;stroke-linecap:butt;stroke-linejoin:miter;stroke-miterlimit:4;stroke-opacity:1;stroke-dasharray:none" />
    <path
       inkscape:connector-curvature="0"
       id="path26"
       d="m 402.39976,-12531.926 c 9.99999,0 19.99998,0 29.99997,0 0,-423.3 0,-846.6 0,-1269.91 -9.99999,0 -19.99998,0 -29.99997,0 0,423.31 0,846.61 0,1269.91 z"
       style="fill:none;stroke:#000000;stroke-width:0.35277781;stroke-linecap:butt;stroke-linejoin:miter;stroke-miterlimit:4;stroke-opacity:1;stroke-dasharray:none" />
    <path
       inkscape:connector-curvature="0"
       id="path28"
       d="m 4847.0537,-12531.876 c -107.6905,0 -215.3813,0 -323.0719,0 -5e-4,10 0,20 0,30 107.6913,0 215.3824,0 323.0736,0 0,107.26 5e-4,214.51 5e-4,321.76 -103.4236,-13.33 -206.8474,-26.65 -310.271,-39.98 -220.3233,172.83 -440.6469,345.66 -660.9702,518.5 -31.9724,-35.51 -63.9446,-71.02 -95.917,-106.53 -7.4348,6.69 -14.8695,13.39 -22.3043,20.08 31.5762,35.07 63.1521,70.14 94.7282,105.21 -50.5659,39.73 -101.1316,79.46 -151.6976,119.2 -92.1676,8.6 -184.335,17.2 -276.5026,25.8 -36.8445,-40.92 -73.6892,-81.84 -110.5337,-122.76 -7.4349,6.69 -14.8695,13.38 -22.3043,20.08 31.5761,35.07 63.1521,70.14 94.7282,105.21 -379.7104,21.96 -694.2921,89.65 -1139.1314,65.89 -654.6349,-34.97 -1104.3364,-183.32 -1656.50465,-274.97 23.05234,-49.44 46.10467,-98.88 69.15701,-148.31 -9.06344,-4.23 -18.12689,-8.46 -27.19033,-12.68 -23.05234,49.43 -46.10467,98.87 -69.15701,148.31 -97.13801,-203.44 -194.276,-406.89 -291.41402,-610.33 -6e-5,-532.99 -1.8e-4,-1065.98 -2.4e-4,-1598.97 97.13802,-203.44 194.27601,-406.88 291.41402,-610.32 23.05234,49.44 46.10467,98.87 69.15701,148.31 9.06344,-4.23 18.12689,-8.45 27.19033,-12.68 -23.05234,-49.44 -46.10467,-98.87 -69.15701,-148.31 552.16829,-91.66 1001.86979,-240.01 1656.50459,-274.97 444.8394,-23.76 759.4208,43.93 1139.1312,65.89 -31.5759,35.07 -63.152,70.14 -94.728,105.21 7.4349,6.69 14.8695,13.39 22.3043,20.08 36.8448,-40.92 73.6893,-81.84 110.534,-122.76 92.1676,8.6 184.335,17.2 276.5026,25.8 50.5657,39.73 101.1314,79.47 151.6972,119.2 -31.576,35.07 -63.1521,70.14 -94.728,105.2 7.4348,6.7 14.8694,13.39 22.3043,20.09 31.9724,-35.51 63.9445,-71.02 95.9169,-106.53 220.3234,172.83 440.6469,345.67 660.9703,518.5 103.4236,-13.33 206.8471,-26.66 310.2707,-39.99 0,107.26 0,214.51 0,321.76 -107.6912,0 -215.3825,0 -323.0738,0 7e-4,10.01 0,20.01 0,30.01 107.6906,0 215.3814,0 323.0719,0 0,423.33 0,846.66 0,1270 z"
       style="fill:none;stroke:#000000;stroke-width:0.35277781;stroke-linecap:butt;stroke-linejoin:miter;stroke-miterlimit:4;stroke-opacity:1;stroke-dasharray:none" />
  </g>
</svg>
