<?xml version="1.0" encoding="UTF-8" standalone="no"?>
<svg
   xmlns:dc="http://purl.org/dc/elements/1.1/"
   xmlns:cc="http://creativecommons.org/ns#"
   xmlns:rdf="http://www.w3.org/1999/02/22-rdf-syntax-ns#"
   xmlns:svg="http://www.w3.org/2000/svg"
   xmlns="http://www.w3.org/2000/svg"
   xmlns:sodipodi="http://sodipodi.sourceforge.net/DTD/sodipodi-0.dtd"
   xmlns:inkscape="http://www.inkscape.org/namespaces/inkscape"
   width="2125.9841"
   height="3188.9763"
   viewBox="0 0 600 900.00005"
   id="svg2"
   version="1.1"
   inkscape:version="0.48.5 r10040"
   sodipodi:docname="snowyOwl_big_sheet6.pdf">
  <metadata
     id="metadata54">
    <rdf:RDF>
      <cc:Work
         rdf:about="">
        <dc:format>image/svg+xml</dc:format>
        <dc:type
           rdf:resource="http://purl.org/dc/dcmitype/StillImage" />
        <dc:title>Bezier Curve : BezierCircle.001</dc:title>
      </cc:Work>
    </rdf:RDF>
  </metadata>
  <defs
     id="defs52" />
  <sodipodi:namedview
     pagecolor="#ffffff"
     bordercolor="#666666"
     borderopacity="1"
     objecttolerance="10"
     gridtolerance="10"
     guidetolerance="10"
     inkscape:pageopacity="0"
     inkscape:pageshadow="2"
     inkscape:window-width="911"
     inkscape:window-height="689"
     id="namedview50"
     showgrid="false"
     units="cm"
     inkscape:zoom="0.15136574"
     inkscape:cx="1016.8422"
     inkscape:cy="1559.1375"
     inkscape:window-x="0"
     inkscape:window-y="0"
     inkscape:window-maximized="0"
     inkscape:current-layer="svg2" />
  <title
     id="title4">Bezier Curve : BezierCircle.001</title>
  <desc
     id="desc6">This is an exported Bezier xml_path from Blender, using the ExportScript by maybites.ch and Craxic</desc>
  <path
     style="fill:none;stroke:#000000;stroke-width:0.03527778;stroke-linecap:butt;stroke-linejoin:miter;stroke-opacity:1;stroke-miterlimit:4;stroke-dasharray:none"
     d="m 570.0818,629.91294 c 0,15.535 0,31.07 0,46.605 1.66669,0 3.33333,0 5.00002,0 0,11.557 0,23.115 0,34.672 -1.66669,0 -3.33333,0 -5.00002,0 0,11.557 0,23.114 0,34.671 -8.83994,0 -17.67983,0 -26.51978,0 0,1.667 0,3.333 0,5 -10.50663,0 -21.01321,0 -31.51984,0 0,-1.667 0,-3.333 0,-5 -25.21586,0 -50.43168,0 -75.64752,0 0,1.667 0,3.333 0,5 -10.50661,0 -21.01321,0 -31.51982,0 0,-1.667 0,-3.333 0,-5 -8.83992,0 -17.67986,0 -26.51977,0 0,-11.557 0,-23.114 0,-34.671 -1.66667,0 -3.33334,0 -5,0 0,-11.557 0,-23.115 0,-34.672 1.66666,0 3.33333,0 5,0 0,-15.535 0,-31.07 0,-46.605 8.83991,0 17.67985,0 26.51977,0 0,1.667 0,3.333 0,5 10.50661,0 21.01321,0 31.51982,0 0,-1.667 0,-3.333 0,-5 25.21584,0 50.43166,0 75.64752,0 0,1.667 0,3.333 0,5 10.50663,0 21.01321,0 31.51984,0 0,-1.667 0,-3.333 0,-5 8.83995,0 17.67984,0 26.51978,0 z"
     id="path8"
     inkscape:connector-curvature="0" />
  <path
     style="fill:none;stroke:#000000;stroke-width:0.03527778;stroke-linecap:butt;stroke-linejoin:miter;stroke-opacity:1;stroke-miterlimit:4;stroke-dasharray:none"
     d="m 569.34785,767.85094 c 0,15.535 0,31.07 0,46.605 1.66669,0 3.33333,0 5.00002,0 0,11.557 0,23.115 0,34.672 -1.66669,0 -3.33333,0 -5.00002,0 0,11.557 0,23.114 0,34.671 -8.83994,0 -17.67983,0 -26.51977,0 0,1.667 0,3.333 0,5 -10.50663,0 -21.01322,0 -31.51985,0 0,-1.667 0,-3.333 0,-5 -8.006,0 -16.012,0 -24.018,0 -0.0428,-13.496 -6.33173,-13.263 -13.80577,-13.263 -7.47404,0 -13.76295,-0.233 -13.80572,13.263 -8.006,0 -16.01203,0 -24.01803,0 0,1.667 0,3.333 0,5 -10.5066,0 -21.01321,0 -31.51982,0 0,-1.667 0,-3.333 0,-5 -8.83991,0 -17.67986,0 -26.51977,0 0,-11.557 0,-23.114 0,-34.671 -1.66667,0 -3.33333,0 -5,0 0,-11.557 0,-23.115 0,-34.672 1.66667,0 3.33333,0 5,0 0,-15.535 0,-31.07 0,-46.605 8.83991,0 17.67986,0 26.51977,0 0,1.667 0,3.333 0,5 10.50661,0 21.01322,0 31.51982,0 0,-1.667 0,-3.333 0,-5 25.21584,0 50.43166,0 75.64752,0 0,1.667 0,3.333 0,5 10.50663,0 21.01322,0 31.51985,0 0,-1.667 0,-3.333 0,-5 8.83994,0 17.67983,0 26.51977,0 z"
     id="path10"
     inkscape:connector-curvature="0" />
  <path
     style="fill:none;stroke:#000000;stroke-width:0.03527778;stroke-linecap:butt;stroke-linejoin:miter;stroke-opacity:1;stroke-miterlimit:4;stroke-dasharray:none"
     d="m 261.15383,61.60694 c -57.23875,19.124 -114.47749,38.249 -171.716242,57.374 -7.742796,-0.718 -15.485588,-1.436 -23.228384,-2.154 -0.153891,1.66 -0.307782,3.32 -0.461673,4.979 7.742795,0.718 15.485588,1.436 23.228383,2.154 -5.231538,56.424 -10.46308,112.848 -15.694618,169.271 -7.742796,-0.717 -15.485589,-1.435 -23.228384,-2.153 -0.153955,1.66 -0.307909,3.321 -0.461864,4.981 7.742794,0.718 15.485588,1.436 23.228383,2.154 52.251189,34.668 104.502359,69.336 156.753549,104.003 -1.37954,14.879 -2.75908,29.758 -4.13862,44.637 -71.89377,-41.765 -143.78754,-83.53 -215.6813171,-125.295 7.6526341,-82.536 15.3052631,-165.072 22.9578981,-247.608 77.497579,-18.674 154.995139,-37.348002 232.492719,-56.022002 -1.34995,14.56 -2.69988,29.119 -4.04983,43.679002 z"
     id="path12"
     inkscape:connector-curvature="0" />
  <path
     style="fill:none;stroke:#000000;stroke-width:0.03527778;stroke-linecap:butt;stroke-linejoin:miter;stroke-opacity:1;stroke-miterlimit:4;stroke-dasharray:none"
     d="m 258.02626,112.37594 c -21.1862,43.871 -42.37239,87.742 -63.55858,131.613 -6.04836,4.887 -12.09673,9.774 -18.14509,14.661 1.04758,1.296 2.09516,2.593 3.14274,3.889 6.04837,-4.887 12.09674,-9.774 18.14511,-14.661 35.61345,44.076 71.22691,88.152 106.84035,132.228 -6.04837,4.887 -12.09674,9.774 -18.14511,14.662 1.04806,1.297 2.09615,2.594 3.14422,3.891 6.04837,-4.887 12.09674,-9.774 18.1451,-14.661 50.50607,-7.584 101.01209,-15.168 151.51816,-22.752 9.39112,11.622 18.78224,23.245 28.17335,34.868 -69.53053,16.201 -139.06102,32.403 -208.59156,48.605 -52.05996,-64.43 -104.1199,-128.861 -156.17986,-193.291 35.98079,-57.724 71.96156,-115.448 107.94235,-173.172 9.1896,11.373 18.37921,22.746 27.56882,34.12 z"
     id="path14"
     inkscape:connector-curvature="0" />
  <path
     style="fill:none;stroke:#000000;stroke-width:0.03527778;stroke-linecap:butt;stroke-linejoin:miter;stroke-opacity:1;stroke-miterlimit:4;stroke-dasharray:none"
     d="m 503.33046,556.26394 c -8.3591,-24.182 -40.33193,-48.074 -72.76757,-71.886 -1.50034,-8.749 -3.00071,-17.498 -4.50105,-26.248 -1.64728,0.283 -3.29457,0.565 -4.94185,0.848 1.50035,8.749 3.00071,17.498 4.50106,26.247 -55.84738,9.577 -111.69477,19.154 -167.54215,28.732 -1.50035,-8.75 -3.00071,-17.499 -4.50106,-26.248 -1.64728,0.283 -3.29456,0.565 -4.94184,0.848 1.50035,8.749 3.0007,17.498 4.50105,26.247 -22.78242,32.029 -45.56484,64.057 -68.34726,96.086 -12.434,2.132 -24.868,4.264 -37.302,6.397 32.17953,-51.871 64.35903,-103.741 96.53855,-155.611 59.14195,-10.142 118.28387,-20.284 177.42582,-30.426 57.45461,37.752 96.84727,78.602 121.06039,118.295 -13.06071,2.24 -26.12137,4.479 -39.18209,6.719 z"
     id="path16"
     inkscape:connector-curvature="0" />
  <path
     style="fill:none;stroke:#000000;stroke-width:0.03527778;stroke-linecap:butt;stroke-linejoin:miter;stroke-opacity:1;stroke-miterlimit:4;stroke-dasharray:none"
     d="m 269.11303,94.25394 c 0.0295,-15.093 0.0591,-30.187 0.0886,-45.280002 7.33764,-5.814 13.58759,-14.102 14.07917,-35.939 2.56974,0 5.13951,0 7.70926,0 -0.0426,-1.428 -0.0853,-2.855 -0.12789,-4.2829998 4.01552,0 8.03106,0 12.04658,0 -0.0426,1.4279998 -0.0852,2.8549998 -0.12787,4.2829998 60.86722,0 121.73443,0 182.60165,0 0.0198,-1.428 0.0395,-2.855 0.0593,-4.2829998 5.20649,0 10.41298,0 15.61947,0 0.0198,1.4279998 0.0396,2.8549998 0.0594,4.2829998 13.0918,0 26.18365,0 39.27546,0 13.84444,20.902 17.85183,26.453 46.07067,32.911 -3.43857,18.673002 -3.8487,35.047002 -4.07491,63.396002 -0.22616,28.349 7.23691,87.545 7.70459,114.798 0.25301,14.744 -22.54648,49.967 -42.07144,57.407 -13.43369,-3.588 -26.86734,-7.177 -40.30103,-10.765 12.98957,-6.911 29.65631,-6.233 38.96875,-20.734 35.67295,-55.546 6.75216,-112.524 10.12821,-168.786 -7.84149,-10.453 -15.68298,-20.906 -23.52447,-31.359002 -15.83743,0.08 -31.67491,0.163 -47.51234,0.245 0,-5.461 0,-10.921 0,-16.382 -2.40813,0 -4.81625,0 -7.22437,0 0,5.592 0,11.183 0,16.774 -44.86134,0.227 -89.72271,0.454 -134.58405,0.68 0,-5.818 0,-11.636 0,-17.454 -2.26743,0 -4.53484,0 -6.80227,0 0,5.949 0,11.898 0,17.847002 -8.20482,0.08 -16.40964,0.163 -24.61446,0.244 -14.48202,14.132 -28.96404,28.265 -43.44606,42.397 z"
     id="path18"
     inkscape:connector-curvature="0" />
  <path
     style="fill:none;stroke:#000000;stroke-width:0.03527778;stroke-linecap:butt;stroke-linejoin:miter;stroke-opacity:1;stroke-miterlimit:4;stroke-dasharray:none"
     d="m 228.88771,240.28494 c 3.7825,-24.494 7.56501,-48.987 11.34751,-73.481 17.49342,-20.509 34.98683,-41.018 52.48025,-61.528 22.92747,-14.176 45.85492,-28.353 68.7824,-42.53 24.78383,-0.02 49.56765,-0.04 74.35148,-0.06 28.3777,36.365 56.75538,72.73 85.13305,109.096 4.92273,20.521 9.84545,41.043 14.76817,61.564 -23.22564,24.65 -46.45128,49.3 -69.67692,73.95 -27.8903,19.214 -55.78063,38.428 -83.67093,57.642 -19.53638,-7.981 -39.07273,-15.962 -58.6091,-23.944 -31.63531,-33.57 -63.2706,-67.139 -94.90591,-100.709 z"
     id="path20"
     inkscape:connector-curvature="0" />
  <path
     style="fill:none;stroke:#000000;stroke-width:0.03527778;stroke-linecap:butt;stroke-linejoin:miter;stroke-opacity:1;stroke-miterlimit:4;stroke-dasharray:none"
     d="m 295.92315,112.84394 c 1.26159,-1.083 2.52316,-2.166 3.78475,-3.248 2.68886,3.136 5.3777,6.273 8.06656,9.41 -1.25839,1.08 -2.51682,2.159 -3.77521,3.239 -2.69203,-3.134 -5.38407,-6.267 -8.0761,-9.401 z"
     id="path22"
     inkscape:connector-curvature="0" />
  <path
     style="fill:none;stroke:#000000;stroke-width:0.03527778;stroke-linecap:butt;stroke-linejoin:miter;stroke-opacity:1;stroke-miterlimit:4;stroke-dasharray:none"
     d="m 441.39837,282.36994 c 1.2616,-1.082 2.52316,-2.165 3.78476,-3.247 3.1934,3.724 6.38682,7.449 9.58023,11.173 -1.25842,1.08 -2.5168,2.16 -3.77519,3.24 -3.1966,-3.722 -6.3932,-7.444 -9.5898,-11.166 z"
     id="path24"
     inkscape:connector-curvature="0" />
  <path
     style="fill:none;stroke:#000000;stroke-width:0.03527778;stroke-linecap:butt;stroke-linejoin:miter;stroke-opacity:1;stroke-miterlimit:4;stroke-dasharray:none"
     d="m 497.31874,195.20894 c -1.08261,-1.262 -2.16518,-2.524 -3.24779,-3.785 4.44489,-3.812 8.88977,-7.623 13.33466,-11.435 1.07989,1.259 2.15974,2.517 3.23963,3.775 -4.44217,3.815 -8.88434,7.63 -13.3265,11.445 z"
     id="path26"
     inkscape:connector-curvature="0" />
  <path
     style="fill:none;stroke:#000000;stroke-width:0.03527778;stroke-linecap:butt;stroke-linejoin:miter;stroke-opacity:1;stroke-miterlimit:4;stroke-dasharray:none"
     d="m 337.2111,332.60094 c -1.08259,-1.262 -2.1652,-2.523 -3.24779,-3.785 4.44489,-3.811 8.88977,-7.623 13.33466,-11.434 1.07987,1.258 2.15974,2.516 3.23961,3.775 -4.44217,3.815 -8.88431,7.629 -13.32648,11.444 z"
     id="path28"
     inkscape:connector-curvature="0" />
  <path
     style="fill:none;stroke:#000000;stroke-width:0.03527778;stroke-linecap:butt;stroke-linejoin:miter;stroke-opacity:1;stroke-miterlimit:4;stroke-dasharray:none"
     d="m 248.27043,228.95594 c -1.0826,-1.262 -2.16519,-2.524 -3.24779,-3.785 4.4449,-3.812 8.8898,-7.623 13.33468,-11.435 1.07987,1.259 2.15972,2.517 3.23959,3.776 -4.44217,3.814 -8.88433,7.629 -13.32648,11.444 z"
     id="path30"
     inkscape:connector-curvature="0" />
  <path
     style="fill:none;stroke:#000000;stroke-width:0.03527778;stroke-linecap:butt;stroke-linejoin:miter;stroke-opacity:1;stroke-miterlimit:4;stroke-dasharray:none"
     d="m 408.37807,91.56294 c -1.08259,-1.261 -2.1652,-2.523 -3.24779,-3.785 4.44489,-3.811 8.8898,-7.623 13.33468,-11.434 1.07987,1.258 2.15974,2.517 3.23961,3.775 -4.44217,3.815 -8.88433,7.629 -13.3265,11.444 z"
     id="path32"
     inkscape:connector-curvature="0" />
  <path
     style="fill:none;stroke:#000000;stroke-width:0.03527778;stroke-linecap:butt;stroke-linejoin:miter;stroke-opacity:1;stroke-miterlimit:4;stroke-dasharray:none"
     d="m 488.05217,205.00394 c 0.93827,-1.372 1.87659,-2.745 2.81487,-4.117 4.28652,2.934 8.573,5.867 12.85953,8.801 -0.93589,1.369 -1.87182,2.738 -2.80771,4.107 -4.28891,-2.931 -8.57778,-5.861 -12.86669,-8.791 z"
     id="path34"
     inkscape:connector-curvature="0" />
  <path
     style="fill:none;stroke:#000000;stroke-width:0.03527778;stroke-linecap:butt;stroke-linejoin:miter;stroke-opacity:1;stroke-miterlimit:4;stroke-dasharray:none"
     d="m 327.42461,95.14594 c 0.93827,-1.373 1.87655,-2.745 2.81482,-4.117 3.36802,2.306 6.73604,4.611 10.10406,6.917 -0.93591,1.369 -1.87185,2.738 -2.80776,4.107 -3.37038,-2.303 -6.74074,-4.605 -10.11112,-6.907 z"
     id="path36"
     inkscape:connector-curvature="0" />
  <path
     style="fill:none;stroke:#000000;stroke-width:0.03527778;stroke-linecap:butt;stroke-linejoin:miter;stroke-opacity:1;stroke-miterlimit:4;stroke-dasharray:none"
     d="m 272.98056,140.16194 c 1.49844,-0.719 2.99685,-1.439 4.49529,-2.158 1.7646,3.68 3.52921,7.361 5.29382,11.041 -1.49467,0.718 -2.98932,1.436 -4.48399,2.153 -1.76837,-3.678 -3.53675,-7.357 -5.30512,-11.036 z"
     id="path38"
     inkscape:connector-curvature="0" />
  <path
     style="fill:none;stroke:#000000;stroke-width:0.03527778;stroke-linecap:butt;stroke-linejoin:miter;stroke-opacity:1;stroke-miterlimit:4;stroke-dasharray:none"
     d="m 357.19267,315.59994 c 1.49842,-0.72 2.99685,-1.439 4.49527,-2.159 2.24626,4.684 4.49254,9.367 6.7388,14.051 -1.49467,0.717 -2.98931,1.435 -4.48398,2.153 -2.25003,-4.682 -4.50006,-9.364 -6.75009,-14.045 z"
     id="path40"
     inkscape:connector-curvature="0" />
  <path
     style="fill:none;stroke:#000000;stroke-width:0.03527778;stroke-linecap:butt;stroke-linejoin:miter;stroke-opacity:1;stroke-miterlimit:4;stroke-dasharray:none"
     d="m 466.2918,174.01294 c -12.9435,-38.702 -50.54355,-83.29 -84.80124,-61.114 -42.15889,27.291 64.00542,93.299 25.89309,126.004 -38.11231,32.705 -87.2365,-82.25 -120.61189,-44.723 -27.12035,30.493 11.24244,74.427 47.53068,93.096 35.64985,18.341 71.13569,10.923 101.56038,-15.185 30.42469,-26.109 43.1448,-60.057 30.42898,-98.078 z"
     id="path42"
     inkscape:connector-curvature="0" />
  <path
     style="fill:none;stroke:#000000;stroke-width:0.03527778;stroke-linecap:butt;stroke-linejoin:miter;stroke-opacity:1;stroke-miterlimit:4;stroke-dasharray:none"
     d="m 374.78124,203.32394 c 0.0928,-1.224 1.16194,-2.141 2.38562,-2.047 1.52271,0.117 2.66147,1.448 2.54443,2.971 -0.0938,1.22 -1.15893,2.134 -2.37961,2.042 -1.52283,-0.116 -2.66593,-1.443 -2.55044,-2.966 z"
     id="path44"
     inkscape:connector-curvature="0" />
  <path
     style="fill:none;stroke:#000000;stroke-width:0.03527778;stroke-linecap:butt;stroke-linejoin:miter;stroke-opacity:1;stroke-miterlimit:4;stroke-dasharray:none"
     d="m 269.15482,537.44694 c 0.2909,15.091 0.58182,30.182 0.87271,45.272 7.43869,5.686 13.83245,13.864 14.7022,35.69 2.56989,-0.04 5.13978,-0.09 7.70967,-0.134 -0.0179,1.428 -0.0358,2.856 -0.0538,4.284 4.01573,-0.07 8.03144,-0.139 12.04717,-0.208 -0.0673,-1.427 -0.13468,-2.853 -0.20201,-4.28 60.87027,-1.054 121.74051,-2.108 182.61078,-3.162 0.0445,1.426 0.089,2.853 0.13351,4.28 5.20673,-0.09 10.4135,-0.18 15.62023,-0.27 -0.005,-1.428 -0.01,-2.855 -0.0147,-4.283 13.09247,-0.227 26.18494,-0.453 39.27741,-0.68 13.48314,-21.139 17.39459,-26.759 45.50304,-33.705 -3.76205,-18.611 -4.45575,-34.975 -5.17292,-63.316 -0.71706,-28.34 5.72133,-87.656 5.71709,-114.914 -0.002,-14.746 -23.4128,-49.569 -43.06765,-56.67 -13.37218,3.821 -26.74441,7.642 -40.11659,11.462 13.10992,6.685 29.76541,5.717 39.32972,20.055 36.63211,54.919 8.70099,112.391 13.05151,168.586 -7.66087,10.587 -15.32173,21.174 -22.9826,31.762 -15.83967,0.192 -31.6793,0.385 -47.51897,0.578 0.0946,5.46 0.18911,10.919 0.28367,16.379 -2.40822,0.04 -4.81648,0.08 -7.2247,0.125 -0.0968,-5.59 -0.19365,-11.181 -0.29044,-16.771 -44.86754,0.55 -89.73508,1.101 -134.60262,1.651 0.10073,5.817 0.20148,11.634 0.30222,17.451 -2.26753,0.04 -4.53508,0.08 -6.80261,0.118 -0.10302,-5.948 -0.20602,-11.896 -0.30904,-17.844 -8.20663,0.06 -16.41326,0.121 -24.61989,0.182 -14.72747,-13.879 -29.45492,-27.759 -44.1824,-41.638 z"
     id="path46"
     inkscape:connector-curvature="0" />
  <path
     style="fill:none;stroke:#000000;stroke-width:0.03527778;stroke-linecap:butt;stroke-linejoin:miter;stroke-opacity:1;stroke-miterlimit:4;stroke-dasharray:none"
     d="m 362.43443,658.93394 c -24.89412,42.504 -49.78822,85.008 -74.68234,127.512 1.43845,0.843 2.87688,1.685 4.31533,2.528 4.65412,-7.947 9.30825,-15.893 13.96237,-23.84 -7.49998,14.175 31.8177,33.675 -13.71725,84.415 -9.76961,-10.847 -22.08865,-16.304 -35.13277,-21.56 -3.11415,4.225 -6.2283,8.449 -9.34245,12.674 -2.35299,-1.378 -4.70597,-2.757 -7.05896,-4.135 -0.72138,1.232 -1.44276,2.464 -2.16415,3.695 -3.57368,-2.093 -7.14736,-4.186 -10.72104,-6.279 0.70916,-1.239 1.41831,-2.478 2.12746,-3.716 -21.9422,-12.852 -43.88438,-25.703 -65.82658,-38.554 2.28066,-3.894 4.56131,-7.788 6.84198,-11.682 -19.17484,-11.231 -38.34967,-22.461 -57.5245,-33.692 -2.28066,3.894 -4.56133,7.788 -6.84199,11.682 -19.509273,-11.426 -39.018542,-22.852 -58.527815,-34.279 -0.78764,1.193 -1.575279,2.386 -2.362919,3.579 -4.213794,-2.468 -8.427587,-4.936 -12.641382,-7.404 0.65511,-1.271 1.310222,-2.541 1.965332,-3.812 -5.466359,-3.201 -10.932717,-6.403 -16.399074,-9.604 -1.892218,-21.215 -10.2142844,-39.115 -5.676651,-63.644 6.602803,-35.694 21.508628,-52.805 40.842629,-83.527 21.482724,-34.136 27.761367,-63.444 64.04163,-81.066 37.9627,-18.439 76.1631,-16.021 108.1011,-0.231 -4.25122,7.207 -8.50244,14.415 -12.75366,21.622 -24.39562,-1.304 -47.21193,-15.915 -73.18686,-3.913 -33.33661,15.404 -38.02475,43.377 -57.052749,74.786 -14.648344,24.18 -27.518551,37.495 -30.690265,65.587 -1.806805,16.004 4.296422,29.768 8.712411,40.321 12.167621,7.032 24.335242,14.064 36.502863,21.096 -4.075,6.958 -8.149997,13.915 -12.224997,20.873 1.558519,0.818 3.117037,1.637 4.675556,2.455 4.157281,-7.098 8.314562,-14.196 12.471841,-21.294 25.86687,14.772 51.73373,29.545 77.60059,44.318 14.18076,3.517 28.3615,7.035 42.54226,10.553 -5.58964,9.544 -11.17927,19.088 -16.76891,28.631 1.47469,0.864 2.94939,1.728 4.42408,2.592 16.47731,-28.134 32.95464,-56.267 49.43195,-84.4 -33.24166,-19.469 -66.48329,-38.939 -99.72494,-58.408 8.09171,-3.53 16.18342,-7.06 24.27514,-10.59 19.24154,11.27 38.48308,22.539 57.72463,33.809 19.80313,-11.994 39.60625,-23.988 59.40937,-35.982 20.35124,9.628 40.70248,19.256 61.05373,28.884 z"
     id="path48"
     inkscape:connector-curvature="0" />
</svg>
