<?xml version="1.0" encoding="UTF-8" standalone="no"?>
<svg
   xmlns:dc="http://purl.org/dc/elements/1.1/"
   xmlns:cc="http://creativecommons.org/ns#"
   xmlns:rdf="http://www.w3.org/1999/02/22-rdf-syntax-ns#"
   xmlns:svg="http://www.w3.org/2000/svg"
   xmlns="http://www.w3.org/2000/svg"
   xmlns:sodipodi="http://sodipodi.sourceforge.net/DTD/sodipodi-0.dtd"
   xmlns:inkscape="http://www.inkscape.org/namespaces/inkscape"
   width="2125.9841"
   height="3188.9763"
   viewBox="0 0 599.99999 899.99999"
   id="svg2"
   version="1.1"
   inkscape:version="0.48.5 r10040"
   sodipodi:docname="snowyOwl_big_sheet6.svg">
  <metadata
     id="metadata56">
    <rdf:RDF>
      <cc:Work
         rdf:about="">
        <dc:format>image/svg+xml</dc:format>
        <dc:type
           rdf:resource="http://purl.org/dc/dcmitype/StillImage" />
      </cc:Work>
    </rdf:RDF>
  </metadata>
  <defs
     id="defs54" />
  <sodipodi:namedview
     pagecolor="#ffffff"
     bordercolor="#666666"
     borderopacity="1"
     objecttolerance="10"
     gridtolerance="10"
     guidetolerance="10"
     inkscape:pageopacity="0"
     inkscape:pageshadow="2"
     inkscape:window-width="1071"
     inkscape:window-height="695"
     id="namedview52"
     showgrid="false"
     units="cm"
     inkscape:zoom="0.21406349"
     inkscape:cx="993.36191"
     inkscape:cy="747.57527"
     inkscape:window-x="0"
     inkscape:window-y="0"
     inkscape:window-maximized="0"
     inkscape:current-layer="svg2" />
  <title
     id="title4">Bezier Curve : BezierCircle.004</title>
  <desc
     id="desc6">This is an exported Bezier xml_path from Blender, using the ExportScript by maybites.ch and Craxic</desc>
  <path
     style="fill:none;stroke:#000000;stroke-width:0.03527778;stroke-linecap:butt;stroke-linejoin:miter;stroke-miterlimit:4;stroke-opacity:1;stroke-dasharray:none"
     d="m 570.99445,632.04694 c 0,15.535 0,31.07 0,46.605 1.66669,0 3.33333,0 5.00002,0 0,11.557 0,23.114 0,34.672 -1.66669,0 -3.33333,0 -5.00002,0 0,11.557 0,23.114 0,34.671 -8.83994,0 -17.67986,0 -26.5198,0 0,1.666 0,3.333 0,5 -10.50661,0 -21.01321,0 -31.51982,0 0,-1.667 0,-3.334 0,-5 -25.21584,0 -50.43168,0 -75.64752,0 0,1.666 0,3.333 0,5 -10.50661,0 -21.01321,0 -31.51982,0 0,-1.667 0,-3.334 0,-5 -8.83992,0 -17.67986,0 -26.51978,0 0,-11.557 0,-23.114 0,-34.671 -1.66666,0 -3.33333,0 -4.99999,0 0,-11.558 0,-23.115 0,-34.672 1.66666,0 3.33333,0 4.99999,0 0,-15.535 0,-31.07 0,-46.605 8.83992,0 17.67986,0 26.51978,0 0,1.666 0,3.333 0,5 10.50661,0 21.01321,0 31.51982,0 0,-1.667 0,-3.334 0,-5 25.21584,0 50.43168,0 75.64752,0 0,1.666 0,3.333 0,5 10.50661,0 21.01321,0 31.51982,0 0,-1.667 0,-3.334 0,-5 8.83994,0 17.67986,0 26.5198,0 z"
     id="path8"
     inkscape:connector-curvature="0" />
  <path
     style="fill:none;stroke:#000000;stroke-width:0.03527778;stroke-linecap:butt;stroke-linejoin:miter;stroke-miterlimit:4;stroke-opacity:1;stroke-dasharray:none"
     d="m 570.2605,769.98494 c 0,15.535 0,31.07 0,46.605 1.66669,0 3.33333,0 5.00002,0 0,11.557 0,23.114 0,34.672 -1.66669,0 -3.33333,0 -5.00002,0 0,11.557 0,23.114 0,34.671 -8.83994,0 -17.67986,0 -26.5198,0 0,1.666 0,3.333 0,5 -10.5066,0 -21.01321,0 -31.51982,0 0,-1.667 0,-3.334 0,-5 -25.21584,0 -50.43168,0 -75.64752,0 0,1.666 0,3.333 0,5 -10.5066,0 -21.01321,0 -31.51982,0 0,-1.667 0,-3.334 0,-5 -8.83991,0 -17.67986,0 -26.51977,0 0,-11.557 0,-23.114 0,-34.671 -1.66667,0 -3.33333,0 -5,0 0,-11.558 0,-23.115 0,-34.672 1.66667,0 3.33333,0 5,0 0,-15.535 0,-31.07 0,-46.605 8.83991,0 17.67986,0 26.51977,0 0,1.666 0,3.333 0,5 10.50661,0 21.01322,0 31.51982,0 0,-1.667 0,-3.334 0,-5 25.21584,0 50.43168,0 75.64752,0 0,1.666 0,3.333 0,5 10.50661,0 21.01322,0 31.51982,0 0,-1.667 0,-3.334 0,-5 8.83994,0 17.67986,0 26.5198,0 z"
     id="path10"
     inkscape:connector-curvature="0" />
  <path
     style="fill:none;stroke:#000000;stroke-width:0.03527778;stroke-linecap:butt;stroke-linejoin:miter;stroke-miterlimit:4;stroke-opacity:1;stroke-dasharray:none"
     d="m 452.90923,852.01994 c -2.03865,-2.607 -2.03865,-5.87 0,-8.477 5.32475,-6.809 12.84378,-5.338 21.4879,-5.338 8.64411,0 16.16316,-1.471 21.48788,5.338 2.03865,2.607 2.03865,5.87 0,8.477 -5.32472,6.809 -12.84377,5.338 -21.48788,5.338 -8.64412,0 -16.16315,1.471 -21.4879,-5.338 z"
     id="path12"
     inkscape:connector-curvature="0" />
  <path
     style="fill:none;stroke:#000000;stroke-width:0.03527778;stroke-linecap:butt;stroke-linejoin:miter;stroke-miterlimit:4;stroke-opacity:1;stroke-dasharray:none"
     d="m 262.06648,63.740918 c -57.23876,19.124005 -114.4775,38.249022 -171.716263,57.374022 -7.742793,-0.718 -15.485591,-1.436 -23.228384,-2.154 -0.153881,1.66 -0.307768,3.32 -0.46165,4.979 7.742787,0.718 15.485573,1.436 23.22836,2.154 -5.231541,56.424 -10.463077,112.848 -15.694618,169.271 -7.742793,-0.717 -15.485591,-1.435 -23.228384,-2.153 -0.153959,1.66 -0.307906,3.321 -0.461864,4.981 7.742792,0.718 15.485591,1.436 23.228383,2.154 52.25118,34.668 104.50237,69.33499 156.75355,104.003 -1.37953,14.879 -2.75907,29.758 -4.13861,44.636 -71.89377,-41.764 -143.787552,-83.52901 -215.681327,-125.294 7.652628,-82.536 15.305268,-165.072 22.957896,-247.608017 C 111.12114,57.409918 188.61871,38.735918 266.11628,20.061918 c -1.34994,14.56 -2.69986,29.119 -4.0498,43.679 z"
     id="path14"
     inkscape:connector-curvature="0" />
  <path
     style="fill:none;stroke:#000000;stroke-width:0.03527778;stroke-linecap:butt;stroke-linejoin:miter;stroke-miterlimit:4;stroke-opacity:1;stroke-dasharray:none"
     d="m 258.93888,114.50994 c -21.1862,43.871 -42.37238,87.742 -63.55858,131.613 -6.04836,4.887 -12.09672,9.774 -18.14508,14.661 1.04758,1.296 2.09517,2.593 3.14276,3.889 6.04836,-4.887 12.09672,-9.774 18.14508,-14.661 35.61346,44.076 71.2269,88.152 106.84035,132.228 -6.04835,4.887 -12.09672,9.774 -18.14508,14.661 1.04808,1.298 2.09614,2.595 3.14422,3.892 6.04835,-4.887 12.09672,-9.774 18.14508,-14.661 50.50607,-7.584 101.01211,-15.169 151.51818,-22.75301 9.39112,11.62301 18.78224,23.24601 28.17335,34.86801 -69.53053,16.202 -139.06105,32.404 -208.59158,48.606 -52.05996,-64.43 -104.11992,-128.861 -156.17988,-193.291 35.98078,-57.724 71.96156,-115.448 107.94234,-173.172017 9.18961,11.373 18.37923,22.746017 27.56884,34.120017 z"
     id="path16"
     inkscape:connector-curvature="0" />
  <path
     style="fill:none;stroke:#000000;stroke-width:0.03527778;stroke-linecap:butt;stroke-linejoin:miter;stroke-miterlimit:4;stroke-opacity:1;stroke-dasharray:none"
     d="m 504.24302,558.39794 c -8.3591,-24.182 -40.33194,-48.074 -72.76757,-71.886 -1.50035,-8.749 -3.00071,-17.499 -4.50106,-26.248 -1.64728,0.283 -3.29456,0.565 -4.94184,0.848 1.50034,8.749 3.00071,17.498 4.50105,26.247 -55.84738,9.577 -111.69476,19.154 -167.54215,28.731 -1.50035,-8.749 -3.0007,-17.498 -4.50105,-26.247 -1.64729,0.283 -3.29457,0.565 -4.94185,0.848 1.50035,8.749 3.00071,17.498 4.50106,26.247 -22.78242,32.028 -45.56485,64.057 -68.34727,96.086 -12.434,2.132 -24.86801,4.264 -37.30201,6.396 32.17952,-51.87 64.35903,-103.74 96.53855,-155.61 59.14195,-10.142 118.28388,-20.284 177.42583,-30.426 57.45461,37.752 96.8473,78.602 121.0604,118.295 -13.06069,2.239 -26.1214,4.479 -39.18209,6.719 z"
     id="path18"
     inkscape:connector-curvature="0" />
  <path
     style="fill:none;stroke:#000000;stroke-width:0.03527778;stroke-linecap:butt;stroke-linejoin:miter;stroke-miterlimit:4;stroke-opacity:1;stroke-dasharray:none"
     d="m 270.0256,96.387931 c 0.0295,-15.094008 0.0591,-30.187013 0.0886,-45.281013 7.33763,-5.813 13.58759,-14.101 14.07917,-35.938 2.56976,0 5.13951,0 7.70926,0 -0.0426,-1.428 -0.0853,-2.855 -0.12788,-4.283 4.01553,0 8.03104,0 12.04657,0 -0.0426,1.428 -0.0852,2.855 -0.12786,4.283 60.86721,0 121.73443,0 182.60164,0 0.0198,-1.428 0.0396,-2.855 0.0594,-4.283 5.20649,0 10.41298,0 15.61947,0 0.0198,1.428 0.0396,2.855 0.0594,4.283 13.09181,0 26.18363,0 39.27544,0 13.84441,20.902 17.8518,26.453 46.07069,32.911 -3.43857,18.673 -3.84869,35.047005 -4.07491,63.396022 -0.22621,28.349 7.23691,87.545 7.70455,114.798 0.25301,14.744 -22.54648,49.967 -42.07144,57.407 -13.43367,-3.588 -26.86737,-7.177 -40.30104,-10.765 12.98959,-6.912 29.65634,-6.233 38.9688,-20.734 35.67296,-55.546 6.75211,-112.524 10.12817,-168.786017 -7.84147,-10.453005 -15.68296,-20.906005 -23.52443,-31.359005 -15.83745,0.08 -31.67491,0.163 -47.51236,0.245 0,-5.461 0,-10.921 0,-16.382 -2.40813,0 -4.81623,0 -7.22435,0 0,5.592 0,11.183 0,16.774 -44.86136,0.227 -89.72273,0.453 -134.58409,0.68 0,-5.818 0,-11.636 0,-17.454 -2.26743,0 -4.53486,0 -6.80228,0 0,5.949 0,11.898 0,17.847 -8.20482,0.08 -16.40962,0.163 -24.61444,0.244 -14.48202,14.132 -28.96404,28.265005 -43.44606,42.397013 z"
     id="path20"
     inkscape:connector-curvature="0" />
  <path
     style="fill:none;stroke:#000000;stroke-width:0.03527778;stroke-linecap:butt;stroke-linejoin:miter;stroke-miterlimit:4;stroke-opacity:1;stroke-dasharray:none"
     d="m 229.80026,242.41894 c 3.7825,-24.494 7.56499,-48.987 11.34749,-73.481 17.49342,-20.509 34.98685,-41.018 52.48026,-61.528 22.92748,-14.176017 45.85494,-28.353017 68.78241,-42.530022 24.78383,-0.02 49.56768,-0.04 74.35151,-0.06 28.37767,36.365022 56.75537,72.730022 85.13305,109.095022 4.92272,20.522 9.84542,41.044 14.76815,61.565 -23.22564,24.65 -46.45129,49.3 -69.67693,73.95 -27.8903,19.214 -55.78062,38.428 -83.67092,57.64199 -19.53638,-7.981 -39.07275,-15.963 -58.60911,-23.94399 -31.63531,-33.57 -63.2706,-67.139 -94.90591,-100.709 z"
     id="path22"
     inkscape:connector-curvature="0" />
  <path
     style="fill:none;stroke:#000000;stroke-width:0.03527778;stroke-linecap:butt;stroke-linejoin:miter;stroke-miterlimit:4;stroke-opacity:1;stroke-dasharray:none"
     d="m 296.83571,114.97794 c 1.26158,-1.083 2.52317,-2.166 3.78475,-3.248 2.68885,3.136 5.3777,6.273 8.06654,9.41 -1.2584,1.079 -2.5168,2.159 -3.77521,3.239 -2.69203,-3.134 -5.38405,-6.268 -8.07608,-9.401 z"
     id="path24"
     inkscape:connector-curvature="0" />
  <path
     style="fill:none;stroke:#000000;stroke-width:0.03527778;stroke-linecap:butt;stroke-linejoin:miter;stroke-miterlimit:4;stroke-opacity:1;stroke-dasharray:none"
     d="m 442.31095,284.50394 c 1.26159,-1.082 2.52316,-2.165 3.78475,-3.247 3.19341,3.724 6.38683,7.449 9.58024,11.173 -1.2584,1.08 -2.51682,2.16 -3.77522,3.24 -3.1966,-3.722 -6.39317,-7.444 -9.58977,-11.166 z"
     id="path26"
     inkscape:connector-curvature="0" />
  <path
     style="fill:none;stroke:#000000;stroke-width:0.03527778;stroke-linecap:butt;stroke-linejoin:miter;stroke-miterlimit:4;stroke-opacity:1;stroke-dasharray:none"
     d="m 498.23129,197.34194 c -1.08259,-1.261 -2.1652,-2.523 -3.24778,-3.784 4.44488,-3.812 8.88979,-7.623 13.33468,-11.435 1.07987,1.259 2.15973,2.517 3.2396,3.775 -4.44216,3.815 -8.88433,7.63 -13.3265,11.444 z"
     id="path28"
     inkscape:connector-curvature="0" />
  <path
     style="fill:none;stroke:#000000;stroke-width:0.03527778;stroke-linecap:butt;stroke-linejoin:miter;stroke-miterlimit:4;stroke-opacity:1;stroke-dasharray:none"
     d="m 338.12365,334.73494 c -1.0826,-1.262 -2.16518,-2.523 -3.24778,-3.785 4.44488,-3.811 8.88977,-7.623 13.33465,-11.434 1.07987,1.258 2.15975,2.516 3.23962,3.775 -4.44216,3.814 -8.88432,7.629 -13.32649,11.444 z"
     id="path30"
     inkscape:connector-curvature="0" />
  <path
     style="fill:none;stroke:#000000;stroke-width:0.03527778;stroke-linecap:butt;stroke-linejoin:miter;stroke-miterlimit:4;stroke-opacity:1;stroke-dasharray:none"
     d="m 249.18297,231.08894 c -1.08259,-1.261 -2.16519,-2.523 -3.24778,-3.784 4.44489,-3.812 8.88978,-7.623 13.33466,-11.435 1.07987,1.259 2.15974,2.517 3.23961,3.775 -4.44217,3.815 -8.88433,7.63 -13.32649,11.444 z"
     id="path32"
     inkscape:connector-curvature="0" />
  <path
     style="fill:none;stroke:#000000;stroke-width:0.03527778;stroke-linecap:butt;stroke-linejoin:miter;stroke-miterlimit:4;stroke-opacity:1;stroke-dasharray:none"
     d="m 409.29062,93.696923 c -1.08258,-1.262 -2.1652,-2.523 -3.24778,-3.785 4.44488,-3.811 8.88979,-7.623 13.33468,-11.434 1.07987,1.258 2.15974,2.517 3.2396,3.775 -4.44216,3.815 -8.88433,7.629 -13.3265,11.444 z"
     id="path34"
     inkscape:connector-curvature="0" />
  <path
     style="fill:none;stroke:#000000;stroke-width:0.03527778;stroke-linecap:butt;stroke-linejoin:miter;stroke-miterlimit:4;stroke-opacity:1;stroke-dasharray:none"
     d="m 488.96475,207.13794 c 0.93827,-1.373 1.87654,-2.745 2.81482,-4.117 4.28652,2.934 8.57305,5.867 12.85958,8.801 -0.93591,1.369 -1.87183,2.738 -2.80774,4.107 -4.28889,-2.931 -8.57777,-5.861 -12.86666,-8.791 z"
     id="path36"
     inkscape:connector-curvature="0" />
  <path
     style="fill:none;stroke:#000000;stroke-width:0.03527778;stroke-linecap:butt;stroke-linejoin:miter;stroke-miterlimit:4;stroke-opacity:1;stroke-dasharray:none"
     d="m 328.33714,97.279929 c 0.93829,-1.373002 1.87656,-2.745006 2.81484,-4.117006 3.36802,2.306 6.73603,4.61101 10.10405,6.917017 -0.93591,1.369 -1.87183,2.738 -2.80775,4.107 -3.37038,-2.303 -6.74076,-4.605004 -10.11114,-6.907011 z"
     id="path38"
     inkscape:connector-curvature="0" />
  <path
     style="fill:none;stroke:#000000;stroke-width:0.03527778;stroke-linecap:butt;stroke-linejoin:miter;stroke-miterlimit:4;stroke-opacity:1;stroke-dasharray:none"
     d="m 273.89311,142.29594 c 1.49843,-0.719 2.99685,-1.439 4.49528,-2.159 1.76461,3.681 3.5292,7.362 5.29381,11.042 -1.49466,0.718 -2.9893,1.436 -4.48396,2.153 -1.76838,-3.678 -3.53675,-7.357 -5.30513,-11.036 z"
     id="path40"
     inkscape:connector-curvature="0" />
  <path
     style="fill:none;stroke:#000000;stroke-width:0.03527778;stroke-linecap:butt;stroke-linejoin:miter;stroke-miterlimit:4;stroke-opacity:1;stroke-dasharray:none"
     d="m 358.10523,317.73394 c 1.49841,-0.72 2.99685,-1.439 4.49526,-2.159 2.24626,4.684 4.49252,9.367 6.73878,14.051 -1.49464,0.717 -2.98931,1.435 -4.48396,2.153 -2.25003,-4.682 -4.50005,-9.364 -6.75008,-14.045 z"
     id="path42"
     inkscape:connector-curvature="0" />
  <path
     style="fill:none;stroke:#000000;stroke-width:0.03527778;stroke-linecap:butt;stroke-linejoin:miter;stroke-miterlimit:4;stroke-opacity:1;stroke-dasharray:none"
     d="m 467.20436,176.14694 c -12.94351,-38.702 -50.54355,-83.290017 -84.80125,-61.114 -42.15889,27.291 64.0054,93.299 25.89309,126.004 -38.11228,32.705 -87.23652,-82.25 -120.61188,-44.723 -27.12035,30.493 11.24244,74.427 47.53067,93.096 35.64985,18.341 71.13569,10.923 101.56038,-15.186 30.42469,-26.108 43.1448,-60.056 30.42899,-98.077 z"
     id="path44"
     inkscape:connector-curvature="0" />
  <path
     style="fill:none;stroke:#000000;stroke-width:0.03527778;stroke-linecap:butt;stroke-linejoin:miter;stroke-miterlimit:4;stroke-opacity:1;stroke-dasharray:none"
     d="m 375.6938,205.45794 c 0.0928,-1.224 1.16193,-2.141 2.38561,-2.047 1.52271,0.117 2.66147,1.448 2.54443,2.971 -0.0938,1.22 -1.15893,2.134 -2.37961,2.042 -1.52283,-0.116 -2.66592,-1.443 -2.55043,-2.966 z"
     id="path46"
     inkscape:connector-curvature="0" />
  <path
     style="fill:none;stroke:#000000;stroke-width:0.03527778;stroke-linecap:butt;stroke-linejoin:miter;stroke-miterlimit:4;stroke-opacity:1;stroke-dasharray:none"
     d="m 270.06738,539.58094 c 0.29091,15.091 0.58181,30.181 0.87272,45.272 7.43866,5.686 13.83244,13.864 14.70219,35.69 2.56989,-0.04 5.13977,-0.09 7.70966,-0.134 -0.0179,1.428 -0.0358,2.856 -0.0537,4.284 4.01572,-0.07 8.03145,-0.139 12.04717,-0.209 -0.0673,-1.426 -0.13468,-2.852 -0.20203,-4.279 60.87025,-1.054 121.74051,-2.108 182.61076,-3.162 0.0445,1.426 0.089,2.853 0.13351,4.28 5.20675,-0.09 10.4135,-0.18 15.62026,-0.271 -0.005,-1.427 -0.01,-2.855 -0.0147,-4.282 13.09247,-0.227 26.18494,-0.454 39.27741,-0.68 13.48315,-21.139 17.39464,-26.759 45.5031,-33.705 -3.76211,-18.611 -4.45581,-34.975 -5.17297,-63.316 -0.71707,-28.34 5.72138,-87.657 5.71708,-114.914 -0.002,-14.746 -23.4128,-49.56901 -43.06762,-56.67 -13.3722,3.82099 -26.74441,7.64199 -40.11662,11.46199 13.10992,6.685 29.76544,5.717 39.32977,20.05501 36.63211,54.919 8.70097,112.391 13.05146,168.586 -7.66086,10.587 -15.32175,21.174 -22.98262,31.761 -15.83965,0.193 -31.6793,0.386 -47.51895,0.579 0.0946,5.46 0.18912,10.919 0.28368,16.379 -2.40825,0.04 -4.81647,0.08 -7.22471,0.125 -0.0968,-5.591 -0.19364,-11.181 -0.29046,-16.771 -44.86754,0.55 -89.73506,1.1 -134.6026,1.651 0.10074,5.817 0.20149,11.634 0.30223,17.451 -2.26754,0.04 -4.53508,0.08 -6.80262,0.118 -0.10301,-5.948 -0.20601,-11.896 -0.30902,-17.844 -8.20663,0.06 -16.41327,0.121 -24.6199,0.182 -14.72747,-13.879 -29.45494,-27.759 -44.1824,-41.638 z"
     id="path48"
     inkscape:connector-curvature="0" />
  <path
     style="fill:none;stroke:#000000;stroke-width:0.03527778;stroke-linecap:butt;stroke-linejoin:miter;stroke-miterlimit:4;stroke-opacity:1;stroke-dasharray:none"
     d="m 363.34698,661.06794 c -24.89411,42.504 -49.78823,85.008 -74.68233,127.512 1.43844,0.843 2.87689,1.685 4.31533,2.528 4.65412,-7.947 9.30825,-15.893 13.96237,-23.84 -7.49998,14.175 31.8177,33.675 -13.71726,84.415 -9.76959,-10.847 -22.08863,-16.304 -35.13276,-21.56 -3.11415,4.225 -6.22831,8.449 -9.34246,12.674 -2.35298,-1.379 -4.70597,-2.757 -7.05895,-4.135 -0.72138,1.232 -1.44277,2.464 -2.16415,3.695 -3.57368,-2.093 -7.14737,-4.186 -10.72105,-6.279 0.70916,-1.239 1.41831,-2.478 2.12747,-3.716 -21.9422,-12.852 -43.88439,-25.703 -65.82659,-38.554 2.28066,-3.894 4.56132,-7.788 6.84198,-11.682 -19.17484,-11.231 -38.34967,-22.461 -57.52451,-33.692 -2.28066,3.894 -4.56132,7.788 -6.84198,11.682 -19.509271,-11.426 -39.018539,-22.853 -58.527808,-34.279 -0.787639,1.193 -1.575279,2.386 -2.362918,3.579 -4.213799,-2.468 -8.427585,-4.936 -12.641383,-7.404 0.655103,-1.271 1.310206,-2.541 1.965308,-3.812 -5.466354,-3.201 -10.93272,-6.403 -16.399072,-9.604 -1.892222,-21.215 -10.2142821,-39.115 -5.676652,-63.644 6.6028,-35.694 21.508622,-52.805 40.842629,-83.527 21.482724,-34.136 27.761364,-63.444 64.041626,-81.066 37.96271,-18.439 76.1631,-16.021 108.10112,-0.231 -4.25122,7.207 -8.50244,14.415 -12.75367,21.622 -24.39562,-1.304 -47.21193,-15.915 -73.18686,-3.913 -33.33661,15.404 -38.02476,43.377 -57.052755,74.786 -14.648331,24.18 -27.518494,37.495 -30.690218,65.587 -1.806807,16.003 4.296375,29.768 8.712364,40.321 12.16762,7.032 24.335241,14.064 36.502866,21.096 -4.075001,6.958 -8.150003,13.915 -12.225,20.873 1.558524,0.818 3.117043,1.637 4.675567,2.455 4.157281,-7.098 8.314563,-14.196 12.471846,-21.294 25.86686,14.772 51.73372,29.545 77.60059,44.317 14.18076,3.518 28.36151,7.036 42.54226,10.554 -5.58964,9.544 -11.17927,19.088 -16.76891,28.631 1.47469,0.864 2.94939,1.728 4.42409,2.592 16.47732,-28.134 32.95463,-56.267 49.43195,-84.4 -33.24165,-19.469 -66.4833,-38.939 -99.72495,-58.408 8.09171,-3.53 16.18342,-7.06 24.27513,-10.59 19.24155,11.27 38.48309,22.539 57.72464,33.809 19.80313,-11.994 39.60625,-23.988 59.40938,-35.982 20.35125,9.628 40.70248,19.256 61.05372,28.884 z"
     id="path50"
     inkscape:connector-curvature="0" />
</svg>
