<?xml version="1.0" encoding="UTF-8" standalone="no"?>
<svg
   xmlns:dc="http://purl.org/dc/elements/1.1/"
   xmlns:cc="http://creativecommons.org/ns#"
   xmlns:rdf="http://www.w3.org/1999/02/22-rdf-syntax-ns#"
   xmlns:svg="http://www.w3.org/2000/svg"
   xmlns="http://www.w3.org/2000/svg"
   xmlns:sodipodi="http://sodipodi.sourceforge.net/DTD/sodipodi-0.dtd"
   xmlns:inkscape="http://www.inkscape.org/namespaces/inkscape"
   width="2125.9841"
   height="3188.9763"
   viewBox="0 0 599.99995 899.99997"
   id="svg2"
   version="1.1"
   inkscape:version="0.48.5 r10040"
   sodipodi:docname="snowyOwl_big_sheet4.svg">
  <metadata
     id="metadata52">
    <rdf:RDF>
      <cc:Work
         rdf:about="">
        <dc:format>image/svg+xml</dc:format>
        <dc:type
           rdf:resource="http://purl.org/dc/dcmitype/StillImage" />
      </cc:Work>
    </rdf:RDF>
  </metadata>
  <defs
     id="defs50" />
  <sodipodi:namedview
     pagecolor="#ffffff"
     bordercolor="#666666"
     borderopacity="1"
     objecttolerance="10"
     gridtolerance="10"
     guidetolerance="10"
     inkscape:pageopacity="0"
     inkscape:pageshadow="2"
     inkscape:window-width="747"
     inkscape:window-height="480"
     id="namedview48"
     showgrid="false"
     units="cm"
     inkscape:zoom="0.15271789"
     inkscape:cx="1005.1699"
     inkscape:cy="2593.0164"
     inkscape:window-x="0"
     inkscape:window-y="0"
     inkscape:window-maximized="0"
     inkscape:current-layer="svg2" />
  <title
     id="title4">Bezier Curve : BezierCircle.005</title>
  <desc
     id="desc6">This is an exported Bezier xml_path from Blender, using the ExportScript by maybites.ch and Craxic</desc>
  <path
     style="fill:none;stroke:#000000;stroke-width:0.03527778;stroke-linecap:butt;stroke-linejoin:miter;stroke-opacity:1;stroke-miterlimit:4;stroke-dasharray:none"
     d="m 438.56948,789.66204 c -32.93876,-0.981 -65.87749,-1.962 -98.81624,-2.943 -0.59918,20.12 -1.19836,40.24 -1.79754,60.361 32.93875,0.98 65.87749,1.961 98.81625,2.942 0.59918,-20.12 1.19835,-40.24 1.79753,-60.36 z"
     id="path8"
     inkscape:connector-curvature="0" />
  <path
     style="fill:none;stroke:#000000;stroke-width:0.03527778;stroke-linecap:butt;stroke-linejoin:miter;stroke-opacity:1;stroke-miterlimit:4;stroke-dasharray:none"
     d="m 425.00047,802.31404 c -23.05026,-0.687 -46.10052,-1.373 -69.15078,-2.059 -0.33941,11.397 -0.67882,22.794 -1.01822,34.191 23.05026,0.687 46.10052,1.373 69.15078,2.059 0.33941,-11.397 0.67882,-22.794 1.01822,-34.191 z"
     id="path10"
     inkscape:connector-curvature="0" />
  <path
     style="fill:none;stroke:#000000;stroke-width:0.03527778;stroke-linecap:butt;stroke-linejoin:miter;stroke-opacity:1;stroke-miterlimit:4;stroke-dasharray:none"
     d="m 491.87228,843.58004 c -4.65381,2.051 -9.3076,4.102 -13.96141,6.154 0.0475,-1.595 0.095,-3.19 0.1425,-4.785 -1.66592,-0.05 -3.33185,-0.1 -4.99778,-0.149 0.49612,-16.659 0.99222,-33.319 1.48833,-49.978 1.66593,0.05 3.33185,0.1 4.99778,0.149 0.0588,-1.974 0.11759,-3.948 0.17638,-5.923 4.52349,2.325 9.04699,4.649 13.57048,6.974 11.75115,0.277 25.78165,-9.16 35.25348,0.831 12.89763,13.604 12.25502,35.183 -1.42932,47.996 -10.04959,9.409 -23.49363,-0.846 -35.24044,-1.269 z"
     id="path12"
     inkscape:connector-curvature="0" />
  <path
     style="fill:none;stroke:#000000;stroke-width:0.03527778;stroke-linecap:butt;stroke-linejoin:miter;stroke-opacity:1;stroke-miterlimit:4;stroke-dasharray:none"
     d="m 504.73677,807.08404 c 5.60134,-5.277 14.42595,-5.014 19.7033,0.587 6.99985,7.43 6.65126,19.134 -0.7783,26.134 -5.60133,5.278 -14.42594,5.015 -19.70329,-0.587 -6.99985,-7.429 -6.65126,-19.134 0.77829,-26.134 z"
     id="path14"
     inkscape:connector-curvature="0" />
  <path
     style="fill:none;stroke:#000000;stroke-width:0.03527778;stroke-linecap:butt;stroke-linejoin:miter;stroke-opacity:1;stroke-miterlimit:4;stroke-dasharray:none"
     d="m 54.650265,775.30304 c 163.581225,-0.797 327.162435,-1.594 490.743645,-2.391 -0.96542,32.418 -1.93085,64.837 -2.89628,97.256 -163.24391,-10.53 -326.4878,-21.06 -489.731707,-31.59 0.628114,-21.092 1.256228,-42.184 1.884342,-63.275 z"
     id="path16"
     inkscape:connector-curvature="0" />
  <path
     style="fill:none;stroke:#000000;stroke-width:0.03527778;stroke-linecap:butt;stroke-linejoin:miter;stroke-opacity:1;stroke-miterlimit:4;stroke-dasharray:none"
     d="m 17.516499,821.38704 c -1.656103,-0.05 -3.31223,-0.1 -4.968333,-0.148 0.307941,-10.34 0.615883,-20.681 0.923824,-31.022 1.656103,0.05 3.31223,0.1 4.968333,0.148 0.481248,-16.159 0.962472,-32.319 1.44372,-48.479 12.579441,0.375 25.158906,0.75 37.738348,1.124 0.04959,-1.666 0.09921,-3.331 0.148797,-4.997 -12.579441,-0.375 -25.158907,-0.749 -37.738348,-1.124 0.192213,-6.454 0.384426,-12.909 0.576639,-19.363 180.721331,10.658 361.442641,21.315 542.163961,31.973 -1.4401,48.358 -2.8802,96.716 -4.32029,145.074 -181.03527,-0.116 -362.07053,-0.231 -543.105807,-0.346 0.18928,-6.356 0.378537,-12.711 0.567818,-19.067 12.579441,0.375 25.158906,0.749 37.738347,1.124 0.04959,-1.666 0.09921,-3.332 0.148797,-4.997 -12.579441,-0.375 -25.158906,-0.75 -37.738347,-1.124 0.48418,-16.259 0.96836,-32.517 1.452541,-48.776 z"
     id="path18"
     inkscape:connector-curvature="0" />
  <path
     style="fill:none;stroke:#000000;stroke-width:0.03527778;stroke-linecap:butt;stroke-linejoin:miter;stroke-opacity:1;stroke-miterlimit:4;stroke-dasharray:none"
     d="m 249.75074,836.86804 c -56.63751,-1.687 -113.27501,-3.373 -169.91253,-5.06 0.21571,-7.243 0.431431,-14.487 0.64714,-21.73 56.63751,1.686 113.27502,3.373 169.91252,5.06 -0.21571,7.243 -0.43142,14.487 -0.64713,21.73 z"
     id="path20"
     inkscape:connector-curvature="0" />
  <path
     style="fill:none;stroke:#000000;stroke-width:0.03527778;stroke-linecap:butt;stroke-linejoin:miter;stroke-opacity:1;stroke-miterlimit:4;stroke-dasharray:none"
     d="m 250.54916,811.56704 c -56.63752,-1.687 -113.27501,-3.374 -169.912533,-5.06 0.215709,-7.244 0.43143,-14.487 0.647139,-21.731 56.637504,1.687 113.275014,3.373 169.912524,5.06 -0.21571,7.244 -0.43142,14.487 -0.64713,21.731 z"
     id="path22"
     inkscape:connector-curvature="0" />
  <path
     style="fill:none;stroke:#000000;stroke-width:0.03527778;stroke-linecap:butt;stroke-linejoin:miter;stroke-opacity:1;stroke-miterlimit:4;stroke-dasharray:none"
     d="m 244.33834,219.11404 c 0,15.535 0,31.07 0,46.605 -1.66667,0 -3.33334,0 -5.00001,0 0,11.557 0,23.114 0,34.671 1.66667,0 3.33334,0 5.00001,0 0,11.557 0,23.115 0,34.672 -17.86983,0 -35.73965,0 -53.60948,0 0,1.666 0,3.333 0,5 -16.66667,0 -33.33334,0 -50,0 0,-1.667 0,-3.334 0,-5 -19.01484,0 -38.02969,0 -57.044524,0 0,-11.557 0,-23.115 0,-34.672 1.66666,0 3.33333,0 4.99999,0 0,-11.557 0,-23.114 0,-34.671 -1.66666,0 -3.33333,0 -4.99999,0 0,-15.535 0,-31.07 0,-46.605 16.734794,0 33.469584,0 50.204374,0 0,1.666 0,3.333 0,5 20.08175,0 40.16351,0 60.24525,0 0,-1.667 0,-3.334 0,-5 16.73479,0 33.46958,0 50.20438,0 z"
     id="path24"
     inkscape:connector-curvature="0" />
  <path
     style="fill:none;stroke:#000000;stroke-width:0.03527778;stroke-linecap:butt;stroke-linejoin:miter;stroke-opacity:1;stroke-miterlimit:4;stroke-dasharray:none"
     d="m 244.56725,89.55204 c 0,15.535 0,31.071 0,46.606 -1.66667,0 -3.33333,0 -5,0 0,11.557 0,23.114 0,34.671 1.66667,0 3.33333,0 5,0 0,11.557 0,23.114 0,34.671 -17.86982,0 -35.73965,0 -53.60947,0 0,1.667 0,3.334 0,5 -16.66667,0 -33.33333,0 -50.00001,0 0,-1.666 0,-3.333 0,-5 -19.01483,0 -38.02967,0 -57.044504,0 0,-11.557 0,-23.114 0,-34.671 1.66666,0 3.33333,0 4.99999,0 0,-11.557 0,-23.114 0,-34.671 -1.66666,0 -3.33333,0 -4.99999,0 0,-15.535 0,-31.071 0,-46.606 16.734794,0 33.469574,0 50.204364,0 0,1.667 0,3.334 0,5 20.08174,0 40.1635,0 60.24525,0 0,-1.666 0,-3.333 0,-5 16.73479,0 33.46958,0 50.20437,0 z"
     id="path26"
     inkscape:connector-curvature="0" />
  <path
     style="fill:none;stroke:#000000;stroke-width:0.03527778;stroke-linecap:butt;stroke-linejoin:miter;stroke-opacity:1;stroke-miterlimit:4;stroke-dasharray:none"
     d="m 19.403749,492.88804 c 16.019964,-16.125 32.039905,-32.249 48.059869,-48.374 26.631658,-4.172 53.263312,-8.344 79.894962,-12.516 26.63166,4.172 53.26331,8.344 79.89497,12.516 16.01995,16.125 32.0399,32.249 48.05985,48.374 2.1334,46.077 4.26679,92.155 6.40018,138.232 -14.72097,14.758 -29.44194,29.517 -44.16291,44.275 -30.06403,7.603 -60.12806,15.205 -90.19209,22.807 -30.06403,-7.602 -60.128054,-15.204 -90.192093,-22.807 -14.720965,-14.758 -29.44193,-29.517 -44.162894,-44.275 2.133393,-46.077 4.266763,-92.155 6.400156,-138.232 z"
     id="path28"
     inkscape:connector-curvature="0" />
  <path
     style="fill:none;stroke:#000000;stroke-width:0.03527778;stroke-linecap:butt;stroke-linejoin:miter;stroke-opacity:1;stroke-miterlimit:4;stroke-dasharray:none"
     d="m 52.428585,514.86004 c 7.553864,-16.798 18.929816,-22.852 35.293011,-31.308 21.235304,-10.974 35.733634,-13.859 59.636984,-13.859 23.90336,0 38.40169,2.885 59.63699,13.859 16.36321,8.456 27.73914,14.51 35.29301,31.308 14.03759,31.218 12.25884,55.716 0,87.674 -6.52391,17.008 -15.41033,25.612 -31.20379,34.689 -22.03215,12.662 -38.31469,13.25 -63.72621,13.25 -25.41149,0 -41.69404,-0.588 -63.726204,-13.25 -15.793463,-9.077 -24.679872,-17.681 -31.203791,-34.689 -12.25884,-31.958 -14.037586,-56.456 0,-87.674 z"
     id="path30"
     inkscape:connector-curvature="0" />
  <path
     style="fill:none;stroke:#000000;stroke-width:0.03527778;stroke-linecap:butt;stroke-linejoin:miter;stroke-opacity:1;stroke-miterlimit:4;stroke-dasharray:none"
     d="m 316.93452,453.31504 c 8.44322,0 16.88645,0 25.32967,0 0,-10.464 0,-20.928 0,-31.392 70.55016,16.225 141.10031,16.225 211.65047,0 0,10.464 0,20.928 0,31.392 8.44324,0 16.88645,0 25.32969,0 0,56.663 0,113.325 0,169.988 -8.44717,0 -16.89434,0 -25.34152,0 0,8.022 0,16.045 0,24.068 -70.54228,0 -141.08455,0 -211.62683,0 0,-8.023 0,-16.046 0,-24.068 -8.44716,0 -16.89432,0 -25.34148,0 0,-56.663 0,-113.325 0,-169.988 z"
     id="path32"
     inkscape:connector-curvature="0" />
  <path
     style="fill:none;stroke:#000000;stroke-width:0.03527778;stroke-linecap:butt;stroke-linejoin:miter;stroke-opacity:1;stroke-miterlimit:4;stroke-dasharray:none"
     d="m 357.93262,486.83604 c 3.10066,-10.038 11.09786,-11.047 18.60472,-8.381 37.53431,13.333 12.1952,72.34 47.08658,93.873 16.2566,10.033 32.67441,10.033 48.93101,0 34.89138,-21.533 9.5523,-80.54 47.08658,-93.873 7.50685,-2.666 15.50405,-1.657 18.60471,8.381 8.57623,27.765 9.24268,55.755 -3.1806,87.674 -5.07402,13.036 -11.25717,20.062 -23.24998,27.265 -21.84072,13.116 -38.24971,14.044 -63.72621,14.044 -25.47651,0 -41.88551,-0.928 -63.72622,-14.044 -11.99281,-7.203 -18.17594,-14.229 -23.24997,-27.265 -12.42328,-31.919 -11.75685,-59.909 -3.18062,-87.674 z"
     id="path34"
     inkscape:connector-curvature="0" />
  <path
     style="fill:none;stroke:#000000;stroke-width:0.03527778;stroke-linecap:butt;stroke-linejoin:miter;stroke-opacity:1;stroke-miterlimit:4;stroke-dasharray:none"
     d="m 437.63398,502.39604 c 0,13.784 0,27.567 0,41.351 2.54999,0 5.09997,0 7.64995,0 0.0509,2.195 -0.31674,7.433 2.78159,7.433 3.09834,0 2.73072,-5.238 2.7816,-7.433 2.54998,0 5.09996,0 7.64994,0 0,-13.784 0,-27.567 0,-41.351 -2.51692,0 -5.03386,0 -7.55078,0 0.0244,-2.477 0.19883,-7.343 -2.88076,-7.343 -3.07958,0 -2.90519,4.866 -2.88075,7.343 -2.51692,0 -5.03386,0 -7.55079,0 z"
     id="path36"
     inkscape:connector-curvature="0" />
  <path
     style="fill:none;stroke:#000000;stroke-width:0.03527778;stroke-linecap:butt;stroke-linejoin:miter;stroke-opacity:1;stroke-miterlimit:4;stroke-dasharray:none"
     d="m 24.2379,100.66804 c 4.616714,5.31 9.233427,10.621 13.850141,15.931 1.223826,-1.137 2.447677,-2.275 3.671503,-3.412 -5.117416,-5.89 -10.234857,-11.78 -15.352273,-17.67 5.243349,-7.971 7.635617,-16.20801 15.730071,-23.91201 16.607357,-15.805 28.584672,-23.393995 50.595784,-29.805995 55.729134,-16.234 93.024974,-21.925 148.588924,-5.134 33.39981,10.092 48.44088,34.688995 72.66133,52.033005 0,4.812 0,9.623 0,14.434 1.42738,0 2.85477,0 4.28216,0 0,5.833 0,11.667 0,17.5 -1.42739,-0.06 -2.85477,-0.129 -4.28216,-0.193 -0.0227,2.857 -0.0454,5.715 -0.0681,8.572 -6.86149,0.11 -13.72298,0.22 -20.58447,0.33 -0.0227,2.196 -0.0454,4.392 -0.0681,6.588 6.90688,-0.03 13.81376,-0.07 20.72064,-0.1 0,26.331 0,52.661 0,78.992 -7.79923,0 -15.59845,0 -23.39768,0 0,1.701 0,3.403 0,5.104 7.79923,0 15.59845,0 23.39768,0 0,26.331 1e-5,52.662 1e-5,78.992 -6.90689,-0.03 -13.81376,-0.07 -20.72065,-0.1 0.0227,2.196 0.0454,4.392 0.0681,6.588 6.86149,0.11 13.72298,0.22 20.58447,0.33 0.0227,2.858 0.0454,5.715 0.0681,8.572 1.42738,-0.06 2.85477,-0.129 4.28216,-0.193 0,5.834 0,11.667 0,17.5 -1.42739,0 -2.85478,0 -4.28216,0 0,4.811 0,9.623 0,14.434 -24.22044,17.344 -39.26152,41.941 -72.66132,52.033 -55.56396,16.791 -92.8598,11.1 -148.588944,-5.134 -22.011112,-6.412 -33.988427,-14.001 -50.595784,-29.806 -8.094454,-7.703 -10.486722,-15.941 -15.730071,-23.911 5.117416,-5.891 10.234857,-11.781 15.352273,-17.671 -1.223826,-1.137 -2.447677,-2.275 -3.671503,-3.412 -4.616714,5.311 -9.233427,10.621 -13.850141,15.931 -4.118695,-38.902 -8.237376,-77.804 -12.35608,-116.706 4.118704,-38.902 8.237385,-77.804 12.35609,-116.706 z"
     id="path38"
     inkscape:connector-curvature="0" />
  <path
     style="fill:none;stroke:#000000;stroke-width:0.03527778;stroke-linecap:butt;stroke-linejoin:miter;stroke-opacity:1;stroke-miterlimit:4;stroke-dasharray:none"
     d="m 65.6596,103.51404 c 12.319649,-18.677 25.963866,-25.74401 47.36891,-32.25801 42.66482,-12.986 72.10429,-13.849 114.22839,0.796 22.61345,7.861 32.24099,25.13601 48.36149,37.70401 -3.02582,34.963 -6.05163,69.927 -9.07745,104.89 0,1.819 -10e-6,3.637 -10e-6,5.456 3.02583,34.964 6.05165,69.927 9.07748,104.89 -16.1205,12.568 -25.74804,29.843 -48.3615,37.705 -42.1241,14.644 -71.56358,13.781 -114.2284,0.796 -21.405034,-6.515 -35.049261,-13.582 -47.36891,-32.259 -24.940181,-37.811 -22.283125,-68.564 -22.283125,-113.86 0,-45.295 -2.657032,-76.049 22.283125,-113.86 z"
     id="path40"
     inkscape:connector-curvature="0" />
  <path
     style="fill:none;stroke:#000000;stroke-width:0.03527778;stroke-linecap:butt;stroke-linejoin:miter;stroke-opacity:1;stroke-miterlimit:4;stroke-dasharray:none"
     d="m 508.28506,38.064035 c 34.87847,15.052 56.63298,35.167995 65.273,72.161005 10.515,45.02 -32.3225,74.321 -32.31816,113.922 0.004,39.53 42.80455,68.77 32.31816,113.717 -8.63111,36.996 -30.40673,57.081 -65.27295,72.164 -44.31823,19.172 -83.11377,23.882 -123.66108,-2.34 -41.94889,-27.128 -51.64446,-65.819 -54.68972,-115.682 -1.64088,-26.868 21.66418,-33.483 21.66418,-65.456 7.94755,0 15.89511,0 23.84266,0 0,-1.671 0,-3.342 0,-5.013 -7.94755,0 -15.89511,0 -23.84266,0 0,-31.902 -23.28246,-38.498 -21.64947,-65.31 3.03529,-49.837 12.77027,-88.46601 54.67499,-115.613005 40.52802,-26.254 79.32483,-21.685 123.66105,-2.55 z"
     id="path42"
     inkscape:connector-curvature="0" />
  <path
     style="fill:none;stroke:#000000;stroke-width:0.03527778;stroke-linecap:butt;stroke-linejoin:miter;stroke-opacity:1;stroke-miterlimit:4;stroke-dasharray:none"
     d="m 536.06946,87.00004 c 21.55397,37.937 -8.90474,88.069 -34.17223,106.409 -25.23324,18.315 -98.33286,25.482 -102.98352,12.243 -6.75396,-19.227 -36.48734,-34.635 -36.8485,-63.192 -0.47801,-37.795 12.13719,-69.40501 46.63968,-84.84301 46.58053,-20.841995 102.15631,-14.986995 127.36457,29.38301 z"
     id="path44"
     inkscape:connector-curvature="0" />
  <path
     style="fill:none;stroke:#000000;stroke-width:0.03527778;stroke-linecap:butt;stroke-linejoin:miter;stroke-opacity:1;stroke-miterlimit:4;stroke-dasharray:none"
     d="m 536.06948,361.08904 c 21.55397,-37.937 -8.90476,-88.069 -34.17225,-106.409 -25.23324,-18.315 -98.33287,-25.482 -102.98352,-12.243 -6.75395,19.227 -36.48733,34.635 -36.84849,63.192 -0.478,37.796 12.1372,69.406 46.6397,84.843 46.58053,20.842 102.15633,14.987 127.36456,-29.383 z"
     id="path46"
     inkscape:connector-curvature="0" />
</svg>
