<?xml version="1.0" standalone="no"?>
<!DOCTYPE svg PUBLIC "-//W3C//DTD SVG 20010904//EN" "http://www.w3.org/TR/2001/REC-SVG-20010904/DTD/svg10.dtd">
<svg width="2811.117023395255mm" height="3657.5221606719806mm"  viewBox="0 0 2811.117023395255 3657.5221606719806" xmlns="http://www.w3.org/2000/svg">
    <title>Bezier Curve : ll_mm5_LegsAndTorso_R</title>
    <desc>This is an exported Bezier xml_path from Blender, using the ExportScript by maybites.ch and Craxic</desc>
<path style="fill:none;stroke:#000000;stroke-width:1px;stroke-linecap:butt;stroke-linejoin:miter;stroke-opacity:1" d="M1187.8634551082482,2216.7165993984177 C1220.2721698856094,2191.679274596774 1252.6808369792539,2166.6419617160595 1285.0895279147567,2141.604648835345 C1299.1053219239623,2138.990198341675 1313.1210920913095,2136.375771689863 1327.1368861005153,2133.7613211961925 C1327.1368861005153,2142.2726977039424 1327.1369099423734,2150.7840742116923 1327.1369099423734,2159.295462640371 C1328.8815379209461,2159.295462640371 1330.6261897413772,2159.295462640371 1332.3708177199496,2159.295462640371 C1332.3708177199496,2150.3909458107537 1332.3708177199496,2141.486440902065 1332.3708177199496,2132.5819121515183 C1394.481481105798,2120.806346828649 1456.592144491646,2109.0307815057795 1518.7028317193524,2097.25521618291 C1518.7028317193524,2106.7407233356685 1518.7028317193524,2116.226230488427 1518.7028317193524,2125.711737641186 C1520.3809170715062,2125.711737641186 1522.0590143445893,2125.711737641186 1523.7370996967431,2125.711737641186 C1523.7370996967431,2115.828858236717 1523.7371116176723,2105.9459549903904 1523.7371116176723,2096.063075585922 C1650.1310277238056,2110.7486827612365 1776.524943829939,2125.434289936551 1902.9188599360723,2140.1198971118656 C1956.1221097065238,2164.6064273038614 2009.3253356351167,2189.092945574928 2062.5285854055683,2213.5794757669237 C2083.9099638980038,2171.3587276669296 2141.064477155068,2161.104237138607 2141.064477155068,2157.458280568012 C2141.064477155068,2283.629656769096 2141.064477155068,2409.8010329701797 2141.064477155068,2535.9724091712637 C2116.983055897789,2534.020619286223 2092.9016346405106,2532.0688174802526 2068.820213383232,2530.1170275952118 C2050.235699442055,2548.176949128974 2031.6511616590205,2566.2368706627362 2013.0666477178443,2584.2967921964982 C2006.310318080729,2577.606885976511 1999.553988443614,2570.9170035983816 1992.797658806499,2564.227097378394 C1991.6082838650696,2565.4282740396643 1990.4189327654988,2566.6294268590764 1989.2295578240696,2567.830603520347 C1991.898892275467,2570.473688085794 1994.5682267268644,2573.116748809383 1997.2375611782616,2575.7598333748297 C1973.9973760480202,2588.318079220837 1950.7571670759207,2600.8763250668435 1927.5169819456794,2613.4345709128506 C1927.5169819456794,2603.80119655513 1927.5169819456794,2594.167798355551 1927.5169819456794,2584.53442399783 C1925.8244484274167,2584.53442399783 1924.131914909154,2584.53442399783 1922.4393813908914,2584.53442399783 C1922.4393813908914,2594.657605491756 1922.4393813908914,2604.780763143823 1922.4393813908914,2614.903944637749 C1833.1333712443627,2628.964275238194 1744.188446041264,2643.024629680498 1654.5213613821184,2657.0849602809435 C1654.5213598920022,2647.417110596171 1654.521358029357,2637.7492609113983 1654.521356539241,2628.0814112266257 C1652.7990568334628,2628.0814112266257 1651.076758245272,2628.0814112266257 1649.354458912023,2628.0814112266257 C1649.3544551867326,2637.7492609113983 1649.3544522065004,2647.417110596171 1649.35444848121,2657.0849602809435 C1543.5014995197591,2651.1222545799096 1438.3706705262773,2645.159572720734 1332.4473500849817,2639.1968670197 C1332.44737392684,2630.30833615605 1332.44737392684,2621.4198291342573 1332.4473977686985,2612.531298270607 C1330.6516766878628,2612.531298270607 1328.8559556070272,2612.531298270607 1327.0602345261918,2612.531298270607 C1327.0602345261918,2621.4198291342573 1327.0602345261918,2630.30833615605 1327.0602345261918,2639.1968670197 C1304.1872616969547,2628.298825132148 1281.8895452239458,2617.4008070864543 1259.3042005728228,2606.502765198902 C1235.5320559009633,2574.378984469671 1192.391834616034,2538.9852571165493 1187.9877188735277,2510.1314230112093 C1187.9877188735277,2502.1937769807587 1187.9877188735277,2494.256119029379 1187.9877188735277,2486.3184729989284 C1210.184870388373,2486.3184729989284 1232.381974219502,2486.3184729989284 1254.5791257343471,2486.3184729989284 C1269.6906677075735,2514.113347127551 1284.8022335226583,2541.908209335245 1299.9137754958847,2569.7030715429387 C1399.624384510375,2580.627148739717 1499.3349935248655,2591.551249778353 1599.0456084998202,2602.4753269751313 C1706.6474434467184,2589.07758545774 1814.2492724331519,2575.679843940349 1921.85110738005,2562.2821024229584 C1953.1049225430338,2536.0605763631293 1984.358761547876,2509.8390503033 2015.6125767108597,2483.617524243471 C2034.9947677040225,2483.617524243471 2054.3769586971853,2483.617524243471 2073.7591496903483,2483.617524243471 C2073.7591496903483,2481.9399872540575 2073.7591496903483,2480.2624502646436 2073.7591496903483,2478.58491327523 C2057.271098030167,2478.58491327523 2040.7830463699866,2478.58491327523 2024.2949947098057,2478.58491327523 C2036.8911491104545,2468.3715857152024 2049.4873035111036,2458.158258155175 2062.0834579117527,2447.944930595148 C2062.0834579117527,2386.948736992523 2062.0834579117527,2325.9525493503634 2062.0834579117527,2264.956355747739 C2065.9744491806705,2264.956355747739 2069.8654404495883,2264.956355747739 2073.756431718506,2264.956355747739 C2073.756431718506,2263.217056424489 2073.756431718506,2261.4777571012382 2073.756431718506,2259.738457777988 C2065.2711620455566,2259.738457777988 2056.7858923726076,2259.738457777988 2048.3006226996586,2259.738457777988 C2001.805613538201,2238.4805920322965 1955.3106043767434,2217.2227262866054 1908.8155952152858,2195.964860540914 C1782.3134132307691,2183.8186139266627 1655.8112312462524,2171.672355391482 1529.3090492617357,2159.526108777231 C1452.8439659537382,2174.05770946908 1376.3788826457405,2188.5892982399996 1299.9137754958847,2203.120898931849 C1284.8022335226583,2221.0307002050426 1269.6906677075735,2238.9404895573075 1254.5791257343471,2256.850284870037 C1232.3405847535532,2256.850284870037 1210.1019960890424,2256.850284870037 1187.8634551082482,2256.850284870037 C1187.8634551082482,2243.4723857391873 1187.8634551082482,2230.0944925688027 1187.8634551082482,2216.7165993984177 Z "/>
<path style="fill:none;stroke:#000000;stroke-width:1px;stroke-linecap:butt;stroke-linejoin:miter;stroke-opacity:1" d="M1321.164262186443,3387.5266129729284 C1321.164262186443,3407.3742924068656 1321.164262186443,3427.2218764733693 1321.164262186443,3447.0695559073065 C1333.2896114119246,3447.0695559073065 1345.4149367955479,3447.0695559073065 1357.5402860210295,3447.0695559073065 C1357.5402860210295,3427.2218764733693 1357.5402860210295,3407.3742924068656 1357.5402860210295,3387.5266129729284 C1345.4149367955479,3387.5266129729284 1333.2896114119246,3387.5266129729284 1321.164262186443,3387.5266129729284 Z "/>
<path style="fill:none;stroke:#000000;stroke-width:1px;stroke-linecap:butt;stroke-linejoin:miter;stroke-opacity:1" d="M1329.0256142704443,3395.4687174308747 C1329.0256142704443,3409.357935014549 1329.0256142704443,3423.2471525982237 1329.0256142704443,3437.1363701818977 C1335.8940483251233,3437.1363701818977 1342.7625062216607,3437.1363701818977 1349.63094027634,3437.1363701818977 C1349.63094027634,3423.2471525982237 1349.63094027634,3409.357935014549 1349.63094027634,3395.4687174308747 C1342.7625062216607,3395.4687174308747 1335.8940483251233,3395.4687174308747 1329.0256142704443,3395.4687174308747 Z "/>
<path style="fill:none;stroke:#000000;stroke-width:1px;stroke-linecap:butt;stroke-linejoin:miter;stroke-opacity:1" d="M1324.3954300278651,3549.085243462615 C1324.3954300278651,3568.9329228965516 1324.3954300278651,3588.780506963056 1324.3954300278651,3608.628186396993 C1336.5207792533465,3608.628186396993 1348.64610463697,3608.628186396993 1360.7714538624516,3608.628186396993 C1360.7714538624516,3588.780506963056 1360.7714538624516,3568.9329228965516 1360.7714538624516,3549.085243462615 C1348.64610463697,3549.085243462615 1336.5207792533465,3549.085243462615 1324.3954300278651,3549.085243462615 Z "/>
<path style="fill:none;stroke:#000000;stroke-width:1px;stroke-linecap:butt;stroke-linejoin:miter;stroke-opacity:1" d="M1332.2567821118662,3557.027347920561 C1332.2567821118662,3570.916565504235 1332.2567821118662,3584.8057830879097 1332.2567821118662,3598.6950006715842 C1339.1252161665454,3598.6950006715842 1345.9936740630828,3598.6950006715842 1352.862108117762,3598.6950006715842 C1352.862108117762,3584.8057830879097 1352.862108117762,3570.916565504235 1352.862108117762,3557.027347920561 C1345.9936740630828,3557.027347920561 1339.1252161665454,3557.027347920561 1332.2567821118662,3557.027347920561 Z "/>
<path style="fill:none;stroke:#000000;stroke-width:1px;stroke-linecap:butt;stroke-linejoin:miter;stroke-opacity:1" d="M1501.7619039614199,4213.705176004163 C1509.89803346193,4179.900472741645 1518.0341629624404,4146.095769479126 1526.1702924629506,4112.291066216608 C1634.596376212872,4095.934025567595 1743.0224480418642,4079.576794183717 1851.4485317917854,4063.2197535347045 C1944.449922681093,4071.2029613563004 2037.4512897285426,4079.1861691778963 2130.452656775992,4087.1693769994918 C2187.5739344826343,4146.491735061199 2244.6952121892764,4205.8140931229045 2301.8164898959185,4265.136451184611 C2301.8164898959185,4317.991752875537 2301.8164898959185,4370.847245301329 2301.8164898959185,4423.702546992254 C2244.6952598729927,4483.0249050539605 2187.5739821663506,4542.347453850533 2130.452752143425,4601.669811912239 C2037.4513374122591,4609.653019733835 1944.4499465229514,4617.636227555431 1851.4485317917854,4625.619435377027 C1743.0224480418642,4609.262394728014 1634.596376212872,4592.905354079003 1526.1702924629506,4576.54831342999 C1518.0341629624404,4542.743610167472 1509.89803346193,4508.938716170087 1501.7619039614199,4475.134012907569 C1501.7619039614199,4387.9910672731 1501.7619039614199,4300.848121638632 1501.7619039614199,4213.705176004163 Z "/>
<path style="fill:none;stroke:#000000;stroke-width:1px;stroke-linecap:butt;stroke-linejoin:miter;stroke-opacity:1" d="M1450.0552076342894,4476.704333060363 C1451.7420191065685,4476.704333060363 1453.4288305788473,4476.704333060363 1455.1156420511263,4476.704333060363 C1455.1156420511263,4388.514443745743 1455.1156420511263,4300.324745165989 1455.1156420511263,4212.134855851369 C1453.4288305788473,4212.134855851369 1451.7420191065685,4212.134855851369 1450.0552076342894,4212.134855851369 C1450.0552076342894,4300.324745165989 1450.0552076342894,4388.514443745743 1450.0552076342894,4476.704333060363 Z "/>
<path style="fill:none;stroke:#000000;stroke-width:1px;stroke-linecap:butt;stroke-linejoin:miter;stroke-opacity:1" d="M2389.9404803142925,4477.302859070258 C2367.5045764307774,4477.302859070258 2345.0686248635457,4477.302859070258 2322.63272098003,4477.302859070258 C2322.6325779288804,4478.993532923576 2322.6324825614474,4480.684016042028 2322.632339510298,4482.374689895346 C2345.068386444963,4482.374689895346 2367.5044333796277,4482.374689895346 2389.9404803142925,4482.374689895346 C2389.940527998009,4504.916117843544 2389.940527998009,4527.457736526609 2389.940575681726,4549.999164474806 C2368.3935916417786,4547.222446293781 2346.846655285548,4544.445537377891 2325.2996712456006,4541.668819196866 C2279.263808590619,4577.797245333366 2233.2278982519206,4613.925671469866 2187.1920355969387,4650.054097606366 C2180.5310018673104,4642.656255088903 2173.8700158213987,4635.25841257144 2167.2089820917704,4627.860570053977 C2165.92876967035,4629.013180849961 2164.6485572489296,4630.165982380811 2163.368344827509,4631.318593176795 C2169.9467903601058,4638.624692223652 2176.5252835764195,4645.93079127051 2183.103729109016,4653.236890317367 C2172.4346405863866,4661.635900147112 2161.7655520637572,4670.034909976857 2151.0964635411283,4678.433919806603 C2131.7601919669846,4680.346418309222 2112.423872709124,4682.258916811841 2093.087601134981,4684.17141531446 C2085.4115241315603,4675.646329738209 2077.735399444423,4667.1212441619555 2070.0593224410027,4658.596158585704 C2068.7791577032986,4659.748769381687 2067.498945281878,4660.901570912538 2066.2187805441745,4662.054181708521 C2072.797226076771,4669.360280755379 2079.375671609368,4676.666379802236 2085.954117141965,4683.972478849094 C2006.712005708785,4688.669324927383 1941.0717697834648,4702.978445318829 1848.2278066842837,4698.063207818828 C1711.6434273601994,4690.832449044089 1617.8412838191891,4659.703946688149 1502.6480104657126,4640.524411490242 C1507.5248983366932,4630.2649737763295 1512.401798128603,4620.0055360624165 1517.2786859995836,4609.746098348503 C1515.6285909890335,4608.993649301647 1513.9784959784831,4608.24120025479 1512.328400967933,4607.488751207933 C1507.4515130969523,4617.748188921845 1502.5746133050425,4628.007626635758 1497.697725434062,4638.267064349671 C1477.3783229134142,4595.8386655851145 1457.0589203927666,4553.410076085692 1436.739529793048,4510.981677321135 C1436.7395059511898,4399.940225166 1436.7395059511898,4288.898963745732 1436.7394821093314,4177.857511590597 C1457.05887270905,4135.42911282604 1477.3782752296977,4093.0007140614834 1497.6976777503455,4050.5723152969267 C1502.574565621326,4060.8317530108393 1507.4514654132358,4071.090999989886 1512.3283532842165,4081.350437703799 C1513.9784482947666,4080.5979886569417 1515.628543305317,4079.845539610085 1517.278638315867,4079.093090563228 C1512.4017504448866,4068.8336528493155 1507.5248506529767,4058.5742151354025 1502.6479627819963,4048.31477742149 C1617.8412361354726,4029.135242223583 1711.643379676483,3998.0067398676424 1848.2277590005672,3990.7759810929037 C1941.071722099748,3985.860743592903 2006.7119580250685,4000.169863984348 2085.9540694582483,4004.8667100626376 C2079.375623925652,4012.172809109495 2072.797130709338,4019.4789081563526 2066.2186851767415,4026.7850072032106 C2067.498897598162,4027.937617999194 2068.7790623358655,4029.090419530044 2070.059274757286,4030.243030326028 C2077.735399444423,4021.7179447497756 2085.4114764478436,4013.192668438657 2093.087601134981,4004.6675828624047 C2112.423872709124,4006.580081365024 2131.760144283268,4008.49277060251 2151.0964158574116,4010.4052691051293 C2161.765504380041,4018.804278934874 2172.4345929026704,4027.203288764619 2183.1036814252993,4035.6022985943637 C2176.5252358927028,4042.9083976412217 2169.9467903601058,4050.214496688079 2163.368344827509,4057.5205957349367 C2164.6485572489296,4058.6732065309207 2165.9287219866333,4059.8260080617706 2167.2089344080537,4060.9786188577546 C2173.869968137682,4053.5807763402913 2180.5309541835936,4046.1829338228285 2187.191987913222,4038.7850913053653 C2233.2278982519206,4074.913517441865 2279.2637609069025,4111.041943578366 2325.2996712456006,4147.170369714866 C2346.8466076018312,4144.393460798974 2368.393543958062,4141.61674261795 2389.9404803142925,4138.839833702059 C2389.9404803142925,4161.3648584517705 2389.9404803142925,4183.889883201482 2389.9404803142925,4206.4149079511935 C2367.5044333796277,4206.4149079511935 2345.068386444963,4206.4149079511935 2322.632339510298,4206.4149079511935 C2322.6324348777307,4208.13857893635 2322.632530245164,4209.862059186642 2322.632625612597,4211.5857301718 C2345.068577179829,4211.5857301718 2367.5045287470607,4211.5857301718 2389.9404803142925,4211.5857301718 C2389.9404803142925,4300.158042892997 2389.9404803142925,4388.730546349061 2389.9404803142925,4477.302859070258 Z "/>
<path style="fill:none;stroke:#000000;stroke-width:1px;stroke-linecap:butt;stroke-linejoin:miter;stroke-opacity:1" d="M1251.7619240779877,3408.6243687194383 C1259.898053578498,3374.81966545692 1268.03415923715,3341.0148668269685 1276.1702887376603,3307.2101635644503 C1384.5963605666525,3290.853122915438 1493.022444316574,3274.495986898992 1601.448528066495,3258.13894624998 C1694.4499129953383,3266.122154071576 1787.4512860032523,3274.1053618931714 1880.45267689256,3282.0885697147673 C1937.5739307573438,3341.4109277764737 1994.6952084639859,3400.733381205613 2051.81646232877,3460.0557392673195 C2051.81646232877,3512.9111363256784 2051.81646232877,3565.766438016604 2051.81646232877,3618.6218350749627 C1994.6952084639859,3677.944193136669 1937.5739784410603,3737.2665511983755 1880.4527245762765,3796.588909260082 C1787.4513217660397,3804.572117081678 1694.449930876732,3812.5554202707062 1601.448528066495,3820.538628092302 C1493.022444316574,3804.18158744329 1384.5963605666525,3787.8245467942775 1276.1702887376603,3771.4675061452654 C1268.03415923715,3737.6627075153137 1259.898053578498,3703.8580042527956 1251.7619240779877,3670.053205622844 C1251.7619240779877,3582.9102599883754 1251.7619240779877,3495.767314353907 1251.7619240779877,3408.6243687194383 Z "/>
<path style="fill:none;stroke:#000000;stroke-width:1px;stroke-linecap:butt;stroke-linejoin:miter;stroke-opacity:1" d="M1200.0552277508573,3671.623430408205 C1201.7420392231363,3671.623430408205 1203.4288506954153,3671.623430408205 1205.1156621676944,3671.623430408205 C1205.1156621676944,3583.433636461018 1205.1156621676944,3495.243937881264 1205.1156621676944,3407.0541439340773 C1203.4288506954153,3407.0541439340773 1201.7420392231363,3407.0541439340773 1200.0552277508573,3407.0541439340773 C1200.0552277508573,3495.243937881264 1200.0552277508573,3583.433636461018 1200.0552277508573,3671.623430408205 Z "/>
<path style="fill:none;stroke:#000000;stroke-width:1px;stroke-linecap:butt;stroke-linejoin:miter;stroke-opacity:1" d="M2139.940524272719,3672.2220517855335 C2117.504572705487,3672.2220517855335 2095.0686688219716,3672.2220517855335 2072.63271725474,3672.2220517855335 C2072.63257420359,3673.9126302714185 2072.632478836157,3675.6033041247365 2072.6323357850074,3677.293882610621 C2095.0683827196726,3677.293882610621 2117.504477338054,3677.293882610621 2139.940524272719,3677.293882610621 C2139.940524272719,3699.8354059262524 2139.9405719564356,3722.3768338744503 2139.9405719564356,3744.9183571900817 C2118.393635600205,3742.1415436416237 2096.8466515602577,3739.364730093166 2075.299715204027,3736.5879165447086 C2029.2638287071868,3772.7163426812085 1983.2279183684884,3808.8447688177084 1937.1920318716482,3844.9731949542083 C1930.53099814202,3837.5753524367456 1923.86998825425,3830.1776052867153 1917.2089545246217,3822.7797627692526 C1915.9287659450597,3823.9324689326695 1914.6485535236393,3825.085079728653 1913.368364944077,3826.23778589207 C1919.9468104766738,3833.5438849389275 1926.525279851129,3840.8499839857855 1933.1037253837258,3848.156083032643 C1922.4346368610964,3856.555092862388 1911.7655483384672,3864.9541026921324 1901.096459815838,3873.3531125218774 C1881.7601882416943,3875.265611024497 1862.4238928256923,3877.1782048945497 1843.0876212515486,3879.090703397169 C1835.41152040627,3870.565522453484 1827.7354195609912,3862.0404368772315 1820.0593187157124,3853.5152559335456 C1818.7791301361501,3854.6679620969626 1817.498941556588,3855.8205728929465 1816.2187529770258,3856.9732790563635 C1822.7972104305518,3864.279378103221 1829.3756559631486,3871.585477150079 1835.9541134166745,3878.8915761969365 C1756.7120079439592,3883.5885176426586 1691.0717779791034,3897.8975426666707 1598.2278148799226,3892.9824005341034 C1461.6434474767675,3885.7515463919312 1367.841303935757,3854.6232347708565 1252.6480305822806,3835.4436042055167 C1257.5249303741903,3825.184166491604 1262.401806324242,3814.9247287776916 1267.2786822742933,3804.665291063779 C1265.6285872637432,3803.912842016922 1263.9784922531928,3803.160392970065 1262.3283972426425,3802.407943923208 C1257.4514974507329,3812.667381637121 1252.5746453425397,3822.9268193510334 1247.6977455506299,3833.1862570649464 C1227.378331109053,3790.7577629329567 1207.0589643511928,3748.3293641684 1186.739549909616,3705.90087003641 C1186.739549909616,3594.8595132487085 1186.7395022258995,3483.8181564610068 1186.7395022258995,3372.776799673305 C1207.0589166674763,3330.3483055413153 1227.3782834253366,3287.9199067767586 1247.6976978669134,3245.4914126447693 C1252.5745976588232,3255.7508503586814 1257.4514497670164,3266.0101927051614 1262.3283495589262,3276.269630419074 C1263.9784445694763,3275.5171813722172 1265.6285395800267,3274.7647323253605 1267.278634590577,3274.012283278503 C1262.4017586405253,3263.7528455645906 1257.524882690474,3253.493503218111 1252.6479828985641,3243.234065504198 C1367.8412562520405,3224.0544349388583 1461.6433640302635,3192.926027950351 1598.2277552752769,3185.695173808179 C1691.0717243349225,3180.7799363081785 1756.7119602602427,3195.0890566996236 1835.954065732958,3199.7859981453457 C1829.375608279432,3207.0920971922033 1822.7971627468353,3214.3981962390612 1816.2187052933093,3221.7042952859188 C1817.4988938728716,3222.8570014493357 1818.7790824524336,3224.0096122453197 1820.0592710319959,3225.1623184087366 C1827.7353718772747,3216.6371374650507 1835.4114727225533,3208.1119565213658 1843.0875735678324,3199.58677557768 C1862.4238451419758,3201.4993694477325 1881.7601405579778,3203.411867950352 1901.0964121321215,3205.324461820405 C1911.7655006547507,3213.72347165015 1922.4346130192382,3222.1223861124613 1933.1037015418674,3230.5213959422063 C1926.5252560092706,3237.827494989064 1919.9467866348157,3245.1335940359213 1913.368341102219,3252.439693082779 C1914.648529681781,3253.592399246196 1915.9287421032013,3254.7450100421797 1917.2089306827634,3255.8977162055967 C1923.8699405705333,3248.4998736881334 1930.5309743001617,3241.1021265381037 1937.1919841879317,3233.704284020641 C1983.227870684772,3269.832710157141 2029.2637810234703,3305.9611362936407 2075.2996675203103,3342.089562430141 C2096.846603876541,3339.312748881683 2118.3935879164883,3336.535935333225 2139.940524272719,3333.7591217847676 C2139.940524272719,3356.284146534479 2139.940524272719,3378.8091712841906 2139.940524272719,3401.334196033902 C2117.504477338054,3401.334196033902 2095.0683827196726,3401.334196033902 2072.6323357850074,3401.334196033902 C2072.6324311524404,3403.0577716516264 2072.63257420359,3404.7813472693506 2072.632669571023,3406.504922887075 C2095.0686211382554,3406.504922887075 2117.504572705487,3406.504922887075 2139.940524272719,3406.504922887075 C2139.940524272719,3495.077330975705 2139.940524272719,3583.649643696903 2139.940524272719,3672.2220517855335 Z "/>
<path style="fill:none;stroke:#000000;stroke-width:1px;stroke-linecap:butt;stroke-linejoin:miter;stroke-opacity:1" d="M1349.8421791405717,1507.8941119722786 C1382.2508700760745,1482.8568229334223 1414.659537169719,1457.8195338945661 1447.0682281052218,1432.78224485571 C1461.0840221144274,1430.1677466783233 1475.0998042027038,1427.5533438683694 1489.1155982119094,1424.9388456909828 C1489.1156101328386,1433.4501983568744 1489.1156101328386,1441.961646390199 1489.1156220537678,1450.4729990560904 C1490.8602619532696,1450.4729990560904 1492.6048899318423,1450.4729990560904 1494.349529831344,1450.4729990560904 C1494.349529831344,1441.5684464636854 1494.349529831344,1432.6639892387134 1494.349529831344,1423.7594366463086 C1556.4602051381212,1411.9838474815808 1618.5708685239695,1400.208353684286 1680.6815438307467,1388.4327645195583 C1680.6815438307467,1397.9182955141753 1680.6815438307467,1407.403731141359 1680.6815438307467,1416.889262135976 C1682.359633653249,1416.889262135976 1684.0377219856352,1416.889262135976 1685.7158118081375,1416.889262135976 C1685.7158147883697,1407.006430415224 1685.7158207488342,1397.1235033270389 1685.7158237290666,1387.240671606287 C1812.1097398352,1401.9263026234598 1938.5036440204042,1416.6118382731995 2064.8975601265374,1431.2974692903722 C2118.1008098969887,1455.784011403297 2171.30405966744,1480.2704581487887 2224.5073094378913,1504.7570002617135 C2245.8886879303273,1462.5363117663653 2303.043201187391,1452.281833158972 2303.043201187391,1448.6358408255896 C2303.043201187391,1574.8072408685316 2303.043201187391,1700.9785455440408 2303.043201187391,1827.149945586983 C2278.9617799301122,1825.198155701942 2254.8803586728336,1823.246365816901 2230.798937415555,1821.29457593186 C2212.2143996325203,1839.3544974656222 2193.6299095332024,1857.4144189993845 2175.0453717501678,1875.4743405331467 C2168.2890182711944,1868.7844581550173 2161.5327124759374,1862.0945280931714 2154.776358996964,1855.404645715042 C2153.5869840555347,1856.6057985344542 2152.397656797822,1857.806999037583 2151.208281856393,1859.0081518569953 C2153.8776163077905,1861.6512125805841 2156.546950759188,1864.2943209878895 2159.216285210585,1866.937381711478 C2135.9761000803437,1879.4956513993434 2112.735867266386,1892.0538734034922 2089.4956821361448,1904.6121430913572 C2089.4956821361448,1894.9787448917782 2089.4956821361448,1885.3453943759155 2089.4956821361448,1875.7119961763365 C2087.8031486178816,1875.7119961763365 2086.1106150996193,1875.7119961763365 2084.4180815813565,1875.7119961763365 C2084.4180815813565,1885.8351538284041 2084.4180815813565,1895.9583114804716 2084.4180815813565,1906.081469132539 C1995.1120595138987,1920.1418235748429 1906.167146231729,1934.2021780171465 1816.5000749836288,1948.2624847757336 C1816.5000749836288,1938.5946589328191 1816.5000630626996,1928.9267854061882 1816.5000630626996,1919.258959563274 C1814.7777629843927,1919.258959563274 1813.0554748270147,1919.258959563274 1811.3331747487075,1919.258959563274 C1811.3331747487075,1928.9267854061882 1811.3331628277783,1938.5946589328191 1811.3331628277783,1948.2624847757336 C1705.4802116311535,1942.2998267584162 1600.3493826376716,1936.3371210573823 1494.426062196376,1930.3744153563484 C1494.4260741173052,1921.485884492698 1494.4260979591634,1912.5973536290473 1494.4261098800926,1903.7088227653967 C1492.6303887992572,1903.7088227653967 1490.8346677184215,1903.7088227653967 1489.0389466375862,1903.7088227653967 C1489.0389466375862,1912.5973536290473 1489.0389466375862,1921.485884492698 1489.0389466375862,1930.3744153563484 C1466.165973808349,1919.4763973106546 1443.8682692562693,1908.5783315812441 1421.282924605146,1897.6803135355503 C1397.5107560914284,1865.5565566481778 1354.3705586483575,1830.1627935322686 1349.9664429058512,1801.3089951897157 C1349.9664429058512,1793.371325317407 1349.9664429058512,1785.4337031288146 1349.9664429058512,1777.4960332565058 C1372.163570578838,1777.4960332565058 1394.3607220936835,1777.4960332565058 1416.5578497666706,1777.4960332565058 C1431.669391739897,1805.2909193060577 1446.7809337131234,1833.0857576718934 1461.892487607279,1860.8806437214455 C1561.6030966217693,1871.8047447600816 1661.3137175571887,1882.7287981150016 1761.0243265716792,1893.6528991536377 C1868.6261615185772,1880.2551576362468 1976.227972623617,1866.8573684351395 2083.829807570515,1853.4596269177484 C2115.083622733499,1827.2381127788485 2146.3374855801994,1801.0165986399486 2177.591300743183,1774.7950845010487 C2196.9734917363457,1774.7950845010487 2216.3556827295088,1774.7950845010487 2235.737873722672,1774.7950845010487 C2235.737873722672,1773.1175236697766 2235.737873722672,1771.4400105222212 2235.737873722672,1769.762449690949 C2219.2497982206323,1769.762449690949 2202.7617704023096,1769.762449690949 2186.273694900271,1769.762449690949 C2198.869873142778,1759.5491221309217 2211.4660037015688,1749.3357945708944 2224.0621819440757,1739.122467010867 C2224.0621819440757,1678.126267447778 2224.0621819440757,1617.1301155684055 2224.0621819440757,1556.1339160053167 C2227.9531732129935,1556.1339160053167 2231.8441644819113,1556.1339160053167 2235.735155750829,1556.1339160053167 C2235.735155750829,1554.394604761137 2235.735155750829,1552.6552935169575 2235.735155750829,1550.9159822727781 C2227.24988607788,1550.9159822727781 2218.764616404931,1550.9159822727781 2210.2793467319816,1550.9159822727781 C2163.7843375705243,1529.6581046061576 2117.289328409067,1508.40032230697 2070.794319247609,1487.1424446403494 C1944.2921372630926,1474.996162263311 1817.7899433576467,1462.8499752537052 1691.28776137313,1450.7036928766665 C1614.8226661442034,1465.2353054894447 1538.3575828362057,1479.76682273479 1461.892487607279,1494.298435347568 C1446.7809337131234,1512.208248541691 1431.669391739897,1530.118061735814 1416.5578497666706,1548.0278749299373 C1394.3192849440181,1548.0278749299373 1372.080743963224,1548.0278749299373 1349.8421791405717,1548.0278749299373 C1349.8421791405717,1534.6499221549066 1349.8421791405717,1521.272064747309 1349.8421791405717,1507.8941119722786 Z "/>
<path style="fill:none;stroke:#000000;stroke-width:1px;stroke-linecap:butt;stroke-linejoin:miter;stroke-opacity:1" d="M1566.3208818120802,3448.717314415747 C1576.8751002615866,3448.717314415747 1587.429318711093,3448.717314415747 1597.9835371605996,3448.717314415747 C1597.9835371605996,3433.3729805384164 1597.9835371605996,3418.0287420285194 1597.9835371605996,3402.68440815119 C1686.1727708241172,3402.68440815119 1774.3619985271703,3402.68440815119 1862.551232190688,3402.68440815119 C1862.551232190688,3418.0287420285194 1862.551232190688,3433.3729805384164 1862.551232190688,3448.717314415747 C1873.1054506401945,3448.717314415747 1883.6596690897009,3448.717314415747 1894.2138875392075,3448.717314415747 C1894.2138875392075,3519.546611583246 1894.2138875392075,3590.375813383312 1894.2138875392075,3661.2051105508117 C1883.6547576668981,3661.2051105508117 1873.095603952731,3661.2051105508117 1862.5364740804216,3661.2051105508117 C1862.5364740804216,3671.2336637092817 1862.5364740804216,3681.262312235185 1862.5364740804216,3691.2908653936556 C1774.3570751834386,3691.2908653936556 1686.1776882073843,3691.2908653936556 1597.9982952708658,3691.2908653936556 C1597.9982952708658,3681.262312235185 1597.9982952708658,3671.2336637092817 1597.9982952708658,3661.2051105508117 C1587.439159438092,3661.2051105508117 1576.8800176448538,3661.2051105508117 1566.3208818120802,3661.2051105508117 C1566.3208818120802,3590.375813383312 1566.3208818120802,3519.546611583246 1566.3208818120802,3448.717314415747 Z "/>
<path style="fill:none;stroke:#000000;stroke-width:1px;stroke-linecap:butt;stroke-linejoin:miter;stroke-opacity:1" d="M1617.5694091489238,3490.618712745204 C1621.4452966006304,3478.07074274011 1631.441985115529,3476.8095084378683 1640.8257173358172,3480.1427909582417 C1687.7443843977221,3496.809298927539 1656.0700018351686,3570.568665108426 1699.684971142576,3597.4856462529287 C1720.0060664351604,3610.026845170276 1740.5286850347334,3610.026845170276 1760.849780327318,3597.4856462529287 C1804.4647526149574,3570.568665108426 1772.7903670721716,3496.809298927539 1819.7090460550057,3480.1427909582417 C1829.0927842357585,3476.8095084378683 1839.0894846715862,3478.07074274011 1842.9653602023636,3490.618712745204 C1853.685839850484,3525.3257826593526 1854.5188862992072,3560.3135189290015 1838.9895157598792,3600.2128687361947 C1832.6468662055274,3616.5089695954803 1824.9178245139703,3625.2917379758655 1809.9265289529055,3634.294614391757 C1782.6251693694478,3650.6901834837263 1762.1135657083935,3651.850709776654 1730.2673816954114,3651.850709776654 C1698.421203642894,3651.850709776654 1677.9095910411427,3650.6901834837263 1650.6082344379174,3634.294614391757 C1635.6169448373173,3625.2917379758655 1627.8879001655278,3616.5089695954803 1621.5452535914083,3600.2128687361947 C1606.0158770916157,3560.3135189290015 1606.8488937380162,3525.3257826593526 1617.5694091489238,3490.618712745204 Z "/>
<path style="fill:none;stroke:#000000;stroke-width:1px;stroke-linecap:butt;stroke-linejoin:miter;stroke-opacity:1" d="M1720.1183913899133,3520.0823858221866 C1720.1183913899133,3533.7095336998073 1720.1183913899133,3547.3366815774284 1720.1183913899133,3560.9638294550496 C1722.1075593482499,3560.9638294550496 1724.0967273065864,3560.9638294550496 1726.0858952649232,3560.9638294550496 C1726.1623799462386,3564.3174252386643 1726.8113314863654,3568.766315990993 1730.2673816954114,3568.766315990993 C1733.7234319044576,3568.766315990993 1734.3723834445843,3564.3174252386643 1734.4488681258997,3560.9638294550496 C1736.4380360842363,3560.9638294550496 1738.427204042573,3560.9638294550496 1740.4163720009096,3560.9638294550496 C1740.4163720009096,3547.3366815774284 1740.4163720009096,3533.7095336998073 1740.4163720009096,3520.0823858221866 C1734.3597055364517,3520.0823858221866 1726.1750578543713,3520.0823858221866 1720.1183913899133,3520.0823858221866 Z "/>
<path style="fill:none;stroke:#000000;stroke-width:1px;stroke-linecap:butt;stroke-linejoin:miter;stroke-opacity:1" d="M815.2921719380954,2751.1214216049866 C835.3174255323934,2730.9653477343863 855.3427744941243,2710.8092738637856 875.3680280884223,2690.6531999931854 C908.6581763658563,2685.4378411813395 941.9483246432902,2680.222506211352 975.2384729207241,2675.0071473995063 C1008.5286211981581,2680.222506211352 1041.818769475592,2685.4378411813395 1075.108917753026,2690.6531999931854 C1095.1342190310404,2710.8092738637856 1115.1594726253384,2730.9653477343863 1135.1847739033528,2751.1214216049866 C1137.851581117774,2808.7190119560555 1140.5183406484787,2866.3166499908407 1143.1851478628998,2923.9142403419096 C1124.7836201839104,2942.3626887979653 1106.3820925049213,2960.8111849377374 1087.9805648259319,2979.2596333937927 C1050.3998834187682,2988.7627596798097 1012.8191543278879,2998.265933649543 975.2384729207241,3007.76905993556 C937.6577915135604,2998.265933649543 900.0770624226801,2988.7627596798097 862.4963810155164,2979.2596333937927 C844.0948533365271,2960.8111849377374 825.6933256575378,2942.3626887979653 807.2917979785485,2923.9142403419096 C809.9585575092531,2866.3166499908407 812.6254124073907,2808.7190119560555 815.2921719380954,2751.1214216049866 Z "/>
<path style="fill:none;stroke:#000000;stroke-width:1px;stroke-linecap:butt;stroke-linejoin:miter;stroke-opacity:1" d="M856.573872687518,2778.5875284290582 C866.0163929698241,2757.588525659484 880.2365832299392,2750.0215251576274 900.6909425892984,2739.4509273514927 C927.2355139076949,2725.732965835739 945.3587594170101,2722.127361610258 975.2384729207241,2722.127361610258 C1005.1181864244382,2722.127361610258 1023.2414319337535,2725.732965835739 1049.7860032521498,2739.4509273514927 C1070.2403626115092,2750.0215251576274 1084.4605528716243,2757.588525659484 1093.9030254702138,2778.5875284290582 C1111.4502993675528,2817.61064226128 1109.2268553494355,2848.232981966246 1093.9030254702138,2888.1815890526154 C1085.7480132179574,2909.4414694353304 1074.6398053497953,2920.197342322046 1054.8976022968245,2931.5433965682637 C1027.3569181400985,2947.3712910149334 1007.0034098412021,2948.1057156169413 975.2384729207241,2948.1057156169413 C943.4735360002462,2948.1057156169413 923.1200277013497,2947.3712910149334 895.5793435446237,2931.5433965682637 C875.8371404916529,2920.197342322046 864.728932623491,2909.4414694353304 856.573872687518,2888.1815890526154 C841.2500428082963,2848.2330296499626 839.0265511064624,2817.610594577564 856.573872687518,2778.5875284290582 Z "/>
<path style="fill:none;stroke:#000000;stroke-width:1px;stroke-linecap:butt;stroke-linejoin:miter;stroke-opacity:1" d="M497.98774673869957,3126.8997208141386 C593.6103830512834,3153.62510878562 671.7137358081316,3214.9884252822803 707.4438121767328,3289.3214265730335 C683.6499237301352,3289.3214265730335 659.8561306509707,3289.3214265730335 636.0622422043731,3289.3214265730335 C610.5430615262562,3234.262088136619 561.4682202493298,3199.66745642605 500.48780399641237,3185.5372453390287 C500.48780399641237,3175.632002271507 500.48780399641237,3165.7267592039857 500.48780399641237,3155.821516136464 C498.40288117481737,3155.821516136464 496.31786298578913,3155.821516136464 494.23294016419413,3155.821516136464 C494.23294016419413,3165.7267592039857 494.23294016419413,3175.632002271507 494.23294016419413,3185.5372453390287 C406.03694733385805,3165.0790235986306 317.84085913608897,3165.0790235986306 229.6447709383201,3185.5372453390287 C229.6447709383201,3175.632002271507 229.6447709383201,3165.7267592039857 229.6447709383201,3155.821516136464 C227.55984811672488,3155.821516136464 225.47492529512965,3155.821516136464 223.39000247353465,3155.821516136464 C223.39000247353465,3165.7267592039857 223.38990710610165,3175.632002271507 223.38990710610165,3185.5372453390287 C162.40949085318425,3199.66745642605 113.33464957625802,3234.262088136619 87.81546889814081,3289.3214265730335 C64.02158045154329,3289.3214265730335 40.227692004945766,3289.3214265730335 16.43389892578125,3289.3214265730335 C51.38377432450466,3214.9884252822803 128.54909300975783,3153.62510878562 223.39000247353465,3126.8997208141386 C314.9226156844006,3106.4414037063075 406.4551335278336,3106.4414037063075 497.98774673869957,3126.8997208141386 Z "/>
<path style="fill:none;stroke:#000000;stroke-width:1px;stroke-linecap:butt;stroke-linejoin:miter;stroke-opacity:1" d="M1458.2646031652494,1056.873959835295 C1528.0832916445936,1114.4659711915297 1597.9019622425442,1172.0579825477644 1667.7206447614242,1229.649993903999 C1643.9267876072654,1229.649993903999 1620.132933433339,1229.649993903999 1596.3390747890644,1229.649993903999 C1551.1475834654816,1191.603824056061 1505.956092141899,1153.557654208123 1460.7646008183165,1115.511484360185 C1460.7646008183165,1105.6062412926635 1460.7646008183165,1095.700998225142 1460.7646008183165,1085.7957551576205 C1458.679666075792,1085.7957551576205 1456.594743254197,1085.7957551576205 1454.5098204326018,1085.7957551576205 C1454.5098204326018,1095.700998225142 1454.5098204326018,1105.6062412926635 1454.5098204326018,1115.511484360185 C1366.313732234833,1095.053167252354 1278.1176440370639,1095.053167252354 1189.9215796811532,1115.511484360185 C1189.9215796811532,1105.6062412926635 1189.9215796811532,1095.700998225142 1189.9215796811532,1085.7957551576205 C1187.836656859558,1085.7957551576205 1185.7517817216794,1085.7957551576205 1183.6668589000842,1085.7957551576205 C1183.6668112163677,1095.700998225142 1183.6668112163677,1105.6062412926635 1183.6667635326512,1115.511484360185 C1138.4752841299976,1153.557654208123 1093.2837570436275,1191.603824056061 1048.0922776409739,1229.649993903999 C1024.298436878093,1229.649993903999 1000.5045484314953,1229.649993903999 976.7107076686143,1229.649993903999 C1045.6960755178654,1172.0579825477644 1114.6814433671166,1114.4659711915297 1183.6668112163677,1056.873959835295 C1275.1994005853755,1036.4156427274636 1366.7320137962415,1036.4156427274636 1458.2646031652494,1056.873959835295 Z "/>
<path style="fill:none;stroke:#000000;stroke-width:1px;stroke-linecap:butt;stroke-linejoin:miter;stroke-opacity:1" d="M428.9399132207932,2346.8147177348883 C428.9399132207932,2336.7141815359664 428.9399132207932,2326.6136483172763 428.9399132207932,2316.5131106282383 C426.8481239440175,2316.5131106282383 424.75623929980884,2316.5131106282383 422.6644500230334,2316.5131106282383 C422.6644500230334,2327.1057502323392 422.6644500230334,2337.6983898364406 422.6644500230334,2348.291029440542 C410.8407003046095,2353.0511004016607 397.3025302420351,2373.5558800758445 387.19320086776156,2362.5712415788403 C365.61784501647867,2339.1277032789885 404.2218189803946,2310.05702151226 423.83756481712544,2289.653469152864 C515.421867176711,2260.5672365340815 607.0062649037295,2260.5672365340815 698.590567263315,2289.653469152864 C718.2063131000459,2310.05702151226 756.8102870639618,2339.1277032789885 735.2349312126789,2362.5712415788403 C725.1256018384054,2373.5558800758445 711.587431775831,2353.0511004016607 699.7636820574071,2348.291029440542 C699.7636820574071,2337.6983898364406 699.7636820574071,2327.1057502323392 699.7636820574071,2316.5131106282383 C697.6718927806315,2316.5131106282383 695.580008136423,2316.5131106282383 693.4882188596473,2316.5131106282383 C693.4882188596473,2326.6136483172763 693.4882188596473,2336.7141815359664 693.4882188596473,2346.8147177348883 C605.3054821025071,2322.2049608984476 517.1226499779336,2322.2049608984476 428.9399132207932,2346.8147177348883 Z "/>
<path style="fill:none;stroke:#000000;stroke-width:1px;stroke-linecap:butt;stroke-linejoin:miter;stroke-opacity:1" d="M1454.2628664646886,3539.039238063894 C1454.2628664646886,3609.8687259662597 1454.2628664646886,3680.6983092360583 1454.2628664646886,3751.527797138424 C1449.8597282383712,3751.527797138424 1445.4565900120538,3751.527797138424 1441.0534517857363,3751.527797138424 C1441.0534517857363,3680.6983092360583 1441.0534517857363,3609.8687259662597 1441.0534517857363,3539.039238063894 C1445.4565900120538,3539.039238063894 1449.8597282383712,3539.039238063894 1454.2628664646886,3539.039238063894 Z "/>
<path style="fill:none;stroke:#000000;stroke-width:1px;stroke-linecap:butt;stroke-linejoin:miter;stroke-opacity:1" d="M1406.013239586045,3531.625373817677 C1406.013239586045,3602.4548617200426 1406.013239586045,3673.2844449898407 1406.013239586045,3744.1139328922063 C1401.6101013597277,3744.1139328922063 1397.2069631334102,3744.1139328922063 1392.8038249070928,3744.1139328922063 C1392.8038249070928,3673.2844449898407 1392.8038249070928,3602.4548617200426 1392.8038249070928,3531.625373817677 C1397.2069631334102,3531.625373817677 1401.6101013597277,3531.625373817677 1406.013239586045,3531.625373817677 Z "/>
<path style="fill:none;stroke:#000000;stroke-width:1px;stroke-linecap:butt;stroke-linejoin:miter;stroke-opacity:1" d="M1282.3902004056615,3665.407476488676 C1282.3902004056615,3685.255155922613 1282.3902004056615,3705.102739989117 1282.3902004056615,3724.950419423054 C1294.5155496311431,3724.950419423054 1306.6408750147664,3724.950419423054 1318.766224240248,3724.950419423054 C1318.766224240248,3705.102739989117 1318.766224240248,3685.255155922613 1318.766224240248,3665.407476488676 C1306.6408750147664,3665.407476488676 1294.5155496311431,3665.407476488676 1282.3902004056615,3665.407476488676 Z "/>
<path style="fill:none;stroke:#000000;stroke-width:1px;stroke-linecap:butt;stroke-linejoin:miter;stroke-opacity:1" d="M1290.2515524896626,3673.349580946622 C1290.2515524896626,3687.2387985302967 1290.2515524896626,3701.128016113971 1290.2515524896626,3715.017233697645 C1297.1199865443418,3715.017233697645 1303.9884444408794,3715.017233697645 1310.8568784955585,3715.017233697645 C1310.8568784955585,3701.128016113971 1310.8568784955585,3687.2387985302967 1310.8568784955585,3673.349580946622 C1303.9884444408794,3673.349580946622 1297.1199865443418,3673.349580946622 1290.2515524896626,3673.349580946622 Z "/>
<path style="fill:none;stroke:#000000;stroke-width:1px;stroke-linecap:butt;stroke-linejoin:miter;stroke-opacity:1" d="M2352.40857934914,2160.4113688955554 C2372.4338806271544,2140.255295024955 2392.4591342214526,2120.099221154355 2412.484435499467,2099.943147283754 C2445.7745837769007,2094.7277884719088 2479.0647797380516,2089.512453501921 2512.354880331769,2084.297094690075 C2545.645076292919,2089.512453501921 2578.9351768866363,2094.7277884719088 2612.225372847787,2099.943147283754 C2632.250626442085,2120.099221154355 2652.275975403816,2140.255295024955 2672.3012289981143,2160.4113688955554 C2674.9679885288188,2218.0089830884826 2677.634748059523,2275.606579400016 2680.3015075902276,2333.2041876324784 C2661.8999799112385,2351.65265695016 2643.4984522322493,2370.1011232876094 2625.09692455326,2388.549592605291 C2587.5162431460963,2398.0527278320046 2549.9355617389324,2407.5558630587184 2512.354880331769,2417.0589953051995 C2474.774198924605,2407.5558630587184 2437.1935175174413,2398.0527278320046 2399.6128361102774,2388.549592605291 C2381.211308431288,2370.1011232876094 2362.8097330685823,2351.65265695016 2344.408205389593,2333.2041876324784 C2347.0750126040143,2275.606579400016 2349.7417721347188,2218.0089830884826 2352.40857934914,2160.4113688955554 Z "/>
<path style="fill:none;stroke:#000000;stroke-width:1px;stroke-linecap:butt;stroke-linejoin:miter;stroke-opacity:1" d="M2393.6903277822794,2187.877451877769 C2403.1328003808685,2166.8784610291236 2417.352990640984,2159.311460527267 2437.807350000343,2148.7408746420615 C2464.351969002456,2135.0229131263077 2482.4751191443384,2131.4173089008273 2512.354880331769,2131.4173089008273 C2542.2346415191996,2131.4173089008273 2560.3578870285146,2135.0229131263077 2586.902458346911,2148.7408746420615 C2607.356770022554,2159.311460527267 2621.5769125989523,2166.8784729500526 2631.0194328812586,2187.877451877769 C2648.566754462314,2226.900565709991 2646.3432627604802,2257.522953098673 2631.0194328812586,2297.471554224578 C2622.864372945285,2318.7313958642735 2611.7562604445566,2329.487301533544 2592.014057391586,2340.8333319379035 C2564.4733732348595,2356.661250226431 2544.119864935963,2357.395676784217 2512.354880331769,2357.3956748284395 C2480.5899910950075,2357.395672872662 2460.236387428678,2356.66123532527 2432.6957509556682,2340.8333319379035 C2412.953595586414,2329.487301533544 2401.8453400345356,2318.73140480497 2393.6903277822794,2297.471554224578 C2378.3664979030573,2257.522953098673 2376.1430062012237,2226.900553789062 2393.6903277822794,2187.877451877769 Z "/>
<path style="fill:none;stroke:#000000;stroke-width:1px;stroke-linecap:butt;stroke-linejoin:miter;stroke-opacity:1" d="M2413.4851259745838,3162.2631094026174 C2413.0258364169586,3073.478890245157 2412.5664991756166,2984.6946710876964 2412.1072096179914,2895.9104519302355 C2427.123717944172,2861.0434985145594 2442.1402739540686,2826.1765927826 2457.156782280249,2791.3096393669234 C2476.1522583323467,2791.3096393669234 2495.147639017011,2791.3096393669234 2514.1431150691087,2791.3096393669234 C2531.748420049466,2817.583128756842 2549.353820397256,2843.856570463044 2566.9591253776134,2870.130059852963 C2584.58312237485,2875.165555686054 2602.207024004654,2880.201003835429 2619.8310210018917,2885.23649966852 C2637.4456719906884,2880.201003835429 2655.0604183469186,2875.165555686054 2672.675069335716,2870.130059852963 C2690.289720324513,2843.856570463044 2707.90437131331,2817.583128756842 2725.5190223021073,2791.3096393669234 C2744.513163210142,2791.3096393669234 2763.5072087507438,2791.3096393669234 2782.5013496587785,2791.3096393669234 C2797.5179056686757,2826.1765927826 2812.5343663111394,2861.0434985145594 2827.550922321036,2895.9104519302355 C2827.091632763411,2984.6946710876964 2826.6323432057857,3073.478890245157 2826.1730536481605,3162.2631094026174 C2813.0976063708017,3175.381090555122 2800.022159093443,3188.4991670750596 2786.9467118160837,3201.617148227564 C2772.121367509476,3201.617148227564 2757.2960232028677,3201.617148227564 2742.4706788962594,3201.617148227564 C2719.646009671868,3188.4991670750596 2696.8213404474764,3175.381090555122 2673.9966712230853,3162.2631094026174 C2655.9407551215118,3162.2631094026174 2637.884934387371,3162.2631094026174 2619.8290182857972,3162.2631094026174 C2601.7731975516567,3162.2631094026174 2583.7172814500827,3162.2631094026174 2565.6614607159427,3162.2631094026174 C2542.836791491551,3175.381090555122 2520.0121222671596,3188.4991670750596 2497.187453042768,3201.617148227564 C2482.36210873616,3201.617148227564 2467.536764429552,3201.617148227564 2452.7114201229433,3201.617148227564 C2439.6359728455845,3188.4991670750596 2426.5605732519425,3175.381090555122 2413.4851259745838,3162.2631094026174 Z "/>
<path style="fill:none;stroke:#000000;stroke-width:1px;stroke-linecap:butt;stroke-linejoin:miter;stroke-opacity:1" d="M2742.6049562420103,3031.9324495015553 C2742.6049562420103,3011.098766177193 2742.6049562420103,2990.2650351691145 2742.6049562420103,2969.4313518447525 C2744.6645113264112,2969.4313518447525 2746.7241617782447,2969.4313518447525 2748.7837168626456,2969.4313518447525 C2748.7837168626456,2990.2650351691145 2748.7837168626456,3011.098766177193 2748.7837168626456,3031.9324495015553 C2746.7241617782447,3031.9324495015553 2744.6645113264112,3031.9324495015553 2742.6049562420103,3031.9324495015553 Z "/>
<path style="fill:none;stroke:#000000;stroke-width:1px;stroke-linecap:butt;stroke-linejoin:miter;stroke-opacity:1" d="M2490.4145533141586,3031.9324495015553 C2490.4145533141586,3011.098766177193 2490.4145533141586,2990.2650351691145 2490.4145533141586,2969.4313518447525 C2494.580679627459,2969.4313518447525 2498.746901308193,2969.4313518447525 2502.913027621494,2969.4313518447525 C2502.913027621494,2990.2650351691145 2502.913027621494,3011.098766177193 2502.913027621494,3031.9324495015553 C2498.746901308193,3031.9324495015553 2494.580679627459,3031.9324495015553 2490.4145533141586,3031.9324495015553 Z "/>
<path style="fill:none;stroke:#000000;stroke-width:1px;stroke-linecap:butt;stroke-linejoin:miter;stroke-opacity:1" d="M2709.449705198642,3103.195239336036 C2696.3161791545485,3103.195239336036 2683.1827484778883,3103.195239336036 2670.049222433795,3103.195239336036 C2670.049222433795,3101.1356365679194 2670.049222433795,3099.0760337998017 2670.049222433795,3097.0164310316845 C2683.1827484778883,3097.0164310316845 2696.3161791545485,3097.0164310316845 2709.449705198642,3097.0164310316845 C2709.449705198642,3099.0760337998017 2709.449705198642,3101.1356365679194 2709.449705198642,3103.195239336036 Z "/>
<path style="fill:none;stroke:#000000;stroke-width:1px;stroke-linecap:butt;stroke-linejoin:miter;stroke-opacity:1" d="M2709.449705198642,2908.62817596618 C2696.3161791545485,2908.62817596618 2683.1827484778883,2908.62817596618 2670.049222433795,2908.62817596618 C2670.049222433795,2906.568573198063 2670.049222433795,2904.5089704299457 2670.049222433795,2902.4493676618285 C2683.1827484778883,2902.4493676618285 2696.3161791545485,2902.4493676618285 2709.449705198642,2902.4493676618285 C2709.449705198642,2904.5089704299457 2709.449705198642,2906.568573198063 2709.449705198642,2908.62817596618 Z "/>
<path style="fill:none;stroke:#000000;stroke-width:1px;stroke-linecap:butt;stroke-linejoin:miter;stroke-opacity:1" d="M2575.4565543982776,2908.62817596618 C2562.3390500829387,2908.62817596618 2549.2214504001663,2908.62817596618 2536.1039460848274,2908.62817596618 C2536.1039460848274,2906.568573198063 2536.1039460848274,2904.5089704299457 2536.1039460848274,2902.4493676618285 C2549.2214504001663,2902.4493676618285 2562.3390500829387,2902.4493676618285 2575.4565543982776,2902.4493676618285 C2575.4565543982776,2904.5089704299457 2575.4565543982776,2906.568573198063 2575.4565543982776,2908.62817596618 Z "/>
<path style="fill:none;stroke:#000000;stroke-width:1px;stroke-linecap:butt;stroke-linejoin:miter;stroke-opacity:1" d="M2575.4565543982776,3103.195239336036 C2562.3390500829387,3103.195239336036 2549.2214504001663,3103.195239336036 2536.1039460848274,3103.195239336036 C2536.1039460848274,3101.1356365679194 2536.1039460848274,3099.0760337998017 2536.1039460848274,3097.0164310316845 C2549.2214504001663,3097.0164310316845 2562.3390500829387,3097.0164310316845 2575.4565543982776,3097.0164310316845 C2575.4565543982776,3099.0760337998017 2575.4565543982776,3101.1356365679194 2575.4565543982776,3103.195239336036 Z "/>
<path style="fill:none;stroke:#000000;stroke-width:1px;stroke-linecap:butt;stroke-linejoin:miter;stroke-opacity:1" d="M2484.3470864879064,2845.34673428835 C2483.646898794367,2846.0468742981725 2482.5110726666026,2846.0468742981725 2481.8108849730634,2845.34673428835 C2481.1684899439597,2844.7043392592464 2481.1684899439597,2843.662068583315 2481.8108849730634,2843.0196735542113 C2482.5110726666026,2842.319533544389 2483.646898794367,2842.319533544389 2484.3470864879064,2843.0196735542113 C2484.98948151701,2843.662068583315 2484.98948151701,2844.7043392592464 2484.3470864879064,2845.34673428835 Z "/>
<path style="fill:none;stroke:#000000;stroke-width:1px;stroke-linecap:butt;stroke-linejoin:miter;stroke-opacity:1" d="M2755.311045451121,2845.34673428835 C2756.0112331446603,2846.0468742981725 2757.1470592724254,2846.0468742981725 2757.847246965964,2845.34673428835 C2758.489641995068,2844.7043392592464 2758.489641995068,2843.662068583315 2757.847246965964,2843.0196735542113 C2757.1470592724254,2842.319533544389 2756.0112331446603,2842.319533544389 2755.311045451121,2843.0196735542113 C2754.6686504220174,2843.662068583315 2754.6686504220174,2844.7043392592464 2755.311045451121,2845.34673428835 Z "/>
<path style="fill:none;stroke:#000000;stroke-width:1px;stroke-linecap:butt;stroke-linejoin:miter;stroke-opacity:1" d="M2755.311045451121,3156.136896237599 C2756.0112331446603,3156.8370839311383 2757.1470592724254,3156.8370839311383 2757.847246965964,3156.136896237599 C2758.489641995068,3155.494453524779 2758.489641995068,3154.4522305325645 2757.847246965964,3153.809787819744 C2757.1470592724254,3153.1096478099216 2756.0112331446603,3153.1096478099216 2755.311045451121,3153.809787819744 C2754.6686504220174,3154.4522305325645 2754.6686504220174,3155.494453524779 2755.311045451121,3156.136896237599 Z "/>
<path style="fill:none;stroke:#000000;stroke-width:1px;stroke-linecap:butt;stroke-linejoin:miter;stroke-opacity:1" d="M2484.3470864879064,3156.136896237599 C2483.646898794367,3156.8370839311383 2482.5110726666026,3156.8370839311383 2481.8108849730634,3156.136896237599 C2481.1684899439597,3155.494453524779 2481.1684899439597,3154.4522305325645 2481.8108849730634,3153.809787819744 C2482.5110726666026,3153.1096478099216 2483.646898794367,3153.1096478099216 2484.3470864879064,3153.809787819744 C2484.98948151701,3154.4522305325645 2484.98948151701,3155.494453524779 2484.3470864879064,3156.136896237599 Z "/>
</svg>