<?xml version="1.0" standalone="no"?>
<!DOCTYPE svg PUBLIC "-//W3C//DTD SVG 20010904//EN" "http://www.w3.org/TR/2001/REC-SVG-20010904/DTD/svg10.dtd">
<svg width="1203.2010734558262mm" height="3311.811687228257mm"  viewBox="0 0 1203.2010734558262 3311.811687228257" xmlns="http://www.w3.org/2000/svg">
    <title>Bezier Curve : ll_mm5_LegsAndTorso_R</title>
    <desc>This is an exported Bezier xml_path from Blender, using the ExportScript by maybites.ch and Craxic</desc>
<path style="fill:none;stroke:#000000;stroke-width:1px;stroke-linecap:butt;stroke-linejoin:miter;stroke-opacity:1" d="M5.85479594951795,2213.2594947154953 C38.26351072687902,2188.2221699138518 70.67217782052353,2163.184857033137 103.08086875602635,2138.1475441524226 C117.09666276523194,2135.5330936587525 131.11243293257928,2132.9186670069407 145.12822694178493,2130.30421651327 C145.12822694178493,2138.81559302102 145.12825078364318,2147.32696952877 145.12825078364318,2155.838357957449 C146.87287876221586,2155.838357957449 148.6175305826468,2155.838357957449 150.36215856121942,2155.838357957449 C150.36215856121942,2146.9338411278313 150.36215856121942,2138.029336219143 150.36215856121942,2129.124807468596 C212.4728219470676,2117.3492421457267 274.58348533291576,2105.573676822857 336.6941725606221,2093.7981114999875 C336.6941725606221,2103.283618652746 336.6941725606221,2112.7691258055047 336.6941725606221,2122.2546329582638 C338.372257912776,2122.2546329582638 340.05035518585896,2122.2546329582638 341.7284405380128,2122.2546329582638 C341.7284405380128,2112.371753553795 341.728452458942,2102.488850307468 341.728452458942,2092.6059709029996 C468.12236856507536,2107.291578078314 594.5162846712087,2121.9771852536287 720.9102007773421,2136.6627924289432 C774.1134505477935,2161.149322620939 827.3166764763864,2185.6358408920055 880.5199262468378,2210.1223710840013 C901.9013047392733,2167.901622984007 959.0558179963374,2157.6471324556846 959.0558179963374,2154.0011758850897 C959.0558179963374,2280.1725520861737 959.0558179963374,2406.3439282872573 959.0558179963374,2532.5153044883414 C934.9743967390588,2530.5635146033005 910.8929754817801,2528.6117127973303 886.8115542245015,2526.6599229122894 C868.2270402833251,2544.7198444460514 849.6425025002903,2562.779765979814 831.0579885591139,2580.839687513576 C824.3016589219988,2574.1497812935886 817.5453292848836,2567.4598989154592 810.7889996477685,2560.7699926954715 C809.5996247063393,2561.971169356742 808.4102736067684,2563.172322176154 807.2208986653394,2564.3734988374244 C809.8902331167367,2567.0165834028717 812.559567568134,2569.6596441264605 815.2289020195312,2572.3027286919073 C791.9887168892899,2584.8609745379144 768.7485079171904,2597.419220383921 745.5083227869491,2609.9774662299283 C745.5083227869491,2600.3440918722076 745.5083227869491,2590.7106936726286 745.5083227869491,2581.0773193149075 C743.8157892686863,2581.0773193149075 742.1232557504236,2581.0773193149075 740.430722232161,2581.0773193149075 C740.430722232161,2591.2005008088336 740.430722232161,2601.323658460901 740.430722232161,2611.446839954827 C651.1247120856324,2625.507170555272 562.1797868825337,2639.5675249975757 472.5127022233881,2653.627855598021 C472.51270073327197,2643.9600059132486 472.51269887062676,2634.292156228476 472.51269738051064,2624.6243065437034 C470.7903976747326,2624.6243065437034 469.0680990865416,2624.6243065437034 467.3457997532926,2624.6243065437034 C467.34579602800227,2634.292156228476 467.34579304777,2643.9600059132486 467.3457893224796,2653.627855598021 C361.49284036102875,2647.6651498969873 256.362011367547,2641.7024680378117 150.43869092625147,2635.739762336778 C150.43871476810972,2626.8512314731274 150.43871476810972,2617.962724451335 150.43873860996803,2609.0741935876845 C148.64301752913252,2609.0741935876845 146.84729644829702,2609.0741935876845 145.05157536746157,2609.0741935876845 C145.05157536746157,2617.962724451335 145.05157536746157,2626.8512314731274 145.05157536746157,2635.739762336778 C122.17860253822437,2624.8417204492257 99.88088606521546,2613.943702403532 77.29554141409244,2603.0456605159798 C53.523396742232876,2570.921879786749 10.38317545730365,2535.528152433627 5.9790597147973585,2506.674318328287 C5.9790597147973585,2498.7366722978363 5.9790597147973585,2490.7990143464567 5.9790597147973585,2482.861368316006 C28.176211229642718,2482.861368316006 50.373315060771574,2482.861368316006 72.57046657561693,2482.861368316006 C87.68200854884333,2510.656242444629 102.79357436392797,2538.4511046523226 117.90511633715437,2566.2459668600163 C217.6157253516447,2577.1700440567947 317.3263343661351,2588.0941450954306 417.03694934109,2599.018222292209 C524.6387842879881,2585.6204807748177 632.2406132744217,2572.222739257427 739.8424482213197,2558.824997740036 C771.0962633843035,2532.603471680207 802.3501023891456,2506.381945620378 833.6039175521294,2480.1604195605487 C852.9861085452922,2480.1604195605487 872.3682995384551,2480.1604195605487 891.7504905316179,2480.1604195605487 C891.7504905316179,2478.482882571135 891.7504905316179,2476.805345581721 891.7504905316179,2475.1278085923077 C875.2624388714371,2475.1278085923077 858.7743872112562,2475.1278085923077 842.2863355510754,2475.1278085923077 C854.8824899517243,2464.91448103228 867.4786443523733,2454.701153472253 880.0747987530223,2444.4878259122256 C880.0747987530223,2383.491632309601 880.0747987530223,2322.495444667441 880.0747987530223,2261.4992510648167 C883.96579002194,2261.4992510648167 887.8567812908578,2261.4992510648167 891.7477725597756,2261.4992510648167 C891.7477725597756,2259.7599517415665 891.7477725597756,2258.020652418316 891.7477725597756,2256.2813530950657 C883.2625028868265,2256.2813530950657 874.7772332138773,2256.2813530950657 866.2919635409281,2256.2813530950657 C819.7969543794707,2235.023487349374 773.3019452180131,2213.765621603683 726.8069360565555,2192.5077558579915 C600.3047540720388,2180.3615092437403 473.80257208752215,2168.21525070856 347.3003901030055,2156.0690040943086 C270.83530679500785,2170.6006047861574 194.3702234870102,2185.1321935570772 117.90511633715437,2199.6637942489265 C102.79357436392797,2217.5735955221203 87.68200854884333,2235.483384874385 72.57046657561693,2253.3931801871145 C50.33192559482279,2253.3931801871145 28.09333693031209,2253.3931801871145 5.85479594951795,2253.3931801871145 C5.85479594951795,2240.015281056265 5.85479594951795,2226.6373878858803 5.85479594951795,2213.2594947154953 Z "/>
<path style="fill:none;stroke:#000000;stroke-width:1px;stroke-linecap:butt;stroke-linejoin:miter;stroke-opacity:1" d="M139.15560302771263,3384.069508290006 C139.15560302771263,3403.9171877239432 139.15560302771263,3423.764771790447 139.15560302771263,3443.612451224384 C151.28095225319424,3443.612451224384 163.40627763681755,3443.612451224384 175.53162686229916,3443.612451224384 C175.53162686229916,3423.764771790447 175.53162686229916,3403.9171877239432 175.53162686229916,3384.069508290006 C163.40627763681755,3384.069508290006 151.28095225319424,3384.069508290006 139.15560302771263,3384.069508290006 Z "/>
<path style="fill:none;stroke:#000000;stroke-width:1px;stroke-linecap:butt;stroke-linejoin:miter;stroke-opacity:1" d="M147.01695511171386,3392.0116127479523 C147.01695511171386,3405.900830331627 147.01695511171386,3419.7900479153013 147.01695511171386,3433.6792654989754 C153.885389166393,3433.6792654989754 160.75384706293045,3433.6792654989754 167.62228111760965,3433.6792654989754 C167.62228111760965,3419.7900479153013 167.62228111760965,3405.900830331627 167.62228111760965,3392.0116127479523 C160.75384706293045,3392.0116127479523 153.885389166393,3392.0116127479523 147.01695511171386,3392.0116127479523 Z "/>
<path style="fill:none;stroke:#000000;stroke-width:1px;stroke-linecap:butt;stroke-linejoin:miter;stroke-opacity:1" d="M142.3867708691347,3545.6281387796926 C142.3867708691347,3565.4758182136293 142.3867708691347,3585.3234022801335 142.3867708691347,3605.1710817140706 C154.5121200946163,3605.1710817140706 166.6374454782396,3605.1710817140706 178.76279470372123,3605.1710817140706 C178.76279470372123,3585.3234022801335 178.76279470372123,3565.4758182136293 178.76279470372123,3545.6281387796926 C166.6374454782396,3545.6281387796926 154.5121200946163,3545.6281387796926 142.3867708691347,3545.6281387796926 Z "/>
<path style="fill:none;stroke:#000000;stroke-width:1px;stroke-linecap:butt;stroke-linejoin:miter;stroke-opacity:1" d="M150.24812295313592,3553.570243237639 C150.24812295313592,3567.459460821313 150.24812295313592,3581.3486784049874 150.24812295313592,3595.237895988662 C157.11655700781512,3595.237895988662 163.9850149043525,3595.237895988662 170.8534489590317,3595.237895988662 C170.8534489590317,3581.3486784049874 170.8534489590317,3567.459460821313 170.8534489590317,3553.570243237639 C163.9850149043525,3553.570243237639 157.11655700781512,3553.570243237639 150.24812295313592,3553.570243237639 Z "/>
<path style="fill:none;stroke:#000000;stroke-width:1px;stroke-linecap:butt;stroke-linejoin:miter;stroke-opacity:1" d="M319.7532448026895,4210.248071321241 C327.8893743031997,4176.443368058723 336.02550380370997,4142.638664796204 344.1616333042202,4108.833961533685 C452.58771705414154,4092.476920884673 561.0137888831338,4076.1196895007947 669.4398726330551,4059.762648851782 C762.4412635223628,4067.745856673378 855.4426305698123,4075.729064494974 948.4439976172616,4083.7122723165694 C1005.5652753239037,4143.034630378276 1062.6865530305458,4202.356988439982 1119.807830737188,4261.679346501689 C1119.807830737188,4314.534648192614 1119.807830737188,4367.390140618407 1119.807830737188,4420.245442309331 C1062.6866007142626,4479.567800371038 1005.5653230076203,4538.890349167611 948.4440929846947,4598.212707229317 C855.4426782535288,4606.195915050913 762.4412873642211,4614.179122872509 669.4398726330551,4622.162330694105 C561.0137888831338,4605.805290045092 452.58771705414154,4589.44824939608 344.1616333042202,4573.091208747068 C336.02550380370997,4539.28650548455 327.8893743031997,4505.481611487165 319.7532448026895,4471.6769082246465 C319.7532448026895,4384.533962590178 319.7532448026895,4297.391016955709 319.7532448026895,4210.248071321241 Z "/>
<path style="fill:none;stroke:#000000;stroke-width:1px;stroke-linecap:butt;stroke-linejoin:miter;stroke-opacity:1" d="M268.04654847555906,4473.2472283774405 C269.73335994783804,4473.2472283774405 271.4201714201171,4473.2472283774405 273.10698289239605,4473.2472283774405 C273.10698289239605,4385.057339062821 273.10698289239605,4296.867640483067 273.10698289239605,4208.677751168447 C271.4201714201171,4208.677751168447 269.73335994783804,4208.677751168447 268.04654847555906,4208.677751168447 C268.04654847555906,4296.867640483067 268.04654847555906,4385.057339062821 268.04654847555906,4473.2472283774405 Z "/>
<path style="fill:none;stroke:#000000;stroke-width:1px;stroke-linecap:butt;stroke-linejoin:miter;stroke-opacity:1" d="M1207.9318211555624,4473.845754387336 C1185.4959172720469,4473.845754387336 1163.059965704815,4473.845754387336 1140.6240618212998,4473.845754387336 C1140.6239187701503,4475.536428240654 1140.623823402717,4477.2269113591055 1140.6236803515676,4478.917585212424 C1163.0597272862324,4478.917585212424 1185.4957742208974,4478.917585212424 1207.9318211555624,4478.917585212424 C1207.9318688392789,4501.459013160622 1207.9318688392789,4524.000631843686 1207.9319165229954,4546.542059791884 C1186.3849324830483,4543.765341610859 1164.8379961268176,4540.988432694969 1143.2910120868705,4538.211714513944 C1097.2551494318886,4574.340140650444 1051.21923909319,4610.4685667869435 1005.1833764382081,4646.596992923443 C998.5223427085799,4639.199150405981 991.8613566626682,4631.801307888518 985.2003229330401,4624.403465371055 C983.9201105116197,4625.556076167039 982.6398980901993,4626.708877697889 981.3596856687789,4627.8614884938725 C987.9381312013757,4635.16758754073 994.516624417689,4642.4736865875875 1001.0950699502857,4649.779785634445 C990.4259814276564,4658.1787954641895 979.7568929050271,4666.577805293935 969.087804382398,4674.97681512368 C949.7515328082543,4676.8893136263 930.4152135503941,4678.801812128919 911.0789419762505,4680.714310631538 C903.4028649728299,4672.189225055286 895.7267402856928,4663.664139479033 888.0506632822724,4655.139053902782 C886.7704985445685,4656.291664698765 885.490286123148,4657.4444662296155 884.2101213854442,4658.597077025599 C890.7885669180409,4665.9031760724565 897.3670124506377,4673.209275119314 903.9454579832345,4680.515374166172 C824.7033465500547,4685.212220244461 759.0631106247343,4699.521340635906 666.2191475255534,4694.606103135906 C529.6347682014691,4687.375344361167 435.83262466045875,4656.246842005226 320.63935130698235,4637.067306807319 C325.516239177963,4626.807869093407 330.3931389698727,4616.548431379494 335.27002684085335,4606.288993665581 C333.61993183030313,4605.536544618724 331.96983681975286,4604.7840955718675 330.3197418092026,4604.031646525011 C325.442853938222,4614.291084238923 320.56595414631227,4624.550521952836 315.68906627533164,4634.809959666749 C295.369663754684,4592.381560902192 275.05026123403627,4549.952971402769 254.73087063431774,4507.524572638213 C254.73084679245946,4396.483120483078 254.73084679245946,4285.441859062809 254.73082295060118,4174.400406907675 C275.05021355031977,4131.972008143118 295.3696160709674,4089.543609378561 315.6890185916151,4047.1152106140044 C320.5659064625957,4057.374648327917 325.44280625450546,4067.6338953069635 330.3196941254861,4077.8933330208765 C331.9697891360363,4077.1408839740193 333.61988414658657,4076.3884349271625 335.26997915713685,4075.6359858803057 C330.39309128615616,4065.376548166393 325.5161914942464,4055.11711045248 320.63930362326585,4044.8576727385675 C435.83257697674225,4025.678137540661 529.6347205177526,3994.54963518472 666.2190998418367,3987.3188764099814 C759.0630629410178,3982.4036389099806 824.7032988663382,3996.7127593014256 903.945410299518,4001.4096053797152 C897.3669647669212,4008.7157044265728 890.7884715506079,4016.0218034734303 884.2100260180111,4023.3279025202883 C885.4902384394316,4024.4805133162718 886.7704031771353,4025.6333148471217 888.0506155985557,4026.7859256431057 C895.7267402856928,4018.2608400668532 903.4028172891134,4009.735563755735 911.0789419762505,4001.2104781794824 C930.4152135503941,4003.1229766821016 949.7514851245378,4005.0356659195877 969.0877566986813,4006.948164422207 C979.7568452213106,4015.347174251952 990.4259337439399,4023.746184081697 1001.0950222665692,4032.1451939114413 C994.5165767339724,4039.4512929582993 987.9381312013757,4046.757392005157 981.3596856687789,4054.0634910520143 C982.6398980901993,4055.2161018479983 983.920062827903,4056.3689033788482 985.2002752493235,4057.521514174832 C991.8613089789517,4050.123671657369 998.5222950248634,4042.725829139906 1005.1833287544916,4035.327986622443 C1051.21923909319,4071.456412758943 1097.255101748172,4107.584838895444 1143.2910120868705,4143.713265031944 C1164.8379484431011,4140.936356116052 1186.3848847993318,4138.159637935028 1207.9318211555624,4135.382729019137 C1207.9318211555624,4157.907753768848 1207.9318211555624,4180.43277851856 1207.9318211555624,4202.957803268271 C1185.4957742208974,4202.957803268271 1163.0597272862324,4202.957803268271 1140.6236803515676,4202.957803268271 C1140.6237757190006,4204.681474253428 1140.6238710864336,4206.40495450372 1140.6239664538666,4208.128625488877 C1163.0599180210986,4208.128625488877 1185.4958695883306,4208.128625488877 1207.9318211555624,4208.128625488877 C1207.9318211555624,4296.700938210075 1207.9318211555624,4385.273441666139 1207.9318211555624,4473.845754387336 Z "/>
<path style="fill:none;stroke:#000000;stroke-width:1px;stroke-linecap:butt;stroke-linejoin:miter;stroke-opacity:1" d="M69.75326491925745,3405.167264036516 C77.88939441976765,3371.3625607739978 86.02550007841967,3337.557762144046 94.16162957892988,3303.753058881528 C202.5877014079221,3287.3960182325154 311.0137851578435,3271.03888221607 419.43986890776483,3254.6818415670577 C512.441253836608,3262.6650493886536 605.442626844522,3270.648257210249 698.4440177338297,3278.631465031845 C755.5652715986134,3337.9538230935514 812.6865493052555,3397.2762765226908 869.8078031700395,3456.598634584397 C869.8078031700395,3509.454031642756 869.8078031700395,3562.3093333336815 869.8078031700395,3615.1647303920404 C812.6865493052555,3674.4870884537468 755.56531928233,3733.809446515453 698.4440654175462,3793.1318045771595 C605.4426626073093,3801.1150123987554 512.4412717180016,3809.098315587784 419.43986890776483,3817.0815234093798 C311.0137851578435,3800.7244827603677 202.5877014079221,3784.367442111355 94.16162957892988,3768.010401462343 C86.02550007841967,3734.2056028323914 77.88939441976765,3700.400899569873 69.75326491925745,3666.5961009399216 C69.75326491925745,3579.453155305453 69.75326491925745,3492.3102096709845 69.75326491925745,3405.167264036516 Z "/>
<path style="fill:none;stroke:#000000;stroke-width:1px;stroke-linecap:butt;stroke-linejoin:miter;stroke-opacity:1" d="M18.046568592127016,3668.1663257252826 C19.733380064405992,3668.1663257252826 21.420191536685024,3668.1663257252826 23.107003008964057,3668.1663257252826 C23.107003008964057,3579.9765317780957 23.107003008964057,3491.786833198342 23.107003008964057,3403.597039251155 C21.420191536685024,3403.597039251155 19.733380064405992,3403.597039251155 18.046568592127016,3403.597039251155 C18.046568592127016,3491.786833198342 18.046568592127016,3579.9765317780957 18.046568592127016,3668.1663257252826 Z "/>
<path style="fill:none;stroke:#000000;stroke-width:1px;stroke-linecap:butt;stroke-linejoin:miter;stroke-opacity:1" d="M957.9318651139886,3668.764947102611 C935.4959135467567,3668.764947102611 913.0600096632413,3668.764947102611 890.6240580960095,3668.764947102611 C890.6239150448599,3670.455525588496 890.6238196774268,3672.146199441814 890.6236766262773,3673.8367779276987 C913.0597235609422,3673.8367779276987 935.4958181793237,3673.8367779276987 957.9318651139886,3673.8367779276987 C957.9318651139886,3696.37830124333 957.9319127977051,3718.919729191528 957.9319127977051,3741.4612525071593 C936.3849764414745,3738.6844389587013 914.8379924015273,3735.907625410244 893.2910560452967,3733.1308118617862 C847.2551695484565,3769.259237998286 801.2192592097581,3805.387664134786 755.1833727129178,3841.516090271286 C748.5223389832896,3834.118247753823 741.8613290955197,3826.720500603793 735.2002953658914,3819.32265808633 C733.9201067863294,3820.475364249747 732.639894364909,3821.6279750457306 731.3597057853467,3822.7806812091476 C737.9381513179435,3830.086780256005 744.5166206923986,3837.392879302863 751.0950662249954,3844.6989783497206 C740.4259777023661,3853.0979881794656 729.7568891797368,3861.49699800921 719.0878006571077,3869.896007838955 C699.751529082964,3871.8085063415747 680.4152336669621,3873.7211002116273 661.0789620928184,3875.6335987142465 C653.4028612475396,3867.1084177705616 645.7267604022609,3858.583332194309 638.050659556982,3850.0581512506233 C636.7704709774198,3851.21085741404 635.4902823978578,3852.363468210024 634.2100938182956,3853.516174373441 C640.7885512718215,3860.8222734202986 647.3669968044182,3868.1283724671566 653.9454542579442,3875.434471514014 C574.703348785229,3880.1314129597363 509.06311882037323,3894.4404379837483 416.2191557211921,3889.525295851181 C279.63478831803707,3882.294441709009 185.83264477702676,3851.166130087934 70.6393714235503,3831.9864995225944 C75.51627121546005,3821.727061808682 80.39314716551155,3811.4676240947692 85.27002311556305,3801.2081863808567 C83.61992810501283,3800.4557373339994 81.96983309446256,3799.7032882871426 80.31973808391228,3798.950839240286 C75.44283829200253,3809.2102769541984 70.56598618380934,3819.469714668111 65.6890863918996,3829.729152382024 C45.369671950322754,3787.3006582500343 25.050305192462474,3744.8722594854776 4.730890750885692,3702.443765353488 C4.730890750885692,3591.402408565786 4.7308430671691895,3480.3610517780844 4.7308430671691895,3369.3196949903827 C25.050257508745972,3326.891200858393 45.36962426660625,3284.462802093836 65.68903870818303,3242.034307961847 C70.56593850009278,3252.293745675759 75.44279060828603,3262.553088022239 80.31969040019578,3272.8125257361517 C81.969785410746,3272.060076689295 83.61988042129627,3271.307627642438 85.26997543184655,3270.555178595581 C80.39309948179505,3260.2957408816683 75.51622353174355,3250.0363985351887 70.6393237398338,3239.7769608212757 C185.8325970933102,3220.597330255936 279.63470487153313,3189.4689232674286 416.21909611654644,3182.2380691252565 C509.06306517619214,3177.322831625256 574.7033011015125,3191.6319520167012 653.9454065742277,3196.3288934624234 C647.3669491207017,3203.634992509281 640.788503588105,3210.941091556139 634.210046134579,3218.2471906029964 C635.4902347141413,3219.3998967664133 636.7704232937033,3220.5525075623973 638.0506118732654,3221.7052137258142 C645.7267127185443,3213.1800327821284 653.4028135638231,3204.6548518384434 661.0789144091019,3196.1296708947575 C680.4151859832455,3198.04226476481 699.7514813992475,3199.95476326743 719.087752973391,3201.8673571374825 C729.7568414960203,3210.2663669672274 740.4259538605079,3218.665281429539 751.0950423831371,3227.064291259284 C744.5165968505403,3234.3703903061414 737.9381274760854,3241.676489352999 731.3596819434886,3248.9825883998565 C732.6398705230506,3250.1352945632734 733.920082944471,3251.2879053592574 735.2002715240332,3252.4406115226743 C741.8612814118031,3245.042769005211 748.5223151414314,3237.6450218551813 755.1833250292013,3230.2471793377185 C801.2192115260416,3266.3756054742184 847.25512186474,3302.5040316107184 893.2910083615802,3338.6324577472187 C914.8379447178108,3335.8556441987607 936.384928757758,3333.0788306503027 957.9318651139886,3330.302017101845 C957.9318651139886,3352.8270418515567 957.9318651139886,3375.3520666012682 957.9318651139886,3397.8770913509798 C935.4958181793237,3397.8770913509798 913.0597235609422,3397.8770913509798 890.6236766262773,3397.8770913509798 C890.6237719937103,3399.600666968704 890.6239150448599,3401.324242586428 890.6240104122929,3403.0478182041525 C913.0599619795248,3403.0478182041525 935.4959135467567,3403.0478182041525 957.9318651139886,3403.0478182041525 C957.9318651139886,3491.6202262927827 957.9318651139886,3580.1925390139804 957.9318651139886,3668.764947102611 Z "/>
<path style="fill:none;stroke:#000000;stroke-width:1px;stroke-linecap:butt;stroke-linejoin:miter;stroke-opacity:1" d="M167.83351998184133,1504.4370072893562 C200.24221091734415,1479.3997182505 232.65087801098866,1454.3624292116438 265.0595689464915,1429.3251401727875 C279.0753629556971,1426.710641995401 293.0911450439736,1424.096239185447 307.1069390531792,1421.4817410080605 C307.1069509741083,1429.993093673952 307.1069509741083,1438.5045417072765 307.10696289503744,1447.015894373168 C308.85160279453925,1447.015894373168 310.59623077311187,1447.015894373168 312.34087067261373,1447.015894373168 C312.34087067261373,1438.111341780763 312.34087067261373,1429.206884555791 312.34087067261373,1420.3023319633862 C374.45154597939097,1408.5267427986585 436.56220936523914,1396.7512490013637 498.6728846720164,1384.975659836636 C498.6728846720164,1394.461190831253 498.6728846720164,1403.9466264584366 498.6728846720164,1413.4321574530536 C500.35097449451865,1413.4321574530536 502.0290628269048,1413.4321574530536 503.7071526494071,1413.4321574530536 C503.7071556296394,1403.5493257323017 503.70716159010396,1393.6663986441165 503.7071645703362,1383.7835669233646 C630.1010806764696,1398.4691979405375 756.4949848616739,1413.1547335902771 882.8889009678072,1427.8403646074498 C936.0921507382585,1452.3269067203746 989.2954005087099,1476.8133534658664 1042.4986502791612,1501.2998955787912 C1063.8800287715967,1459.079207083443 1121.0345420286608,1448.8247284760496 1121.0345420286608,1445.1787361426673 C1121.0345420286608,1571.3501361856092 1121.0345420286608,1697.5214408611184 1121.0345420286608,1823.6928409040606 C1096.9531207713821,1821.7410510190196 1072.8716995141035,1819.7892611339787 1048.7902782568249,1817.8374712489376 C1030.2057404737902,1835.8973927826999 1011.621250374472,1853.957314316462 993.0367125914373,1872.0172358502243 C986.2803591124639,1865.327353472095 979.5240533172071,1858.637423410249 972.7676998382336,1851.9475410321197 C971.5783248968045,1853.1486938515318 970.3889976390919,1854.3498943546606 969.1996226976628,1855.551047174073 C971.8689571490601,1858.1941078976618 974.5382916004573,1860.8372163049671 977.2076260518546,1863.4802770285557 C953.9674409216133,1876.038546716421 930.7272081076555,1888.5967687205698 907.4870229774142,1901.1550384084348 C907.4870229774142,1891.5216402088558 907.4870229774142,1881.888289692993 907.4870229774142,1872.254891493414 C905.7944894591515,1872.254891493414 904.1019559408887,1872.254891493414 902.4094224226261,1872.254891493414 C902.4094224226261,1882.3780491454818 902.4094224226261,1892.5012067975492 902.4094224226261,1902.6243644496167 C813.1034003551683,1916.6847188919205 724.1584870729987,1930.7450733342241 634.4914158248985,1944.8053800928112 C634.4914158248985,1935.1375542498968 634.4914039039694,1925.4696807232658 634.4914039039694,1915.8018548803516 C632.7691038256623,1915.8018548803516 631.0468156682844,1915.8018548803516 629.3245155899772,1915.8018548803516 C629.3245155899772,1925.4696807232658 629.3245036690481,1935.1375542498968 629.3245036690481,1944.8053800928112 C523.471552472423,1938.8427220754938 418.3407234789412,1932.88001637446 312.4174030376457,1926.917310673426 C312.41741495857485,1918.0287798097756 312.4174388004331,1909.140248946125 312.41745072136223,1900.2517180824743 C310.6217296405268,1900.2517180824743 308.82600855969133,1900.2517180824743 307.0302874788558,1900.2517180824743 C307.0302874788558,1909.140248946125 307.0302874788558,1918.0287798097756 307.0302874788558,1926.917310673426 C284.1573146496187,1916.0192926277323 261.85961009753885,1905.1212268983218 239.2742654464158,1894.223208852628 C215.502096932698,1862.0994519652554 172.36189948962704,1826.7056888493462 167.95778374712074,1797.8518905067933 C167.95778374712074,1789.9142206344845 167.95778374712074,1781.9765984458923 167.95778374712074,1774.0389285735835 C190.15491142010785,1774.0389285735835 212.3520629349532,1774.0389285735835 234.5491906079403,1774.0389285735835 C249.66073258116668,1801.8338146231354 264.7722745543931,1829.628652988971 279.88382844854857,1857.4235390385231 C379.59443746303896,1868.3476400771592 479.30505839845847,1879.2716934320792 579.0156674129488,1890.1957944707153 C686.6175023598469,1876.7980529533245 794.2193134648868,1863.4002637522171 901.8211484117849,1850.002522234826 C933.0749635747686,1823.7810080959262 964.328826421469,1797.5594939570262 995.5826415844527,1771.3379798181263 C1014.9648325776155,1771.3379798181263 1034.3470235707784,1771.3379798181263 1053.7292145639412,1771.3379798181263 C1053.7292145639412,1769.6604189868542 1053.7292145639412,1767.9829058392988 1053.7292145639412,1766.3053450080267 C1037.2411390619022,1766.3053450080267 1020.7531112435795,1766.3053450080267 1004.2650357415405,1766.3053450080267 C1016.8612139840477,1756.0920174479993 1029.4573445428384,1745.878689887972 1042.0535227853456,1735.6653623279446 C1042.0535227853456,1674.6691627648556 1042.0535227853456,1613.673010885483 1042.0535227853456,1552.6768113223943 C1045.9445140542634,1552.6768113223943 1049.8355053231812,1552.6768113223943 1053.726496592099,1552.6768113223943 C1053.726496592099,1550.9375000782147 1053.726496592099,1549.1981888340351 1053.726496592099,1547.4588775898558 C1045.24122691915,1547.4588775898558 1036.7559572462008,1547.4588775898558 1028.2706875732515,1547.4588775898558 C981.7756784117939,1526.2009999232353 935.2806692503365,1504.9432176240477 888.7856600888789,1483.685339957427 C762.2834781043622,1471.5390575803885 635.7812841989164,1459.3928705707829 509.2791022143997,1447.2465881937442 C432.814006985473,1461.7782008065224 356.34892367747534,1476.3097180518675 279.88382844854857,1490.8413306646457 C264.7722745543931,1508.7511438587687 249.66073258116668,1526.6609570528917 234.5491906079403,1544.570770247015 C212.31062578528787,1544.570770247015 190.07208480449373,1544.570770247015 167.83351998184133,1544.570770247015 C167.83351998184133,1531.1928174719842 167.83351998184133,1517.8149600643867 167.83351998184133,1504.4370072893562 Z "/>
<path style="fill:none;stroke:#000000;stroke-width:1px;stroke-linecap:butt;stroke-linejoin:miter;stroke-opacity:1" d="M384.3122226533498,3445.2602097328245 C394.86644110285624,3445.2602097328245 405.4206595523627,3445.2602097328245 415.9748780018691,3445.2602097328245 C415.9748780018691,3429.915875855494 415.9748780018691,3414.571637345597 415.9748780018691,3399.2273034682676 C504.1641116653868,3399.2273034682676 592.35333936844,3399.2273034682676 680.5425730319578,3399.2273034682676 C680.5425730319578,3414.571637345597 680.5425730319578,3429.915875855494 680.5425730319578,3445.2602097328245 C691.0967914814642,3445.2602097328245 701.6510099309705,3445.2602097328245 712.205228380477,3445.2602097328245 C712.205228380477,3516.0895069003236 712.205228380477,3586.9187087003897 712.205228380477,3657.7480058678893 C701.6460985081679,3657.7480058678893 691.0869447940006,3657.7480058678893 680.5278149216914,3657.7480058678893 C680.5278149216914,3667.7765590263593 680.5278149216914,3677.805207552263 680.5278149216914,3687.8337607107333 C592.3484160247082,3687.8337607107333 504.16902904865407,3687.8337607107333 415.98963611213543,3687.8337607107333 C415.98963611213543,3677.805207552263 415.98963611213543,3667.7765590263593 415.98963611213543,3657.7480058678893 C405.43050027936175,3657.7480058678893 394.8713584861235,3657.7480058678893 384.3122226533498,3657.7480058678893 C384.3122226533498,3586.9187087003897 384.3122226533498,3516.0895069003236 384.3122226533498,3445.2602097328245 Z "/>
<path style="fill:none;stroke:#000000;stroke-width:1px;stroke-linecap:butt;stroke-linejoin:miter;stroke-opacity:1" d="M435.56074999019353,3487.1616080622816 C439.4366374419002,3474.6136380571875 449.4333259567987,3473.352403754946 458.8170581770868,3476.6856862753193 C505.73572523899185,3493.352194244617 474.06134267643824,3567.1115604255037 517.6763119838455,3594.0285415700064 C537.9974072764301,3606.5697404873536 558.520025876003,3606.5697404873536 578.8411211685876,3594.0285415700064 C622.4560934562271,3567.1115604255037 590.7817079134413,3493.352194244617 637.7003868962754,3476.6856862753193 C647.0841250770281,3473.352403754946 657.0808255128559,3474.6136380571875 660.9567010436333,3487.1616080622816 C671.6771806917537,3521.8686779764303 672.5102271404769,3556.856414246079 656.9808566011488,3596.7557640532723 C650.6382070467971,3613.051864912558 642.90916535524,3621.834633292943 627.9178697941752,3630.8375097088347 C600.6165102107176,3647.233078800804 580.1049065496632,3648.393605093732 548.2587225366811,3648.393605093732 C516.4125444841637,3648.393605093732 495.9009318824124,3647.233078800804 468.59957527918704,3630.8375097088347 C453.60828567858687,3621.834633292943 445.8792410067974,3613.051864912558 439.536594432678,3596.7557640532723 C424.0072179328854,3556.856414246079 424.8402345792857,3521.8686779764303 435.56074999019353,3487.1616080622816 Z "/>
<path style="fill:none;stroke:#000000;stroke-width:1px;stroke-linecap:butt;stroke-linejoin:miter;stroke-opacity:1" d="M538.109732231183,3516.625281139264 C538.109732231183,3530.252429016885 538.109732231183,3543.879576894506 538.109732231183,3557.506724772127 C540.0989001895197,3557.506724772127 542.0880681478562,3557.506724772127 544.0772361061928,3557.506724772127 C544.1537207875083,3560.860320555742 544.802672327635,3565.3092113080706 548.2587225366811,3565.3092113080706 C551.7147727457273,3565.3092113080706 552.363724285854,3560.860320555742 552.4402089671695,3557.506724772127 C554.4293769255061,3557.506724772127 556.4185448838426,3557.506724772127 558.4077128421792,3557.506724772127 C558.4077128421792,3543.879576894506 558.4077128421792,3530.252429016885 558.4077128421792,3516.625281139264 C552.3510463777213,3516.625281139264 544.166398695641,3516.625281139264 538.109732231183,3516.625281139264 Z "/>
<path style="fill:none;stroke:#000000;stroke-width:1px;stroke-linecap:butt;stroke-linejoin:miter;stroke-opacity:1" d="M272.25420730595823,3535.5821333809718 C272.25420730595823,3606.4116212833374 272.25420730595823,3677.241204553136 272.25420730595823,3748.0706924555016 C267.8510690796408,3748.0706924555016 263.4479308533234,3748.0706924555016 259.0447926270059,3748.0706924555016 C259.0447926270059,3677.241204553136 259.0447926270059,3606.4116212833374 259.0447926270059,3535.5821333809718 C263.4479308533234,3535.5821333809718 267.8510690796408,3535.5821333809718 272.25420730595823,3535.5821333809718 Z "/>
<path style="fill:none;stroke:#000000;stroke-width:1px;stroke-linecap:butt;stroke-linejoin:miter;stroke-opacity:1" d="M224.0045804273148,3528.1682691347546 C224.0045804273148,3598.99775703712 224.0045804273148,3669.8273403069184 224.0045804273148,3740.656828209284 C219.60144220099738,3740.656828209284 215.19830397467996,3740.656828209284 210.79516574836248,3740.656828209284 C210.79516574836248,3669.8273403069184 210.79516574836248,3598.99775703712 210.79516574836248,3528.1682691347546 C215.19830397467996,3528.1682691347546 219.60144220099738,3528.1682691347546 224.0045804273148,3528.1682691347546 Z "/>
<path style="fill:none;stroke:#000000;stroke-width:1px;stroke-linecap:butt;stroke-linejoin:miter;stroke-opacity:1" d="M100.38154124693119,3661.9503718057535 C100.38154124693119,3681.7980512396907 100.38154124693119,3701.6456353061944 100.38154124693119,3721.4933147401316 C112.50689047241275,3721.4933147401316 124.63221585603605,3721.4933147401316 136.75756508151767,3721.4933147401316 C136.75756508151767,3701.6456353061944 136.75756508151767,3681.7980512396907 136.75756508151767,3661.9503718057535 C124.63221585603605,3661.9503718057535 112.50689047241275,3661.9503718057535 100.38154124693119,3661.9503718057535 Z "/>
<path style="fill:none;stroke:#000000;stroke-width:1px;stroke-linecap:butt;stroke-linejoin:miter;stroke-opacity:1" d="M108.24289333093236,3669.8924762637 C108.24289333093236,3683.7816938473743 108.24289333093236,3697.670911431049 108.24289333093236,3711.560129014723 C115.11132738561156,3711.560129014723 121.97978528214901,3711.560129014723 128.84821933682815,3711.560129014723 C128.84821933682815,3697.670911431049 128.84821933682815,3683.7816938473743 128.84821933682815,3669.8924762637 C121.97978528214901,3669.8924762637 115.11132738561156,3669.8924762637 108.24289333093236,3669.8924762637 Z "/>
</svg>